%TF.GenerationSoftware,KiCad,Pcbnew,7.0.2*%
%TF.CreationDate,2023-05-19T22:23:46+01:00*%
%TF.ProjectId,pcb-stylophone_to_make,7063622d-7374-4796-9c6f-70686f6e655f,rev?*%
%TF.SameCoordinates,Original*%
%TF.FileFunction,Copper,L2,Bot*%
%TF.FilePolarity,Positive*%
%FSLAX46Y46*%
G04 Gerber Fmt 4.6, Leading zero omitted, Abs format (unit mm)*
G04 Created by KiCad (PCBNEW 7.0.2) date 2023-05-19 22:23:46*
%MOMM*%
%LPD*%
G01*
G04 APERTURE LIST*
%TA.AperFunction,ComponentPad*%
%ADD10R,1.600000X1.600000*%
%TD*%
%TA.AperFunction,ComponentPad*%
%ADD11O,1.600000X1.600000*%
%TD*%
%TA.AperFunction,ComponentPad*%
%ADD12C,1.600000*%
%TD*%
%TA.AperFunction,ComponentPad*%
%ADD13R,2.000000X2.000000*%
%TD*%
%TA.AperFunction,ComponentPad*%
%ADD14C,2.000000*%
%TD*%
%TA.AperFunction,ComponentPad*%
%ADD15C,2.500000*%
%TD*%
%TA.AperFunction,ComponentPad*%
%ADD16R,1.700000X1.700000*%
%TD*%
%TA.AperFunction,ComponentPad*%
%ADD17O,1.700000X1.700000*%
%TD*%
%TA.AperFunction,ViaPad*%
%ADD18C,0.800000*%
%TD*%
%TA.AperFunction,Conductor*%
%ADD19C,1.000000*%
%TD*%
G04 APERTURE END LIST*
D10*
%TO.P,U1,1,GND*%
%TO.N,GND*%
X154800000Y-105380000D03*
D11*
%TO.P,U1,2,TR*%
%TO.N,Net-(J22-Pin_1)*%
X152260000Y-105380000D03*
%TO.P,U1,3,Q*%
%TO.N,Net-(U1-Q)*%
X149720000Y-105380000D03*
%TO.P,U1,4,R*%
%TO.N,VCC*%
X147180000Y-105380000D03*
%TO.P,U1,5,CV*%
%TO.N,unconnected-(U1-CV-Pad5)*%
X147180000Y-113000000D03*
%TO.P,U1,6,THR*%
%TO.N,Net-(J22-Pin_1)*%
X149720000Y-113000000D03*
%TO.P,U1,7,DIS*%
%TO.N,Net-(U1-DIS)*%
X152260000Y-113000000D03*
%TO.P,U1,8,VCC*%
%TO.N,VCC*%
X154800000Y-113000000D03*
%TD*%
D12*
%TO.P,R16,1*%
%TO.N,Net-(J15-Pin_1)*%
X119000000Y-116690000D03*
D11*
%TO.P,R16,2*%
%TO.N,Net-(J16-Pin_1)*%
X119000000Y-124310000D03*
%TD*%
D12*
%TO.P,R2,1*%
%TO.N,Net-(U1-DIS)*%
X161000000Y-116690000D03*
D11*
%TO.P,R2,2*%
%TO.N,Net-(J2-Pin_1)*%
X161000000Y-124310000D03*
%TD*%
D13*
%TO.P,LS1,1,1*%
%TO.N,Net-(U1-Q)*%
X132500000Y-102500000D03*
D14*
%TO.P,LS1,2,2*%
%TO.N,GND*%
X132500000Y-112500000D03*
%TD*%
D12*
%TO.P,R18,1*%
%TO.N,Net-(J17-Pin_1)*%
X113000000Y-116690000D03*
D11*
%TO.P,R18,2*%
%TO.N,Net-(J18-Pin_1)*%
X113000000Y-124310000D03*
%TD*%
D12*
%TO.P,R17,1*%
%TO.N,Net-(J16-Pin_1)*%
X116000000Y-116690000D03*
D11*
%TO.P,R17,2*%
%TO.N,Net-(J17-Pin_1)*%
X116000000Y-124310000D03*
%TD*%
D12*
%TO.P,R20,1*%
%TO.N,Net-(J19-Pin_1)*%
X107000000Y-116690000D03*
D11*
%TO.P,R20,2*%
%TO.N,Net-(J20-Pin_1)*%
X107000000Y-124310000D03*
%TD*%
D12*
%TO.P,R13,1*%
%TO.N,Net-(J12-Pin_1)*%
X128000000Y-116690000D03*
D11*
%TO.P,R13,2*%
%TO.N,Net-(J13-Pin_1)*%
X128000000Y-124310000D03*
%TD*%
D15*
%TO.P,J22,1,Pin_1*%
%TO.N,Net-(J22-Pin_1)*%
X162500000Y-111000000D03*
%TD*%
D12*
%TO.P,C2,1*%
%TO.N,Net-(J22-Pin_1)*%
X152500000Y-102500000D03*
%TO.P,C2,2*%
%TO.N,GND*%
X157500000Y-102500000D03*
%TD*%
%TO.P,R11,1*%
%TO.N,Net-(J10-Pin_1)*%
X134000000Y-116690000D03*
D11*
%TO.P,R11,2*%
%TO.N,Net-(J11-Pin_1)*%
X134000000Y-124310000D03*
%TD*%
D16*
%TO.P,J1,1,Pin_1*%
%TO.N,VCC*%
X162500000Y-105275000D03*
D17*
%TO.P,J1,2,Pin_2*%
%TO.N,GND*%
X162500000Y-102735000D03*
%TD*%
D12*
%TO.P,R10,1*%
%TO.N,Net-(J9-Pin_1)*%
X137000000Y-116690000D03*
D11*
%TO.P,R10,2*%
%TO.N,Net-(J10-Pin_1)*%
X137000000Y-124310000D03*
%TD*%
D12*
%TO.P,R8,1*%
%TO.N,Net-(J7-Pin_1)*%
X143000000Y-116690000D03*
D11*
%TO.P,R8,2*%
%TO.N,Net-(J8-Pin_1)*%
X143000000Y-124310000D03*
%TD*%
D12*
%TO.P,R12,1*%
%TO.N,Net-(J11-Pin_1)*%
X131000000Y-116690000D03*
D11*
%TO.P,R12,2*%
%TO.N,Net-(J12-Pin_1)*%
X131000000Y-124310000D03*
%TD*%
D12*
%TO.P,R1,1*%
%TO.N,Net-(U1-DIS)*%
X144000000Y-112990000D03*
D11*
%TO.P,R1,2*%
%TO.N,VCC*%
X144000000Y-105370000D03*
%TD*%
D12*
%TO.P,R15,1*%
%TO.N,Net-(J14-Pin_1)*%
X122000000Y-116690000D03*
D11*
%TO.P,R15,2*%
%TO.N,Net-(J15-Pin_1)*%
X122000000Y-124310000D03*
%TD*%
D12*
%TO.P,R6,1*%
%TO.N,Net-(J5-Pin_1)*%
X149000000Y-116690000D03*
D11*
%TO.P,R6,2*%
%TO.N,Net-(J6-Pin_1)*%
X149000000Y-124310000D03*
%TD*%
D12*
%TO.P,C1,1*%
%TO.N,VCC*%
X158000000Y-111500000D03*
%TO.P,C1,2*%
%TO.N,GND*%
X158000000Y-106500000D03*
%TD*%
%TO.P,R19,1*%
%TO.N,Net-(J18-Pin_1)*%
X110000000Y-116690000D03*
D11*
%TO.P,R19,2*%
%TO.N,Net-(J19-Pin_1)*%
X110000000Y-124310000D03*
%TD*%
D12*
%TO.P,R3,1*%
%TO.N,Net-(J2-Pin_1)*%
X158000000Y-116690000D03*
D11*
%TO.P,R3,2*%
%TO.N,Net-(J3-Pin_1)*%
X158000000Y-124310000D03*
%TD*%
D12*
%TO.P,R4,1*%
%TO.N,Net-(J3-Pin_1)*%
X155000000Y-116690000D03*
D11*
%TO.P,R4,2*%
%TO.N,Net-(J4-Pin_1)*%
X155000000Y-124310000D03*
%TD*%
D12*
%TO.P,R21,1*%
%TO.N,Net-(J20-Pin_1)*%
X104000000Y-116690000D03*
D11*
%TO.P,R21,2*%
%TO.N,Net-(J21-Pin_1)*%
X104000000Y-124310000D03*
%TD*%
D12*
%TO.P,R7,1*%
%TO.N,Net-(J6-Pin_1)*%
X146000000Y-116690000D03*
D11*
%TO.P,R7,2*%
%TO.N,Net-(J7-Pin_1)*%
X146000000Y-124310000D03*
%TD*%
D12*
%TO.P,R9,1*%
%TO.N,Net-(J8-Pin_1)*%
X140000000Y-116690000D03*
D11*
%TO.P,R9,2*%
%TO.N,Net-(J9-Pin_1)*%
X140000000Y-124310000D03*
%TD*%
D12*
%TO.P,R5,1*%
%TO.N,Net-(J4-Pin_1)*%
X152000000Y-116690000D03*
D11*
%TO.P,R5,2*%
%TO.N,Net-(J5-Pin_1)*%
X152000000Y-124310000D03*
%TD*%
D12*
%TO.P,R14,1*%
%TO.N,Net-(J13-Pin_1)*%
X125000000Y-116690000D03*
D11*
%TO.P,R14,2*%
%TO.N,Net-(J14-Pin_1)*%
X125000000Y-124310000D03*
%TD*%
D18*
%TO.N,GND*%
X147500000Y-144000000D03*
X153500000Y-119500000D03*
X164000000Y-135000000D03*
X164000000Y-120000000D03*
X127500000Y-144000000D03*
X141400000Y-115000000D03*
X150500000Y-119500000D03*
X147200000Y-110100000D03*
X101000000Y-135000000D03*
X101000000Y-117000000D03*
X112500000Y-144000000D03*
X147500000Y-119500000D03*
X156500000Y-119500000D03*
X125000000Y-115000000D03*
%TO.N,Net-(J4-Pin_1)*%
X153250000Y-143250000D03*
%TO.N,Net-(J9-Pin_1)*%
X138500000Y-143300000D03*
%TO.N,Net-(J11-Pin_1)*%
X133250000Y-143250000D03*
%TO.N,Net-(J16-Pin_1)*%
X118250000Y-143250000D03*
%TD*%
D19*
%TO.N,Net-(J22-Pin_1)*%
X152260000Y-108360000D02*
X152260000Y-105380000D01*
X162500000Y-111000000D02*
X160300000Y-108800000D01*
X149720000Y-113000000D02*
X149720000Y-111780000D01*
X152260000Y-105380000D02*
X152260000Y-102740000D01*
X152700000Y-108800000D02*
X152260000Y-108360000D01*
X152260000Y-102740000D02*
X152500000Y-102500000D01*
X160300000Y-108800000D02*
X152700000Y-108800000D01*
X149720000Y-111780000D02*
X152700000Y-108800000D01*
%TO.N,Net-(J4-Pin_1)*%
X153250000Y-143250000D02*
X155000000Y-141500000D01*
X155000000Y-141500000D02*
X155000000Y-124310000D01*
%TO.N,Net-(J9-Pin_1)*%
X138500000Y-143300000D02*
X140000000Y-141800000D01*
X140000000Y-141800000D02*
X140000000Y-124310000D01*
%TO.N,Net-(J11-Pin_1)*%
X133250000Y-143250000D02*
X135000000Y-141500000D01*
X135000000Y-141500000D02*
X135000000Y-125310000D01*
X135000000Y-125310000D02*
X134000000Y-124310000D01*
%TO.N,Net-(J16-Pin_1)*%
X120000000Y-141500000D02*
X120000000Y-125310000D01*
X120000000Y-125310000D02*
X119000000Y-124310000D01*
X118250000Y-143250000D02*
X120000000Y-141500000D01*
%TD*%
%TA.AperFunction,Conductor*%
%TO.N,GND*%
G36*
X163503522Y-100000751D02*
G01*
X163569723Y-100005486D01*
X163714135Y-100016852D01*
X163727402Y-100018808D01*
X163818855Y-100038702D01*
X163820711Y-100039128D01*
X163934030Y-100066334D01*
X163945517Y-100069840D01*
X164038107Y-100104375D01*
X164041361Y-100105655D01*
X164144028Y-100148181D01*
X164153581Y-100152752D01*
X164242122Y-100201099D01*
X164246374Y-100203559D01*
X164339434Y-100260587D01*
X164347014Y-100265731D01*
X164387073Y-100295719D01*
X164428477Y-100326714D01*
X164433443Y-100330687D01*
X164515823Y-100401046D01*
X164521532Y-100406322D01*
X164593676Y-100478466D01*
X164598952Y-100484175D01*
X164669311Y-100566555D01*
X164673284Y-100571521D01*
X164734260Y-100652974D01*
X164739418Y-100660575D01*
X164796425Y-100753601D01*
X164798904Y-100757884D01*
X164847246Y-100846417D01*
X164851820Y-100855977D01*
X164894336Y-100958621D01*
X164895630Y-100961908D01*
X164930159Y-101054482D01*
X164933663Y-101065959D01*
X164960855Y-101179221D01*
X164961317Y-101181239D01*
X164981189Y-101272594D01*
X164983146Y-101285869D01*
X164994516Y-101430325D01*
X164999248Y-101496479D01*
X164999500Y-101503539D01*
X164999500Y-143496458D01*
X164999248Y-143503522D01*
X164994516Y-143569674D01*
X164983146Y-143714131D01*
X164981189Y-143727404D01*
X164961319Y-143818751D01*
X164960845Y-143820820D01*
X164933664Y-143934030D01*
X164930158Y-143945515D01*
X164895630Y-144038089D01*
X164894336Y-144041377D01*
X164851820Y-144144021D01*
X164847246Y-144153581D01*
X164798904Y-144242114D01*
X164796425Y-144246397D01*
X164739418Y-144339423D01*
X164734260Y-144347024D01*
X164673284Y-144428477D01*
X164669311Y-144433443D01*
X164598952Y-144515823D01*
X164593676Y-144521532D01*
X164521532Y-144593676D01*
X164515823Y-144598952D01*
X164433443Y-144669311D01*
X164428477Y-144673284D01*
X164347024Y-144734260D01*
X164339423Y-144739418D01*
X164246397Y-144796425D01*
X164242114Y-144798904D01*
X164153581Y-144847246D01*
X164144021Y-144851820D01*
X164041377Y-144894336D01*
X164038089Y-144895630D01*
X163945515Y-144930158D01*
X163934030Y-144933664D01*
X163820820Y-144960845D01*
X163818751Y-144961319D01*
X163727404Y-144981189D01*
X163714129Y-144983146D01*
X163569674Y-144994516D01*
X163503521Y-144999248D01*
X163496461Y-144999500D01*
X101503541Y-144999500D01*
X101496477Y-144999248D01*
X101430325Y-144994516D01*
X101285867Y-144983146D01*
X101272594Y-144981189D01*
X101181247Y-144961319D01*
X101179178Y-144960845D01*
X101065968Y-144933664D01*
X101054483Y-144930158D01*
X100961909Y-144895630D01*
X100958621Y-144894336D01*
X100855977Y-144851820D01*
X100846417Y-144847246D01*
X100757884Y-144798904D01*
X100753601Y-144796425D01*
X100660575Y-144739418D01*
X100652974Y-144734260D01*
X100571521Y-144673284D01*
X100566555Y-144669311D01*
X100484175Y-144598952D01*
X100478466Y-144593676D01*
X100406322Y-144521532D01*
X100401046Y-144515823D01*
X100330687Y-144433443D01*
X100326714Y-144428477D01*
X100306529Y-144401513D01*
X100265731Y-144347014D01*
X100260587Y-144339434D01*
X100203559Y-144246374D01*
X100201094Y-144242114D01*
X100152752Y-144153581D01*
X100148178Y-144144021D01*
X100105662Y-144041377D01*
X100104368Y-144038089D01*
X100069840Y-143945515D01*
X100066334Y-143934030D01*
X100063853Y-143923696D01*
X100039128Y-143820711D01*
X100038702Y-143818855D01*
X100018808Y-143727402D01*
X100016852Y-143714129D01*
X100005483Y-143569674D01*
X100003332Y-143539604D01*
X100000752Y-143503522D01*
X100000500Y-143496463D01*
X100000500Y-143207393D01*
X117545641Y-143207393D01*
X117555913Y-143377195D01*
X117595278Y-143503522D01*
X117606522Y-143539606D01*
X117694528Y-143685185D01*
X117814815Y-143805472D01*
X117960394Y-143893478D01*
X118053396Y-143922458D01*
X118122804Y-143944086D01*
X118292606Y-143954358D01*
X118459928Y-143923696D01*
X118459929Y-143923695D01*
X118459932Y-143923695D01*
X118615057Y-143853878D01*
X118715367Y-143775290D01*
X119283263Y-143207393D01*
X132545641Y-143207393D01*
X132555913Y-143377195D01*
X132595278Y-143503522D01*
X132606522Y-143539606D01*
X132694528Y-143685185D01*
X132814815Y-143805472D01*
X132960394Y-143893478D01*
X133053396Y-143922458D01*
X133122804Y-143944086D01*
X133292606Y-143954358D01*
X133459928Y-143923696D01*
X133459929Y-143923695D01*
X133459932Y-143923695D01*
X133615057Y-143853878D01*
X133715367Y-143775290D01*
X134233263Y-143257393D01*
X137795641Y-143257393D01*
X137805913Y-143427195D01*
X137850311Y-143569674D01*
X137856522Y-143589606D01*
X137944528Y-143735185D01*
X138064815Y-143855472D01*
X138210394Y-143943478D01*
X138307366Y-143973695D01*
X138372804Y-143994086D01*
X138542606Y-144004358D01*
X138709928Y-143973696D01*
X138709929Y-143973695D01*
X138709932Y-143973695D01*
X138865057Y-143903878D01*
X138965367Y-143825290D01*
X139583263Y-143207393D01*
X152545641Y-143207393D01*
X152555913Y-143377195D01*
X152595278Y-143503522D01*
X152606522Y-143539606D01*
X152694528Y-143685185D01*
X152814815Y-143805472D01*
X152960394Y-143893478D01*
X153053396Y-143922458D01*
X153122804Y-143944086D01*
X153292606Y-143954358D01*
X153459928Y-143923696D01*
X153459929Y-143923695D01*
X153459932Y-143923695D01*
X153615057Y-143853878D01*
X153715367Y-143775290D01*
X155478278Y-142012377D01*
X155482580Y-142008328D01*
X155528183Y-141967929D01*
X155562797Y-141917780D01*
X155566310Y-141913007D01*
X155603878Y-141865056D01*
X155608967Y-141853746D01*
X155617770Y-141838139D01*
X155624818Y-141827930D01*
X155646409Y-141770996D01*
X155648699Y-141765469D01*
X155673694Y-141709933D01*
X155673693Y-141709933D01*
X155673695Y-141709931D01*
X155675931Y-141697724D01*
X155680742Y-141680466D01*
X155685140Y-141668872D01*
X155692479Y-141608422D01*
X155693378Y-141602518D01*
X155704358Y-141542604D01*
X155700681Y-141481822D01*
X155700500Y-141475844D01*
X155700500Y-125068958D01*
X155719407Y-125010767D01*
X155722972Y-125006153D01*
X155761702Y-124958960D01*
X155835910Y-124868538D01*
X155928814Y-124694727D01*
X155986024Y-124506132D01*
X156005341Y-124310000D01*
X156994658Y-124310000D01*
X157013975Y-124506130D01*
X157071185Y-124694727D01*
X157164088Y-124868536D01*
X157164090Y-124868538D01*
X157289117Y-125020883D01*
X157385605Y-125100069D01*
X157441463Y-125145911D01*
X157615272Y-125238814D01*
X157709488Y-125267394D01*
X157803868Y-125296024D01*
X158000000Y-125315341D01*
X158196132Y-125296024D01*
X158384727Y-125238814D01*
X158558538Y-125145910D01*
X158710883Y-125020883D01*
X158835910Y-124868538D01*
X158928814Y-124694727D01*
X158986024Y-124506132D01*
X159005341Y-124310000D01*
X159994658Y-124310000D01*
X160013975Y-124506130D01*
X160071185Y-124694727D01*
X160164088Y-124868536D01*
X160164090Y-124868538D01*
X160289117Y-125020883D01*
X160385605Y-125100069D01*
X160441463Y-125145911D01*
X160615272Y-125238814D01*
X160709488Y-125267394D01*
X160803868Y-125296024D01*
X160901933Y-125305682D01*
X160999999Y-125315341D01*
X160999999Y-125315340D01*
X161000000Y-125315341D01*
X161196132Y-125296024D01*
X161384727Y-125238814D01*
X161558538Y-125145910D01*
X161710883Y-125020883D01*
X161835910Y-124868538D01*
X161928814Y-124694727D01*
X161986024Y-124506132D01*
X162005341Y-124310000D01*
X161986024Y-124113868D01*
X161928814Y-123925273D01*
X161928814Y-123925272D01*
X161835911Y-123751463D01*
X161816900Y-123728298D01*
X161710883Y-123599117D01*
X161558538Y-123474090D01*
X161558539Y-123474090D01*
X161558536Y-123474088D01*
X161384727Y-123381185D01*
X161196130Y-123323975D01*
X160999999Y-123304658D01*
X160803869Y-123323975D01*
X160615272Y-123381185D01*
X160441463Y-123474088D01*
X160289117Y-123599117D01*
X160164088Y-123751463D01*
X160071185Y-123925272D01*
X160013975Y-124113869D01*
X159994658Y-124310000D01*
X159005341Y-124310000D01*
X158986024Y-124113868D01*
X158928814Y-123925273D01*
X158928814Y-123925272D01*
X158835911Y-123751463D01*
X158816900Y-123728298D01*
X158710883Y-123599117D01*
X158558538Y-123474090D01*
X158558539Y-123474090D01*
X158558536Y-123474088D01*
X158384727Y-123381185D01*
X158196130Y-123323975D01*
X158000000Y-123304658D01*
X157803869Y-123323975D01*
X157615272Y-123381185D01*
X157441463Y-123474088D01*
X157289117Y-123599117D01*
X157164088Y-123751463D01*
X157071185Y-123925272D01*
X157013975Y-124113869D01*
X156994658Y-124310000D01*
X156005341Y-124310000D01*
X155986024Y-124113868D01*
X155928814Y-123925273D01*
X155928814Y-123925272D01*
X155835911Y-123751463D01*
X155816900Y-123728298D01*
X155710883Y-123599117D01*
X155558538Y-123474090D01*
X155558539Y-123474090D01*
X155558536Y-123474088D01*
X155384727Y-123381185D01*
X155196130Y-123323975D01*
X155000000Y-123304658D01*
X154803869Y-123323975D01*
X154615272Y-123381185D01*
X154441463Y-123474088D01*
X154289117Y-123599117D01*
X154164088Y-123751463D01*
X154071185Y-123925272D01*
X154013975Y-124113869D01*
X153994658Y-124310000D01*
X154013975Y-124506130D01*
X154071185Y-124694727D01*
X154164088Y-124868536D01*
X154277028Y-125006153D01*
X154299328Y-125063129D01*
X154299500Y-125068958D01*
X154299500Y-141168835D01*
X154280593Y-141227026D01*
X154270504Y-141238839D01*
X152726819Y-142782523D01*
X152726811Y-142782531D01*
X152724710Y-142784633D01*
X152722871Y-142786979D01*
X152722865Y-142786987D01*
X152646123Y-142884940D01*
X152576303Y-143040071D01*
X152545641Y-143207393D01*
X139583263Y-143207393D01*
X140478277Y-142312378D01*
X140482598Y-142308312D01*
X140528183Y-142267929D01*
X140562782Y-142217802D01*
X140566323Y-142212990D01*
X140603877Y-142165057D01*
X140608965Y-142153749D01*
X140617767Y-142138143D01*
X140624818Y-142127930D01*
X140646416Y-142070976D01*
X140648701Y-142065461D01*
X140673694Y-142009932D01*
X140675929Y-141997731D01*
X140680742Y-141980468D01*
X140685140Y-141968871D01*
X140691639Y-141915345D01*
X140692483Y-141908393D01*
X140693373Y-141902538D01*
X140704357Y-141842606D01*
X140704086Y-141838133D01*
X140700681Y-141781834D01*
X140700500Y-141775856D01*
X140700500Y-125068958D01*
X140719407Y-125010767D01*
X140722972Y-125006153D01*
X140761702Y-124958960D01*
X140835910Y-124868538D01*
X140928814Y-124694727D01*
X140986024Y-124506132D01*
X141005341Y-124310000D01*
X141994658Y-124310000D01*
X142013975Y-124506130D01*
X142071185Y-124694727D01*
X142164088Y-124868536D01*
X142164090Y-124868538D01*
X142289117Y-125020883D01*
X142385605Y-125100069D01*
X142441463Y-125145911D01*
X142615272Y-125238814D01*
X142709488Y-125267394D01*
X142803868Y-125296024D01*
X143000000Y-125315341D01*
X143196132Y-125296024D01*
X143384727Y-125238814D01*
X143558538Y-125145910D01*
X143710883Y-125020883D01*
X143835910Y-124868538D01*
X143928814Y-124694727D01*
X143986024Y-124506132D01*
X144005341Y-124310000D01*
X144994658Y-124310000D01*
X145013975Y-124506130D01*
X145071185Y-124694727D01*
X145164088Y-124868536D01*
X145164090Y-124868538D01*
X145289117Y-125020883D01*
X145385605Y-125100069D01*
X145441463Y-125145911D01*
X145615272Y-125238814D01*
X145709488Y-125267394D01*
X145803868Y-125296024D01*
X146000000Y-125315341D01*
X146196132Y-125296024D01*
X146384727Y-125238814D01*
X146558538Y-125145910D01*
X146710883Y-125020883D01*
X146835910Y-124868538D01*
X146928814Y-124694727D01*
X146986024Y-124506132D01*
X147005341Y-124310000D01*
X147994658Y-124310000D01*
X148013975Y-124506130D01*
X148071185Y-124694727D01*
X148164088Y-124868536D01*
X148164090Y-124868538D01*
X148289117Y-125020883D01*
X148385605Y-125100069D01*
X148441463Y-125145911D01*
X148615272Y-125238814D01*
X148709488Y-125267394D01*
X148803868Y-125296024D01*
X148901933Y-125305682D01*
X148999999Y-125315341D01*
X148999999Y-125315340D01*
X149000000Y-125315341D01*
X149196132Y-125296024D01*
X149384727Y-125238814D01*
X149558538Y-125145910D01*
X149710883Y-125020883D01*
X149835910Y-124868538D01*
X149928814Y-124694727D01*
X149986024Y-124506132D01*
X150005341Y-124310000D01*
X150994658Y-124310000D01*
X151013975Y-124506130D01*
X151071185Y-124694727D01*
X151164088Y-124868536D01*
X151164090Y-124868538D01*
X151289117Y-125020883D01*
X151385605Y-125100069D01*
X151441463Y-125145911D01*
X151615272Y-125238814D01*
X151709488Y-125267394D01*
X151803868Y-125296024D01*
X152000000Y-125315341D01*
X152196132Y-125296024D01*
X152384727Y-125238814D01*
X152558538Y-125145910D01*
X152710883Y-125020883D01*
X152835910Y-124868538D01*
X152928814Y-124694727D01*
X152986024Y-124506132D01*
X153005341Y-124310000D01*
X152986024Y-124113868D01*
X152928814Y-123925273D01*
X152928814Y-123925272D01*
X152835911Y-123751463D01*
X152816900Y-123728298D01*
X152710883Y-123599117D01*
X152558538Y-123474090D01*
X152558539Y-123474090D01*
X152558536Y-123474088D01*
X152384727Y-123381185D01*
X152196130Y-123323975D01*
X152000000Y-123304658D01*
X151803869Y-123323975D01*
X151615272Y-123381185D01*
X151441463Y-123474088D01*
X151289117Y-123599117D01*
X151164088Y-123751463D01*
X151071185Y-123925272D01*
X151013975Y-124113869D01*
X150994658Y-124310000D01*
X150005341Y-124310000D01*
X149986024Y-124113868D01*
X149928814Y-123925273D01*
X149928814Y-123925272D01*
X149835911Y-123751463D01*
X149816900Y-123728298D01*
X149710883Y-123599117D01*
X149558538Y-123474090D01*
X149558539Y-123474090D01*
X149558536Y-123474088D01*
X149384727Y-123381185D01*
X149196130Y-123323975D01*
X148999999Y-123304658D01*
X148803869Y-123323975D01*
X148615272Y-123381185D01*
X148441463Y-123474088D01*
X148289117Y-123599117D01*
X148164088Y-123751463D01*
X148071185Y-123925272D01*
X148013975Y-124113869D01*
X147994658Y-124310000D01*
X147005341Y-124310000D01*
X146986024Y-124113868D01*
X146928814Y-123925273D01*
X146928814Y-123925272D01*
X146835911Y-123751463D01*
X146816900Y-123728298D01*
X146710883Y-123599117D01*
X146558538Y-123474090D01*
X146558539Y-123474090D01*
X146558536Y-123474088D01*
X146384727Y-123381185D01*
X146196130Y-123323975D01*
X146000000Y-123304658D01*
X145803869Y-123323975D01*
X145615272Y-123381185D01*
X145441463Y-123474088D01*
X145289117Y-123599117D01*
X145164088Y-123751463D01*
X145071185Y-123925272D01*
X145013975Y-124113869D01*
X144994658Y-124310000D01*
X144005341Y-124310000D01*
X143986024Y-124113868D01*
X143928814Y-123925273D01*
X143928814Y-123925272D01*
X143835911Y-123751463D01*
X143816900Y-123728298D01*
X143710883Y-123599117D01*
X143558538Y-123474090D01*
X143558539Y-123474090D01*
X143558536Y-123474088D01*
X143384727Y-123381185D01*
X143196130Y-123323975D01*
X143000000Y-123304658D01*
X142803869Y-123323975D01*
X142615272Y-123381185D01*
X142441463Y-123474088D01*
X142289117Y-123599117D01*
X142164088Y-123751463D01*
X142071185Y-123925272D01*
X142013975Y-124113869D01*
X141994658Y-124310000D01*
X141005341Y-124310000D01*
X140986024Y-124113868D01*
X140928814Y-123925273D01*
X140928814Y-123925272D01*
X140835911Y-123751463D01*
X140816900Y-123728298D01*
X140710883Y-123599117D01*
X140558538Y-123474090D01*
X140558539Y-123474090D01*
X140558536Y-123474088D01*
X140384727Y-123381185D01*
X140196130Y-123323975D01*
X140000000Y-123304658D01*
X139803869Y-123323975D01*
X139615272Y-123381185D01*
X139441463Y-123474088D01*
X139289117Y-123599117D01*
X139164088Y-123751463D01*
X139071185Y-123925272D01*
X139013975Y-124113869D01*
X138994658Y-124310000D01*
X139013975Y-124506130D01*
X139071185Y-124694727D01*
X139164088Y-124868536D01*
X139277028Y-125006153D01*
X139299328Y-125063129D01*
X139299500Y-125068958D01*
X139299500Y-141468834D01*
X139280593Y-141527025D01*
X139270504Y-141538838D01*
X137976819Y-142832523D01*
X137976811Y-142832531D01*
X137974710Y-142834633D01*
X137972871Y-142836979D01*
X137972865Y-142836987D01*
X137896123Y-142934940D01*
X137826303Y-143090071D01*
X137795641Y-143257393D01*
X134233263Y-143257393D01*
X135478278Y-142012377D01*
X135482580Y-142008328D01*
X135528183Y-141967929D01*
X135562797Y-141917780D01*
X135566310Y-141913007D01*
X135603878Y-141865056D01*
X135608967Y-141853746D01*
X135617770Y-141838139D01*
X135624818Y-141827930D01*
X135646409Y-141770996D01*
X135648699Y-141765469D01*
X135673694Y-141709933D01*
X135673693Y-141709933D01*
X135673695Y-141709931D01*
X135675931Y-141697724D01*
X135680742Y-141680466D01*
X135685140Y-141668872D01*
X135692479Y-141608422D01*
X135693378Y-141602518D01*
X135704358Y-141542604D01*
X135700681Y-141481822D01*
X135700500Y-141475844D01*
X135700500Y-125334154D01*
X135700681Y-125328176D01*
X135704358Y-125267394D01*
X135693378Y-125207481D01*
X135692478Y-125201567D01*
X135685140Y-125141128D01*
X135680745Y-125129539D01*
X135675932Y-125112277D01*
X135673695Y-125100069D01*
X135648690Y-125044512D01*
X135646408Y-125039000D01*
X135639537Y-125020883D01*
X135624818Y-124982070D01*
X135624818Y-124982069D01*
X135617770Y-124971859D01*
X135608966Y-124956250D01*
X135603878Y-124944944D01*
X135603877Y-124944943D01*
X135603876Y-124944940D01*
X135566325Y-124897011D01*
X135562787Y-124892204D01*
X135528183Y-124842071D01*
X135528180Y-124842068D01*
X135482592Y-124801680D01*
X135478237Y-124797581D01*
X135031992Y-124351335D01*
X135010931Y-124310000D01*
X135994658Y-124310000D01*
X136013975Y-124506130D01*
X136071185Y-124694727D01*
X136164088Y-124868536D01*
X136164090Y-124868538D01*
X136289117Y-125020883D01*
X136385605Y-125100069D01*
X136441463Y-125145911D01*
X136615272Y-125238814D01*
X136709488Y-125267394D01*
X136803868Y-125296024D01*
X136901933Y-125305682D01*
X136999999Y-125315341D01*
X136999999Y-125315340D01*
X137000000Y-125315341D01*
X137196132Y-125296024D01*
X137384727Y-125238814D01*
X137558538Y-125145910D01*
X137710883Y-125020883D01*
X137835910Y-124868538D01*
X137928814Y-124694727D01*
X137986024Y-124506132D01*
X138005341Y-124310000D01*
X137986024Y-124113868D01*
X137928814Y-123925273D01*
X137928814Y-123925272D01*
X137835911Y-123751463D01*
X137816900Y-123728298D01*
X137710883Y-123599117D01*
X137558538Y-123474090D01*
X137558539Y-123474090D01*
X137558536Y-123474088D01*
X137384727Y-123381185D01*
X137196130Y-123323975D01*
X136999999Y-123304658D01*
X136803869Y-123323975D01*
X136615272Y-123381185D01*
X136441463Y-123474088D01*
X136289117Y-123599117D01*
X136164088Y-123751463D01*
X136071185Y-123925272D01*
X136013975Y-124113869D01*
X135994658Y-124310000D01*
X135010931Y-124310000D01*
X135004215Y-124296819D01*
X135003473Y-124291035D01*
X134986024Y-124113869D01*
X134928814Y-123925272D01*
X134835911Y-123751463D01*
X134816900Y-123728298D01*
X134710883Y-123599117D01*
X134558538Y-123474090D01*
X134558539Y-123474090D01*
X134558536Y-123474088D01*
X134384727Y-123381185D01*
X134196130Y-123323975D01*
X134000000Y-123304658D01*
X133803869Y-123323975D01*
X133615272Y-123381185D01*
X133441463Y-123474088D01*
X133289117Y-123599117D01*
X133164088Y-123751463D01*
X133071185Y-123925272D01*
X133013975Y-124113869D01*
X132994658Y-124309999D01*
X133013975Y-124506130D01*
X133071185Y-124694727D01*
X133164088Y-124868536D01*
X133164090Y-124868538D01*
X133289117Y-125020883D01*
X133385605Y-125100069D01*
X133441463Y-125145911D01*
X133615272Y-125238814D01*
X133709488Y-125267394D01*
X133803868Y-125296024D01*
X133981035Y-125313473D01*
X134037093Y-125337992D01*
X134041320Y-125341977D01*
X134270503Y-125571159D01*
X134298280Y-125625676D01*
X134299499Y-125641163D01*
X134299500Y-141168835D01*
X134280593Y-141227026D01*
X134270504Y-141238839D01*
X132726819Y-142782523D01*
X132726811Y-142782531D01*
X132724710Y-142784633D01*
X132722871Y-142786979D01*
X132722865Y-142786987D01*
X132646123Y-142884940D01*
X132576303Y-143040071D01*
X132545641Y-143207393D01*
X119283263Y-143207393D01*
X120478278Y-142012377D01*
X120482580Y-142008328D01*
X120528183Y-141967929D01*
X120562797Y-141917780D01*
X120566310Y-141913007D01*
X120603878Y-141865056D01*
X120608967Y-141853746D01*
X120617770Y-141838139D01*
X120624818Y-141827930D01*
X120646409Y-141770996D01*
X120648699Y-141765469D01*
X120673694Y-141709933D01*
X120673693Y-141709933D01*
X120673695Y-141709931D01*
X120675931Y-141697724D01*
X120680742Y-141680466D01*
X120685140Y-141668872D01*
X120692479Y-141608422D01*
X120693378Y-141602518D01*
X120704358Y-141542604D01*
X120700681Y-141481822D01*
X120700500Y-141475844D01*
X120700500Y-125334154D01*
X120700681Y-125328176D01*
X120704358Y-125267394D01*
X120693378Y-125207481D01*
X120692478Y-125201567D01*
X120685140Y-125141128D01*
X120680745Y-125129539D01*
X120675932Y-125112277D01*
X120673695Y-125100069D01*
X120648690Y-125044512D01*
X120646408Y-125039000D01*
X120639537Y-125020883D01*
X120624818Y-124982070D01*
X120624818Y-124982069D01*
X120617770Y-124971859D01*
X120608966Y-124956250D01*
X120603878Y-124944944D01*
X120603877Y-124944943D01*
X120603876Y-124944940D01*
X120566325Y-124897011D01*
X120562787Y-124892204D01*
X120528183Y-124842071D01*
X120528180Y-124842068D01*
X120482592Y-124801680D01*
X120478237Y-124797581D01*
X120031992Y-124351335D01*
X120010931Y-124310000D01*
X120994658Y-124310000D01*
X121013975Y-124506130D01*
X121071185Y-124694727D01*
X121164088Y-124868536D01*
X121164090Y-124868538D01*
X121289117Y-125020883D01*
X121385605Y-125100069D01*
X121441463Y-125145911D01*
X121615272Y-125238814D01*
X121709488Y-125267394D01*
X121803868Y-125296024D01*
X122000000Y-125315341D01*
X122196132Y-125296024D01*
X122384727Y-125238814D01*
X122558538Y-125145910D01*
X122710883Y-125020883D01*
X122835910Y-124868538D01*
X122928814Y-124694727D01*
X122986024Y-124506132D01*
X123005341Y-124310000D01*
X123994658Y-124310000D01*
X124013975Y-124506130D01*
X124071185Y-124694727D01*
X124164088Y-124868536D01*
X124164090Y-124868538D01*
X124289117Y-125020883D01*
X124385605Y-125100069D01*
X124441463Y-125145911D01*
X124615272Y-125238814D01*
X124709488Y-125267394D01*
X124803868Y-125296024D01*
X124901933Y-125305682D01*
X124999999Y-125315341D01*
X124999999Y-125315340D01*
X125000000Y-125315341D01*
X125196132Y-125296024D01*
X125384727Y-125238814D01*
X125558538Y-125145910D01*
X125710883Y-125020883D01*
X125835910Y-124868538D01*
X125928814Y-124694727D01*
X125986024Y-124506132D01*
X126005341Y-124310000D01*
X126994658Y-124310000D01*
X127013975Y-124506130D01*
X127071185Y-124694727D01*
X127164088Y-124868536D01*
X127164090Y-124868538D01*
X127289117Y-125020883D01*
X127385605Y-125100069D01*
X127441463Y-125145911D01*
X127615272Y-125238814D01*
X127709488Y-125267394D01*
X127803868Y-125296024D01*
X128000000Y-125315341D01*
X128196132Y-125296024D01*
X128384727Y-125238814D01*
X128558538Y-125145910D01*
X128710883Y-125020883D01*
X128835910Y-124868538D01*
X128928814Y-124694727D01*
X128986024Y-124506132D01*
X129005341Y-124310000D01*
X129994658Y-124310000D01*
X130013975Y-124506130D01*
X130071185Y-124694727D01*
X130164088Y-124868536D01*
X130164090Y-124868538D01*
X130289117Y-125020883D01*
X130385605Y-125100069D01*
X130441463Y-125145911D01*
X130615272Y-125238814D01*
X130709488Y-125267394D01*
X130803868Y-125296024D01*
X131000000Y-125315341D01*
X131196132Y-125296024D01*
X131384727Y-125238814D01*
X131558538Y-125145910D01*
X131710883Y-125020883D01*
X131835910Y-124868538D01*
X131928814Y-124694727D01*
X131986024Y-124506132D01*
X132005341Y-124310000D01*
X131986024Y-124113868D01*
X131928814Y-123925273D01*
X131928814Y-123925272D01*
X131835911Y-123751463D01*
X131816900Y-123728298D01*
X131710883Y-123599117D01*
X131558538Y-123474090D01*
X131558539Y-123474090D01*
X131558536Y-123474088D01*
X131384727Y-123381185D01*
X131196130Y-123323975D01*
X131000000Y-123304658D01*
X130803869Y-123323975D01*
X130615272Y-123381185D01*
X130441463Y-123474088D01*
X130289117Y-123599117D01*
X130164088Y-123751463D01*
X130071185Y-123925272D01*
X130013975Y-124113869D01*
X129994658Y-124310000D01*
X129005341Y-124310000D01*
X128986024Y-124113868D01*
X128928814Y-123925273D01*
X128928814Y-123925272D01*
X128835911Y-123751463D01*
X128816900Y-123728298D01*
X128710883Y-123599117D01*
X128558538Y-123474090D01*
X128558539Y-123474090D01*
X128558536Y-123474088D01*
X128384727Y-123381185D01*
X128196130Y-123323975D01*
X128000000Y-123304658D01*
X127803869Y-123323975D01*
X127615272Y-123381185D01*
X127441463Y-123474088D01*
X127289117Y-123599117D01*
X127164088Y-123751463D01*
X127071185Y-123925272D01*
X127013975Y-124113869D01*
X126994658Y-124310000D01*
X126005341Y-124310000D01*
X125986024Y-124113868D01*
X125928814Y-123925273D01*
X125928814Y-123925272D01*
X125835911Y-123751463D01*
X125816900Y-123728298D01*
X125710883Y-123599117D01*
X125558538Y-123474090D01*
X125558539Y-123474090D01*
X125558536Y-123474088D01*
X125384727Y-123381185D01*
X125196130Y-123323975D01*
X124999999Y-123304658D01*
X124803869Y-123323975D01*
X124615272Y-123381185D01*
X124441463Y-123474088D01*
X124289117Y-123599117D01*
X124164088Y-123751463D01*
X124071185Y-123925272D01*
X124013975Y-124113869D01*
X123994658Y-124310000D01*
X123005341Y-124310000D01*
X122986024Y-124113868D01*
X122928814Y-123925273D01*
X122928814Y-123925272D01*
X122835911Y-123751463D01*
X122816900Y-123728298D01*
X122710883Y-123599117D01*
X122558538Y-123474090D01*
X122558539Y-123474090D01*
X122558536Y-123474088D01*
X122384727Y-123381185D01*
X122196130Y-123323975D01*
X122000000Y-123304658D01*
X121803869Y-123323975D01*
X121615272Y-123381185D01*
X121441463Y-123474088D01*
X121289117Y-123599117D01*
X121164088Y-123751463D01*
X121071185Y-123925272D01*
X121013975Y-124113869D01*
X120994658Y-124310000D01*
X120010931Y-124310000D01*
X120004215Y-124296819D01*
X120003473Y-124291035D01*
X119986024Y-124113869D01*
X119928814Y-123925272D01*
X119835911Y-123751463D01*
X119816900Y-123728298D01*
X119710883Y-123599117D01*
X119558538Y-123474090D01*
X119558539Y-123474090D01*
X119558536Y-123474088D01*
X119384727Y-123381185D01*
X119196130Y-123323975D01*
X119000000Y-123304658D01*
X118803869Y-123323975D01*
X118615272Y-123381185D01*
X118441463Y-123474088D01*
X118289117Y-123599117D01*
X118164088Y-123751463D01*
X118071185Y-123925272D01*
X118013975Y-124113869D01*
X117994658Y-124309999D01*
X118013975Y-124506130D01*
X118071185Y-124694727D01*
X118164088Y-124868536D01*
X118164090Y-124868538D01*
X118289117Y-125020883D01*
X118385605Y-125100069D01*
X118441463Y-125145911D01*
X118615272Y-125238814D01*
X118709488Y-125267394D01*
X118803868Y-125296024D01*
X118981035Y-125313473D01*
X119037093Y-125337992D01*
X119041335Y-125341992D01*
X119270503Y-125571159D01*
X119298281Y-125625676D01*
X119299500Y-125641163D01*
X119299500Y-141168834D01*
X119280593Y-141227025D01*
X119270504Y-141238838D01*
X117726819Y-142782523D01*
X117726811Y-142782531D01*
X117724710Y-142784633D01*
X117722871Y-142786979D01*
X117722865Y-142786987D01*
X117646123Y-142884940D01*
X117576303Y-143040071D01*
X117545641Y-143207393D01*
X100000500Y-143207393D01*
X100000500Y-124310000D01*
X102994658Y-124310000D01*
X103013975Y-124506130D01*
X103071185Y-124694727D01*
X103164088Y-124868536D01*
X103164090Y-124868538D01*
X103289117Y-125020883D01*
X103385605Y-125100069D01*
X103441463Y-125145911D01*
X103615272Y-125238814D01*
X103709488Y-125267394D01*
X103803868Y-125296024D01*
X104000000Y-125315341D01*
X104196132Y-125296024D01*
X104384727Y-125238814D01*
X104558538Y-125145910D01*
X104710883Y-125020883D01*
X104835910Y-124868538D01*
X104928814Y-124694727D01*
X104986024Y-124506132D01*
X105005341Y-124310000D01*
X105994658Y-124310000D01*
X106013975Y-124506130D01*
X106071185Y-124694727D01*
X106164088Y-124868536D01*
X106164090Y-124868538D01*
X106289117Y-125020883D01*
X106385605Y-125100069D01*
X106441463Y-125145911D01*
X106615272Y-125238814D01*
X106709488Y-125267394D01*
X106803868Y-125296024D01*
X107000000Y-125315341D01*
X107196132Y-125296024D01*
X107384727Y-125238814D01*
X107558538Y-125145910D01*
X107710883Y-125020883D01*
X107835910Y-124868538D01*
X107928814Y-124694727D01*
X107986024Y-124506132D01*
X108005341Y-124310000D01*
X108994658Y-124310000D01*
X109013975Y-124506130D01*
X109071185Y-124694727D01*
X109164088Y-124868536D01*
X109164090Y-124868538D01*
X109289117Y-125020883D01*
X109385605Y-125100069D01*
X109441463Y-125145911D01*
X109615272Y-125238814D01*
X109709488Y-125267394D01*
X109803868Y-125296024D01*
X110000000Y-125315341D01*
X110196132Y-125296024D01*
X110384727Y-125238814D01*
X110558538Y-125145910D01*
X110710883Y-125020883D01*
X110835910Y-124868538D01*
X110928814Y-124694727D01*
X110986024Y-124506132D01*
X111005341Y-124310000D01*
X111994658Y-124310000D01*
X112013975Y-124506130D01*
X112071185Y-124694727D01*
X112164088Y-124868536D01*
X112164090Y-124868538D01*
X112289117Y-125020883D01*
X112385605Y-125100069D01*
X112441463Y-125145911D01*
X112615272Y-125238814D01*
X112709488Y-125267394D01*
X112803868Y-125296024D01*
X112901933Y-125305682D01*
X112999999Y-125315341D01*
X112999999Y-125315340D01*
X113000000Y-125315341D01*
X113196132Y-125296024D01*
X113384727Y-125238814D01*
X113558538Y-125145910D01*
X113710883Y-125020883D01*
X113835910Y-124868538D01*
X113928814Y-124694727D01*
X113986024Y-124506132D01*
X114005341Y-124310000D01*
X114994658Y-124310000D01*
X115013975Y-124506130D01*
X115071185Y-124694727D01*
X115164088Y-124868536D01*
X115164090Y-124868538D01*
X115289117Y-125020883D01*
X115385605Y-125100069D01*
X115441463Y-125145911D01*
X115615272Y-125238814D01*
X115709488Y-125267394D01*
X115803868Y-125296024D01*
X116000000Y-125315341D01*
X116196132Y-125296024D01*
X116384727Y-125238814D01*
X116558538Y-125145910D01*
X116710883Y-125020883D01*
X116835910Y-124868538D01*
X116928814Y-124694727D01*
X116986024Y-124506132D01*
X117005341Y-124310000D01*
X116986024Y-124113868D01*
X116928814Y-123925273D01*
X116928814Y-123925272D01*
X116835911Y-123751463D01*
X116816900Y-123728298D01*
X116710883Y-123599117D01*
X116558538Y-123474090D01*
X116558539Y-123474090D01*
X116558536Y-123474088D01*
X116384727Y-123381185D01*
X116196130Y-123323975D01*
X116000000Y-123304658D01*
X115803869Y-123323975D01*
X115615272Y-123381185D01*
X115441463Y-123474088D01*
X115289117Y-123599117D01*
X115164088Y-123751463D01*
X115071185Y-123925272D01*
X115013975Y-124113869D01*
X114994658Y-124310000D01*
X114005341Y-124310000D01*
X113986024Y-124113868D01*
X113928814Y-123925273D01*
X113928814Y-123925272D01*
X113835911Y-123751463D01*
X113816900Y-123728298D01*
X113710883Y-123599117D01*
X113558538Y-123474090D01*
X113558539Y-123474090D01*
X113558536Y-123474088D01*
X113384727Y-123381185D01*
X113196130Y-123323975D01*
X112999999Y-123304658D01*
X112803869Y-123323975D01*
X112615272Y-123381185D01*
X112441463Y-123474088D01*
X112289117Y-123599117D01*
X112164088Y-123751463D01*
X112071185Y-123925272D01*
X112013975Y-124113869D01*
X111994658Y-124310000D01*
X111005341Y-124310000D01*
X110986024Y-124113868D01*
X110928814Y-123925273D01*
X110928814Y-123925272D01*
X110835911Y-123751463D01*
X110816900Y-123728298D01*
X110710883Y-123599117D01*
X110558538Y-123474090D01*
X110558539Y-123474090D01*
X110558536Y-123474088D01*
X110384727Y-123381185D01*
X110196130Y-123323975D01*
X110000000Y-123304658D01*
X109803869Y-123323975D01*
X109615272Y-123381185D01*
X109441463Y-123474088D01*
X109289117Y-123599117D01*
X109164088Y-123751463D01*
X109071185Y-123925272D01*
X109013975Y-124113869D01*
X108994658Y-124310000D01*
X108005341Y-124310000D01*
X107986024Y-124113868D01*
X107928814Y-123925273D01*
X107928814Y-123925272D01*
X107835911Y-123751463D01*
X107816900Y-123728298D01*
X107710883Y-123599117D01*
X107558538Y-123474090D01*
X107558539Y-123474090D01*
X107558536Y-123474088D01*
X107384727Y-123381185D01*
X107196130Y-123323975D01*
X107000000Y-123304658D01*
X106803869Y-123323975D01*
X106615272Y-123381185D01*
X106441463Y-123474088D01*
X106289117Y-123599117D01*
X106164088Y-123751463D01*
X106071185Y-123925272D01*
X106013975Y-124113869D01*
X105994658Y-124310000D01*
X105005341Y-124310000D01*
X104986024Y-124113868D01*
X104928814Y-123925273D01*
X104928814Y-123925272D01*
X104835911Y-123751463D01*
X104816900Y-123728298D01*
X104710883Y-123599117D01*
X104558538Y-123474090D01*
X104558539Y-123474090D01*
X104558536Y-123474088D01*
X104384727Y-123381185D01*
X104196130Y-123323975D01*
X104000000Y-123304658D01*
X103803869Y-123323975D01*
X103615272Y-123381185D01*
X103441463Y-123474088D01*
X103289117Y-123599117D01*
X103164088Y-123751463D01*
X103071185Y-123925272D01*
X103013975Y-124113869D01*
X102994658Y-124310000D01*
X100000500Y-124310000D01*
X100000500Y-116689999D01*
X102994658Y-116689999D01*
X103013975Y-116886130D01*
X103071185Y-117074727D01*
X103164088Y-117248536D01*
X103164090Y-117248538D01*
X103289117Y-117400883D01*
X103418298Y-117506900D01*
X103441463Y-117525911D01*
X103615272Y-117618814D01*
X103709570Y-117647419D01*
X103803868Y-117676024D01*
X104000000Y-117695341D01*
X104196132Y-117676024D01*
X104384727Y-117618814D01*
X104558538Y-117525910D01*
X104710883Y-117400883D01*
X104835910Y-117248538D01*
X104928814Y-117074727D01*
X104986024Y-116886132D01*
X105005341Y-116690000D01*
X105005341Y-116689999D01*
X105994658Y-116689999D01*
X106013975Y-116886130D01*
X106071185Y-117074727D01*
X106164088Y-117248536D01*
X106164090Y-117248538D01*
X106289117Y-117400883D01*
X106418298Y-117506900D01*
X106441463Y-117525911D01*
X106615272Y-117618814D01*
X106709570Y-117647419D01*
X106803868Y-117676024D01*
X107000000Y-117695341D01*
X107196132Y-117676024D01*
X107384727Y-117618814D01*
X107558538Y-117525910D01*
X107710883Y-117400883D01*
X107835910Y-117248538D01*
X107928814Y-117074727D01*
X107986024Y-116886132D01*
X108005341Y-116690000D01*
X108005341Y-116689999D01*
X108994658Y-116689999D01*
X109013975Y-116886130D01*
X109071185Y-117074727D01*
X109164088Y-117248536D01*
X109164090Y-117248538D01*
X109289117Y-117400883D01*
X109418298Y-117506900D01*
X109441463Y-117525911D01*
X109615272Y-117618814D01*
X109709570Y-117647419D01*
X109803868Y-117676024D01*
X110000000Y-117695341D01*
X110196132Y-117676024D01*
X110384727Y-117618814D01*
X110558538Y-117525910D01*
X110710883Y-117400883D01*
X110835910Y-117248538D01*
X110928814Y-117074727D01*
X110986024Y-116886132D01*
X111005341Y-116690000D01*
X111005341Y-116689999D01*
X111994658Y-116689999D01*
X112013975Y-116886130D01*
X112071185Y-117074727D01*
X112164088Y-117248536D01*
X112164090Y-117248538D01*
X112289117Y-117400883D01*
X112418298Y-117506900D01*
X112441463Y-117525911D01*
X112615272Y-117618814D01*
X112709570Y-117647419D01*
X112803868Y-117676024D01*
X112901933Y-117685682D01*
X112999999Y-117695341D01*
X112999999Y-117695340D01*
X113000000Y-117695341D01*
X113196132Y-117676024D01*
X113384727Y-117618814D01*
X113558538Y-117525910D01*
X113710883Y-117400883D01*
X113835910Y-117248538D01*
X113928814Y-117074727D01*
X113986024Y-116886132D01*
X114005341Y-116690000D01*
X114994658Y-116690000D01*
X115013975Y-116886130D01*
X115071185Y-117074727D01*
X115164088Y-117248536D01*
X115164090Y-117248538D01*
X115289117Y-117400883D01*
X115418298Y-117506900D01*
X115441463Y-117525911D01*
X115615272Y-117618814D01*
X115709570Y-117647419D01*
X115803868Y-117676024D01*
X116000000Y-117695341D01*
X116196132Y-117676024D01*
X116384727Y-117618814D01*
X116558538Y-117525910D01*
X116710883Y-117400883D01*
X116835910Y-117248538D01*
X116928814Y-117074727D01*
X116986024Y-116886132D01*
X117005341Y-116690000D01*
X117994658Y-116690000D01*
X118013975Y-116886130D01*
X118071185Y-117074727D01*
X118164088Y-117248536D01*
X118164090Y-117248538D01*
X118289117Y-117400883D01*
X118418298Y-117506900D01*
X118441463Y-117525911D01*
X118615272Y-117618814D01*
X118709570Y-117647419D01*
X118803868Y-117676024D01*
X119000000Y-117695341D01*
X119196132Y-117676024D01*
X119384727Y-117618814D01*
X119558538Y-117525910D01*
X119710883Y-117400883D01*
X119835910Y-117248538D01*
X119928814Y-117074727D01*
X119986024Y-116886132D01*
X120005341Y-116690000D01*
X120994658Y-116690000D01*
X121013975Y-116886130D01*
X121071185Y-117074727D01*
X121164088Y-117248536D01*
X121164090Y-117248538D01*
X121289117Y-117400883D01*
X121418298Y-117506900D01*
X121441463Y-117525911D01*
X121615272Y-117618814D01*
X121709570Y-117647419D01*
X121803868Y-117676024D01*
X122000000Y-117695341D01*
X122196132Y-117676024D01*
X122384727Y-117618814D01*
X122558538Y-117525910D01*
X122710883Y-117400883D01*
X122835910Y-117248538D01*
X122928814Y-117074727D01*
X122986024Y-116886132D01*
X123005341Y-116690000D01*
X123005341Y-116689999D01*
X123994658Y-116689999D01*
X124013975Y-116886130D01*
X124071185Y-117074727D01*
X124164088Y-117248536D01*
X124164090Y-117248538D01*
X124289117Y-117400883D01*
X124418298Y-117506900D01*
X124441463Y-117525911D01*
X124615272Y-117618814D01*
X124709570Y-117647419D01*
X124803868Y-117676024D01*
X124901933Y-117685682D01*
X124999999Y-117695341D01*
X124999999Y-117695340D01*
X125000000Y-117695341D01*
X125196132Y-117676024D01*
X125384727Y-117618814D01*
X125558538Y-117525910D01*
X125710883Y-117400883D01*
X125835910Y-117248538D01*
X125928814Y-117074727D01*
X125986024Y-116886132D01*
X126005341Y-116690000D01*
X126005341Y-116689999D01*
X126994658Y-116689999D01*
X127013975Y-116886130D01*
X127071185Y-117074727D01*
X127164088Y-117248536D01*
X127164090Y-117248538D01*
X127289117Y-117400883D01*
X127418298Y-117506900D01*
X127441463Y-117525911D01*
X127615272Y-117618814D01*
X127709570Y-117647419D01*
X127803868Y-117676024D01*
X128000000Y-117695341D01*
X128196132Y-117676024D01*
X128384727Y-117618814D01*
X128558538Y-117525910D01*
X128710883Y-117400883D01*
X128835910Y-117248538D01*
X128928814Y-117074727D01*
X128986024Y-116886132D01*
X129005341Y-116690000D01*
X129994658Y-116690000D01*
X130013975Y-116886130D01*
X130071185Y-117074727D01*
X130164088Y-117248536D01*
X130164090Y-117248538D01*
X130289117Y-117400883D01*
X130418298Y-117506900D01*
X130441463Y-117525911D01*
X130615272Y-117618814D01*
X130709570Y-117647419D01*
X130803868Y-117676024D01*
X131000000Y-117695341D01*
X131196132Y-117676024D01*
X131384727Y-117618814D01*
X131558538Y-117525910D01*
X131710883Y-117400883D01*
X131835910Y-117248538D01*
X131928814Y-117074727D01*
X131986024Y-116886132D01*
X132005341Y-116690000D01*
X132994658Y-116690000D01*
X133013975Y-116886130D01*
X133071185Y-117074727D01*
X133164088Y-117248536D01*
X133164090Y-117248538D01*
X133289117Y-117400883D01*
X133418298Y-117506900D01*
X133441463Y-117525911D01*
X133615272Y-117618814D01*
X133709570Y-117647419D01*
X133803868Y-117676024D01*
X134000000Y-117695341D01*
X134196132Y-117676024D01*
X134384727Y-117618814D01*
X134558538Y-117525910D01*
X134710883Y-117400883D01*
X134835910Y-117248538D01*
X134928814Y-117074727D01*
X134986024Y-116886132D01*
X135005341Y-116690000D01*
X135994658Y-116690000D01*
X136013975Y-116886130D01*
X136071185Y-117074727D01*
X136164088Y-117248536D01*
X136164090Y-117248538D01*
X136289117Y-117400883D01*
X136418298Y-117506900D01*
X136441463Y-117525911D01*
X136615272Y-117618814D01*
X136709570Y-117647419D01*
X136803868Y-117676024D01*
X136901933Y-117685682D01*
X136999999Y-117695341D01*
X136999999Y-117695340D01*
X137000000Y-117695341D01*
X137196132Y-117676024D01*
X137384727Y-117618814D01*
X137558538Y-117525910D01*
X137710883Y-117400883D01*
X137835910Y-117248538D01*
X137928814Y-117074727D01*
X137986024Y-116886132D01*
X138005341Y-116690000D01*
X138005341Y-116689999D01*
X138994658Y-116689999D01*
X139013975Y-116886130D01*
X139071185Y-117074727D01*
X139164088Y-117248536D01*
X139164090Y-117248538D01*
X139289117Y-117400883D01*
X139418298Y-117506900D01*
X139441463Y-117525911D01*
X139615272Y-117618814D01*
X139709570Y-117647419D01*
X139803868Y-117676024D01*
X140000000Y-117695341D01*
X140196132Y-117676024D01*
X140384727Y-117618814D01*
X140558538Y-117525910D01*
X140710883Y-117400883D01*
X140835910Y-117248538D01*
X140928814Y-117074727D01*
X140986024Y-116886132D01*
X141005341Y-116690000D01*
X141005341Y-116689999D01*
X141994658Y-116689999D01*
X142013975Y-116886130D01*
X142071185Y-117074727D01*
X142164088Y-117248536D01*
X142164090Y-117248538D01*
X142289117Y-117400883D01*
X142418298Y-117506900D01*
X142441463Y-117525911D01*
X142615272Y-117618814D01*
X142709570Y-117647419D01*
X142803868Y-117676024D01*
X143000000Y-117695341D01*
X143196132Y-117676024D01*
X143384727Y-117618814D01*
X143558538Y-117525910D01*
X143710883Y-117400883D01*
X143835910Y-117248538D01*
X143928814Y-117074727D01*
X143986024Y-116886132D01*
X144005341Y-116690000D01*
X144994658Y-116690000D01*
X145013975Y-116886130D01*
X145071185Y-117074727D01*
X145164088Y-117248536D01*
X145164090Y-117248538D01*
X145289117Y-117400883D01*
X145418298Y-117506900D01*
X145441463Y-117525911D01*
X145615272Y-117618814D01*
X145709570Y-117647419D01*
X145803868Y-117676024D01*
X146000000Y-117695341D01*
X146196132Y-117676024D01*
X146384727Y-117618814D01*
X146558538Y-117525910D01*
X146710883Y-117400883D01*
X146835910Y-117248538D01*
X146928814Y-117074727D01*
X146986024Y-116886132D01*
X147005341Y-116690000D01*
X147994658Y-116690000D01*
X148013975Y-116886130D01*
X148071185Y-117074727D01*
X148164088Y-117248536D01*
X148164090Y-117248538D01*
X148289117Y-117400883D01*
X148418298Y-117506900D01*
X148441463Y-117525911D01*
X148615272Y-117618814D01*
X148709570Y-117647419D01*
X148803868Y-117676024D01*
X148901933Y-117685682D01*
X148999999Y-117695341D01*
X148999999Y-117695340D01*
X149000000Y-117695341D01*
X149196132Y-117676024D01*
X149384727Y-117618814D01*
X149558538Y-117525910D01*
X149710883Y-117400883D01*
X149835910Y-117248538D01*
X149928814Y-117074727D01*
X149986024Y-116886132D01*
X150005341Y-116690000D01*
X150994658Y-116690000D01*
X151013975Y-116886130D01*
X151071185Y-117074727D01*
X151164088Y-117248536D01*
X151164090Y-117248538D01*
X151289117Y-117400883D01*
X151418298Y-117506900D01*
X151441463Y-117525911D01*
X151615272Y-117618814D01*
X151709570Y-117647419D01*
X151803868Y-117676024D01*
X152000000Y-117695341D01*
X152196132Y-117676024D01*
X152384727Y-117618814D01*
X152558538Y-117525910D01*
X152710883Y-117400883D01*
X152835910Y-117248538D01*
X152928814Y-117074727D01*
X152986024Y-116886132D01*
X153005341Y-116690000D01*
X153994658Y-116690000D01*
X154013975Y-116886130D01*
X154071185Y-117074727D01*
X154164088Y-117248536D01*
X154164090Y-117248538D01*
X154289117Y-117400883D01*
X154418298Y-117506900D01*
X154441463Y-117525911D01*
X154615272Y-117618814D01*
X154709570Y-117647419D01*
X154803868Y-117676024D01*
X155000000Y-117695341D01*
X155196132Y-117676024D01*
X155384727Y-117618814D01*
X155558538Y-117525910D01*
X155710883Y-117400883D01*
X155835910Y-117248538D01*
X155928814Y-117074727D01*
X155986024Y-116886132D01*
X156005341Y-116690000D01*
X156005341Y-116689999D01*
X156994658Y-116689999D01*
X157013975Y-116886130D01*
X157071185Y-117074727D01*
X157164088Y-117248536D01*
X157164090Y-117248538D01*
X157289117Y-117400883D01*
X157418298Y-117506900D01*
X157441463Y-117525911D01*
X157615272Y-117618814D01*
X157709570Y-117647419D01*
X157803868Y-117676024D01*
X158000000Y-117695341D01*
X158196132Y-117676024D01*
X158384727Y-117618814D01*
X158558538Y-117525910D01*
X158710883Y-117400883D01*
X158835910Y-117248538D01*
X158928814Y-117074727D01*
X158986024Y-116886132D01*
X159005341Y-116690000D01*
X159005341Y-116689999D01*
X159994658Y-116689999D01*
X160013975Y-116886130D01*
X160071185Y-117074727D01*
X160164088Y-117248536D01*
X160164090Y-117248538D01*
X160289117Y-117400883D01*
X160418298Y-117506900D01*
X160441463Y-117525911D01*
X160615272Y-117618814D01*
X160709570Y-117647419D01*
X160803868Y-117676024D01*
X160901933Y-117685682D01*
X160999999Y-117695341D01*
X160999999Y-117695340D01*
X161000000Y-117695341D01*
X161196132Y-117676024D01*
X161384727Y-117618814D01*
X161558538Y-117525910D01*
X161710883Y-117400883D01*
X161835910Y-117248538D01*
X161928814Y-117074727D01*
X161986024Y-116886132D01*
X162005341Y-116690000D01*
X161986024Y-116493868D01*
X161928814Y-116305273D01*
X161928814Y-116305272D01*
X161835911Y-116131463D01*
X161816900Y-116108298D01*
X161710883Y-115979117D01*
X161558538Y-115854090D01*
X161558539Y-115854090D01*
X161558536Y-115854088D01*
X161384727Y-115761185D01*
X161196130Y-115703975D01*
X161000000Y-115684658D01*
X160803869Y-115703975D01*
X160615272Y-115761185D01*
X160441463Y-115854088D01*
X160289117Y-115979117D01*
X160164088Y-116131463D01*
X160071185Y-116305272D01*
X160013975Y-116493869D01*
X159994658Y-116689999D01*
X159005341Y-116689999D01*
X158986024Y-116493868D01*
X158928814Y-116305273D01*
X158928814Y-116305272D01*
X158835911Y-116131463D01*
X158816900Y-116108298D01*
X158710883Y-115979117D01*
X158558538Y-115854090D01*
X158558539Y-115854090D01*
X158558536Y-115854088D01*
X158384727Y-115761185D01*
X158196130Y-115703975D01*
X158000000Y-115684658D01*
X157803869Y-115703975D01*
X157615272Y-115761185D01*
X157441463Y-115854088D01*
X157289117Y-115979117D01*
X157164088Y-116131463D01*
X157071185Y-116305272D01*
X157013975Y-116493869D01*
X156994658Y-116689999D01*
X156005341Y-116689999D01*
X155986024Y-116493868D01*
X155928814Y-116305273D01*
X155928814Y-116305272D01*
X155835911Y-116131463D01*
X155816900Y-116108298D01*
X155710883Y-115979117D01*
X155558538Y-115854090D01*
X155558539Y-115854090D01*
X155558536Y-115854088D01*
X155384727Y-115761185D01*
X155196130Y-115703975D01*
X154999999Y-115684658D01*
X154803869Y-115703975D01*
X154615272Y-115761185D01*
X154441463Y-115854088D01*
X154289117Y-115979117D01*
X154164088Y-116131463D01*
X154071185Y-116305272D01*
X154013975Y-116493869D01*
X153994658Y-116690000D01*
X153005341Y-116690000D01*
X152986024Y-116493868D01*
X152928814Y-116305273D01*
X152928814Y-116305272D01*
X152835911Y-116131463D01*
X152816900Y-116108298D01*
X152710883Y-115979117D01*
X152558538Y-115854090D01*
X152558539Y-115854090D01*
X152558536Y-115854088D01*
X152384727Y-115761185D01*
X152196130Y-115703975D01*
X152000000Y-115684658D01*
X151803869Y-115703975D01*
X151615272Y-115761185D01*
X151441463Y-115854088D01*
X151289117Y-115979117D01*
X151164088Y-116131463D01*
X151071185Y-116305272D01*
X151013975Y-116493869D01*
X150994658Y-116690000D01*
X150005341Y-116690000D01*
X149986024Y-116493868D01*
X149928814Y-116305273D01*
X149928814Y-116305272D01*
X149835911Y-116131463D01*
X149816900Y-116108298D01*
X149710883Y-115979117D01*
X149558538Y-115854090D01*
X149558539Y-115854090D01*
X149558536Y-115854088D01*
X149384727Y-115761185D01*
X149196130Y-115703975D01*
X149000000Y-115684658D01*
X148803869Y-115703975D01*
X148615272Y-115761185D01*
X148441463Y-115854088D01*
X148289117Y-115979117D01*
X148164088Y-116131463D01*
X148071185Y-116305272D01*
X148013975Y-116493869D01*
X147994658Y-116690000D01*
X147005341Y-116690000D01*
X146986024Y-116493868D01*
X146928814Y-116305273D01*
X146928814Y-116305272D01*
X146835911Y-116131463D01*
X146816900Y-116108298D01*
X146710883Y-115979117D01*
X146558538Y-115854090D01*
X146558539Y-115854090D01*
X146558536Y-115854088D01*
X146384727Y-115761185D01*
X146196130Y-115703975D01*
X146000000Y-115684658D01*
X145803869Y-115703975D01*
X145615272Y-115761185D01*
X145441463Y-115854088D01*
X145289117Y-115979117D01*
X145164088Y-116131463D01*
X145071185Y-116305272D01*
X145013975Y-116493869D01*
X144994658Y-116690000D01*
X144005341Y-116690000D01*
X143986024Y-116493868D01*
X143928814Y-116305273D01*
X143928814Y-116305272D01*
X143835911Y-116131463D01*
X143816900Y-116108298D01*
X143710883Y-115979117D01*
X143558538Y-115854090D01*
X143558539Y-115854090D01*
X143558536Y-115854088D01*
X143384727Y-115761185D01*
X143196130Y-115703975D01*
X142999999Y-115684658D01*
X142803869Y-115703975D01*
X142615272Y-115761185D01*
X142441463Y-115854088D01*
X142289117Y-115979117D01*
X142164088Y-116131463D01*
X142071185Y-116305272D01*
X142013975Y-116493869D01*
X141994658Y-116689999D01*
X141005341Y-116689999D01*
X140986024Y-116493868D01*
X140928814Y-116305273D01*
X140928814Y-116305272D01*
X140835911Y-116131463D01*
X140816900Y-116108298D01*
X140710883Y-115979117D01*
X140558538Y-115854090D01*
X140558539Y-115854090D01*
X140558536Y-115854088D01*
X140384727Y-115761185D01*
X140196130Y-115703975D01*
X140000000Y-115684658D01*
X139803869Y-115703975D01*
X139615272Y-115761185D01*
X139441463Y-115854088D01*
X139289117Y-115979117D01*
X139164088Y-116131463D01*
X139071185Y-116305272D01*
X139013975Y-116493869D01*
X138994658Y-116689999D01*
X138005341Y-116689999D01*
X137986024Y-116493868D01*
X137928814Y-116305273D01*
X137928814Y-116305272D01*
X137835911Y-116131463D01*
X137816900Y-116108298D01*
X137710883Y-115979117D01*
X137558538Y-115854090D01*
X137558539Y-115854090D01*
X137558536Y-115854088D01*
X137384727Y-115761185D01*
X137196130Y-115703975D01*
X137000000Y-115684658D01*
X136803869Y-115703975D01*
X136615272Y-115761185D01*
X136441463Y-115854088D01*
X136289117Y-115979117D01*
X136164088Y-116131463D01*
X136071185Y-116305272D01*
X136013975Y-116493869D01*
X135994658Y-116690000D01*
X135005341Y-116690000D01*
X134986024Y-116493868D01*
X134928814Y-116305273D01*
X134928814Y-116305272D01*
X134835911Y-116131463D01*
X134816900Y-116108298D01*
X134710883Y-115979117D01*
X134558538Y-115854090D01*
X134558539Y-115854090D01*
X134558536Y-115854088D01*
X134384727Y-115761185D01*
X134196130Y-115703975D01*
X134000000Y-115684658D01*
X133803869Y-115703975D01*
X133615272Y-115761185D01*
X133441463Y-115854088D01*
X133289117Y-115979117D01*
X133164088Y-116131463D01*
X133071185Y-116305272D01*
X133013975Y-116493869D01*
X132994658Y-116690000D01*
X132005341Y-116690000D01*
X131986024Y-116493868D01*
X131928814Y-116305273D01*
X131928814Y-116305272D01*
X131835911Y-116131463D01*
X131816900Y-116108298D01*
X131710883Y-115979117D01*
X131558538Y-115854090D01*
X131558539Y-115854090D01*
X131558536Y-115854088D01*
X131384727Y-115761185D01*
X131196130Y-115703975D01*
X130999999Y-115684658D01*
X130803869Y-115703975D01*
X130615272Y-115761185D01*
X130441463Y-115854088D01*
X130289117Y-115979117D01*
X130164088Y-116131463D01*
X130071185Y-116305272D01*
X130013975Y-116493869D01*
X129994658Y-116690000D01*
X129005341Y-116690000D01*
X128986024Y-116493868D01*
X128928814Y-116305273D01*
X128928814Y-116305272D01*
X128835911Y-116131463D01*
X128816900Y-116108298D01*
X128710883Y-115979117D01*
X128558538Y-115854090D01*
X128558539Y-115854090D01*
X128558536Y-115854088D01*
X128384727Y-115761185D01*
X128196130Y-115703975D01*
X128000000Y-115684658D01*
X127803869Y-115703975D01*
X127615272Y-115761185D01*
X127441463Y-115854088D01*
X127289117Y-115979117D01*
X127164088Y-116131463D01*
X127071185Y-116305272D01*
X127013975Y-116493869D01*
X126994658Y-116689999D01*
X126005341Y-116689999D01*
X125986024Y-116493868D01*
X125928814Y-116305273D01*
X125928814Y-116305272D01*
X125835911Y-116131463D01*
X125816900Y-116108298D01*
X125710883Y-115979117D01*
X125558538Y-115854090D01*
X125558539Y-115854090D01*
X125558536Y-115854088D01*
X125384727Y-115761185D01*
X125196130Y-115703975D01*
X125000000Y-115684658D01*
X124803869Y-115703975D01*
X124615272Y-115761185D01*
X124441463Y-115854088D01*
X124289117Y-115979117D01*
X124164088Y-116131463D01*
X124071185Y-116305272D01*
X124013975Y-116493869D01*
X123994658Y-116689999D01*
X123005341Y-116689999D01*
X122986024Y-116493868D01*
X122928814Y-116305273D01*
X122928814Y-116305272D01*
X122835911Y-116131463D01*
X122816900Y-116108298D01*
X122710883Y-115979117D01*
X122558538Y-115854090D01*
X122558539Y-115854090D01*
X122558536Y-115854088D01*
X122384727Y-115761185D01*
X122196130Y-115703975D01*
X122000000Y-115684658D01*
X121803869Y-115703975D01*
X121615272Y-115761185D01*
X121441463Y-115854088D01*
X121289117Y-115979117D01*
X121164088Y-116131463D01*
X121071185Y-116305272D01*
X121013975Y-116493869D01*
X120994658Y-116690000D01*
X120005341Y-116690000D01*
X119986024Y-116493868D01*
X119928814Y-116305273D01*
X119928814Y-116305272D01*
X119835911Y-116131463D01*
X119816900Y-116108298D01*
X119710883Y-115979117D01*
X119558538Y-115854090D01*
X119558539Y-115854090D01*
X119558536Y-115854088D01*
X119384727Y-115761185D01*
X119196130Y-115703975D01*
X118999999Y-115684658D01*
X118803869Y-115703975D01*
X118615272Y-115761185D01*
X118441463Y-115854088D01*
X118289117Y-115979117D01*
X118164088Y-116131463D01*
X118071185Y-116305272D01*
X118013975Y-116493869D01*
X117994658Y-116690000D01*
X117005341Y-116690000D01*
X116986024Y-116493868D01*
X116928814Y-116305273D01*
X116928814Y-116305272D01*
X116835911Y-116131463D01*
X116816900Y-116108298D01*
X116710883Y-115979117D01*
X116558538Y-115854090D01*
X116558539Y-115854090D01*
X116558536Y-115854088D01*
X116384727Y-115761185D01*
X116196130Y-115703975D01*
X116000000Y-115684658D01*
X115803869Y-115703975D01*
X115615272Y-115761185D01*
X115441463Y-115854088D01*
X115289117Y-115979117D01*
X115164088Y-116131463D01*
X115071185Y-116305272D01*
X115013975Y-116493869D01*
X114994658Y-116690000D01*
X114005341Y-116690000D01*
X113986024Y-116493868D01*
X113928814Y-116305273D01*
X113928814Y-116305272D01*
X113835911Y-116131463D01*
X113816900Y-116108298D01*
X113710883Y-115979117D01*
X113558538Y-115854090D01*
X113558539Y-115854090D01*
X113558536Y-115854088D01*
X113384727Y-115761185D01*
X113196130Y-115703975D01*
X113000000Y-115684658D01*
X112803869Y-115703975D01*
X112615272Y-115761185D01*
X112441463Y-115854088D01*
X112289117Y-115979117D01*
X112164088Y-116131463D01*
X112071185Y-116305272D01*
X112013975Y-116493869D01*
X111994658Y-116689999D01*
X111005341Y-116689999D01*
X110986024Y-116493868D01*
X110928814Y-116305273D01*
X110928814Y-116305272D01*
X110835911Y-116131463D01*
X110816900Y-116108298D01*
X110710883Y-115979117D01*
X110558538Y-115854090D01*
X110558539Y-115854090D01*
X110558536Y-115854088D01*
X110384727Y-115761185D01*
X110196130Y-115703975D01*
X110000000Y-115684658D01*
X109803869Y-115703975D01*
X109615272Y-115761185D01*
X109441463Y-115854088D01*
X109289117Y-115979117D01*
X109164088Y-116131463D01*
X109071185Y-116305272D01*
X109013975Y-116493869D01*
X108994658Y-116689999D01*
X108005341Y-116689999D01*
X107986024Y-116493868D01*
X107928814Y-116305273D01*
X107928814Y-116305272D01*
X107835911Y-116131463D01*
X107816900Y-116108298D01*
X107710883Y-115979117D01*
X107558538Y-115854090D01*
X107558539Y-115854090D01*
X107558536Y-115854088D01*
X107384727Y-115761185D01*
X107196130Y-115703975D01*
X106999999Y-115684658D01*
X106803869Y-115703975D01*
X106615272Y-115761185D01*
X106441463Y-115854088D01*
X106289117Y-115979117D01*
X106164088Y-116131463D01*
X106071185Y-116305272D01*
X106013975Y-116493869D01*
X105994658Y-116689999D01*
X105005341Y-116689999D01*
X104986024Y-116493868D01*
X104928814Y-116305273D01*
X104928814Y-116305272D01*
X104835911Y-116131463D01*
X104816900Y-116108298D01*
X104710883Y-115979117D01*
X104558538Y-115854090D01*
X104558539Y-115854090D01*
X104558536Y-115854088D01*
X104384727Y-115761185D01*
X104196130Y-115703975D01*
X104000000Y-115684658D01*
X103803869Y-115703975D01*
X103615272Y-115761185D01*
X103441463Y-115854088D01*
X103289117Y-115979117D01*
X103164088Y-116131463D01*
X103071185Y-116305272D01*
X103013975Y-116493869D01*
X102994658Y-116689999D01*
X100000500Y-116689999D01*
X100000500Y-112989999D01*
X142994658Y-112989999D01*
X143013975Y-113186130D01*
X143071185Y-113374727D01*
X143164088Y-113548536D01*
X143164090Y-113548538D01*
X143289117Y-113700883D01*
X143418298Y-113806900D01*
X143441463Y-113825911D01*
X143615272Y-113918814D01*
X143648238Y-113928814D01*
X143803868Y-113976024D01*
X144000000Y-113995341D01*
X144196132Y-113976024D01*
X144384727Y-113918814D01*
X144558538Y-113825910D01*
X144710883Y-113700883D01*
X144835910Y-113548538D01*
X144928814Y-113374727D01*
X144986024Y-113186132D01*
X145004356Y-113000000D01*
X146174658Y-113000000D01*
X146193975Y-113196130D01*
X146251185Y-113384727D01*
X146344088Y-113558536D01*
X146344090Y-113558538D01*
X146469117Y-113710883D01*
X146598298Y-113816900D01*
X146621463Y-113835911D01*
X146795272Y-113928814D01*
X146889570Y-113957419D01*
X146983868Y-113986024D01*
X147180000Y-114005341D01*
X147376132Y-113986024D01*
X147564727Y-113928814D01*
X147738538Y-113835910D01*
X147890883Y-113710883D01*
X148015910Y-113558538D01*
X148108814Y-113384727D01*
X148166024Y-113196132D01*
X148185341Y-113000000D01*
X148714658Y-113000000D01*
X148733975Y-113196130D01*
X148791185Y-113384727D01*
X148884088Y-113558536D01*
X148884090Y-113558538D01*
X149009117Y-113710883D01*
X149138298Y-113816900D01*
X149161463Y-113835911D01*
X149335272Y-113928814D01*
X149429570Y-113957418D01*
X149523868Y-113986024D01*
X149720000Y-114005341D01*
X149916132Y-113986024D01*
X150104727Y-113928814D01*
X150278538Y-113835910D01*
X150430883Y-113710883D01*
X150555910Y-113558538D01*
X150648814Y-113384727D01*
X150706024Y-113196132D01*
X150725341Y-113000000D01*
X151254658Y-113000000D01*
X151273975Y-113196130D01*
X151331185Y-113384727D01*
X151424088Y-113558536D01*
X151424090Y-113558538D01*
X151549117Y-113710883D01*
X151678298Y-113816900D01*
X151701463Y-113835911D01*
X151875272Y-113928814D01*
X151969570Y-113957419D01*
X152063868Y-113986024D01*
X152260000Y-114005341D01*
X152456132Y-113986024D01*
X152644727Y-113928814D01*
X152818538Y-113835910D01*
X152970883Y-113710883D01*
X153095910Y-113558538D01*
X153188814Y-113384727D01*
X153246024Y-113196132D01*
X153265341Y-113000000D01*
X153265341Y-112999999D01*
X153794658Y-112999999D01*
X153813975Y-113196130D01*
X153871185Y-113384727D01*
X153964088Y-113558536D01*
X153964090Y-113558538D01*
X154089117Y-113710883D01*
X154218298Y-113816900D01*
X154241463Y-113835911D01*
X154415272Y-113928814D01*
X154509570Y-113957418D01*
X154603868Y-113986024D01*
X154698467Y-113995341D01*
X154799999Y-114005341D01*
X154799999Y-114005340D01*
X154800000Y-114005341D01*
X154996132Y-113986024D01*
X155184727Y-113928814D01*
X155358538Y-113835910D01*
X155510883Y-113710883D01*
X155635910Y-113558538D01*
X155728814Y-113384727D01*
X155786024Y-113196132D01*
X155805341Y-113000000D01*
X155786024Y-112803868D01*
X155728814Y-112615273D01*
X155728814Y-112615272D01*
X155635911Y-112441463D01*
X155610855Y-112410933D01*
X155510883Y-112289117D01*
X155358538Y-112164090D01*
X155358539Y-112164090D01*
X155358536Y-112164088D01*
X155184727Y-112071185D01*
X154996130Y-112013975D01*
X154800000Y-111994658D01*
X154603869Y-112013975D01*
X154415272Y-112071185D01*
X154241463Y-112164088D01*
X154089117Y-112289117D01*
X153964088Y-112441463D01*
X153871185Y-112615272D01*
X153813975Y-112803869D01*
X153794658Y-112999999D01*
X153265341Y-112999999D01*
X153246024Y-112803868D01*
X153188814Y-112615273D01*
X153188814Y-112615272D01*
X153095911Y-112441463D01*
X153070855Y-112410933D01*
X152970883Y-112289117D01*
X152818538Y-112164090D01*
X152818539Y-112164090D01*
X152818536Y-112164088D01*
X152644727Y-112071185D01*
X152456130Y-112013975D01*
X152260000Y-111994658D01*
X152063869Y-112013975D01*
X151875272Y-112071185D01*
X151701463Y-112164088D01*
X151549117Y-112289117D01*
X151424088Y-112441463D01*
X151331185Y-112615272D01*
X151273975Y-112803869D01*
X151254658Y-113000000D01*
X150725341Y-113000000D01*
X150706024Y-112803868D01*
X150648814Y-112615273D01*
X150648814Y-112615272D01*
X150555911Y-112441463D01*
X150442972Y-112303847D01*
X150420672Y-112246871D01*
X150420500Y-112241042D01*
X150420500Y-112111165D01*
X150439407Y-112052974D01*
X150449496Y-112041161D01*
X150990657Y-111500000D01*
X156994658Y-111500000D01*
X157013975Y-111696130D01*
X157071185Y-111884727D01*
X157164088Y-112058536D01*
X157174469Y-112071185D01*
X157289117Y-112210883D01*
X157372260Y-112279117D01*
X157441463Y-112335911D01*
X157615272Y-112428814D01*
X157686762Y-112450500D01*
X157803868Y-112486024D01*
X158000000Y-112505341D01*
X158196132Y-112486024D01*
X158384727Y-112428814D01*
X158558538Y-112335910D01*
X158710883Y-112210883D01*
X158835910Y-112058538D01*
X158928814Y-111884727D01*
X158986024Y-111696132D01*
X159005341Y-111500000D01*
X158986024Y-111303868D01*
X158928814Y-111115273D01*
X158928814Y-111115272D01*
X158835911Y-110941463D01*
X158816900Y-110918298D01*
X158710883Y-110789117D01*
X158558538Y-110664090D01*
X158558539Y-110664090D01*
X158558536Y-110664088D01*
X158384727Y-110571185D01*
X158196130Y-110513975D01*
X158000000Y-110494658D01*
X157803869Y-110513975D01*
X157615272Y-110571185D01*
X157441463Y-110664088D01*
X157289117Y-110789117D01*
X157164088Y-110941463D01*
X157071185Y-111115272D01*
X157013975Y-111303869D01*
X156994658Y-111500000D01*
X150990657Y-111500000D01*
X152961161Y-109529496D01*
X153015678Y-109501719D01*
X153031165Y-109500500D01*
X159968835Y-109500500D01*
X160027026Y-109519407D01*
X160038839Y-109529496D01*
X161066107Y-110556764D01*
X161093884Y-110611281D01*
X161092074Y-110651069D01*
X161064380Y-110760434D01*
X161064380Y-110760437D01*
X161044529Y-111000000D01*
X161064380Y-111239563D01*
X161123390Y-111472591D01*
X161219951Y-111692728D01*
X161219953Y-111692731D01*
X161292749Y-111804154D01*
X161351429Y-111893969D01*
X161514236Y-112070825D01*
X161703933Y-112218472D01*
X161915344Y-112332882D01*
X162142703Y-112410934D01*
X162379808Y-112450500D01*
X162379810Y-112450500D01*
X162620190Y-112450500D01*
X162620192Y-112450500D01*
X162857297Y-112410934D01*
X163084656Y-112332882D01*
X163296067Y-112218472D01*
X163485764Y-112070825D01*
X163648571Y-111893969D01*
X163780049Y-111692728D01*
X163876610Y-111472591D01*
X163935620Y-111239563D01*
X163955471Y-111000000D01*
X163935620Y-110760437D01*
X163876610Y-110527409D01*
X163780049Y-110307272D01*
X163648571Y-110106031D01*
X163485764Y-109929175D01*
X163296067Y-109781528D01*
X163084656Y-109667118D01*
X163084655Y-109667117D01*
X163084654Y-109667117D01*
X162857298Y-109589066D01*
X162778261Y-109575877D01*
X162620192Y-109549500D01*
X162379808Y-109549500D01*
X162347892Y-109554825D01*
X162138993Y-109589684D01*
X162078484Y-109580612D01*
X162052695Y-109562038D01*
X160812401Y-108321744D01*
X160808302Y-108317389D01*
X160767929Y-108271817D01*
X160717799Y-108237214D01*
X160712991Y-108233676D01*
X160665056Y-108196121D01*
X160653746Y-108191031D01*
X160638138Y-108182228D01*
X160627931Y-108175182D01*
X160610219Y-108168465D01*
X160570974Y-108153581D01*
X160565481Y-108151305D01*
X160509932Y-108126305D01*
X160497721Y-108124067D01*
X160480465Y-108119256D01*
X160468873Y-108114860D01*
X160408437Y-108107521D01*
X160402529Y-108106622D01*
X160342604Y-108095641D01*
X160281823Y-108099319D01*
X160275845Y-108099500D01*
X153059500Y-108099500D01*
X153001309Y-108080593D01*
X152965345Y-108031093D01*
X152960500Y-108000500D01*
X152960500Y-106144746D01*
X161449500Y-106144746D01*
X161461133Y-106203231D01*
X161505447Y-106269552D01*
X161549241Y-106298814D01*
X161571769Y-106313867D01*
X161630252Y-106325500D01*
X161630253Y-106325500D01*
X163369747Y-106325500D01*
X163369748Y-106325500D01*
X163428231Y-106313867D01*
X163494552Y-106269552D01*
X163538867Y-106203231D01*
X163550500Y-106144748D01*
X163550500Y-104405252D01*
X163538867Y-104346769D01*
X163524162Y-104324762D01*
X163494552Y-104280447D01*
X163428231Y-104236133D01*
X163369748Y-104224500D01*
X161630252Y-104224500D01*
X161601010Y-104230316D01*
X161571768Y-104236133D01*
X161505447Y-104280447D01*
X161461133Y-104346768D01*
X161449500Y-104405253D01*
X161449500Y-106144746D01*
X152960500Y-106144746D01*
X152960500Y-106138958D01*
X152979407Y-106080767D01*
X152982972Y-106076153D01*
X153021702Y-106028960D01*
X153095910Y-105938538D01*
X153188814Y-105764727D01*
X153246024Y-105576132D01*
X153265341Y-105380000D01*
X153246024Y-105183868D01*
X153188814Y-104995273D01*
X153188814Y-104995272D01*
X153095911Y-104821463D01*
X152982972Y-104683847D01*
X152960672Y-104626871D01*
X152960500Y-104621042D01*
X152960500Y-103447650D01*
X152979407Y-103389459D01*
X153012831Y-103360340D01*
X153058538Y-103335910D01*
X153210883Y-103210883D01*
X153335910Y-103058538D01*
X153428814Y-102884727D01*
X153486024Y-102696132D01*
X153505341Y-102500000D01*
X153486024Y-102303868D01*
X153428814Y-102115273D01*
X153428814Y-102115272D01*
X153335911Y-101941463D01*
X153316900Y-101918298D01*
X153210883Y-101789117D01*
X153058538Y-101664090D01*
X153058539Y-101664090D01*
X153058536Y-101664088D01*
X152884727Y-101571185D01*
X152696130Y-101513975D01*
X152499999Y-101494658D01*
X152303869Y-101513975D01*
X152115272Y-101571185D01*
X151941463Y-101664088D01*
X151789117Y-101789117D01*
X151664088Y-101941463D01*
X151571185Y-102115272D01*
X151513975Y-102303869D01*
X151494658Y-102500000D01*
X151513974Y-102696129D01*
X151555237Y-102832149D01*
X151559500Y-102860888D01*
X151559500Y-104621042D01*
X151540593Y-104679233D01*
X151537028Y-104683847D01*
X151424088Y-104821463D01*
X151331185Y-104995272D01*
X151273975Y-105183869D01*
X151254658Y-105379999D01*
X151273975Y-105576130D01*
X151331185Y-105764727D01*
X151424088Y-105938536D01*
X151537028Y-106076153D01*
X151559328Y-106133129D01*
X151559500Y-106138958D01*
X151559500Y-108335844D01*
X151559319Y-108341822D01*
X151555641Y-108402604D01*
X151566622Y-108462529D01*
X151567521Y-108468437D01*
X151574860Y-108528873D01*
X151579256Y-108540465D01*
X151584067Y-108557721D01*
X151586305Y-108569932D01*
X151611302Y-108625473D01*
X151613581Y-108630974D01*
X151628465Y-108670219D01*
X151635182Y-108687931D01*
X151642228Y-108698138D01*
X151651031Y-108713746D01*
X151656121Y-108725057D01*
X151658334Y-108727881D01*
X151679335Y-108785350D01*
X151662546Y-108844187D01*
X151650404Y-108858937D01*
X149241743Y-111267598D01*
X149237390Y-111271695D01*
X149191818Y-111312070D01*
X149157223Y-111362187D01*
X149153682Y-111366999D01*
X149116121Y-111414944D01*
X149111029Y-111426257D01*
X149102230Y-111441857D01*
X149095182Y-111452067D01*
X149073593Y-111508993D01*
X149071306Y-111514515D01*
X149046305Y-111570067D01*
X149044067Y-111582279D01*
X149039258Y-111599531D01*
X149034860Y-111611129D01*
X149027521Y-111671562D01*
X149026622Y-111677469D01*
X149015641Y-111737395D01*
X149019319Y-111798176D01*
X149019500Y-111804154D01*
X149019500Y-112241042D01*
X149000593Y-112299233D01*
X148997028Y-112303847D01*
X148884088Y-112441463D01*
X148791185Y-112615272D01*
X148733975Y-112803869D01*
X148714658Y-113000000D01*
X148185341Y-113000000D01*
X148166024Y-112803868D01*
X148108814Y-112615273D01*
X148108814Y-112615272D01*
X148015911Y-112441463D01*
X147990855Y-112410933D01*
X147890883Y-112289117D01*
X147738538Y-112164090D01*
X147738539Y-112164090D01*
X147738536Y-112164088D01*
X147564727Y-112071185D01*
X147376130Y-112013975D01*
X147179999Y-111994658D01*
X146983869Y-112013975D01*
X146795272Y-112071185D01*
X146621463Y-112164088D01*
X146469117Y-112289117D01*
X146344088Y-112441463D01*
X146251185Y-112615272D01*
X146193975Y-112803869D01*
X146174658Y-113000000D01*
X145004356Y-113000000D01*
X145005341Y-112990000D01*
X144986024Y-112793868D01*
X144957418Y-112699570D01*
X144928814Y-112605272D01*
X144835911Y-112431463D01*
X144816900Y-112408298D01*
X144710883Y-112279117D01*
X144558538Y-112154090D01*
X144558539Y-112154090D01*
X144558536Y-112154088D01*
X144384727Y-112061185D01*
X144196130Y-112003975D01*
X144000000Y-111984658D01*
X143803869Y-112003975D01*
X143615272Y-112061185D01*
X143441463Y-112154088D01*
X143289117Y-112279117D01*
X143164088Y-112431463D01*
X143071185Y-112605272D01*
X143013975Y-112793869D01*
X142994658Y-112989999D01*
X100000500Y-112989999D01*
X100000500Y-105369999D01*
X142994658Y-105369999D01*
X143013975Y-105566130D01*
X143071185Y-105754727D01*
X143164088Y-105928536D01*
X143164090Y-105928538D01*
X143289117Y-106080883D01*
X143418298Y-106186900D01*
X143441463Y-106205911D01*
X143615272Y-106298814D01*
X143703244Y-106325500D01*
X143803868Y-106356024D01*
X144000000Y-106375341D01*
X144196132Y-106356024D01*
X144384727Y-106298814D01*
X144558538Y-106205910D01*
X144710883Y-106080883D01*
X144835910Y-105928538D01*
X144928814Y-105754727D01*
X144986024Y-105566132D01*
X145004356Y-105379999D01*
X146174658Y-105379999D01*
X146193975Y-105576130D01*
X146251185Y-105764727D01*
X146344088Y-105938536D01*
X146344090Y-105938538D01*
X146469117Y-106090883D01*
X146598298Y-106196900D01*
X146621463Y-106215911D01*
X146795272Y-106308814D01*
X146811930Y-106313867D01*
X146983868Y-106366024D01*
X147078467Y-106375341D01*
X147179999Y-106385341D01*
X147179999Y-106385340D01*
X147180000Y-106385341D01*
X147376132Y-106366024D01*
X147564727Y-106308814D01*
X147738538Y-106215910D01*
X147890883Y-106090883D01*
X148015910Y-105938538D01*
X148108814Y-105764727D01*
X148166024Y-105576132D01*
X148185341Y-105380000D01*
X148185341Y-105379999D01*
X148714658Y-105379999D01*
X148733975Y-105576130D01*
X148791185Y-105764727D01*
X148884088Y-105938536D01*
X148884090Y-105938538D01*
X149009117Y-106090883D01*
X149138298Y-106196900D01*
X149161463Y-106215911D01*
X149335272Y-106308814D01*
X149351930Y-106313867D01*
X149523868Y-106366024D01*
X149720000Y-106385341D01*
X149916132Y-106366024D01*
X150104727Y-106308814D01*
X150278538Y-106215910D01*
X150430883Y-106090883D01*
X150555910Y-105938538D01*
X150648814Y-105764727D01*
X150706024Y-105576132D01*
X150725341Y-105380000D01*
X150706024Y-105183868D01*
X150648814Y-104995273D01*
X150648814Y-104995272D01*
X150555911Y-104821463D01*
X150536900Y-104798298D01*
X150430883Y-104669117D01*
X150278538Y-104544090D01*
X150278539Y-104544090D01*
X150278536Y-104544088D01*
X150104727Y-104451185D01*
X149916130Y-104393975D01*
X149720000Y-104374658D01*
X149523869Y-104393975D01*
X149335272Y-104451185D01*
X149161463Y-104544088D01*
X149009117Y-104669117D01*
X148884088Y-104821463D01*
X148791185Y-104995272D01*
X148733975Y-105183869D01*
X148714658Y-105379999D01*
X148185341Y-105379999D01*
X148166024Y-105183868D01*
X148108814Y-104995273D01*
X148108814Y-104995272D01*
X148015911Y-104821463D01*
X147996900Y-104798298D01*
X147890883Y-104669117D01*
X147738538Y-104544090D01*
X147738539Y-104544090D01*
X147738536Y-104544088D01*
X147564727Y-104451185D01*
X147376130Y-104393975D01*
X147179999Y-104374658D01*
X146983869Y-104393975D01*
X146795272Y-104451185D01*
X146621463Y-104544088D01*
X146469117Y-104669117D01*
X146344088Y-104821463D01*
X146251185Y-104995272D01*
X146193975Y-105183869D01*
X146174658Y-105379999D01*
X145004356Y-105379999D01*
X145005341Y-105370000D01*
X144986024Y-105173868D01*
X144957419Y-105079570D01*
X144928814Y-104985272D01*
X144835911Y-104811463D01*
X144731178Y-104683847D01*
X144710883Y-104659117D01*
X144558538Y-104534090D01*
X144558539Y-104534090D01*
X144558536Y-104534088D01*
X144384727Y-104441185D01*
X144196130Y-104383975D01*
X144000000Y-104364658D01*
X143803869Y-104383975D01*
X143615272Y-104441185D01*
X143441463Y-104534088D01*
X143289117Y-104659117D01*
X143164088Y-104811463D01*
X143071185Y-104985272D01*
X143013975Y-105173869D01*
X142994658Y-105369999D01*
X100000500Y-105369999D01*
X100000500Y-103519746D01*
X131299500Y-103519746D01*
X131311133Y-103578231D01*
X131355447Y-103644552D01*
X131399761Y-103674162D01*
X131421769Y-103688867D01*
X131480252Y-103700500D01*
X131480253Y-103700500D01*
X133519747Y-103700500D01*
X133519748Y-103700500D01*
X133578231Y-103688867D01*
X133644552Y-103644552D01*
X133688867Y-103578231D01*
X133700500Y-103519748D01*
X133700500Y-101480252D01*
X133688867Y-101421769D01*
X133669431Y-101392682D01*
X133644552Y-101355447D01*
X133578231Y-101311133D01*
X133578230Y-101311133D01*
X133519748Y-101299500D01*
X131480252Y-101299500D01*
X131451010Y-101305316D01*
X131421768Y-101311133D01*
X131355447Y-101355447D01*
X131311133Y-101421768D01*
X131299500Y-101480253D01*
X131299500Y-103519746D01*
X100000500Y-103519746D01*
X100000500Y-101503537D01*
X100000752Y-101496475D01*
X100001912Y-101480252D01*
X100005484Y-101430313D01*
X100016853Y-101285849D01*
X100018807Y-101272602D01*
X100038668Y-101181302D01*
X100039140Y-101179239D01*
X100039157Y-101179170D01*
X100066339Y-101065946D01*
X100069836Y-101054494D01*
X100104389Y-100961854D01*
X100105639Y-100958677D01*
X100148187Y-100855956D01*
X100152745Y-100846430D01*
X100201118Y-100757841D01*
X100203538Y-100753659D01*
X100260600Y-100660544D01*
X100265716Y-100653005D01*
X100326736Y-100571493D01*
X100330664Y-100566582D01*
X100401070Y-100484148D01*
X100406297Y-100478492D01*
X100478492Y-100406297D01*
X100484148Y-100401070D01*
X100566582Y-100330664D01*
X100571493Y-100326736D01*
X100653005Y-100265716D01*
X100660544Y-100260600D01*
X100753659Y-100203538D01*
X100757841Y-100201118D01*
X100846430Y-100152745D01*
X100855956Y-100148187D01*
X100958677Y-100105639D01*
X100961854Y-100104389D01*
X101054492Y-100069837D01*
X101065959Y-100066336D01*
X101179329Y-100039118D01*
X101181102Y-100038712D01*
X101272602Y-100018807D01*
X101285864Y-100016852D01*
X101430265Y-100005487D01*
X101488333Y-100001334D01*
X101496478Y-100000752D01*
X101503537Y-100000500D01*
X163496462Y-100000500D01*
X163503522Y-100000751D01*
G37*
%TD.AperFunction*%
%TD*%
M02*
