M48
; DRILL file {KiCad 7.0.2} date Fri May 19 22:23:48 2023
; FORMAT={-:-/ absolute / inch / decimal}
; #@! TF.CreationDate,2023-05-19T22:23:48+01:00
; #@! TF.GenerationSoftware,Kicad,Pcbnew,7.0.2
; #@! TF.FileFunction,Plated,1,2,PTH
FMAT,2
INCH
; #@! TA.AperFunction,Plated,PTH,ViaDrill
T1C0.0157
; #@! TA.AperFunction,Plated,PTH,ComponentDrill
T2C0.0315
; #@! TA.AperFunction,Plated,PTH,ComponentDrill
T3C0.0394
; #@! TA.AperFunction,Plated,PTH,ComponentDrill
T4C0.0472
%
G90
G05
T1
X3.9764Y-4.6063
X3.9764Y-5.315
X4.4291Y-5.6693
X4.6555Y-5.6398
X4.9213Y-4.5276
X5.0197Y-5.6693
X5.2461Y-5.6398
X5.4528Y-5.6417
X5.5669Y-4.5276
X5.7953Y-4.3346
X5.8071Y-4.7047
X5.8071Y-5.6693
X5.9252Y-4.7047
X6.0335Y-5.6398
X6.0433Y-4.7047
X6.1614Y-4.7047
X6.4567Y-4.7244
X6.4567Y-5.315
T2
X4.0945Y-4.5941
X4.0945Y-4.8941
X4.2126Y-4.5941
X4.2126Y-4.8941
X4.3307Y-4.5941
X4.3307Y-4.8941
X4.4488Y-4.5941
X4.4488Y-4.8941
X4.5669Y-4.5941
X4.5669Y-4.8941
X4.685Y-4.5941
X4.685Y-4.8941
X4.8031Y-4.5941
X4.8031Y-4.8941
X4.9213Y-4.5941
X4.9213Y-4.8941
X5.0394Y-4.5941
X5.0394Y-4.8941
X5.1575Y-4.5941
X5.1575Y-4.8941
X5.2756Y-4.5941
X5.2756Y-4.8941
X5.3937Y-4.5941
X5.3937Y-4.8941
X5.5118Y-4.5941
X5.5118Y-4.8941
X5.6299Y-4.5941
X5.6299Y-4.8941
X5.6693Y-4.1484
X5.6693Y-4.4484
X5.748Y-4.5941
X5.748Y-4.8941
X5.7945Y-4.1488
X5.7945Y-4.4488
X5.8661Y-4.5941
X5.8661Y-4.8941
X5.8945Y-4.1488
X5.8945Y-4.4488
X5.9843Y-4.5941
X5.9843Y-4.8941
X5.9945Y-4.1488
X5.9945Y-4.4488
X6.0039Y-4.0354
X6.0945Y-4.1488
X6.0945Y-4.4488
X6.1024Y-4.5941
X6.1024Y-4.8941
X6.2008Y-4.0354
X6.2205Y-4.1929
X6.2205Y-4.3898
X6.2205Y-4.5941
X6.2205Y-4.8941
X6.3386Y-4.5941
X6.3386Y-4.8941
T3
X5.2165Y-4.0354
X5.2165Y-4.4291
X6.3976Y-4.0447
X6.3976Y-4.1447
T4
X6.3976Y-4.3701
T0
M30
