%TF.GenerationSoftware,KiCad,Pcbnew,7.0.2*%
%TF.CreationDate,2023-05-19T22:23:46+01:00*%
%TF.ProjectId,pcb-stylophone_to_make,7063622d-7374-4796-9c6f-70686f6e655f,rev?*%
%TF.SameCoordinates,Original*%
%TF.FileFunction,Copper,L1,Top*%
%TF.FilePolarity,Positive*%
%FSLAX46Y46*%
G04 Gerber Fmt 4.6, Leading zero omitted, Abs format (unit mm)*
G04 Created by KiCad (PCBNEW 7.0.2) date 2023-05-19 22:23:46*
%MOMM*%
%LPD*%
G01*
G04 APERTURE LIST*
%TA.AperFunction,ComponentPad*%
%ADD10R,1.600000X1.600000*%
%TD*%
%TA.AperFunction,ComponentPad*%
%ADD11O,1.600000X1.600000*%
%TD*%
%TA.AperFunction,ComponentPad*%
%ADD12C,1.600000*%
%TD*%
%TA.AperFunction,ComponentPad*%
%ADD13R,2.000000X2.000000*%
%TD*%
%TA.AperFunction,ComponentPad*%
%ADD14C,2.000000*%
%TD*%
%TA.AperFunction,ComponentPad*%
%ADD15C,2.500000*%
%TD*%
%TA.AperFunction,ComponentPad*%
%ADD16R,1.700000X1.700000*%
%TD*%
%TA.AperFunction,ComponentPad*%
%ADD17O,1.700000X1.700000*%
%TD*%
%TA.AperFunction,ViaPad*%
%ADD18C,0.800000*%
%TD*%
%TA.AperFunction,Conductor*%
%ADD19C,1.000000*%
%TD*%
G04 APERTURE END LIST*
D10*
%TO.P,U1,1,GND*%
%TO.N,GND*%
X154800000Y-105380000D03*
D11*
%TO.P,U1,2,TR*%
%TO.N,Net-(J22-Pin_1)*%
X152260000Y-105380000D03*
%TO.P,U1,3,Q*%
%TO.N,Net-(U1-Q)*%
X149720000Y-105380000D03*
%TO.P,U1,4,R*%
%TO.N,VCC*%
X147180000Y-105380000D03*
%TO.P,U1,5,CV*%
%TO.N,unconnected-(U1-CV-Pad5)*%
X147180000Y-113000000D03*
%TO.P,U1,6,THR*%
%TO.N,Net-(J22-Pin_1)*%
X149720000Y-113000000D03*
%TO.P,U1,7,DIS*%
%TO.N,Net-(U1-DIS)*%
X152260000Y-113000000D03*
%TO.P,U1,8,VCC*%
%TO.N,VCC*%
X154800000Y-113000000D03*
%TD*%
D12*
%TO.P,R16,1*%
%TO.N,Net-(J15-Pin_1)*%
X119000000Y-116690000D03*
D11*
%TO.P,R16,2*%
%TO.N,Net-(J16-Pin_1)*%
X119000000Y-124310000D03*
%TD*%
D12*
%TO.P,R2,1*%
%TO.N,Net-(U1-DIS)*%
X161000000Y-116690000D03*
D11*
%TO.P,R2,2*%
%TO.N,Net-(J2-Pin_1)*%
X161000000Y-124310000D03*
%TD*%
D13*
%TO.P,LS1,1,1*%
%TO.N,Net-(U1-Q)*%
X132500000Y-102500000D03*
D14*
%TO.P,LS1,2,2*%
%TO.N,GND*%
X132500000Y-112500000D03*
%TD*%
D12*
%TO.P,R18,1*%
%TO.N,Net-(J17-Pin_1)*%
X113000000Y-116690000D03*
D11*
%TO.P,R18,2*%
%TO.N,Net-(J18-Pin_1)*%
X113000000Y-124310000D03*
%TD*%
D12*
%TO.P,R17,1*%
%TO.N,Net-(J16-Pin_1)*%
X116000000Y-116690000D03*
D11*
%TO.P,R17,2*%
%TO.N,Net-(J17-Pin_1)*%
X116000000Y-124310000D03*
%TD*%
D12*
%TO.P,R20,1*%
%TO.N,Net-(J19-Pin_1)*%
X107000000Y-116690000D03*
D11*
%TO.P,R20,2*%
%TO.N,Net-(J20-Pin_1)*%
X107000000Y-124310000D03*
%TD*%
D12*
%TO.P,R13,1*%
%TO.N,Net-(J12-Pin_1)*%
X128000000Y-116690000D03*
D11*
%TO.P,R13,2*%
%TO.N,Net-(J13-Pin_1)*%
X128000000Y-124310000D03*
%TD*%
D15*
%TO.P,J22,1,Pin_1*%
%TO.N,Net-(J22-Pin_1)*%
X162500000Y-111000000D03*
%TD*%
D12*
%TO.P,C2,1*%
%TO.N,Net-(J22-Pin_1)*%
X152500000Y-102500000D03*
%TO.P,C2,2*%
%TO.N,GND*%
X157500000Y-102500000D03*
%TD*%
%TO.P,R11,1*%
%TO.N,Net-(J10-Pin_1)*%
X134000000Y-116690000D03*
D11*
%TO.P,R11,2*%
%TO.N,Net-(J11-Pin_1)*%
X134000000Y-124310000D03*
%TD*%
D16*
%TO.P,J1,1,Pin_1*%
%TO.N,VCC*%
X162500000Y-105275000D03*
D17*
%TO.P,J1,2,Pin_2*%
%TO.N,GND*%
X162500000Y-102735000D03*
%TD*%
D12*
%TO.P,R10,1*%
%TO.N,Net-(J9-Pin_1)*%
X137000000Y-116690000D03*
D11*
%TO.P,R10,2*%
%TO.N,Net-(J10-Pin_1)*%
X137000000Y-124310000D03*
%TD*%
D12*
%TO.P,R8,1*%
%TO.N,Net-(J7-Pin_1)*%
X143000000Y-116690000D03*
D11*
%TO.P,R8,2*%
%TO.N,Net-(J8-Pin_1)*%
X143000000Y-124310000D03*
%TD*%
D12*
%TO.P,R12,1*%
%TO.N,Net-(J11-Pin_1)*%
X131000000Y-116690000D03*
D11*
%TO.P,R12,2*%
%TO.N,Net-(J12-Pin_1)*%
X131000000Y-124310000D03*
%TD*%
D12*
%TO.P,R1,1*%
%TO.N,Net-(U1-DIS)*%
X144000000Y-112990000D03*
D11*
%TO.P,R1,2*%
%TO.N,VCC*%
X144000000Y-105370000D03*
%TD*%
D12*
%TO.P,R15,1*%
%TO.N,Net-(J14-Pin_1)*%
X122000000Y-116690000D03*
D11*
%TO.P,R15,2*%
%TO.N,Net-(J15-Pin_1)*%
X122000000Y-124310000D03*
%TD*%
D12*
%TO.P,R6,1*%
%TO.N,Net-(J5-Pin_1)*%
X149000000Y-116690000D03*
D11*
%TO.P,R6,2*%
%TO.N,Net-(J6-Pin_1)*%
X149000000Y-124310000D03*
%TD*%
D12*
%TO.P,C1,1*%
%TO.N,VCC*%
X158000000Y-111500000D03*
%TO.P,C1,2*%
%TO.N,GND*%
X158000000Y-106500000D03*
%TD*%
%TO.P,R19,1*%
%TO.N,Net-(J18-Pin_1)*%
X110000000Y-116690000D03*
D11*
%TO.P,R19,2*%
%TO.N,Net-(J19-Pin_1)*%
X110000000Y-124310000D03*
%TD*%
D12*
%TO.P,R3,1*%
%TO.N,Net-(J2-Pin_1)*%
X158000000Y-116690000D03*
D11*
%TO.P,R3,2*%
%TO.N,Net-(J3-Pin_1)*%
X158000000Y-124310000D03*
%TD*%
D12*
%TO.P,R4,1*%
%TO.N,Net-(J3-Pin_1)*%
X155000000Y-116690000D03*
D11*
%TO.P,R4,2*%
%TO.N,Net-(J4-Pin_1)*%
X155000000Y-124310000D03*
%TD*%
D12*
%TO.P,R21,1*%
%TO.N,Net-(J20-Pin_1)*%
X104000000Y-116690000D03*
D11*
%TO.P,R21,2*%
%TO.N,Net-(J21-Pin_1)*%
X104000000Y-124310000D03*
%TD*%
D12*
%TO.P,R7,1*%
%TO.N,Net-(J6-Pin_1)*%
X146000000Y-116690000D03*
D11*
%TO.P,R7,2*%
%TO.N,Net-(J7-Pin_1)*%
X146000000Y-124310000D03*
%TD*%
D12*
%TO.P,R9,1*%
%TO.N,Net-(J8-Pin_1)*%
X140000000Y-116690000D03*
D11*
%TO.P,R9,2*%
%TO.N,Net-(J9-Pin_1)*%
X140000000Y-124310000D03*
%TD*%
D12*
%TO.P,R5,1*%
%TO.N,Net-(J4-Pin_1)*%
X152000000Y-116690000D03*
D11*
%TO.P,R5,2*%
%TO.N,Net-(J5-Pin_1)*%
X152000000Y-124310000D03*
%TD*%
D12*
%TO.P,R14,1*%
%TO.N,Net-(J13-Pin_1)*%
X125000000Y-116690000D03*
D11*
%TO.P,R14,2*%
%TO.N,Net-(J14-Pin_1)*%
X125000000Y-124310000D03*
%TD*%
D18*
%TO.N,GND*%
X147500000Y-144000000D03*
X153500000Y-119500000D03*
X164000000Y-135000000D03*
X164000000Y-120000000D03*
X127500000Y-144000000D03*
X141400000Y-115000000D03*
X150500000Y-119500000D03*
X147200000Y-110100000D03*
X101000000Y-135000000D03*
X101000000Y-117000000D03*
X112500000Y-144000000D03*
X147500000Y-119500000D03*
X156500000Y-119500000D03*
X125000000Y-115000000D03*
%TO.N,Net-(J4-Pin_1)*%
X153250000Y-143250000D03*
%TO.N,Net-(J9-Pin_1)*%
X138500000Y-143300000D03*
%TO.N,Net-(J11-Pin_1)*%
X133250000Y-143250000D03*
%TO.N,Net-(J16-Pin_1)*%
X118250000Y-143250000D03*
%TD*%
D19*
%TO.N,VCC*%
X154800000Y-113000000D02*
X154800000Y-110800000D01*
X144010000Y-105380000D02*
X144000000Y-105370000D01*
X154800000Y-110800000D02*
X153000000Y-109000000D01*
X158000000Y-110500000D02*
X158000000Y-111500000D01*
X162500000Y-105275000D02*
X162500000Y-106000000D01*
X153000000Y-109000000D02*
X149500000Y-109000000D01*
X162500000Y-106000000D02*
X158000000Y-110500000D01*
X147180000Y-105380000D02*
X144010000Y-105380000D01*
X156300000Y-111500000D02*
X154800000Y-113000000D01*
X158000000Y-111500000D02*
X156300000Y-111500000D01*
X147180000Y-106680000D02*
X147180000Y-105380000D01*
X149500000Y-109000000D02*
X147180000Y-106680000D01*
%TO.N,Net-(J2-Pin_1)*%
X160100000Y-137500000D02*
X161300000Y-136300000D01*
X161300000Y-124610000D02*
X161000000Y-124310000D01*
X160000000Y-137500000D02*
X160100000Y-137500000D01*
X158000000Y-121310000D02*
X161000000Y-124310000D01*
X158000000Y-116690000D02*
X158000000Y-121310000D01*
X161300000Y-136300000D02*
X161300000Y-124610000D01*
%TO.N,Net-(J3-Pin_1)*%
X155000000Y-121310000D02*
X158000000Y-124310000D01*
X155000000Y-116690000D02*
X155000000Y-121310000D01*
X157500000Y-132500000D02*
X157500000Y-124810000D01*
X157500000Y-124810000D02*
X158000000Y-124310000D01*
%TO.N,Net-(J4-Pin_1)*%
X153250000Y-142750000D02*
X155000000Y-141000000D01*
X155000000Y-141000000D02*
X155000000Y-137500000D01*
X152000000Y-121310000D02*
X155000000Y-124310000D01*
X152000000Y-116690000D02*
X152000000Y-121310000D01*
X153250000Y-143250000D02*
X153250000Y-142750000D01*
%TO.N,Net-(J5-Pin_1)*%
X152500000Y-124810000D02*
X152000000Y-124310000D01*
X152500000Y-132500000D02*
X152500000Y-124810000D01*
X149000000Y-121310000D02*
X152000000Y-124310000D01*
X149000000Y-116690000D02*
X149000000Y-121310000D01*
%TO.N,Net-(J6-Pin_1)*%
X148900000Y-136400000D02*
X148900000Y-124410000D01*
X148900000Y-124410000D02*
X149000000Y-124310000D01*
X146000000Y-121310000D02*
X149000000Y-124310000D01*
X150000000Y-137500000D02*
X148900000Y-136400000D01*
X146000000Y-116690000D02*
X146000000Y-121310000D01*
%TO.N,Net-(J7-Pin_1)*%
X143000000Y-121310000D02*
X146000000Y-124310000D01*
X146300000Y-135600000D02*
X146300000Y-124610000D01*
X145000000Y-137500000D02*
X145000000Y-136900000D01*
X146300000Y-124610000D02*
X146000000Y-124310000D01*
X143000000Y-116690000D02*
X143000000Y-121310000D01*
X145000000Y-136900000D02*
X146300000Y-135600000D01*
%TO.N,Net-(J8-Pin_1)*%
X142500000Y-124810000D02*
X143000000Y-124310000D01*
X142500000Y-132500000D02*
X142500000Y-124810000D01*
X140000000Y-121310000D02*
X143000000Y-124310000D01*
X140000000Y-116690000D02*
X140000000Y-121310000D01*
%TO.N,Net-(J9-Pin_1)*%
X137000000Y-116690000D02*
X137000000Y-121310000D01*
X138500000Y-143300000D02*
X138500000Y-142500000D01*
X140000000Y-141000000D02*
X140000000Y-137500000D01*
X138500000Y-142500000D02*
X140000000Y-141000000D01*
X137000000Y-121310000D02*
X140000000Y-124310000D01*
%TO.N,Net-(J10-Pin_1)*%
X137500000Y-124810000D02*
X137000000Y-124310000D01*
X134000000Y-121310000D02*
X137000000Y-124310000D01*
X137500000Y-132500000D02*
X137500000Y-124810000D01*
X134000000Y-116690000D02*
X134000000Y-121310000D01*
%TO.N,Net-(J11-Pin_1)*%
X131000000Y-121310000D02*
X134000000Y-124310000D01*
X131000000Y-116690000D02*
X131000000Y-121310000D01*
X133250000Y-143250000D02*
X133250000Y-142250000D01*
X135000000Y-140500000D02*
X135000000Y-137500000D01*
X133250000Y-142250000D02*
X135000000Y-140500000D01*
%TO.N,Net-(J12-Pin_1)*%
X128000000Y-116690000D02*
X128000000Y-121310000D01*
X131000000Y-124310000D02*
X132500000Y-125810000D01*
X128000000Y-121310000D02*
X131000000Y-124310000D01*
X132500000Y-125810000D02*
X132500000Y-132500000D01*
%TO.N,Net-(J13-Pin_1)*%
X130000000Y-136300000D02*
X130000000Y-137500000D01*
X125000000Y-121310000D02*
X128000000Y-124310000D01*
X128800000Y-126400000D02*
X128800000Y-135100000D01*
X128800000Y-135100000D02*
X130000000Y-136300000D01*
X125000000Y-116690000D02*
X125000000Y-121310000D01*
X128000000Y-124310000D02*
X128000000Y-125600000D01*
X128000000Y-125600000D02*
X128800000Y-126400000D01*
%TO.N,Net-(J14-Pin_1)*%
X126300000Y-125610000D02*
X126300000Y-136200000D01*
X125000000Y-124310000D02*
X126300000Y-125610000D01*
X122000000Y-121310000D02*
X125000000Y-124310000D01*
X122000000Y-116690000D02*
X122000000Y-121310000D01*
X126300000Y-136200000D02*
X125000000Y-137500000D01*
%TO.N,Net-(J15-Pin_1)*%
X119000000Y-121310000D02*
X122000000Y-124310000D01*
X122000000Y-124310000D02*
X122500000Y-124810000D01*
X119000000Y-116690000D02*
X119000000Y-121310000D01*
X122500000Y-124810000D02*
X122500000Y-132500000D01*
%TO.N,Net-(J16-Pin_1)*%
X116000000Y-116690000D02*
X116000000Y-121310000D01*
X118250000Y-143250000D02*
X118250000Y-142500000D01*
X120000000Y-140750000D02*
X120000000Y-137500000D01*
X116000000Y-121310000D02*
X119000000Y-124310000D01*
X118250000Y-142500000D02*
X120000000Y-140750000D01*
%TO.N,Net-(J17-Pin_1)*%
X113000000Y-116690000D02*
X113000000Y-121310000D01*
X116000000Y-124310000D02*
X117400000Y-125710000D01*
X117400000Y-125710000D02*
X117400000Y-132400000D01*
X117400000Y-132400000D02*
X117500000Y-132500000D01*
X113000000Y-121310000D02*
X116000000Y-124310000D01*
%TO.N,Net-(J18-Pin_1)*%
X110000000Y-116690000D02*
X110000000Y-121310000D01*
X113000000Y-126000000D02*
X113700000Y-126700000D01*
X113000000Y-124310000D02*
X113000000Y-126000000D01*
X110000000Y-121310000D02*
X113000000Y-124310000D01*
X113700000Y-136200000D02*
X115000000Y-137500000D01*
X113700000Y-126700000D02*
X113700000Y-136200000D01*
%TO.N,Net-(J19-Pin_1)*%
X111200000Y-136100000D02*
X110000000Y-137300000D01*
X110000000Y-125500000D02*
X111200000Y-126700000D01*
X110000000Y-124310000D02*
X110000000Y-125500000D01*
X107000000Y-116690000D02*
X107000000Y-121310000D01*
X110000000Y-137300000D02*
X110000000Y-137500000D01*
X107000000Y-121310000D02*
X110000000Y-124310000D01*
X111200000Y-126700000D02*
X111200000Y-136100000D01*
%TO.N,Net-(J20-Pin_1)*%
X107000000Y-124310000D02*
X107500000Y-124810000D01*
X104000000Y-121310000D02*
X107000000Y-124310000D01*
X104000000Y-116690000D02*
X104000000Y-121310000D01*
X107500000Y-124810000D02*
X107500000Y-132500000D01*
%TO.N,Net-(J21-Pin_1)*%
X104000000Y-124310000D02*
X104000000Y-136500000D01*
X104000000Y-136500000D02*
X105000000Y-137500000D01*
%TO.N,Net-(U1-Q)*%
X148200000Y-102500000D02*
X132500000Y-102500000D01*
X149720000Y-105380000D02*
X149720000Y-104020000D01*
X149720000Y-104020000D02*
X148200000Y-102500000D01*
%TO.N,Net-(U1-DIS)*%
X152260000Y-113960000D02*
X152260000Y-113000000D01*
X145800000Y-114800000D02*
X144000000Y-113000000D01*
X161000000Y-116690000D02*
X161000000Y-115500000D01*
X161000000Y-115500000D02*
X160300000Y-114800000D01*
X153100000Y-114800000D02*
X152260000Y-113960000D01*
X152260000Y-113000000D02*
X152260000Y-113940000D01*
X151400000Y-114800000D02*
X145800000Y-114800000D01*
X152260000Y-113940000D02*
X151400000Y-114800000D01*
X144000000Y-113000000D02*
X144000000Y-112990000D01*
X160300000Y-114800000D02*
X153100000Y-114800000D01*
%TD*%
%TA.AperFunction,Conductor*%
%TO.N,Net-(J18-Pin_1)*%
G36*
X114818192Y-127507535D02*
G01*
X114832825Y-127513596D01*
X114879351Y-127553333D01*
X114886405Y-127567180D01*
X114887635Y-127570150D01*
X114894665Y-127617471D01*
X114894858Y-127614850D01*
X114894739Y-127617258D01*
X114894500Y-127619691D01*
X114894500Y-134448826D01*
X114894557Y-134449993D01*
X114894558Y-134450020D01*
X114895429Y-134467757D01*
X114895431Y-134467795D01*
X114895489Y-134468959D01*
X114895603Y-134470124D01*
X114895606Y-134470155D01*
X114897270Y-134487057D01*
X114897273Y-134487084D01*
X114897390Y-134488269D01*
X114897569Y-134489482D01*
X114897570Y-134489483D01*
X114898929Y-134498648D01*
X114900000Y-134513169D01*
X114900000Y-134600000D01*
X115900000Y-135600000D01*
X115986835Y-135600000D01*
X116001360Y-135601071D01*
X116011709Y-135602607D01*
X116031028Y-135604510D01*
X116051173Y-135605500D01*
X117293587Y-135605500D01*
X117331472Y-135613036D01*
X117332824Y-135613596D01*
X117379350Y-135653332D01*
X117386405Y-135667180D01*
X117387635Y-135670150D01*
X117394665Y-135717471D01*
X117394858Y-135714850D01*
X117394739Y-135717258D01*
X117394500Y-135719691D01*
X117394500Y-142380308D01*
X117394737Y-142382721D01*
X117394857Y-142385153D01*
X117394660Y-142382493D01*
X117387634Y-142429853D01*
X117386403Y-142432825D01*
X117346666Y-142479351D01*
X117332826Y-142486403D01*
X117326680Y-142488948D01*
X117318195Y-142492463D01*
X117280309Y-142500000D01*
X112719691Y-142500000D01*
X112681805Y-142492463D01*
X112667170Y-142486401D01*
X112620647Y-142446663D01*
X112613598Y-142432830D01*
X112613596Y-142432825D01*
X112612367Y-142429858D01*
X112605340Y-142382467D01*
X112605142Y-142385155D01*
X112605260Y-142382735D01*
X112605500Y-142380308D01*
X112605500Y-127619691D01*
X112605260Y-127617264D01*
X112605142Y-127614844D01*
X112605340Y-127617531D01*
X112612367Y-127570141D01*
X112613599Y-127567167D01*
X112653337Y-127520646D01*
X112667166Y-127513599D01*
X112681810Y-127507534D01*
X112719691Y-127500000D01*
X114780309Y-127500000D01*
X114818192Y-127507535D01*
G37*
%TD.AperFunction*%
%TD*%
%TA.AperFunction,Conductor*%
%TO.N,Net-(J16-Pin_1)*%
G36*
X120037883Y-134757113D02*
G01*
X120052516Y-134763174D01*
X120084634Y-134784634D01*
X120900000Y-135600000D01*
X122280309Y-135600000D01*
X122318192Y-135607535D01*
X122332825Y-135613596D01*
X122379351Y-135653333D01*
X122386405Y-135667180D01*
X122387635Y-135670150D01*
X122394665Y-135717471D01*
X122394858Y-135714850D01*
X122394739Y-135717258D01*
X122394500Y-135719691D01*
X122394500Y-142380308D01*
X122394737Y-142382721D01*
X122394857Y-142385153D01*
X122394660Y-142382493D01*
X122387634Y-142429853D01*
X122386403Y-142432825D01*
X122346666Y-142479351D01*
X122332826Y-142486403D01*
X122326680Y-142488948D01*
X122318195Y-142492463D01*
X122280309Y-142500000D01*
X117719691Y-142500000D01*
X117681805Y-142492463D01*
X117667170Y-142486401D01*
X117620647Y-142446663D01*
X117613596Y-142432825D01*
X117607534Y-142418190D01*
X117600000Y-142380308D01*
X117600000Y-135719691D01*
X117607534Y-135681810D01*
X117613596Y-135667173D01*
X117653331Y-135620650D01*
X117667194Y-135613588D01*
X117668551Y-135613026D01*
X117706413Y-135605500D01*
X118947631Y-135605500D01*
X118948827Y-135605500D01*
X118968979Y-135604509D01*
X118988301Y-135602605D01*
X118998632Y-135601072D01*
X119013163Y-135600000D01*
X119058578Y-135600000D01*
X119058579Y-135600000D01*
X119100000Y-135600000D01*
X119915365Y-134784633D01*
X119947485Y-134763173D01*
X119962116Y-134757113D01*
X120023113Y-134752314D01*
X120037883Y-134757113D01*
G37*
%TD.AperFunction*%
%TD*%
%TA.AperFunction,Conductor*%
%TO.N,Net-(J21-Pin_1)*%
G36*
X104818192Y-127507535D02*
G01*
X104832825Y-127513596D01*
X104879351Y-127553333D01*
X104886405Y-127567180D01*
X104887635Y-127570150D01*
X104894665Y-127617471D01*
X104894858Y-127614850D01*
X104894739Y-127617258D01*
X104894500Y-127619691D01*
X104894500Y-134448826D01*
X104894557Y-134449993D01*
X104894558Y-134450020D01*
X104895429Y-134467757D01*
X104895431Y-134467795D01*
X104895489Y-134468959D01*
X104895603Y-134470124D01*
X104895606Y-134470155D01*
X104897270Y-134487057D01*
X104897273Y-134487084D01*
X104897390Y-134488269D01*
X104897569Y-134489482D01*
X104897570Y-134489483D01*
X104898929Y-134498648D01*
X104900000Y-134513169D01*
X104900000Y-134600000D01*
X105900000Y-135600000D01*
X105986835Y-135600000D01*
X106001360Y-135601071D01*
X106011709Y-135602607D01*
X106031028Y-135604510D01*
X106051173Y-135605500D01*
X107293587Y-135605500D01*
X107331472Y-135613036D01*
X107332824Y-135613596D01*
X107379350Y-135653332D01*
X107386405Y-135667180D01*
X107387635Y-135670150D01*
X107394665Y-135717471D01*
X107394858Y-135714850D01*
X107394739Y-135717258D01*
X107394500Y-135719691D01*
X107394500Y-142380308D01*
X107394737Y-142382721D01*
X107394857Y-142385153D01*
X107394660Y-142382493D01*
X107387634Y-142429853D01*
X107386403Y-142432825D01*
X107346666Y-142479351D01*
X107332826Y-142486403D01*
X107326680Y-142488948D01*
X107318195Y-142492463D01*
X107280309Y-142500000D01*
X102719691Y-142500000D01*
X102681805Y-142492463D01*
X102667170Y-142486401D01*
X102620647Y-142446663D01*
X102613596Y-142432825D01*
X102607534Y-142418190D01*
X102600000Y-142380308D01*
X102600000Y-127619691D01*
X102607534Y-127581810D01*
X102613596Y-127567173D01*
X102653331Y-127520650D01*
X102667166Y-127513599D01*
X102681810Y-127507534D01*
X102719691Y-127500000D01*
X104780309Y-127500000D01*
X104818192Y-127507535D01*
G37*
%TD.AperFunction*%
%TD*%
%TA.AperFunction,Conductor*%
%TO.N,Net-(J19-Pin_1)*%
G36*
X112318192Y-127507535D02*
G01*
X112332825Y-127513596D01*
X112379351Y-127553333D01*
X112386401Y-127567169D01*
X112392463Y-127581805D01*
X112400000Y-127619691D01*
X112400000Y-142380308D01*
X112392463Y-142418197D01*
X112386402Y-142432828D01*
X112346663Y-142479352D01*
X112332830Y-142486401D01*
X112325448Y-142489458D01*
X112318197Y-142492462D01*
X112280309Y-142500000D01*
X107719691Y-142500000D01*
X107681805Y-142492463D01*
X107667170Y-142486401D01*
X107620647Y-142446663D01*
X107613597Y-142432828D01*
X107607534Y-142418190D01*
X107600000Y-142380308D01*
X107600000Y-135719691D01*
X107607534Y-135681810D01*
X107613596Y-135667173D01*
X107653331Y-135620650D01*
X107667194Y-135613588D01*
X107668551Y-135613026D01*
X107706413Y-135605500D01*
X108947631Y-135605500D01*
X108948827Y-135605500D01*
X108968979Y-135604509D01*
X108988301Y-135602605D01*
X108998632Y-135601072D01*
X109013163Y-135600000D01*
X109058578Y-135600000D01*
X109058579Y-135600000D01*
X109100000Y-135600000D01*
X110100000Y-134600000D01*
X110100000Y-134513164D01*
X110101072Y-134498635D01*
X110102607Y-134488290D01*
X110104510Y-134468970D01*
X110105500Y-134448826D01*
X110105500Y-127619691D01*
X110105260Y-127617264D01*
X110105142Y-127614844D01*
X110105340Y-127617531D01*
X110112367Y-127570141D01*
X110113599Y-127567167D01*
X110153337Y-127520646D01*
X110167166Y-127513599D01*
X110181810Y-127507534D01*
X110219691Y-127500000D01*
X112280309Y-127500000D01*
X112318192Y-127507535D01*
G37*
%TD.AperFunction*%
%TD*%
%TA.AperFunction,Conductor*%
%TO.N,Net-(J20-Pin_1)*%
G36*
X109818192Y-127507535D02*
G01*
X109832825Y-127513596D01*
X109879351Y-127553333D01*
X109886401Y-127567170D01*
X109892463Y-127581805D01*
X109900000Y-127619691D01*
X109900000Y-134448826D01*
X109898097Y-134468146D01*
X109896228Y-134477539D01*
X109881447Y-134513220D01*
X109876129Y-134521179D01*
X109863817Y-134536182D01*
X109036182Y-135363817D01*
X109021179Y-135376129D01*
X109013220Y-135381447D01*
X108977541Y-135396227D01*
X108968149Y-135398096D01*
X108948827Y-135400000D01*
X106051173Y-135400000D01*
X106031854Y-135398097D01*
X106028794Y-135397488D01*
X106022460Y-135396228D01*
X105986779Y-135381447D01*
X105978820Y-135376129D01*
X105963817Y-135363817D01*
X105136182Y-134536182D01*
X105123870Y-134521179D01*
X105118552Y-134513220D01*
X105103769Y-134477529D01*
X105101901Y-134468136D01*
X105100000Y-134448826D01*
X105100000Y-127619691D01*
X105107534Y-127581810D01*
X105113596Y-127567173D01*
X105153331Y-127520650D01*
X105167166Y-127513599D01*
X105181810Y-127507534D01*
X105219691Y-127500000D01*
X109780309Y-127500000D01*
X109818192Y-127507535D01*
G37*
%TD.AperFunction*%
%TD*%
%TA.AperFunction,Conductor*%
%TO.N,GND*%
G36*
X148912793Y-115519407D02*
G01*
X148948757Y-115568907D01*
X148948757Y-115630093D01*
X148912793Y-115679593D01*
X148864305Y-115698023D01*
X148803869Y-115703975D01*
X148615272Y-115761185D01*
X148441463Y-115854088D01*
X148289117Y-115979117D01*
X148164088Y-116131463D01*
X148071185Y-116305272D01*
X148013975Y-116493869D01*
X147994658Y-116690000D01*
X148013975Y-116886130D01*
X148071185Y-117074727D01*
X148164088Y-117248536D01*
X148277028Y-117386153D01*
X148299328Y-117443129D01*
X148299500Y-117448958D01*
X148299500Y-121285844D01*
X148299319Y-121291822D01*
X148295641Y-121352604D01*
X148306622Y-121412529D01*
X148307521Y-121418437D01*
X148314860Y-121478873D01*
X148319256Y-121490465D01*
X148324067Y-121507721D01*
X148326305Y-121519932D01*
X148351302Y-121575473D01*
X148353581Y-121580974D01*
X148368465Y-121620219D01*
X148375182Y-121637931D01*
X148382228Y-121648138D01*
X148391031Y-121663746D01*
X148396121Y-121675056D01*
X148433676Y-121722991D01*
X148437214Y-121727799D01*
X148471817Y-121777929D01*
X148517389Y-121818302D01*
X148521744Y-121822401D01*
X150968007Y-124268664D01*
X150995784Y-124323181D01*
X150996526Y-124328964D01*
X151013975Y-124506131D01*
X151071185Y-124694727D01*
X151164088Y-124868536D01*
X151177026Y-124884301D01*
X151289117Y-125020883D01*
X151418298Y-125126900D01*
X151441463Y-125145911D01*
X151615272Y-125238814D01*
X151640663Y-125246516D01*
X151729237Y-125273384D01*
X151779434Y-125308368D01*
X151799481Y-125366176D01*
X151799500Y-125368121D01*
X151799500Y-127195500D01*
X151780593Y-127253691D01*
X151731093Y-127289655D01*
X151700500Y-127294500D01*
X150219691Y-127294500D01*
X150217270Y-127294738D01*
X150217258Y-127294739D01*
X150182033Y-127298208D01*
X150182015Y-127298210D01*
X150179605Y-127298448D01*
X150177233Y-127298919D01*
X150177211Y-127298923D01*
X150144118Y-127305505D01*
X150144101Y-127305509D01*
X150141724Y-127305982D01*
X150139406Y-127306684D01*
X150139394Y-127306688D01*
X150105502Y-127316967D01*
X150105486Y-127316972D01*
X150103177Y-127317673D01*
X150100946Y-127318596D01*
X150100932Y-127318602D01*
X150088533Y-127323738D01*
X150086763Y-127324533D01*
X150073863Y-127330501D01*
X150072116Y-127331369D01*
X150060066Y-127337521D01*
X150059091Y-127338291D01*
X150057181Y-127338995D01*
X150051350Y-127341973D01*
X150050995Y-127341276D01*
X150001685Y-127359463D01*
X149946081Y-127344951D01*
X149918332Y-127327947D01*
X149911461Y-127323736D01*
X149899069Y-127318604D01*
X149896831Y-127317677D01*
X149894515Y-127316974D01*
X149894511Y-127316973D01*
X149860616Y-127306691D01*
X149860610Y-127306689D01*
X149858281Y-127305983D01*
X149855893Y-127305508D01*
X149855889Y-127305507D01*
X149822777Y-127298921D01*
X149822773Y-127298920D01*
X149820398Y-127298448D01*
X149817994Y-127298211D01*
X149817979Y-127298209D01*
X149782741Y-127294739D01*
X149782730Y-127294738D01*
X149780309Y-127294500D01*
X149777869Y-127294500D01*
X149699500Y-127294500D01*
X149641309Y-127275593D01*
X149605345Y-127226093D01*
X149600500Y-127195500D01*
X149600500Y-125158295D01*
X149619407Y-125100104D01*
X149636692Y-125081769D01*
X149710883Y-125020883D01*
X149835910Y-124868538D01*
X149928814Y-124694727D01*
X149986024Y-124506132D01*
X150005341Y-124310000D01*
X149986024Y-124113868D01*
X149928814Y-123925273D01*
X149928814Y-123925272D01*
X149835911Y-123751463D01*
X149816900Y-123728298D01*
X149710883Y-123599117D01*
X149558538Y-123474090D01*
X149558539Y-123474090D01*
X149558536Y-123474088D01*
X149384727Y-123381185D01*
X149196131Y-123323975D01*
X149018964Y-123306526D01*
X148962907Y-123282006D01*
X148958664Y-123278007D01*
X146729496Y-121048839D01*
X146701719Y-120994322D01*
X146700500Y-120978835D01*
X146700500Y-117448958D01*
X146719407Y-117390767D01*
X146722972Y-117386153D01*
X146761702Y-117338960D01*
X146835910Y-117248538D01*
X146928814Y-117074727D01*
X146986024Y-116886132D01*
X147005341Y-116690000D01*
X146986024Y-116493868D01*
X146928814Y-116305273D01*
X146928814Y-116305272D01*
X146835911Y-116131463D01*
X146816900Y-116108298D01*
X146710883Y-115979117D01*
X146558538Y-115854090D01*
X146558539Y-115854090D01*
X146558536Y-115854088D01*
X146384727Y-115761185D01*
X146196130Y-115703975D01*
X146135695Y-115698023D01*
X146079637Y-115673504D01*
X146048698Y-115620717D01*
X146054695Y-115559826D01*
X146095338Y-115514089D01*
X146145398Y-115500500D01*
X148854602Y-115500500D01*
X148912793Y-115519407D01*
G37*
%TD.AperFunction*%
%TA.AperFunction,Conductor*%
G36*
X152294944Y-114992454D02*
G01*
X152320003Y-115010660D01*
X152587597Y-115278254D01*
X152591695Y-115282609D01*
X152632068Y-115328180D01*
X152632071Y-115328183D01*
X152682213Y-115362793D01*
X152686987Y-115366306D01*
X152734943Y-115403877D01*
X152746248Y-115408964D01*
X152761857Y-115417768D01*
X152772070Y-115424818D01*
X152829010Y-115446412D01*
X152834536Y-115448701D01*
X152853854Y-115457395D01*
X152890068Y-115473694D01*
X152902272Y-115475930D01*
X152919532Y-115480742D01*
X152931128Y-115485140D01*
X152991605Y-115492483D01*
X152997470Y-115493375D01*
X153057394Y-115504357D01*
X153057394Y-115504356D01*
X153057395Y-115504357D01*
X153094059Y-115502139D01*
X153118167Y-115500680D01*
X153124144Y-115500500D01*
X154854602Y-115500500D01*
X154912793Y-115519407D01*
X154948757Y-115568907D01*
X154948757Y-115630093D01*
X154912793Y-115679593D01*
X154864305Y-115698023D01*
X154803869Y-115703975D01*
X154615272Y-115761185D01*
X154441463Y-115854088D01*
X154289117Y-115979117D01*
X154164088Y-116131463D01*
X154071185Y-116305272D01*
X154013975Y-116493869D01*
X153994658Y-116690000D01*
X154013975Y-116886130D01*
X154071185Y-117074727D01*
X154164088Y-117248536D01*
X154277028Y-117386153D01*
X154299328Y-117443129D01*
X154299500Y-117448958D01*
X154299500Y-121285844D01*
X154299319Y-121291822D01*
X154295641Y-121352604D01*
X154306622Y-121412529D01*
X154307521Y-121418437D01*
X154314860Y-121478873D01*
X154319256Y-121490465D01*
X154324067Y-121507721D01*
X154326305Y-121519932D01*
X154351302Y-121575473D01*
X154353581Y-121580974D01*
X154368465Y-121620219D01*
X154375182Y-121637931D01*
X154382228Y-121648138D01*
X154391031Y-121663746D01*
X154396121Y-121675056D01*
X154433676Y-121722991D01*
X154437214Y-121727799D01*
X154471817Y-121777929D01*
X154517389Y-121818302D01*
X154521744Y-121822401D01*
X156941897Y-124242554D01*
X156969674Y-124297071D01*
X156960103Y-124357503D01*
X156953369Y-124368796D01*
X156937225Y-124392185D01*
X156933681Y-124397001D01*
X156896121Y-124444944D01*
X156891029Y-124456257D01*
X156882230Y-124471857D01*
X156875182Y-124482067D01*
X156853593Y-124538993D01*
X156851306Y-124544515D01*
X156826305Y-124600067D01*
X156824067Y-124612279D01*
X156819258Y-124629527D01*
X156814861Y-124641127D01*
X156814860Y-124641129D01*
X156807521Y-124701562D01*
X156806622Y-124707469D01*
X156795641Y-124767395D01*
X156799319Y-124828176D01*
X156799500Y-124834154D01*
X156799500Y-127195500D01*
X156780593Y-127253691D01*
X156731093Y-127289655D01*
X156700500Y-127294500D01*
X155219691Y-127294500D01*
X155217270Y-127294738D01*
X155217258Y-127294739D01*
X155182033Y-127298208D01*
X155182015Y-127298210D01*
X155179605Y-127298448D01*
X155177233Y-127298919D01*
X155177211Y-127298923D01*
X155144118Y-127305505D01*
X155144101Y-127305509D01*
X155141724Y-127305982D01*
X155139406Y-127306684D01*
X155139394Y-127306688D01*
X155105502Y-127316967D01*
X155105486Y-127316972D01*
X155103177Y-127317673D01*
X155100946Y-127318596D01*
X155100932Y-127318602D01*
X155088533Y-127323738D01*
X155086774Y-127324528D01*
X155073853Y-127330506D01*
X155072103Y-127331377D01*
X155060044Y-127337535D01*
X155059094Y-127338284D01*
X155057233Y-127338970D01*
X155051332Y-127341984D01*
X155050973Y-127341279D01*
X155001690Y-127359461D01*
X154946079Y-127344949D01*
X154911465Y-127323738D01*
X154899069Y-127318604D01*
X154896831Y-127317677D01*
X154894515Y-127316974D01*
X154894511Y-127316973D01*
X154860616Y-127306691D01*
X154860610Y-127306689D01*
X154858281Y-127305983D01*
X154855893Y-127305508D01*
X154855889Y-127305507D01*
X154822777Y-127298921D01*
X154822773Y-127298920D01*
X154820398Y-127298448D01*
X154817994Y-127298211D01*
X154817979Y-127298209D01*
X154782741Y-127294739D01*
X154782730Y-127294738D01*
X154780309Y-127294500D01*
X154777869Y-127294500D01*
X153299500Y-127294500D01*
X153241309Y-127275593D01*
X153205345Y-127226093D01*
X153200500Y-127195500D01*
X153200500Y-124834154D01*
X153200681Y-124828176D01*
X153204358Y-124767394D01*
X153193378Y-124707481D01*
X153192478Y-124701567D01*
X153185140Y-124641128D01*
X153180745Y-124629539D01*
X153175932Y-124612277D01*
X153173695Y-124600069D01*
X153148690Y-124544512D01*
X153146408Y-124539000D01*
X153146405Y-124538993D01*
X153124818Y-124482070D01*
X153117765Y-124471853D01*
X153108968Y-124456254D01*
X153103878Y-124444944D01*
X153066318Y-124397001D01*
X153062780Y-124392193D01*
X153062774Y-124392185D01*
X153028183Y-124342071D01*
X153028182Y-124342070D01*
X153021354Y-124332178D01*
X153024629Y-124329917D01*
X153004670Y-124295994D01*
X153002812Y-124284327D01*
X152986024Y-124113868D01*
X152928814Y-123925273D01*
X152928814Y-123925272D01*
X152835911Y-123751463D01*
X152816900Y-123728298D01*
X152710883Y-123599117D01*
X152558538Y-123474090D01*
X152558539Y-123474090D01*
X152558536Y-123474088D01*
X152384727Y-123381185D01*
X152196131Y-123323975D01*
X152018964Y-123306526D01*
X151962907Y-123282006D01*
X151958664Y-123278007D01*
X149729496Y-121048839D01*
X149701719Y-120994322D01*
X149700500Y-120978835D01*
X149700500Y-117448958D01*
X149719407Y-117390767D01*
X149722972Y-117386153D01*
X149761702Y-117338960D01*
X149835910Y-117248538D01*
X149928814Y-117074727D01*
X149986024Y-116886132D01*
X150005341Y-116690000D01*
X150994658Y-116690000D01*
X151013975Y-116886130D01*
X151071185Y-117074727D01*
X151164088Y-117248536D01*
X151277028Y-117386153D01*
X151299328Y-117443129D01*
X151299500Y-117448958D01*
X151299500Y-121285844D01*
X151299319Y-121291822D01*
X151295641Y-121352604D01*
X151306622Y-121412529D01*
X151307521Y-121418437D01*
X151314860Y-121478873D01*
X151319256Y-121490465D01*
X151324067Y-121507721D01*
X151326305Y-121519932D01*
X151351302Y-121575473D01*
X151353581Y-121580974D01*
X151368465Y-121620219D01*
X151375182Y-121637931D01*
X151382228Y-121648138D01*
X151391031Y-121663746D01*
X151396121Y-121675056D01*
X151433676Y-121722991D01*
X151437214Y-121727799D01*
X151471817Y-121777929D01*
X151517389Y-121818302D01*
X151521744Y-121822401D01*
X153968007Y-124268664D01*
X153995784Y-124323181D01*
X153996526Y-124328964D01*
X154013975Y-124506131D01*
X154071185Y-124694727D01*
X154164088Y-124868536D01*
X154177026Y-124884301D01*
X154289117Y-125020883D01*
X154418298Y-125126900D01*
X154441463Y-125145911D01*
X154615272Y-125238814D01*
X154709570Y-125267418D01*
X154803868Y-125296024D01*
X155000000Y-125315341D01*
X155196132Y-125296024D01*
X155384727Y-125238814D01*
X155558538Y-125145910D01*
X155710883Y-125020883D01*
X155835910Y-124868538D01*
X155928814Y-124694727D01*
X155986024Y-124506132D01*
X156005341Y-124310000D01*
X155986024Y-124113868D01*
X155928814Y-123925273D01*
X155928814Y-123925272D01*
X155835911Y-123751463D01*
X155816900Y-123728298D01*
X155710883Y-123599117D01*
X155558538Y-123474090D01*
X155558539Y-123474090D01*
X155558536Y-123474088D01*
X155384727Y-123381185D01*
X155196131Y-123323975D01*
X155018964Y-123306526D01*
X154962907Y-123282006D01*
X154958664Y-123278007D01*
X152729496Y-121048839D01*
X152701719Y-120994322D01*
X152700500Y-120978835D01*
X152700500Y-117448958D01*
X152719407Y-117390767D01*
X152722972Y-117386153D01*
X152761702Y-117338960D01*
X152835910Y-117248538D01*
X152928814Y-117074727D01*
X152986024Y-116886132D01*
X153005341Y-116690000D01*
X152986024Y-116493868D01*
X152928814Y-116305273D01*
X152928814Y-116305272D01*
X152835911Y-116131463D01*
X152816900Y-116108298D01*
X152710883Y-115979117D01*
X152558538Y-115854090D01*
X152558539Y-115854090D01*
X152558536Y-115854088D01*
X152384727Y-115761185D01*
X152196130Y-115703975D01*
X152000000Y-115684658D01*
X151803869Y-115703975D01*
X151615272Y-115761185D01*
X151441463Y-115854088D01*
X151289117Y-115979117D01*
X151164088Y-116131463D01*
X151071185Y-116305272D01*
X151013975Y-116493869D01*
X150994658Y-116690000D01*
X150005341Y-116690000D01*
X149986024Y-116493868D01*
X149928814Y-116305273D01*
X149928814Y-116305272D01*
X149835911Y-116131463D01*
X149816900Y-116108298D01*
X149710883Y-115979117D01*
X149558538Y-115854090D01*
X149558539Y-115854090D01*
X149558536Y-115854088D01*
X149384727Y-115761185D01*
X149196130Y-115703975D01*
X149135695Y-115698023D01*
X149079637Y-115673504D01*
X149048698Y-115620717D01*
X149054695Y-115559826D01*
X149095338Y-115514089D01*
X149145398Y-115500500D01*
X151375845Y-115500500D01*
X151381823Y-115500681D01*
X151442605Y-115504358D01*
X151442605Y-115504357D01*
X151442606Y-115504358D01*
X151502534Y-115493375D01*
X151508419Y-115492479D01*
X151568872Y-115485140D01*
X151580472Y-115480740D01*
X151597714Y-115475933D01*
X151609932Y-115473695D01*
X151665499Y-115448685D01*
X151670974Y-115446417D01*
X151727930Y-115424818D01*
X151738141Y-115417768D01*
X151753749Y-115408966D01*
X151765057Y-115403878D01*
X151813000Y-115366315D01*
X151817813Y-115362775D01*
X151867929Y-115328183D01*
X151908335Y-115282572D01*
X151912386Y-115278269D01*
X152179997Y-115010659D01*
X152234512Y-114982883D01*
X152294944Y-114992454D01*
G37*
%TD.AperFunction*%
%TA.AperFunction,Conductor*%
G36*
X157912793Y-115519407D02*
G01*
X157948757Y-115568907D01*
X157948757Y-115630093D01*
X157912793Y-115679593D01*
X157864305Y-115698023D01*
X157803869Y-115703975D01*
X157615272Y-115761185D01*
X157441463Y-115854088D01*
X157289117Y-115979117D01*
X157164088Y-116131463D01*
X157071185Y-116305272D01*
X157013975Y-116493869D01*
X156994658Y-116689999D01*
X157013975Y-116886130D01*
X157071185Y-117074727D01*
X157164088Y-117248536D01*
X157277028Y-117386153D01*
X157299328Y-117443129D01*
X157299500Y-117448958D01*
X157299500Y-121285844D01*
X157299319Y-121291822D01*
X157295641Y-121352604D01*
X157306622Y-121412529D01*
X157307521Y-121418437D01*
X157314860Y-121478873D01*
X157319256Y-121490465D01*
X157324067Y-121507721D01*
X157326305Y-121519932D01*
X157351302Y-121575473D01*
X157353581Y-121580974D01*
X157368465Y-121620219D01*
X157375182Y-121637931D01*
X157382228Y-121648138D01*
X157391031Y-121663746D01*
X157396121Y-121675056D01*
X157433676Y-121722991D01*
X157437214Y-121727799D01*
X157471817Y-121777929D01*
X157517389Y-121818302D01*
X157521744Y-121822401D01*
X159968007Y-124268664D01*
X159995784Y-124323181D01*
X159996526Y-124328964D01*
X160013975Y-124506131D01*
X160071185Y-124694727D01*
X160164088Y-124868536D01*
X160177026Y-124884301D01*
X160289117Y-125020883D01*
X160363304Y-125081767D01*
X160441462Y-125145911D01*
X160547168Y-125202411D01*
X160589575Y-125246516D01*
X160599500Y-125289721D01*
X160599500Y-127195500D01*
X160580593Y-127253691D01*
X160531093Y-127289655D01*
X160500500Y-127294500D01*
X160219691Y-127294500D01*
X160217270Y-127294738D01*
X160217258Y-127294739D01*
X160182033Y-127298208D01*
X160182015Y-127298210D01*
X160179605Y-127298448D01*
X160177233Y-127298919D01*
X160177211Y-127298923D01*
X160144118Y-127305505D01*
X160144101Y-127305509D01*
X160141724Y-127305982D01*
X160139406Y-127306684D01*
X160139394Y-127306688D01*
X160105502Y-127316967D01*
X160105486Y-127316972D01*
X160103177Y-127317673D01*
X160100946Y-127318596D01*
X160100932Y-127318602D01*
X160088533Y-127323738D01*
X160086763Y-127324533D01*
X160073863Y-127330501D01*
X160072116Y-127331369D01*
X160060066Y-127337521D01*
X160059091Y-127338291D01*
X160057181Y-127338995D01*
X160051350Y-127341973D01*
X160050995Y-127341276D01*
X160001685Y-127359463D01*
X159946081Y-127344951D01*
X159918332Y-127327947D01*
X159911461Y-127323736D01*
X159899069Y-127318604D01*
X159896831Y-127317677D01*
X159894515Y-127316974D01*
X159894511Y-127316973D01*
X159860616Y-127306691D01*
X159860610Y-127306689D01*
X159858281Y-127305983D01*
X159855893Y-127305508D01*
X159855889Y-127305507D01*
X159822777Y-127298921D01*
X159822773Y-127298920D01*
X159820398Y-127298448D01*
X159817994Y-127298211D01*
X159817979Y-127298209D01*
X159782741Y-127294739D01*
X159782730Y-127294738D01*
X159780309Y-127294500D01*
X159777869Y-127294500D01*
X158299500Y-127294500D01*
X158241309Y-127275593D01*
X158205345Y-127226093D01*
X158200500Y-127195500D01*
X158200500Y-125368121D01*
X158219407Y-125309930D01*
X158268907Y-125273966D01*
X158270743Y-125273390D01*
X158384727Y-125238814D01*
X158558538Y-125145910D01*
X158710883Y-125020883D01*
X158835910Y-124868538D01*
X158928814Y-124694727D01*
X158986024Y-124506132D01*
X159005341Y-124310000D01*
X158986024Y-124113868D01*
X158928814Y-123925273D01*
X158928814Y-123925272D01*
X158835911Y-123751463D01*
X158816900Y-123728298D01*
X158710883Y-123599117D01*
X158558538Y-123474090D01*
X158558539Y-123474090D01*
X158558536Y-123474088D01*
X158384727Y-123381185D01*
X158196131Y-123323975D01*
X158018964Y-123306526D01*
X157962907Y-123282006D01*
X157958664Y-123278007D01*
X155729496Y-121048839D01*
X155701719Y-120994322D01*
X155700500Y-120978835D01*
X155700500Y-117448958D01*
X155719407Y-117390767D01*
X155722972Y-117386153D01*
X155761702Y-117338960D01*
X155835910Y-117248538D01*
X155928814Y-117074727D01*
X155986024Y-116886132D01*
X156005341Y-116690000D01*
X155986024Y-116493868D01*
X155928814Y-116305273D01*
X155928814Y-116305272D01*
X155835911Y-116131463D01*
X155816900Y-116108298D01*
X155710883Y-115979117D01*
X155558538Y-115854090D01*
X155558539Y-115854090D01*
X155558536Y-115854088D01*
X155384727Y-115761185D01*
X155196130Y-115703975D01*
X155135695Y-115698023D01*
X155079637Y-115673504D01*
X155048698Y-115620717D01*
X155054695Y-115559826D01*
X155095338Y-115514089D01*
X155145398Y-115500500D01*
X157854602Y-115500500D01*
X157912793Y-115519407D01*
G37*
%TD.AperFunction*%
%TA.AperFunction,Conductor*%
G36*
X163503522Y-100000751D02*
G01*
X163569723Y-100005486D01*
X163714135Y-100016852D01*
X163727402Y-100018808D01*
X163818855Y-100038702D01*
X163820711Y-100039128D01*
X163934030Y-100066334D01*
X163945517Y-100069840D01*
X164038107Y-100104375D01*
X164041361Y-100105655D01*
X164144028Y-100148181D01*
X164153581Y-100152752D01*
X164242122Y-100201099D01*
X164246374Y-100203559D01*
X164339434Y-100260587D01*
X164347014Y-100265731D01*
X164387073Y-100295719D01*
X164428477Y-100326714D01*
X164433443Y-100330687D01*
X164515823Y-100401046D01*
X164521532Y-100406322D01*
X164593676Y-100478466D01*
X164598952Y-100484175D01*
X164669311Y-100566555D01*
X164673284Y-100571521D01*
X164734260Y-100652974D01*
X164739418Y-100660575D01*
X164796425Y-100753601D01*
X164798904Y-100757884D01*
X164847246Y-100846417D01*
X164851820Y-100855977D01*
X164894336Y-100958621D01*
X164895630Y-100961908D01*
X164930159Y-101054482D01*
X164933663Y-101065959D01*
X164960855Y-101179221D01*
X164961317Y-101181239D01*
X164981189Y-101272594D01*
X164983146Y-101285869D01*
X164994516Y-101430325D01*
X164999248Y-101496479D01*
X164999500Y-101503539D01*
X164999500Y-143496458D01*
X164999248Y-143503522D01*
X164994516Y-143569674D01*
X164983146Y-143714131D01*
X164981189Y-143727404D01*
X164961319Y-143818751D01*
X164960845Y-143820820D01*
X164933664Y-143934030D01*
X164930158Y-143945515D01*
X164895630Y-144038089D01*
X164894336Y-144041377D01*
X164851820Y-144144021D01*
X164847246Y-144153581D01*
X164798904Y-144242114D01*
X164796425Y-144246397D01*
X164739418Y-144339423D01*
X164734260Y-144347024D01*
X164673284Y-144428477D01*
X164669311Y-144433443D01*
X164598952Y-144515823D01*
X164593676Y-144521532D01*
X164521532Y-144593676D01*
X164515823Y-144598952D01*
X164433443Y-144669311D01*
X164428477Y-144673284D01*
X164347024Y-144734260D01*
X164339423Y-144739418D01*
X164246397Y-144796425D01*
X164242114Y-144798904D01*
X164153581Y-144847246D01*
X164144021Y-144851820D01*
X164041377Y-144894336D01*
X164038089Y-144895630D01*
X163945515Y-144930158D01*
X163934030Y-144933664D01*
X163820820Y-144960845D01*
X163818751Y-144961319D01*
X163727404Y-144981189D01*
X163714129Y-144983146D01*
X163569674Y-144994516D01*
X163503521Y-144999248D01*
X163496461Y-144999500D01*
X101503541Y-144999500D01*
X101496477Y-144999248D01*
X101430325Y-144994516D01*
X101285867Y-144983146D01*
X101272594Y-144981189D01*
X101181247Y-144961319D01*
X101179178Y-144960845D01*
X101065968Y-144933664D01*
X101054483Y-144930158D01*
X100961909Y-144895630D01*
X100958621Y-144894336D01*
X100855977Y-144851820D01*
X100846417Y-144847246D01*
X100757884Y-144798904D01*
X100753601Y-144796425D01*
X100660575Y-144739418D01*
X100652974Y-144734260D01*
X100571521Y-144673284D01*
X100566555Y-144669311D01*
X100484175Y-144598952D01*
X100478466Y-144593676D01*
X100406322Y-144521532D01*
X100401046Y-144515823D01*
X100330687Y-144433443D01*
X100326714Y-144428477D01*
X100306529Y-144401513D01*
X100265731Y-144347014D01*
X100260587Y-144339434D01*
X100203559Y-144246374D01*
X100201094Y-144242114D01*
X100152752Y-144153581D01*
X100148178Y-144144021D01*
X100105662Y-144041377D01*
X100104368Y-144038089D01*
X100069840Y-143945515D01*
X100066334Y-143934030D01*
X100053538Y-143880733D01*
X100039128Y-143820711D01*
X100038702Y-143818855D01*
X100018808Y-143727402D01*
X100016852Y-143714129D01*
X100005483Y-143569674D01*
X100000752Y-143503522D01*
X100000500Y-143496463D01*
X100000500Y-142380308D01*
X102394500Y-142380308D01*
X102394736Y-142382711D01*
X102394737Y-142382718D01*
X102398208Y-142417975D01*
X102398210Y-142417988D01*
X102398447Y-142420393D01*
X102405981Y-142458275D01*
X102406684Y-142460594D01*
X102406688Y-142460608D01*
X102406692Y-142460620D01*
X102417677Y-142496831D01*
X102418599Y-142499058D01*
X102418602Y-142499065D01*
X102423739Y-142511466D01*
X102424532Y-142513231D01*
X102430495Y-142526122D01*
X102431362Y-142527866D01*
X102437521Y-142539930D01*
X102487176Y-142602918D01*
X102487178Y-142602920D01*
X102533701Y-142642658D01*
X102588529Y-142676258D01*
X102588531Y-142676259D01*
X102593762Y-142678425D01*
X102603164Y-142682320D01*
X102641709Y-142694013D01*
X102679595Y-142701550D01*
X102719691Y-142705500D01*
X102722129Y-142705500D01*
X107277871Y-142705500D01*
X107280309Y-142705500D01*
X107320405Y-142701550D01*
X107358291Y-142694013D01*
X107396832Y-142682322D01*
X107411463Y-142676262D01*
X107411474Y-142676257D01*
X107413236Y-142675466D01*
X107426123Y-142669504D01*
X107427857Y-142668642D01*
X107439926Y-142662479D01*
X107439955Y-142662455D01*
X107439963Y-142662452D01*
X107440898Y-142661714D01*
X107442795Y-142661014D01*
X107448651Y-142658025D01*
X107449006Y-142658722D01*
X107498297Y-142640536D01*
X107553918Y-142655048D01*
X107573518Y-142667058D01*
X107588529Y-142676258D01*
X107603164Y-142682320D01*
X107641709Y-142694013D01*
X107679595Y-142701550D01*
X107719691Y-142705500D01*
X107722129Y-142705500D01*
X112277870Y-142705500D01*
X112280309Y-142705500D01*
X112320408Y-142701550D01*
X112358296Y-142694012D01*
X112396836Y-142682320D01*
X112411469Y-142676259D01*
X112411473Y-142676257D01*
X112413254Y-142675458D01*
X112426133Y-142669499D01*
X112427879Y-142668631D01*
X112439928Y-142662478D01*
X112439959Y-142662453D01*
X112439966Y-142662450D01*
X112440897Y-142661715D01*
X112442788Y-142661017D01*
X112448650Y-142658025D01*
X112449006Y-142658723D01*
X112498296Y-142640536D01*
X112553918Y-142655048D01*
X112573518Y-142667058D01*
X112588529Y-142676258D01*
X112603164Y-142682320D01*
X112641709Y-142694013D01*
X112679595Y-142701550D01*
X112719691Y-142705500D01*
X112722129Y-142705500D01*
X117277871Y-142705500D01*
X117280309Y-142705500D01*
X117320405Y-142701550D01*
X117358291Y-142694013D01*
X117396832Y-142682322D01*
X117410837Y-142676520D01*
X117471708Y-142670522D01*
X117524497Y-142701456D01*
X117549022Y-142757512D01*
X117549499Y-142767223D01*
X117549499Y-143289384D01*
X117549499Y-143289400D01*
X117549500Y-143292372D01*
X117549859Y-143295334D01*
X117549860Y-143295339D01*
X117564859Y-143418870D01*
X117583822Y-143468872D01*
X117625182Y-143577930D01*
X117721817Y-143717929D01*
X117721818Y-143717930D01*
X117849145Y-143830733D01*
X117927864Y-143872048D01*
X117999775Y-143909790D01*
X118051172Y-143922458D01*
X118164943Y-143950500D01*
X118164944Y-143950500D01*
X118335057Y-143950500D01*
X118401878Y-143934030D01*
X118500225Y-143909790D01*
X118650852Y-143830734D01*
X118650851Y-143830734D01*
X118650854Y-143830733D01*
X118721744Y-143767929D01*
X118778183Y-143717929D01*
X118874818Y-143577930D01*
X118935140Y-143418872D01*
X118950500Y-143292372D01*
X118950500Y-142831165D01*
X118969407Y-142772974D01*
X118979496Y-142761161D01*
X119006161Y-142734496D01*
X119060678Y-142706719D01*
X119076165Y-142705500D01*
X122277871Y-142705500D01*
X122280309Y-142705500D01*
X122320405Y-142701550D01*
X122358291Y-142694013D01*
X122396832Y-142682322D01*
X122411463Y-142676262D01*
X122411474Y-142676257D01*
X122413236Y-142675466D01*
X122426123Y-142669504D01*
X122427857Y-142668642D01*
X122439926Y-142662479D01*
X122439955Y-142662455D01*
X122439963Y-142662452D01*
X122440898Y-142661714D01*
X122442795Y-142661014D01*
X122448651Y-142658025D01*
X122449006Y-142658722D01*
X122498297Y-142640536D01*
X122553918Y-142655048D01*
X122573518Y-142667058D01*
X122588529Y-142676258D01*
X122603164Y-142682320D01*
X122641709Y-142694013D01*
X122679595Y-142701550D01*
X122719691Y-142705500D01*
X122722129Y-142705500D01*
X127277871Y-142705500D01*
X127280309Y-142705500D01*
X127320405Y-142701550D01*
X127358291Y-142694013D01*
X127396832Y-142682322D01*
X127411463Y-142676262D01*
X127411474Y-142676257D01*
X127413236Y-142675466D01*
X127426123Y-142669504D01*
X127427857Y-142668642D01*
X127439926Y-142662479D01*
X127439955Y-142662455D01*
X127439963Y-142662452D01*
X127440898Y-142661714D01*
X127442795Y-142661014D01*
X127448651Y-142658025D01*
X127449006Y-142658722D01*
X127498297Y-142640536D01*
X127553918Y-142655048D01*
X127573518Y-142667058D01*
X127588529Y-142676258D01*
X127603164Y-142682320D01*
X127641709Y-142694013D01*
X127679595Y-142701550D01*
X127719691Y-142705500D01*
X127722129Y-142705500D01*
X132277870Y-142705500D01*
X132280309Y-142705500D01*
X132320408Y-142701550D01*
X132358296Y-142694012D01*
X132396836Y-142682320D01*
X132411469Y-142676259D01*
X132410819Y-142676535D01*
X132471665Y-142670510D01*
X132524468Y-142701420D01*
X132549018Y-142757465D01*
X132549500Y-142767220D01*
X132549500Y-143292372D01*
X132549859Y-143295334D01*
X132549860Y-143295339D01*
X132564859Y-143418870D01*
X132583822Y-143468872D01*
X132625182Y-143577930D01*
X132721817Y-143717929D01*
X132721818Y-143717930D01*
X132849145Y-143830733D01*
X132927864Y-143872048D01*
X132999775Y-143909790D01*
X133051172Y-143922458D01*
X133164943Y-143950500D01*
X133164944Y-143950500D01*
X133335057Y-143950500D01*
X133401878Y-143934030D01*
X133500225Y-143909790D01*
X133650852Y-143830734D01*
X133650851Y-143830734D01*
X133650854Y-143830733D01*
X133721744Y-143767929D01*
X133778183Y-143717929D01*
X133874818Y-143577930D01*
X133935140Y-143418872D01*
X133950500Y-143292372D01*
X133950500Y-142804500D01*
X133969407Y-142746309D01*
X134018907Y-142710345D01*
X134049500Y-142705500D01*
X137277870Y-142705500D01*
X137280309Y-142705500D01*
X137320408Y-142701550D01*
X137358296Y-142694012D01*
X137396836Y-142682320D01*
X137411469Y-142676259D01*
X137411473Y-142676257D01*
X137413254Y-142675458D01*
X137426133Y-142669499D01*
X137427879Y-142668631D01*
X137439928Y-142662478D01*
X137439959Y-142662453D01*
X137439966Y-142662450D01*
X137440897Y-142661715D01*
X137442788Y-142661017D01*
X137448650Y-142658025D01*
X137449006Y-142658723D01*
X137498296Y-142640536D01*
X137553918Y-142655048D01*
X137573518Y-142667058D01*
X137588529Y-142676258D01*
X137603164Y-142682320D01*
X137641709Y-142694013D01*
X137679595Y-142701550D01*
X137710205Y-142704565D01*
X137766261Y-142729085D01*
X137797200Y-142781872D01*
X137799500Y-142803088D01*
X137799500Y-143342372D01*
X137799859Y-143345334D01*
X137799860Y-143345339D01*
X137814859Y-143468870D01*
X137826665Y-143500000D01*
X137875182Y-143627930D01*
X137971817Y-143767929D01*
X137971818Y-143767930D01*
X138099145Y-143880733D01*
X138154509Y-143909790D01*
X138249775Y-143959790D01*
X138332359Y-143980144D01*
X138414943Y-144000500D01*
X138414944Y-144000500D01*
X138585057Y-144000500D01*
X138640112Y-143986929D01*
X138750225Y-143959790D01*
X138900852Y-143880734D01*
X138900851Y-143880734D01*
X138900854Y-143880733D01*
X138968604Y-143820711D01*
X139028183Y-143767929D01*
X139124818Y-143627930D01*
X139185140Y-143468872D01*
X139200500Y-143342372D01*
X139200500Y-142831165D01*
X139219407Y-142772974D01*
X139229496Y-142761161D01*
X139256161Y-142734496D01*
X139310678Y-142706719D01*
X139326165Y-142705500D01*
X142277871Y-142705500D01*
X142280309Y-142705500D01*
X142320405Y-142701550D01*
X142358291Y-142694013D01*
X142396832Y-142682322D01*
X142411463Y-142676262D01*
X142411474Y-142676257D01*
X142413236Y-142675466D01*
X142426123Y-142669504D01*
X142427857Y-142668642D01*
X142439926Y-142662479D01*
X142439955Y-142662455D01*
X142439963Y-142662452D01*
X142440898Y-142661714D01*
X142442795Y-142661014D01*
X142448651Y-142658025D01*
X142449006Y-142658722D01*
X142498297Y-142640536D01*
X142553918Y-142655048D01*
X142573518Y-142667058D01*
X142588529Y-142676258D01*
X142603164Y-142682320D01*
X142641709Y-142694013D01*
X142679595Y-142701550D01*
X142719691Y-142705500D01*
X142722129Y-142705500D01*
X147277870Y-142705500D01*
X147280309Y-142705500D01*
X147320408Y-142701550D01*
X147358296Y-142694012D01*
X147396836Y-142682320D01*
X147411469Y-142676259D01*
X147411473Y-142676257D01*
X147413254Y-142675458D01*
X147426133Y-142669499D01*
X147427879Y-142668631D01*
X147439928Y-142662478D01*
X147439959Y-142662453D01*
X147439966Y-142662450D01*
X147440897Y-142661715D01*
X147442788Y-142661017D01*
X147448650Y-142658025D01*
X147449006Y-142658723D01*
X147498296Y-142640536D01*
X147553918Y-142655048D01*
X147573518Y-142667058D01*
X147588529Y-142676258D01*
X147603164Y-142682320D01*
X147641709Y-142694013D01*
X147679595Y-142701550D01*
X147719691Y-142705500D01*
X147722129Y-142705500D01*
X152277870Y-142705500D01*
X152280309Y-142705500D01*
X152320408Y-142701550D01*
X152358296Y-142694012D01*
X152396836Y-142682320D01*
X152411469Y-142676259D01*
X152410379Y-142676723D01*
X152471238Y-142670685D01*
X152524047Y-142701586D01*
X152548607Y-142757626D01*
X152548910Y-142761416D01*
X152549261Y-142767223D01*
X152549319Y-142768170D01*
X152549500Y-142774154D01*
X152549500Y-143292372D01*
X152549859Y-143295334D01*
X152549860Y-143295339D01*
X152564859Y-143418870D01*
X152583822Y-143468872D01*
X152625182Y-143577930D01*
X152721817Y-143717929D01*
X152721818Y-143717930D01*
X152849145Y-143830733D01*
X152927864Y-143872048D01*
X152999775Y-143909790D01*
X153051172Y-143922458D01*
X153164943Y-143950500D01*
X153164944Y-143950500D01*
X153335057Y-143950500D01*
X153401878Y-143934030D01*
X153500225Y-143909790D01*
X153650852Y-143830734D01*
X153650851Y-143830734D01*
X153650854Y-143830733D01*
X153721744Y-143767929D01*
X153778183Y-143717929D01*
X153874818Y-143577930D01*
X153935140Y-143418872D01*
X153950500Y-143292372D01*
X153950500Y-143081163D01*
X153969407Y-143022973D01*
X153979497Y-143011160D01*
X154256162Y-142734496D01*
X154310678Y-142706719D01*
X154326165Y-142705500D01*
X157277871Y-142705500D01*
X157280309Y-142705500D01*
X157320405Y-142701550D01*
X157358291Y-142694013D01*
X157396832Y-142682322D01*
X157411463Y-142676262D01*
X157411474Y-142676257D01*
X157413236Y-142675466D01*
X157426123Y-142669504D01*
X157427857Y-142668642D01*
X157439926Y-142662479D01*
X157439955Y-142662455D01*
X157439963Y-142662452D01*
X157440898Y-142661714D01*
X157442795Y-142661014D01*
X157448651Y-142658025D01*
X157449006Y-142658722D01*
X157498297Y-142640536D01*
X157553918Y-142655048D01*
X157573518Y-142667058D01*
X157588529Y-142676258D01*
X157603164Y-142682320D01*
X157641709Y-142694013D01*
X157679595Y-142701550D01*
X157719691Y-142705500D01*
X157722129Y-142705500D01*
X162277870Y-142705500D01*
X162280309Y-142705500D01*
X162320408Y-142701550D01*
X162358296Y-142694012D01*
X162396836Y-142682320D01*
X162411469Y-142676259D01*
X162411473Y-142676257D01*
X162413254Y-142675458D01*
X162426133Y-142669499D01*
X162427879Y-142668631D01*
X162439933Y-142662476D01*
X162441784Y-142661017D01*
X162502920Y-142612821D01*
X162542659Y-142566297D01*
X162576256Y-142511477D01*
X162582317Y-142496846D01*
X162594014Y-142458290D01*
X162601551Y-142420401D01*
X162605500Y-142380308D01*
X162605500Y-127619691D01*
X162601550Y-127579595D01*
X162594013Y-127541709D01*
X162582322Y-127503168D01*
X162576260Y-127488532D01*
X162575460Y-127486750D01*
X162569502Y-127473872D01*
X162568640Y-127472138D01*
X162562476Y-127460066D01*
X162512813Y-127397069D01*
X162466290Y-127357335D01*
X162411461Y-127323736D01*
X162399069Y-127318604D01*
X162396831Y-127317677D01*
X162394515Y-127316974D01*
X162394511Y-127316973D01*
X162360616Y-127306691D01*
X162360610Y-127306689D01*
X162358281Y-127305983D01*
X162355893Y-127305508D01*
X162355889Y-127305507D01*
X162322777Y-127298921D01*
X162322773Y-127298920D01*
X162320398Y-127298448D01*
X162317994Y-127298211D01*
X162317979Y-127298209D01*
X162282741Y-127294739D01*
X162282730Y-127294738D01*
X162280309Y-127294500D01*
X162277869Y-127294500D01*
X162099500Y-127294500D01*
X162041309Y-127275593D01*
X162005345Y-127226093D01*
X162000500Y-127195500D01*
X162000500Y-124634154D01*
X162000681Y-124628176D01*
X162004358Y-124567394D01*
X162004357Y-124567393D01*
X161993374Y-124507459D01*
X161992481Y-124501590D01*
X161990473Y-124485057D01*
X161990229Y-124463435D01*
X162005341Y-124310000D01*
X161986024Y-124113868D01*
X161928814Y-123925273D01*
X161928814Y-123925272D01*
X161835911Y-123751463D01*
X161816900Y-123728298D01*
X161710883Y-123599117D01*
X161558538Y-123474090D01*
X161558539Y-123474090D01*
X161558536Y-123474088D01*
X161384727Y-123381185D01*
X161196131Y-123323975D01*
X161018964Y-123306526D01*
X160962907Y-123282006D01*
X160958664Y-123278007D01*
X158729496Y-121048839D01*
X158701719Y-120994322D01*
X158700500Y-120978835D01*
X158700500Y-117448958D01*
X158719407Y-117390767D01*
X158722972Y-117386153D01*
X158761702Y-117338960D01*
X158835910Y-117248538D01*
X158928814Y-117074727D01*
X158986024Y-116886132D01*
X159005341Y-116690000D01*
X158986024Y-116493868D01*
X158928814Y-116305273D01*
X158928814Y-116305272D01*
X158835911Y-116131463D01*
X158816900Y-116108298D01*
X158710883Y-115979117D01*
X158558538Y-115854090D01*
X158558539Y-115854090D01*
X158558536Y-115854088D01*
X158384727Y-115761185D01*
X158196130Y-115703975D01*
X158135695Y-115698023D01*
X158079637Y-115673504D01*
X158048698Y-115620717D01*
X158054695Y-115559826D01*
X158095338Y-115514089D01*
X158145398Y-115500500D01*
X159968836Y-115500500D01*
X160027027Y-115519407D01*
X160038839Y-115529496D01*
X160270503Y-115761159D01*
X160298281Y-115815676D01*
X160299500Y-115831163D01*
X160299500Y-115931042D01*
X160280593Y-115989233D01*
X160277028Y-115993847D01*
X160164088Y-116131463D01*
X160071185Y-116305272D01*
X160013975Y-116493869D01*
X159994658Y-116689999D01*
X160013975Y-116886130D01*
X160071185Y-117074727D01*
X160164088Y-117248536D01*
X160164089Y-117248537D01*
X160164090Y-117248538D01*
X160289117Y-117400883D01*
X160418298Y-117506900D01*
X160441463Y-117525911D01*
X160615272Y-117618814D01*
X160709570Y-117647419D01*
X160803868Y-117676024D01*
X160901933Y-117685682D01*
X160999999Y-117695341D01*
X160999999Y-117695340D01*
X161000000Y-117695341D01*
X161196132Y-117676024D01*
X161384727Y-117618814D01*
X161558538Y-117525910D01*
X161710883Y-117400883D01*
X161835910Y-117248538D01*
X161928814Y-117074727D01*
X161986024Y-116886132D01*
X162005341Y-116690000D01*
X161986024Y-116493868D01*
X161928814Y-116305273D01*
X161928814Y-116305272D01*
X161835911Y-116131463D01*
X161722972Y-115993847D01*
X161700672Y-115936871D01*
X161700500Y-115931042D01*
X161700500Y-115524142D01*
X161700681Y-115518164D01*
X161704357Y-115457395D01*
X161696159Y-115412660D01*
X161693375Y-115397470D01*
X161692483Y-115391605D01*
X161685140Y-115331128D01*
X161680742Y-115319532D01*
X161675929Y-115302268D01*
X161673694Y-115290068D01*
X161648701Y-115234536D01*
X161646412Y-115229010D01*
X161624817Y-115172068D01*
X161617767Y-115161854D01*
X161608962Y-115146242D01*
X161603878Y-115134945D01*
X161603877Y-115134944D01*
X161603877Y-115134943D01*
X161566326Y-115087013D01*
X161562783Y-115082197D01*
X161528182Y-115032069D01*
X161482601Y-114991688D01*
X161478246Y-114987590D01*
X160812401Y-114321744D01*
X160808302Y-114317389D01*
X160767929Y-114271817D01*
X160717799Y-114237214D01*
X160712991Y-114233676D01*
X160665056Y-114196121D01*
X160653746Y-114191031D01*
X160638138Y-114182228D01*
X160627931Y-114175182D01*
X160610219Y-114168465D01*
X160570974Y-114153581D01*
X160565481Y-114151305D01*
X160509932Y-114126305D01*
X160497721Y-114124067D01*
X160480465Y-114119256D01*
X160468873Y-114114860D01*
X160408437Y-114107521D01*
X160402529Y-114106622D01*
X160342604Y-114095641D01*
X160281823Y-114099319D01*
X160275845Y-114099500D01*
X155260627Y-114099500D01*
X155202436Y-114080593D01*
X155166472Y-114031093D01*
X155166472Y-113969907D01*
X155202436Y-113920407D01*
X155213959Y-113913190D01*
X155358536Y-113835911D01*
X155358535Y-113835911D01*
X155358538Y-113835910D01*
X155510883Y-113710883D01*
X155635910Y-113558538D01*
X155728814Y-113384727D01*
X155786024Y-113196132D01*
X155803473Y-113018963D01*
X155827992Y-112962907D01*
X155831993Y-112958663D01*
X156561162Y-112229496D01*
X156615678Y-112201719D01*
X156631165Y-112200500D01*
X157241042Y-112200500D01*
X157299233Y-112219407D01*
X157303847Y-112222972D01*
X157441463Y-112335911D01*
X157615272Y-112428814D01*
X157686762Y-112450500D01*
X157803868Y-112486024D01*
X158000000Y-112505341D01*
X158196132Y-112486024D01*
X158384727Y-112428814D01*
X158558538Y-112335910D01*
X158710883Y-112210883D01*
X158835910Y-112058538D01*
X158928814Y-111884727D01*
X158986024Y-111696132D01*
X159005341Y-111500000D01*
X158986024Y-111303868D01*
X158928814Y-111115273D01*
X158928814Y-111115272D01*
X158867200Y-111000000D01*
X161044529Y-111000000D01*
X161064380Y-111239563D01*
X161123390Y-111472591D01*
X161219951Y-111692728D01*
X161351429Y-111893969D01*
X161514236Y-112070825D01*
X161703933Y-112218472D01*
X161915344Y-112332882D01*
X162142703Y-112410934D01*
X162379808Y-112450500D01*
X162379810Y-112450500D01*
X162620190Y-112450500D01*
X162620192Y-112450500D01*
X162857297Y-112410934D01*
X163084656Y-112332882D01*
X163296067Y-112218472D01*
X163485764Y-112070825D01*
X163648571Y-111893969D01*
X163780049Y-111692728D01*
X163876610Y-111472591D01*
X163935620Y-111239563D01*
X163955471Y-111000000D01*
X163935620Y-110760437D01*
X163876610Y-110527409D01*
X163780049Y-110307272D01*
X163648571Y-110106031D01*
X163485764Y-109929175D01*
X163296067Y-109781528D01*
X163084656Y-109667118D01*
X163084655Y-109667117D01*
X163084654Y-109667117D01*
X162857298Y-109589066D01*
X162720988Y-109566320D01*
X162620192Y-109549500D01*
X162379808Y-109549500D01*
X162279012Y-109566320D01*
X162142701Y-109589066D01*
X161915345Y-109667117D01*
X161703932Y-109781528D01*
X161514237Y-109929174D01*
X161351426Y-110106034D01*
X161219953Y-110307268D01*
X161219951Y-110307270D01*
X161219951Y-110307272D01*
X161123390Y-110527409D01*
X161064380Y-110760437D01*
X161061158Y-110799319D01*
X161046865Y-110971815D01*
X161044529Y-111000000D01*
X158867200Y-111000000D01*
X158835911Y-110941462D01*
X158763595Y-110853347D01*
X158741294Y-110796370D01*
X158756742Y-110737167D01*
X158770113Y-110720542D01*
X162978278Y-106512377D01*
X162982580Y-106508328D01*
X163028183Y-106467929D01*
X163062778Y-106417807D01*
X163066320Y-106412996D01*
X163105141Y-106363445D01*
X163155912Y-106329298D01*
X163183072Y-106325500D01*
X163369747Y-106325500D01*
X163369748Y-106325500D01*
X163428231Y-106313867D01*
X163494552Y-106269552D01*
X163538867Y-106203231D01*
X163550500Y-106144748D01*
X163550500Y-104405252D01*
X163538867Y-104346769D01*
X163495028Y-104281160D01*
X163494552Y-104280447D01*
X163428231Y-104236133D01*
X163369748Y-104224500D01*
X161630252Y-104224500D01*
X161601010Y-104230316D01*
X161571768Y-104236133D01*
X161505447Y-104280447D01*
X161461133Y-104346768D01*
X161449500Y-104405253D01*
X161449500Y-106018834D01*
X161430593Y-106077025D01*
X161420504Y-106088838D01*
X157521743Y-109987598D01*
X157517390Y-109991695D01*
X157471818Y-110032070D01*
X157437223Y-110082187D01*
X157433682Y-110086999D01*
X157396121Y-110134944D01*
X157391029Y-110146257D01*
X157382230Y-110161857D01*
X157375182Y-110172067D01*
X157353593Y-110228993D01*
X157351306Y-110234515D01*
X157326305Y-110290067D01*
X157324067Y-110302279D01*
X157319258Y-110319527D01*
X157314860Y-110331128D01*
X157312558Y-110350082D01*
X157307521Y-110391562D01*
X157306622Y-110397469D01*
X157295641Y-110457395D01*
X157299319Y-110518176D01*
X157299500Y-110524154D01*
X157299500Y-110700500D01*
X157280593Y-110758691D01*
X157231093Y-110794655D01*
X157200500Y-110799500D01*
X156324144Y-110799500D01*
X156318167Y-110799319D01*
X156315841Y-110799178D01*
X156257394Y-110795642D01*
X156197484Y-110806620D01*
X156191577Y-110807519D01*
X156131125Y-110814860D01*
X156119522Y-110819260D01*
X156102273Y-110824068D01*
X156090072Y-110826304D01*
X156034544Y-110851295D01*
X156029021Y-110853582D01*
X155972069Y-110875181D01*
X155961853Y-110882233D01*
X155946254Y-110891031D01*
X155934943Y-110896122D01*
X155887009Y-110933675D01*
X155882195Y-110937217D01*
X155832071Y-110971815D01*
X155791687Y-111017399D01*
X155787590Y-111021751D01*
X155669504Y-111139838D01*
X155614987Y-111167616D01*
X155554555Y-111158045D01*
X155511291Y-111114780D01*
X155500500Y-111069835D01*
X155500500Y-110824142D01*
X155500681Y-110818164D01*
X155504357Y-110757395D01*
X155500650Y-110737167D01*
X155493375Y-110697470D01*
X155492483Y-110691605D01*
X155485140Y-110631128D01*
X155480742Y-110619532D01*
X155475929Y-110602268D01*
X155473694Y-110590068D01*
X155448701Y-110534536D01*
X155446412Y-110529010D01*
X155424818Y-110472070D01*
X155417768Y-110461857D01*
X155408964Y-110446248D01*
X155403877Y-110434943D01*
X155366306Y-110386987D01*
X155362793Y-110382213D01*
X155328183Y-110332071D01*
X155327119Y-110331128D01*
X155282609Y-110291695D01*
X155278254Y-110287597D01*
X153512401Y-108521744D01*
X153508302Y-108517389D01*
X153467929Y-108471817D01*
X153417799Y-108437214D01*
X153412991Y-108433676D01*
X153365056Y-108396121D01*
X153353746Y-108391031D01*
X153338138Y-108382228D01*
X153327931Y-108375182D01*
X153310219Y-108368465D01*
X153270974Y-108353581D01*
X153265481Y-108351305D01*
X153209932Y-108326305D01*
X153197721Y-108324067D01*
X153180465Y-108319256D01*
X153168873Y-108314860D01*
X153108437Y-108307521D01*
X153102529Y-108306622D01*
X153042604Y-108295641D01*
X152981823Y-108299319D01*
X152975845Y-108299500D01*
X149831165Y-108299500D01*
X149772974Y-108280593D01*
X149761161Y-108270504D01*
X147909496Y-106418839D01*
X147881719Y-106364322D01*
X147880500Y-106348835D01*
X147880500Y-106138958D01*
X147899407Y-106080767D01*
X147902972Y-106076153D01*
X147950012Y-106018834D01*
X148015910Y-105938538D01*
X148108814Y-105764727D01*
X148166024Y-105576132D01*
X148185341Y-105380000D01*
X148166024Y-105183868D01*
X148108814Y-104995273D01*
X148108814Y-104995272D01*
X148015911Y-104821463D01*
X147996900Y-104798298D01*
X147890883Y-104669117D01*
X147738538Y-104544090D01*
X147738539Y-104544090D01*
X147738536Y-104544088D01*
X147564727Y-104451185D01*
X147376130Y-104393975D01*
X147179999Y-104374658D01*
X146983869Y-104393975D01*
X146795272Y-104451185D01*
X146621463Y-104544088D01*
X146483847Y-104657028D01*
X146426871Y-104679328D01*
X146421042Y-104679500D01*
X144771142Y-104679500D01*
X144712951Y-104660593D01*
X144708346Y-104657035D01*
X144558538Y-104534090D01*
X144558539Y-104534090D01*
X144558536Y-104534088D01*
X144384727Y-104441185D01*
X144196130Y-104383975D01*
X144000000Y-104364658D01*
X143803869Y-104383975D01*
X143615272Y-104441185D01*
X143441463Y-104534088D01*
X143289117Y-104659117D01*
X143164088Y-104811463D01*
X143071185Y-104985272D01*
X143013975Y-105173869D01*
X142994658Y-105369999D01*
X143013975Y-105566130D01*
X143071185Y-105754727D01*
X143164088Y-105928536D01*
X143164090Y-105928538D01*
X143289117Y-106080883D01*
X143418298Y-106186900D01*
X143441463Y-106205911D01*
X143615272Y-106298814D01*
X143703244Y-106325500D01*
X143803868Y-106356024D01*
X144000000Y-106375341D01*
X144196132Y-106356024D01*
X144384727Y-106298814D01*
X144558538Y-106205910D01*
X144683967Y-106102972D01*
X144740944Y-106080672D01*
X144746773Y-106080500D01*
X146380500Y-106080500D01*
X146438691Y-106099407D01*
X146474655Y-106148907D01*
X146479500Y-106179500D01*
X146479500Y-106655844D01*
X146479319Y-106661822D01*
X146475641Y-106722604D01*
X146486622Y-106782529D01*
X146487521Y-106788437D01*
X146494860Y-106848873D01*
X146499256Y-106860465D01*
X146504067Y-106877721D01*
X146506305Y-106889932D01*
X146531302Y-106945473D01*
X146533581Y-106950974D01*
X146548465Y-106990219D01*
X146555182Y-107007931D01*
X146562228Y-107018138D01*
X146571031Y-107033746D01*
X146576121Y-107045056D01*
X146613676Y-107092991D01*
X146617214Y-107097799D01*
X146651817Y-107147929D01*
X146697389Y-107188302D01*
X146701744Y-107192401D01*
X148987597Y-109478254D01*
X148991695Y-109482609D01*
X149032068Y-109528180D01*
X149032071Y-109528183D01*
X149082213Y-109562793D01*
X149086987Y-109566306D01*
X149134943Y-109603877D01*
X149146248Y-109608964D01*
X149161857Y-109617768D01*
X149172070Y-109624818D01*
X149229010Y-109646412D01*
X149234536Y-109648701D01*
X149259567Y-109659966D01*
X149290068Y-109673694D01*
X149302272Y-109675930D01*
X149319532Y-109680742D01*
X149331128Y-109685140D01*
X149391605Y-109692483D01*
X149397470Y-109693375D01*
X149457394Y-109704357D01*
X149457394Y-109704356D01*
X149457395Y-109704357D01*
X149493049Y-109702200D01*
X149518166Y-109700680D01*
X149524143Y-109700500D01*
X152668835Y-109700500D01*
X152727026Y-109719407D01*
X152738839Y-109729496D01*
X154070504Y-111061161D01*
X154098281Y-111115678D01*
X154099500Y-111131165D01*
X154099500Y-112241042D01*
X154080593Y-112299233D01*
X154077028Y-112303847D01*
X153964088Y-112441463D01*
X153871185Y-112615272D01*
X153813975Y-112803869D01*
X153794658Y-112999999D01*
X153813975Y-113196130D01*
X153871185Y-113384727D01*
X153964088Y-113558536D01*
X153964089Y-113558537D01*
X153964090Y-113558538D01*
X154089117Y-113710883D01*
X154218298Y-113816900D01*
X154241463Y-113835911D01*
X154386041Y-113913190D01*
X154428448Y-113957296D01*
X154436831Y-114017904D01*
X154407989Y-114071865D01*
X154352937Y-114098566D01*
X154339373Y-114099500D01*
X153431165Y-114099500D01*
X153372974Y-114080593D01*
X153361161Y-114070504D01*
X153048149Y-113757492D01*
X153020372Y-113702975D01*
X153029943Y-113642543D01*
X153041626Y-113624682D01*
X153095911Y-113558537D01*
X153188814Y-113384727D01*
X153191847Y-113374727D01*
X153246024Y-113196132D01*
X153265341Y-113000000D01*
X153246024Y-112803868D01*
X153188814Y-112615273D01*
X153188814Y-112615272D01*
X153095911Y-112441463D01*
X153070855Y-112410933D01*
X152970883Y-112289117D01*
X152818538Y-112164090D01*
X152818539Y-112164090D01*
X152818536Y-112164088D01*
X152644727Y-112071185D01*
X152456130Y-112013975D01*
X152260000Y-111994658D01*
X152063869Y-112013975D01*
X151875272Y-112071185D01*
X151701463Y-112164088D01*
X151549117Y-112289117D01*
X151424088Y-112441463D01*
X151331185Y-112615272D01*
X151273975Y-112803869D01*
X151254658Y-113000000D01*
X151273975Y-113196130D01*
X151331185Y-113384727D01*
X151424088Y-113558537D01*
X151469358Y-113613697D01*
X151491659Y-113670674D01*
X151476211Y-113729877D01*
X151462835Y-113746506D01*
X151138840Y-114070503D01*
X151084323Y-114098281D01*
X151068836Y-114099500D01*
X150180627Y-114099500D01*
X150122436Y-114080593D01*
X150086472Y-114031093D01*
X150086472Y-113969907D01*
X150122436Y-113920407D01*
X150133959Y-113913190D01*
X150278536Y-113835911D01*
X150278535Y-113835911D01*
X150278538Y-113835910D01*
X150430883Y-113710883D01*
X150555910Y-113558538D01*
X150648814Y-113384727D01*
X150706024Y-113196132D01*
X150725341Y-113000000D01*
X150706024Y-112803868D01*
X150648814Y-112615273D01*
X150648814Y-112615272D01*
X150555911Y-112441463D01*
X150530855Y-112410933D01*
X150430883Y-112289117D01*
X150278538Y-112164090D01*
X150278539Y-112164090D01*
X150278536Y-112164088D01*
X150104727Y-112071185D01*
X149916130Y-112013975D01*
X149720000Y-111994658D01*
X149523869Y-112013975D01*
X149335272Y-112071185D01*
X149161463Y-112164088D01*
X149009117Y-112289117D01*
X148884088Y-112441463D01*
X148791185Y-112615272D01*
X148733975Y-112803869D01*
X148714658Y-113000000D01*
X148733975Y-113196130D01*
X148791185Y-113384727D01*
X148884088Y-113558536D01*
X148884089Y-113558537D01*
X148884090Y-113558538D01*
X149009117Y-113710883D01*
X149138298Y-113816900D01*
X149161463Y-113835911D01*
X149306041Y-113913190D01*
X149348448Y-113957296D01*
X149356831Y-114017904D01*
X149327989Y-114071865D01*
X149272937Y-114098566D01*
X149259373Y-114099500D01*
X147640627Y-114099500D01*
X147582436Y-114080593D01*
X147546472Y-114031093D01*
X147546472Y-113969907D01*
X147582436Y-113920407D01*
X147593959Y-113913190D01*
X147738536Y-113835911D01*
X147738535Y-113835911D01*
X147738538Y-113835910D01*
X147890883Y-113710883D01*
X148015910Y-113558538D01*
X148108814Y-113384727D01*
X148166024Y-113196132D01*
X148185341Y-113000000D01*
X148166024Y-112803868D01*
X148108814Y-112615273D01*
X148108814Y-112615272D01*
X148015911Y-112441463D01*
X147990855Y-112410933D01*
X147890883Y-112289117D01*
X147738538Y-112164090D01*
X147738539Y-112164090D01*
X147738536Y-112164088D01*
X147564727Y-112071185D01*
X147376130Y-112013975D01*
X147179999Y-111994658D01*
X146983869Y-112013975D01*
X146795272Y-112071185D01*
X146621463Y-112164088D01*
X146469117Y-112289117D01*
X146344088Y-112441463D01*
X146251185Y-112615272D01*
X146193975Y-112803869D01*
X146174658Y-113000000D01*
X146193975Y-113196130D01*
X146251185Y-113384727D01*
X146344088Y-113558536D01*
X146344089Y-113558537D01*
X146344090Y-113558538D01*
X146469117Y-113710883D01*
X146598298Y-113816900D01*
X146621463Y-113835911D01*
X146766041Y-113913190D01*
X146808448Y-113957296D01*
X146816831Y-114017904D01*
X146787989Y-114071865D01*
X146732937Y-114098566D01*
X146719373Y-114099500D01*
X146131165Y-114099500D01*
X146072974Y-114080593D01*
X146061161Y-114070504D01*
X145033084Y-113042427D01*
X145005307Y-112987910D01*
X145004565Y-112982126D01*
X145002672Y-112962907D01*
X144986024Y-112793868D01*
X144957418Y-112699570D01*
X144928814Y-112605272D01*
X144835911Y-112431463D01*
X144816900Y-112408298D01*
X144710883Y-112279117D01*
X144558538Y-112154090D01*
X144558539Y-112154090D01*
X144558536Y-112154088D01*
X144384727Y-112061185D01*
X144196130Y-112003975D01*
X144000000Y-111984658D01*
X143803869Y-112003975D01*
X143615272Y-112061185D01*
X143441463Y-112154088D01*
X143289117Y-112279117D01*
X143164088Y-112431463D01*
X143071185Y-112605272D01*
X143013975Y-112793869D01*
X142994658Y-112989999D01*
X143013975Y-113186130D01*
X143071185Y-113374727D01*
X143164088Y-113548536D01*
X143164090Y-113548538D01*
X143289117Y-113700883D01*
X143358095Y-113757492D01*
X143441463Y-113825911D01*
X143615272Y-113918814D01*
X143648238Y-113928814D01*
X143803868Y-113976024D01*
X143836278Y-113979216D01*
X143969942Y-113992381D01*
X144026000Y-114016900D01*
X144030243Y-114020900D01*
X145287597Y-115278254D01*
X145291695Y-115282609D01*
X145332068Y-115328180D01*
X145332071Y-115328183D01*
X145382213Y-115362793D01*
X145386987Y-115366306D01*
X145434943Y-115403877D01*
X145446248Y-115408964D01*
X145461857Y-115417768D01*
X145472070Y-115424818D01*
X145529010Y-115446412D01*
X145534536Y-115448701D01*
X145553854Y-115457395D01*
X145590068Y-115473694D01*
X145602272Y-115475930D01*
X145619532Y-115480742D01*
X145631128Y-115485140D01*
X145691605Y-115492483D01*
X145697470Y-115493375D01*
X145757394Y-115504357D01*
X145757394Y-115504356D01*
X145757395Y-115504357D01*
X145793049Y-115502200D01*
X145818166Y-115500680D01*
X145824143Y-115500500D01*
X145854602Y-115500500D01*
X145912793Y-115519407D01*
X145948757Y-115568907D01*
X145948757Y-115630093D01*
X145912793Y-115679593D01*
X145864305Y-115698023D01*
X145803869Y-115703975D01*
X145615272Y-115761185D01*
X145441463Y-115854088D01*
X145289117Y-115979117D01*
X145164088Y-116131463D01*
X145071185Y-116305272D01*
X145013975Y-116493869D01*
X144994658Y-116690000D01*
X145013975Y-116886130D01*
X145071185Y-117074727D01*
X145164088Y-117248536D01*
X145277028Y-117386153D01*
X145299328Y-117443129D01*
X145299500Y-117448958D01*
X145299500Y-121285844D01*
X145299319Y-121291822D01*
X145295641Y-121352604D01*
X145306622Y-121412529D01*
X145307521Y-121418437D01*
X145314860Y-121478873D01*
X145319256Y-121490465D01*
X145324067Y-121507721D01*
X145326305Y-121519932D01*
X145351302Y-121575473D01*
X145353581Y-121580974D01*
X145368465Y-121620219D01*
X145375182Y-121637931D01*
X145382228Y-121648138D01*
X145391031Y-121663746D01*
X145396121Y-121675056D01*
X145433676Y-121722991D01*
X145437214Y-121727799D01*
X145471817Y-121777929D01*
X145517389Y-121818302D01*
X145521744Y-121822401D01*
X147968007Y-124268664D01*
X147995784Y-124323181D01*
X147996526Y-124328964D01*
X148013975Y-124506131D01*
X148071184Y-124694725D01*
X148110027Y-124767394D01*
X148164089Y-124868537D01*
X148164091Y-124868539D01*
X148177027Y-124884301D01*
X148199328Y-124941278D01*
X148199500Y-124947107D01*
X148199500Y-127195500D01*
X148180593Y-127253691D01*
X148131093Y-127289655D01*
X148100500Y-127294500D01*
X147719691Y-127294500D01*
X147717270Y-127294738D01*
X147717258Y-127294739D01*
X147682033Y-127298208D01*
X147682015Y-127298210D01*
X147679605Y-127298448D01*
X147677233Y-127298919D01*
X147677211Y-127298923D01*
X147644118Y-127305505D01*
X147644101Y-127305509D01*
X147641724Y-127305982D01*
X147639406Y-127306684D01*
X147639394Y-127306688D01*
X147605502Y-127316967D01*
X147605486Y-127316972D01*
X147603177Y-127317673D01*
X147600946Y-127318596D01*
X147600932Y-127318602D01*
X147588533Y-127323738D01*
X147586763Y-127324533D01*
X147573863Y-127330501D01*
X147572116Y-127331369D01*
X147560066Y-127337521D01*
X147559091Y-127338291D01*
X147557181Y-127338995D01*
X147551350Y-127341973D01*
X147550995Y-127341276D01*
X147501685Y-127359463D01*
X147446081Y-127344951D01*
X147418332Y-127327947D01*
X147411461Y-127323736D01*
X147399069Y-127318604D01*
X147396831Y-127317677D01*
X147394515Y-127316974D01*
X147394511Y-127316973D01*
X147360616Y-127306691D01*
X147360610Y-127306689D01*
X147358281Y-127305983D01*
X147355893Y-127305508D01*
X147355889Y-127305507D01*
X147322777Y-127298921D01*
X147322773Y-127298920D01*
X147320398Y-127298448D01*
X147317994Y-127298211D01*
X147317979Y-127298209D01*
X147282741Y-127294739D01*
X147282730Y-127294738D01*
X147280309Y-127294500D01*
X147277869Y-127294500D01*
X147099500Y-127294500D01*
X147041309Y-127275593D01*
X147005345Y-127226093D01*
X147000500Y-127195500D01*
X147000500Y-124634154D01*
X147000681Y-124628176D01*
X147004358Y-124567394D01*
X147004357Y-124567393D01*
X146993374Y-124507459D01*
X146992481Y-124501590D01*
X146990473Y-124485057D01*
X146990229Y-124463435D01*
X147005341Y-124310000D01*
X146986024Y-124113868D01*
X146928814Y-123925273D01*
X146928814Y-123925272D01*
X146835911Y-123751463D01*
X146816900Y-123728298D01*
X146710883Y-123599117D01*
X146558538Y-123474090D01*
X146558539Y-123474090D01*
X146558536Y-123474088D01*
X146384727Y-123381185D01*
X146196131Y-123323975D01*
X146018964Y-123306526D01*
X145962907Y-123282006D01*
X145958664Y-123278007D01*
X143729496Y-121048838D01*
X143701719Y-120994321D01*
X143700500Y-120978834D01*
X143700500Y-117448958D01*
X143719407Y-117390767D01*
X143722972Y-117386153D01*
X143761702Y-117338960D01*
X143835910Y-117248538D01*
X143928814Y-117074727D01*
X143986024Y-116886132D01*
X144005341Y-116690000D01*
X143986024Y-116493868D01*
X143928814Y-116305273D01*
X143928814Y-116305272D01*
X143835911Y-116131463D01*
X143816900Y-116108298D01*
X143710883Y-115979117D01*
X143558538Y-115854090D01*
X143558539Y-115854090D01*
X143558536Y-115854088D01*
X143384727Y-115761185D01*
X143196130Y-115703975D01*
X142999999Y-115684658D01*
X142803869Y-115703975D01*
X142615272Y-115761185D01*
X142441463Y-115854088D01*
X142289117Y-115979117D01*
X142164088Y-116131463D01*
X142071185Y-116305272D01*
X142013975Y-116493869D01*
X141994658Y-116689999D01*
X142013975Y-116886130D01*
X142071185Y-117074727D01*
X142164088Y-117248536D01*
X142277028Y-117386153D01*
X142299328Y-117443129D01*
X142299500Y-117448958D01*
X142299500Y-121285844D01*
X142299319Y-121291822D01*
X142295641Y-121352604D01*
X142306622Y-121412529D01*
X142307521Y-121418437D01*
X142314860Y-121478873D01*
X142319256Y-121490465D01*
X142324067Y-121507721D01*
X142326305Y-121519932D01*
X142351302Y-121575473D01*
X142353581Y-121580974D01*
X142368465Y-121620219D01*
X142375182Y-121637931D01*
X142382228Y-121648138D01*
X142391031Y-121663746D01*
X142396121Y-121675056D01*
X142433676Y-121722991D01*
X142437214Y-121727799D01*
X142471817Y-121777929D01*
X142517389Y-121818302D01*
X142521744Y-121822401D01*
X144968007Y-124268664D01*
X144995784Y-124323181D01*
X144996526Y-124328964D01*
X145013975Y-124506131D01*
X145071185Y-124694727D01*
X145164088Y-124868536D01*
X145177026Y-124884301D01*
X145289117Y-125020883D01*
X145363304Y-125081767D01*
X145441462Y-125145911D01*
X145547168Y-125202411D01*
X145589575Y-125246516D01*
X145599500Y-125289721D01*
X145599500Y-127195500D01*
X145580593Y-127253691D01*
X145531093Y-127289655D01*
X145500500Y-127294500D01*
X145219691Y-127294500D01*
X145217270Y-127294738D01*
X145217258Y-127294739D01*
X145182033Y-127298208D01*
X145182015Y-127298210D01*
X145179605Y-127298448D01*
X145177233Y-127298919D01*
X145177211Y-127298923D01*
X145144118Y-127305505D01*
X145144101Y-127305509D01*
X145141724Y-127305982D01*
X145139406Y-127306684D01*
X145139394Y-127306688D01*
X145105502Y-127316967D01*
X145105486Y-127316972D01*
X145103177Y-127317673D01*
X145100946Y-127318596D01*
X145100932Y-127318602D01*
X145088533Y-127323738D01*
X145086774Y-127324528D01*
X145073853Y-127330506D01*
X145072103Y-127331377D01*
X145060044Y-127337535D01*
X145059094Y-127338284D01*
X145057233Y-127338970D01*
X145051332Y-127341984D01*
X145050973Y-127341279D01*
X145001690Y-127359461D01*
X144946079Y-127344949D01*
X144911465Y-127323738D01*
X144899069Y-127318604D01*
X144896831Y-127317677D01*
X144894515Y-127316974D01*
X144894511Y-127316973D01*
X144860616Y-127306691D01*
X144860610Y-127306689D01*
X144858281Y-127305983D01*
X144855893Y-127305508D01*
X144855889Y-127305507D01*
X144822777Y-127298921D01*
X144822773Y-127298920D01*
X144820398Y-127298448D01*
X144817994Y-127298211D01*
X144817979Y-127298209D01*
X144782741Y-127294739D01*
X144782730Y-127294738D01*
X144780309Y-127294500D01*
X144777869Y-127294500D01*
X143299500Y-127294500D01*
X143241309Y-127275593D01*
X143205345Y-127226093D01*
X143200500Y-127195500D01*
X143200500Y-125368121D01*
X143219407Y-125309930D01*
X143268907Y-125273966D01*
X143270743Y-125273390D01*
X143384727Y-125238814D01*
X143558538Y-125145910D01*
X143710883Y-125020883D01*
X143835910Y-124868538D01*
X143928814Y-124694727D01*
X143986024Y-124506132D01*
X144005341Y-124310000D01*
X143986024Y-124113868D01*
X143928814Y-123925273D01*
X143928814Y-123925272D01*
X143835911Y-123751463D01*
X143816900Y-123728298D01*
X143710883Y-123599117D01*
X143558538Y-123474090D01*
X143558539Y-123474090D01*
X143558536Y-123474088D01*
X143384727Y-123381185D01*
X143196131Y-123323975D01*
X143018964Y-123306526D01*
X142962907Y-123282006D01*
X142958664Y-123278007D01*
X140729496Y-121048839D01*
X140701719Y-120994322D01*
X140700500Y-120978835D01*
X140700500Y-117448958D01*
X140719407Y-117390767D01*
X140722972Y-117386153D01*
X140761702Y-117338960D01*
X140835910Y-117248538D01*
X140928814Y-117074727D01*
X140986024Y-116886132D01*
X141005341Y-116690000D01*
X140986024Y-116493868D01*
X140928814Y-116305273D01*
X140928814Y-116305272D01*
X140835911Y-116131463D01*
X140816900Y-116108298D01*
X140710883Y-115979117D01*
X140558538Y-115854090D01*
X140558539Y-115854090D01*
X140558536Y-115854088D01*
X140384727Y-115761185D01*
X140196130Y-115703975D01*
X140000000Y-115684658D01*
X139803869Y-115703975D01*
X139615272Y-115761185D01*
X139441463Y-115854088D01*
X139289117Y-115979117D01*
X139164088Y-116131463D01*
X139071185Y-116305272D01*
X139013975Y-116493869D01*
X138994658Y-116689999D01*
X139013975Y-116886130D01*
X139071185Y-117074727D01*
X139164088Y-117248536D01*
X139277028Y-117386153D01*
X139299328Y-117443129D01*
X139299500Y-117448958D01*
X139299500Y-121285844D01*
X139299319Y-121291822D01*
X139295641Y-121352604D01*
X139306622Y-121412529D01*
X139307521Y-121418437D01*
X139314860Y-121478873D01*
X139319256Y-121490465D01*
X139324067Y-121507721D01*
X139326305Y-121519932D01*
X139351302Y-121575473D01*
X139353581Y-121580974D01*
X139368465Y-121620219D01*
X139375182Y-121637931D01*
X139382228Y-121648138D01*
X139391031Y-121663746D01*
X139396121Y-121675056D01*
X139433676Y-121722991D01*
X139437214Y-121727799D01*
X139471817Y-121777929D01*
X139517389Y-121818302D01*
X139521744Y-121822401D01*
X141941897Y-124242554D01*
X141969674Y-124297071D01*
X141960103Y-124357503D01*
X141953369Y-124368796D01*
X141937225Y-124392185D01*
X141933681Y-124397001D01*
X141896121Y-124444944D01*
X141891029Y-124456257D01*
X141882230Y-124471857D01*
X141875182Y-124482067D01*
X141853593Y-124538993D01*
X141851306Y-124544515D01*
X141826305Y-124600067D01*
X141824067Y-124612279D01*
X141819258Y-124629527D01*
X141814861Y-124641127D01*
X141814860Y-124641129D01*
X141807521Y-124701562D01*
X141806622Y-124707469D01*
X141795641Y-124767395D01*
X141799319Y-124828176D01*
X141799500Y-124834154D01*
X141799500Y-127195500D01*
X141780593Y-127253691D01*
X141731093Y-127289655D01*
X141700500Y-127294500D01*
X140219691Y-127294500D01*
X140217270Y-127294738D01*
X140217258Y-127294739D01*
X140182033Y-127298208D01*
X140182015Y-127298210D01*
X140179605Y-127298448D01*
X140177233Y-127298919D01*
X140177211Y-127298923D01*
X140144118Y-127305505D01*
X140144101Y-127305509D01*
X140141724Y-127305982D01*
X140139406Y-127306684D01*
X140139394Y-127306688D01*
X140105502Y-127316967D01*
X140105486Y-127316972D01*
X140103177Y-127317673D01*
X140100946Y-127318596D01*
X140100932Y-127318602D01*
X140088533Y-127323738D01*
X140086774Y-127324528D01*
X140073853Y-127330506D01*
X140072103Y-127331377D01*
X140060044Y-127337535D01*
X140059094Y-127338284D01*
X140057233Y-127338970D01*
X140051332Y-127341984D01*
X140050973Y-127341279D01*
X140001690Y-127359461D01*
X139946079Y-127344949D01*
X139911465Y-127323738D01*
X139899069Y-127318604D01*
X139896831Y-127317677D01*
X139894515Y-127316974D01*
X139894511Y-127316973D01*
X139860616Y-127306691D01*
X139860610Y-127306689D01*
X139858281Y-127305983D01*
X139855893Y-127305508D01*
X139855889Y-127305507D01*
X139822777Y-127298921D01*
X139822773Y-127298920D01*
X139820398Y-127298448D01*
X139817994Y-127298211D01*
X139817979Y-127298209D01*
X139782741Y-127294739D01*
X139782730Y-127294738D01*
X139780309Y-127294500D01*
X139777869Y-127294500D01*
X138299500Y-127294500D01*
X138241309Y-127275593D01*
X138205345Y-127226093D01*
X138200500Y-127195500D01*
X138200500Y-124834154D01*
X138200681Y-124828176D01*
X138204358Y-124767394D01*
X138193378Y-124707481D01*
X138192478Y-124701567D01*
X138185140Y-124641128D01*
X138180745Y-124629539D01*
X138175932Y-124612277D01*
X138173695Y-124600069D01*
X138148690Y-124544512D01*
X138146408Y-124539000D01*
X138146405Y-124538993D01*
X138124818Y-124482070D01*
X138117765Y-124471853D01*
X138108968Y-124456254D01*
X138103878Y-124444944D01*
X138066318Y-124397001D01*
X138062780Y-124392193D01*
X138062774Y-124392185D01*
X138028183Y-124342071D01*
X138028182Y-124342070D01*
X138021354Y-124332178D01*
X138024629Y-124329917D01*
X138004670Y-124295994D01*
X138002812Y-124284327D01*
X137986024Y-124113868D01*
X137928814Y-123925273D01*
X137928814Y-123925272D01*
X137835911Y-123751463D01*
X137816900Y-123728298D01*
X137710883Y-123599117D01*
X137558538Y-123474090D01*
X137558539Y-123474090D01*
X137558536Y-123474088D01*
X137384727Y-123381185D01*
X137196131Y-123323975D01*
X137018964Y-123306526D01*
X136962907Y-123282006D01*
X136958664Y-123278007D01*
X134729496Y-121048839D01*
X134701719Y-120994322D01*
X134700500Y-120978835D01*
X134700500Y-117448958D01*
X134719407Y-117390767D01*
X134722972Y-117386153D01*
X134761702Y-117338960D01*
X134835910Y-117248538D01*
X134928814Y-117074727D01*
X134986024Y-116886132D01*
X135005341Y-116690000D01*
X135994658Y-116690000D01*
X136013975Y-116886130D01*
X136071185Y-117074727D01*
X136164088Y-117248536D01*
X136277028Y-117386153D01*
X136299328Y-117443129D01*
X136299500Y-117448958D01*
X136299500Y-121285844D01*
X136299319Y-121291822D01*
X136295641Y-121352604D01*
X136306622Y-121412529D01*
X136307521Y-121418437D01*
X136314860Y-121478873D01*
X136319256Y-121490465D01*
X136324067Y-121507721D01*
X136326305Y-121519932D01*
X136351302Y-121575473D01*
X136353581Y-121580974D01*
X136368465Y-121620219D01*
X136375182Y-121637931D01*
X136382228Y-121648138D01*
X136391031Y-121663746D01*
X136396121Y-121675056D01*
X136433676Y-121722991D01*
X136437214Y-121727799D01*
X136471817Y-121777929D01*
X136517389Y-121818302D01*
X136521744Y-121822401D01*
X138968007Y-124268664D01*
X138995784Y-124323181D01*
X138996526Y-124328964D01*
X139013975Y-124506131D01*
X139071185Y-124694727D01*
X139164088Y-124868536D01*
X139177026Y-124884301D01*
X139289117Y-125020883D01*
X139418298Y-125126900D01*
X139441463Y-125145911D01*
X139615272Y-125238814D01*
X139709570Y-125267418D01*
X139803868Y-125296024D01*
X140000000Y-125315341D01*
X140196132Y-125296024D01*
X140384727Y-125238814D01*
X140558538Y-125145910D01*
X140710883Y-125020883D01*
X140835910Y-124868538D01*
X140928814Y-124694727D01*
X140986024Y-124506132D01*
X141005341Y-124310000D01*
X140986024Y-124113868D01*
X140928814Y-123925273D01*
X140928814Y-123925272D01*
X140835911Y-123751463D01*
X140816900Y-123728298D01*
X140710883Y-123599117D01*
X140558538Y-123474090D01*
X140558539Y-123474090D01*
X140558536Y-123474088D01*
X140384727Y-123381185D01*
X140196131Y-123323975D01*
X140018964Y-123306526D01*
X139962907Y-123282006D01*
X139958664Y-123278007D01*
X137729496Y-121048839D01*
X137701719Y-120994322D01*
X137700500Y-120978835D01*
X137700500Y-117448958D01*
X137719407Y-117390767D01*
X137722972Y-117386153D01*
X137761702Y-117338960D01*
X137835910Y-117248538D01*
X137928814Y-117074727D01*
X137986024Y-116886132D01*
X138005341Y-116690000D01*
X137986024Y-116493868D01*
X137928814Y-116305273D01*
X137928814Y-116305272D01*
X137835911Y-116131463D01*
X137816900Y-116108298D01*
X137710883Y-115979117D01*
X137558538Y-115854090D01*
X137558539Y-115854090D01*
X137558536Y-115854088D01*
X137384727Y-115761185D01*
X137196130Y-115703975D01*
X137000000Y-115684658D01*
X136803869Y-115703975D01*
X136615272Y-115761185D01*
X136441463Y-115854088D01*
X136289117Y-115979117D01*
X136164088Y-116131463D01*
X136071185Y-116305272D01*
X136013975Y-116493869D01*
X135994658Y-116690000D01*
X135005341Y-116690000D01*
X134986024Y-116493868D01*
X134928814Y-116305273D01*
X134928814Y-116305272D01*
X134835911Y-116131463D01*
X134816900Y-116108298D01*
X134710883Y-115979117D01*
X134558538Y-115854090D01*
X134558539Y-115854090D01*
X134558536Y-115854088D01*
X134384727Y-115761185D01*
X134196130Y-115703975D01*
X134000000Y-115684658D01*
X133803869Y-115703975D01*
X133615272Y-115761185D01*
X133441463Y-115854088D01*
X133289117Y-115979117D01*
X133164088Y-116131463D01*
X133071185Y-116305272D01*
X133013975Y-116493869D01*
X132994658Y-116690000D01*
X133013975Y-116886130D01*
X133071185Y-117074727D01*
X133164088Y-117248536D01*
X133277028Y-117386153D01*
X133299328Y-117443129D01*
X133299500Y-117448958D01*
X133299500Y-121285844D01*
X133299319Y-121291822D01*
X133295641Y-121352604D01*
X133306622Y-121412529D01*
X133307521Y-121418437D01*
X133314860Y-121478873D01*
X133319256Y-121490465D01*
X133324067Y-121507721D01*
X133326305Y-121519932D01*
X133351302Y-121575473D01*
X133353581Y-121580974D01*
X133368465Y-121620219D01*
X133375182Y-121637931D01*
X133382228Y-121648138D01*
X133391031Y-121663746D01*
X133396121Y-121675056D01*
X133433676Y-121722991D01*
X133437214Y-121727799D01*
X133471817Y-121777929D01*
X133517389Y-121818302D01*
X133521744Y-121822401D01*
X135968007Y-124268664D01*
X135995784Y-124323181D01*
X135996526Y-124328964D01*
X136013975Y-124506131D01*
X136071185Y-124694727D01*
X136164088Y-124868536D01*
X136177026Y-124884301D01*
X136289117Y-125020883D01*
X136418298Y-125126900D01*
X136441463Y-125145911D01*
X136615272Y-125238814D01*
X136640663Y-125246516D01*
X136729237Y-125273384D01*
X136779434Y-125308368D01*
X136799481Y-125366176D01*
X136799500Y-125368121D01*
X136799500Y-127195500D01*
X136780593Y-127253691D01*
X136731093Y-127289655D01*
X136700500Y-127294500D01*
X135219691Y-127294500D01*
X135217270Y-127294738D01*
X135217258Y-127294739D01*
X135182033Y-127298208D01*
X135182015Y-127298210D01*
X135179605Y-127298448D01*
X135177233Y-127298919D01*
X135177211Y-127298923D01*
X135144118Y-127305505D01*
X135144101Y-127305509D01*
X135141724Y-127305982D01*
X135139406Y-127306684D01*
X135139394Y-127306688D01*
X135105502Y-127316967D01*
X135105486Y-127316972D01*
X135103177Y-127317673D01*
X135100946Y-127318596D01*
X135100932Y-127318602D01*
X135088533Y-127323738D01*
X135086763Y-127324533D01*
X135073863Y-127330501D01*
X135072116Y-127331369D01*
X135060066Y-127337521D01*
X135059091Y-127338291D01*
X135057181Y-127338995D01*
X135051350Y-127341973D01*
X135050995Y-127341276D01*
X135001685Y-127359463D01*
X134946081Y-127344951D01*
X134918332Y-127327947D01*
X134911461Y-127323736D01*
X134899069Y-127318604D01*
X134896831Y-127317677D01*
X134894515Y-127316974D01*
X134894511Y-127316973D01*
X134860616Y-127306691D01*
X134860610Y-127306689D01*
X134858281Y-127305983D01*
X134855893Y-127305508D01*
X134855889Y-127305507D01*
X134822777Y-127298921D01*
X134822773Y-127298920D01*
X134820398Y-127298448D01*
X134817994Y-127298211D01*
X134817979Y-127298209D01*
X134782741Y-127294739D01*
X134782730Y-127294738D01*
X134780309Y-127294500D01*
X134777869Y-127294500D01*
X133299500Y-127294500D01*
X133241309Y-127275593D01*
X133205345Y-127226093D01*
X133200500Y-127195500D01*
X133200500Y-125834142D01*
X133200681Y-125828164D01*
X133204357Y-125767395D01*
X133199124Y-125738839D01*
X133193375Y-125707470D01*
X133192483Y-125701605D01*
X133185140Y-125641128D01*
X133180742Y-125629532D01*
X133175929Y-125612268D01*
X133175227Y-125608437D01*
X133173694Y-125600068D01*
X133148701Y-125544536D01*
X133146412Y-125539010D01*
X133124818Y-125482070D01*
X133117768Y-125471857D01*
X133108964Y-125456248D01*
X133103877Y-125444943D01*
X133066306Y-125396987D01*
X133062793Y-125392213D01*
X133028183Y-125342071D01*
X133023579Y-125337992D01*
X132982609Y-125301695D01*
X132978254Y-125297597D01*
X132031992Y-124351335D01*
X132004215Y-124296818D01*
X132003473Y-124291034D01*
X131986024Y-124113869D01*
X131928814Y-123925272D01*
X131835911Y-123751463D01*
X131816900Y-123728298D01*
X131710883Y-123599117D01*
X131558538Y-123474090D01*
X131558539Y-123474090D01*
X131558536Y-123474088D01*
X131384727Y-123381185D01*
X131196131Y-123323975D01*
X131018964Y-123306526D01*
X130962907Y-123282006D01*
X130958664Y-123278007D01*
X128729496Y-121048839D01*
X128701719Y-120994322D01*
X128700500Y-120978835D01*
X128700500Y-117448958D01*
X128719407Y-117390767D01*
X128722972Y-117386153D01*
X128761702Y-117338960D01*
X128835910Y-117248538D01*
X128928814Y-117074727D01*
X128986024Y-116886132D01*
X129005341Y-116690000D01*
X129994658Y-116690000D01*
X130013975Y-116886130D01*
X130071185Y-117074727D01*
X130164088Y-117248536D01*
X130277028Y-117386153D01*
X130299328Y-117443129D01*
X130299500Y-117448958D01*
X130299500Y-121285844D01*
X130299319Y-121291822D01*
X130295641Y-121352604D01*
X130306622Y-121412529D01*
X130307521Y-121418437D01*
X130314860Y-121478873D01*
X130319256Y-121490465D01*
X130324067Y-121507721D01*
X130326305Y-121519932D01*
X130351302Y-121575473D01*
X130353581Y-121580974D01*
X130368465Y-121620219D01*
X130375182Y-121637931D01*
X130382228Y-121648138D01*
X130391031Y-121663746D01*
X130396121Y-121675056D01*
X130433676Y-121722991D01*
X130437214Y-121727799D01*
X130471817Y-121777929D01*
X130517389Y-121818302D01*
X130521744Y-121822401D01*
X132968007Y-124268664D01*
X132995784Y-124323181D01*
X132996526Y-124328964D01*
X133013975Y-124506131D01*
X133071185Y-124694727D01*
X133164088Y-124868536D01*
X133177026Y-124884301D01*
X133289117Y-125020883D01*
X133418298Y-125126900D01*
X133441463Y-125145911D01*
X133615272Y-125238814D01*
X133709570Y-125267418D01*
X133803868Y-125296024D01*
X134000000Y-125315341D01*
X134196132Y-125296024D01*
X134384727Y-125238814D01*
X134558538Y-125145910D01*
X134710883Y-125020883D01*
X134835910Y-124868538D01*
X134928814Y-124694727D01*
X134986024Y-124506132D01*
X135005341Y-124310000D01*
X134986024Y-124113868D01*
X134928814Y-123925273D01*
X134928814Y-123925272D01*
X134835911Y-123751463D01*
X134816900Y-123728298D01*
X134710883Y-123599117D01*
X134558538Y-123474090D01*
X134558539Y-123474090D01*
X134558536Y-123474088D01*
X134384727Y-123381185D01*
X134196131Y-123323975D01*
X134018964Y-123306526D01*
X133962907Y-123282006D01*
X133958664Y-123278007D01*
X131729496Y-121048839D01*
X131701719Y-120994322D01*
X131700500Y-120978835D01*
X131700500Y-117448958D01*
X131719407Y-117390767D01*
X131722972Y-117386153D01*
X131761702Y-117338960D01*
X131835910Y-117248538D01*
X131928814Y-117074727D01*
X131986024Y-116886132D01*
X132005341Y-116690000D01*
X131986024Y-116493868D01*
X131928814Y-116305273D01*
X131928814Y-116305272D01*
X131835911Y-116131463D01*
X131816900Y-116108298D01*
X131710883Y-115979117D01*
X131558538Y-115854090D01*
X131558539Y-115854090D01*
X131558536Y-115854088D01*
X131384727Y-115761185D01*
X131196130Y-115703975D01*
X130999999Y-115684658D01*
X130803869Y-115703975D01*
X130615272Y-115761185D01*
X130441463Y-115854088D01*
X130289117Y-115979117D01*
X130164088Y-116131463D01*
X130071185Y-116305272D01*
X130013975Y-116493869D01*
X129994658Y-116690000D01*
X129005341Y-116690000D01*
X128986024Y-116493868D01*
X128928814Y-116305273D01*
X128928814Y-116305272D01*
X128835911Y-116131463D01*
X128816900Y-116108298D01*
X128710883Y-115979117D01*
X128558538Y-115854090D01*
X128558539Y-115854090D01*
X128558536Y-115854088D01*
X128384727Y-115761185D01*
X128196130Y-115703975D01*
X128000000Y-115684658D01*
X127803869Y-115703975D01*
X127615272Y-115761185D01*
X127441463Y-115854088D01*
X127289117Y-115979117D01*
X127164088Y-116131463D01*
X127071185Y-116305272D01*
X127013975Y-116493869D01*
X126994658Y-116689999D01*
X127013975Y-116886130D01*
X127071185Y-117074727D01*
X127164088Y-117248536D01*
X127277027Y-117386151D01*
X127299327Y-117443127D01*
X127299499Y-117448956D01*
X127299499Y-121285844D01*
X127299318Y-121291821D01*
X127295641Y-121352603D01*
X127306622Y-121412529D01*
X127307521Y-121418437D01*
X127314860Y-121478873D01*
X127319256Y-121490465D01*
X127324067Y-121507721D01*
X127326305Y-121519932D01*
X127351302Y-121575473D01*
X127353581Y-121580974D01*
X127368465Y-121620219D01*
X127375182Y-121637931D01*
X127382228Y-121648138D01*
X127391031Y-121663746D01*
X127396121Y-121675056D01*
X127433676Y-121722991D01*
X127437214Y-121727799D01*
X127471817Y-121777929D01*
X127517389Y-121818302D01*
X127521744Y-121822401D01*
X129968007Y-124268664D01*
X129995784Y-124323181D01*
X129996526Y-124328964D01*
X130013975Y-124506131D01*
X130071185Y-124694727D01*
X130164088Y-124868536D01*
X130177026Y-124884301D01*
X130289117Y-125020883D01*
X130418298Y-125126900D01*
X130441463Y-125145911D01*
X130615272Y-125238814D01*
X130709570Y-125267418D01*
X130803868Y-125296024D01*
X130981034Y-125313473D01*
X131037092Y-125337992D01*
X131041335Y-125341992D01*
X131770504Y-126071160D01*
X131798281Y-126125677D01*
X131799500Y-126141164D01*
X131799500Y-127195500D01*
X131780593Y-127253691D01*
X131731093Y-127289655D01*
X131700500Y-127294500D01*
X130219691Y-127294500D01*
X130217270Y-127294738D01*
X130217258Y-127294739D01*
X130182033Y-127298208D01*
X130182015Y-127298210D01*
X130179605Y-127298448D01*
X130177233Y-127298919D01*
X130177211Y-127298923D01*
X130144118Y-127305505D01*
X130144101Y-127305509D01*
X130141724Y-127305982D01*
X130139406Y-127306684D01*
X130139394Y-127306688D01*
X130105502Y-127316967D01*
X130105486Y-127316972D01*
X130103177Y-127317673D01*
X130100946Y-127318596D01*
X130100932Y-127318602D01*
X130088533Y-127323738D01*
X130086763Y-127324533D01*
X130073863Y-127330501D01*
X130072116Y-127331369D01*
X130060066Y-127337521D01*
X130059091Y-127338291D01*
X130057181Y-127338995D01*
X130051350Y-127341973D01*
X130050995Y-127341276D01*
X130001685Y-127359463D01*
X129946081Y-127344951D01*
X129918332Y-127327947D01*
X129911461Y-127323736D01*
X129899069Y-127318604D01*
X129896831Y-127317677D01*
X129894515Y-127316974D01*
X129894511Y-127316973D01*
X129860616Y-127306691D01*
X129860610Y-127306689D01*
X129858281Y-127305983D01*
X129855893Y-127305508D01*
X129855889Y-127305507D01*
X129822777Y-127298921D01*
X129822773Y-127298920D01*
X129820398Y-127298448D01*
X129817994Y-127298211D01*
X129817979Y-127298209D01*
X129782741Y-127294739D01*
X129782730Y-127294738D01*
X129780309Y-127294500D01*
X129777869Y-127294500D01*
X129599500Y-127294500D01*
X129541309Y-127275593D01*
X129505345Y-127226093D01*
X129500500Y-127195500D01*
X129500499Y-126424156D01*
X129500680Y-126418176D01*
X129500994Y-126412991D01*
X129504358Y-126357394D01*
X129493375Y-126297465D01*
X129492478Y-126291568D01*
X129491924Y-126287006D01*
X129485140Y-126231128D01*
X129480745Y-126219539D01*
X129475932Y-126202277D01*
X129475097Y-126197721D01*
X129473695Y-126190069D01*
X129448690Y-126134512D01*
X129446408Y-126129000D01*
X129424819Y-126072072D01*
X129424818Y-126072070D01*
X129417765Y-126061853D01*
X129408968Y-126046254D01*
X129403878Y-126034944D01*
X129366324Y-125987009D01*
X129362788Y-125982204D01*
X129328183Y-125932071D01*
X129306646Y-125912991D01*
X129282608Y-125891695D01*
X129278253Y-125887596D01*
X128729496Y-125338838D01*
X128701719Y-125284321D01*
X128700500Y-125268834D01*
X128700500Y-125068958D01*
X128719407Y-125010767D01*
X128722972Y-125006153D01*
X128776213Y-124941278D01*
X128835910Y-124868538D01*
X128928814Y-124694727D01*
X128986024Y-124506132D01*
X129005341Y-124310000D01*
X128986024Y-124113868D01*
X128928814Y-123925273D01*
X128928814Y-123925272D01*
X128835911Y-123751463D01*
X128816900Y-123728298D01*
X128710883Y-123599117D01*
X128558538Y-123474090D01*
X128558539Y-123474090D01*
X128558536Y-123474088D01*
X128384727Y-123381185D01*
X128196131Y-123323975D01*
X128018964Y-123306526D01*
X127962907Y-123282006D01*
X127958664Y-123278007D01*
X125729496Y-121048839D01*
X125701719Y-120994322D01*
X125700500Y-120978835D01*
X125700500Y-117448958D01*
X125719407Y-117390767D01*
X125722972Y-117386153D01*
X125761702Y-117338960D01*
X125835910Y-117248538D01*
X125928814Y-117074727D01*
X125986024Y-116886132D01*
X126005341Y-116690000D01*
X125986024Y-116493868D01*
X125928814Y-116305273D01*
X125928814Y-116305272D01*
X125835911Y-116131463D01*
X125816900Y-116108298D01*
X125710883Y-115979117D01*
X125558538Y-115854090D01*
X125558539Y-115854090D01*
X125558536Y-115854088D01*
X125384727Y-115761185D01*
X125196130Y-115703975D01*
X125000000Y-115684658D01*
X124803869Y-115703975D01*
X124615272Y-115761185D01*
X124441463Y-115854088D01*
X124289117Y-115979117D01*
X124164088Y-116131463D01*
X124071185Y-116305272D01*
X124013975Y-116493869D01*
X123994658Y-116689999D01*
X124013975Y-116886130D01*
X124071185Y-117074727D01*
X124164088Y-117248536D01*
X124277028Y-117386153D01*
X124299328Y-117443129D01*
X124299500Y-117448958D01*
X124299500Y-121285844D01*
X124299319Y-121291822D01*
X124295641Y-121352604D01*
X124306622Y-121412529D01*
X124307521Y-121418437D01*
X124314860Y-121478873D01*
X124319256Y-121490465D01*
X124324067Y-121507721D01*
X124326305Y-121519932D01*
X124351302Y-121575473D01*
X124353581Y-121580974D01*
X124368465Y-121620219D01*
X124375182Y-121637931D01*
X124382228Y-121648138D01*
X124391031Y-121663746D01*
X124396121Y-121675056D01*
X124433676Y-121722991D01*
X124437214Y-121727799D01*
X124471817Y-121777929D01*
X124517389Y-121818302D01*
X124521744Y-121822401D01*
X126968007Y-124268664D01*
X126995784Y-124323181D01*
X126996526Y-124328964D01*
X127013975Y-124506131D01*
X127071185Y-124694727D01*
X127164088Y-124868537D01*
X127277027Y-125006153D01*
X127299327Y-125063130D01*
X127299499Y-125068958D01*
X127299500Y-125575844D01*
X127299319Y-125581822D01*
X127295641Y-125642604D01*
X127306622Y-125702529D01*
X127307521Y-125708437D01*
X127314860Y-125768873D01*
X127319256Y-125780465D01*
X127324067Y-125797721D01*
X127326305Y-125809932D01*
X127351114Y-125865057D01*
X127351302Y-125865473D01*
X127353581Y-125870974D01*
X127360686Y-125889708D01*
X127375182Y-125927931D01*
X127382228Y-125938138D01*
X127391031Y-125953746D01*
X127396121Y-125965056D01*
X127396122Y-125965057D01*
X127433213Y-126012401D01*
X127433676Y-126012991D01*
X127437214Y-126017799D01*
X127471817Y-126067929D01*
X127514183Y-126105462D01*
X127517389Y-126108302D01*
X127521744Y-126112401D01*
X128070504Y-126661161D01*
X128098281Y-126715678D01*
X128099500Y-126731165D01*
X128099500Y-127195500D01*
X128080593Y-127253691D01*
X128031093Y-127289655D01*
X128000500Y-127294500D01*
X127719691Y-127294500D01*
X127717270Y-127294738D01*
X127717258Y-127294739D01*
X127682033Y-127298208D01*
X127682015Y-127298210D01*
X127679605Y-127298448D01*
X127677233Y-127298919D01*
X127677211Y-127298923D01*
X127644118Y-127305505D01*
X127644101Y-127305509D01*
X127641724Y-127305982D01*
X127639406Y-127306684D01*
X127639394Y-127306688D01*
X127605502Y-127316967D01*
X127605486Y-127316972D01*
X127603177Y-127317673D01*
X127600946Y-127318596D01*
X127600932Y-127318602D01*
X127588533Y-127323738D01*
X127586774Y-127324528D01*
X127573853Y-127330506D01*
X127572103Y-127331377D01*
X127560044Y-127337535D01*
X127559094Y-127338284D01*
X127557233Y-127338970D01*
X127551332Y-127341984D01*
X127550973Y-127341279D01*
X127501690Y-127359461D01*
X127446079Y-127344949D01*
X127411465Y-127323738D01*
X127399069Y-127318604D01*
X127396831Y-127317677D01*
X127394515Y-127316974D01*
X127394511Y-127316973D01*
X127360616Y-127306691D01*
X127360610Y-127306689D01*
X127358281Y-127305983D01*
X127355893Y-127305508D01*
X127355889Y-127305507D01*
X127322777Y-127298921D01*
X127322773Y-127298920D01*
X127320398Y-127298448D01*
X127317994Y-127298211D01*
X127317979Y-127298209D01*
X127282741Y-127294739D01*
X127282730Y-127294738D01*
X127280309Y-127294500D01*
X127277869Y-127294500D01*
X127099500Y-127294500D01*
X127041309Y-127275593D01*
X127005345Y-127226093D01*
X127000500Y-127195500D01*
X127000500Y-125634154D01*
X127000681Y-125628176D01*
X127004358Y-125567394D01*
X126995878Y-125521123D01*
X126993376Y-125507470D01*
X126992478Y-125501567D01*
X126990111Y-125482070D01*
X126985140Y-125441128D01*
X126980745Y-125429539D01*
X126975932Y-125412277D01*
X126973695Y-125400069D01*
X126948690Y-125344512D01*
X126946408Y-125339000D01*
X126924819Y-125282072D01*
X126924818Y-125282070D01*
X126917765Y-125271853D01*
X126908968Y-125256254D01*
X126903878Y-125244944D01*
X126901627Y-125242071D01*
X126866324Y-125197009D01*
X126862788Y-125192204D01*
X126828183Y-125142071D01*
X126782608Y-125101695D01*
X126778253Y-125097596D01*
X126031992Y-124351335D01*
X126004215Y-124296818D01*
X126003473Y-124291034D01*
X125986024Y-124113869D01*
X125928814Y-123925272D01*
X125835911Y-123751463D01*
X125816900Y-123728298D01*
X125710883Y-123599117D01*
X125558538Y-123474090D01*
X125558539Y-123474090D01*
X125558536Y-123474088D01*
X125384727Y-123381185D01*
X125196131Y-123323975D01*
X125018964Y-123306526D01*
X124962907Y-123282006D01*
X124958664Y-123278007D01*
X122729496Y-121048839D01*
X122701719Y-120994322D01*
X122700500Y-120978835D01*
X122700500Y-117448958D01*
X122719407Y-117390767D01*
X122722972Y-117386153D01*
X122761702Y-117338960D01*
X122835910Y-117248538D01*
X122928814Y-117074727D01*
X122986024Y-116886132D01*
X123005341Y-116690000D01*
X122986024Y-116493868D01*
X122928814Y-116305273D01*
X122928814Y-116305272D01*
X122835911Y-116131463D01*
X122816900Y-116108298D01*
X122710883Y-115979117D01*
X122558538Y-115854090D01*
X122558539Y-115854090D01*
X122558536Y-115854088D01*
X122384727Y-115761185D01*
X122196130Y-115703975D01*
X122000000Y-115684658D01*
X121803869Y-115703975D01*
X121615272Y-115761185D01*
X121441463Y-115854088D01*
X121289117Y-115979117D01*
X121164088Y-116131463D01*
X121071185Y-116305272D01*
X121013975Y-116493869D01*
X120994658Y-116690000D01*
X121013975Y-116886130D01*
X121071185Y-117074727D01*
X121164088Y-117248536D01*
X121277028Y-117386153D01*
X121299328Y-117443129D01*
X121299500Y-117448958D01*
X121299500Y-121285844D01*
X121299319Y-121291822D01*
X121295641Y-121352604D01*
X121306622Y-121412529D01*
X121307521Y-121418437D01*
X121314860Y-121478873D01*
X121319256Y-121490465D01*
X121324067Y-121507721D01*
X121326305Y-121519932D01*
X121351302Y-121575473D01*
X121353581Y-121580974D01*
X121368465Y-121620219D01*
X121375182Y-121637931D01*
X121382228Y-121648138D01*
X121391031Y-121663746D01*
X121396121Y-121675056D01*
X121433676Y-121722991D01*
X121437214Y-121727799D01*
X121471817Y-121777929D01*
X121517389Y-121818302D01*
X121521744Y-121822401D01*
X123968007Y-124268664D01*
X123995784Y-124323181D01*
X123996526Y-124328964D01*
X124013975Y-124506131D01*
X124071185Y-124694727D01*
X124164088Y-124868536D01*
X124177026Y-124884301D01*
X124289117Y-125020883D01*
X124418298Y-125126900D01*
X124441463Y-125145911D01*
X124615272Y-125238814D01*
X124709570Y-125267418D01*
X124803868Y-125296024D01*
X124981034Y-125313473D01*
X125037092Y-125337992D01*
X125041335Y-125341992D01*
X125570504Y-125871161D01*
X125598281Y-125925678D01*
X125599500Y-125941165D01*
X125599500Y-127195500D01*
X125580593Y-127253691D01*
X125531093Y-127289655D01*
X125500500Y-127294500D01*
X125219691Y-127294500D01*
X125217270Y-127294738D01*
X125217258Y-127294739D01*
X125182033Y-127298208D01*
X125182015Y-127298210D01*
X125179605Y-127298448D01*
X125177233Y-127298919D01*
X125177211Y-127298923D01*
X125144118Y-127305505D01*
X125144101Y-127305509D01*
X125141724Y-127305982D01*
X125139406Y-127306684D01*
X125139394Y-127306688D01*
X125105502Y-127316967D01*
X125105486Y-127316972D01*
X125103177Y-127317673D01*
X125100946Y-127318596D01*
X125100932Y-127318602D01*
X125088533Y-127323738D01*
X125086774Y-127324528D01*
X125073853Y-127330506D01*
X125072103Y-127331377D01*
X125060044Y-127337535D01*
X125059094Y-127338284D01*
X125057233Y-127338970D01*
X125051332Y-127341984D01*
X125050973Y-127341279D01*
X125001690Y-127359461D01*
X124946079Y-127344949D01*
X124911465Y-127323738D01*
X124899069Y-127318604D01*
X124896831Y-127317677D01*
X124894515Y-127316974D01*
X124894511Y-127316973D01*
X124860616Y-127306691D01*
X124860610Y-127306689D01*
X124858281Y-127305983D01*
X124855893Y-127305508D01*
X124855889Y-127305507D01*
X124822777Y-127298921D01*
X124822773Y-127298920D01*
X124820398Y-127298448D01*
X124817994Y-127298211D01*
X124817979Y-127298209D01*
X124782741Y-127294739D01*
X124782730Y-127294738D01*
X124780309Y-127294500D01*
X124777869Y-127294500D01*
X123299500Y-127294500D01*
X123241309Y-127275593D01*
X123205345Y-127226093D01*
X123200500Y-127195500D01*
X123200500Y-124834154D01*
X123200681Y-124828176D01*
X123204358Y-124767394D01*
X123193378Y-124707481D01*
X123192478Y-124701567D01*
X123185140Y-124641128D01*
X123180745Y-124629539D01*
X123175932Y-124612277D01*
X123173695Y-124600069D01*
X123148690Y-124544512D01*
X123146408Y-124539000D01*
X123146405Y-124538993D01*
X123124818Y-124482070D01*
X123117765Y-124471853D01*
X123108968Y-124456254D01*
X123103878Y-124444944D01*
X123066318Y-124397001D01*
X123062780Y-124392193D01*
X123062774Y-124392185D01*
X123028183Y-124342071D01*
X123028182Y-124342070D01*
X123021354Y-124332178D01*
X123024629Y-124329917D01*
X123004670Y-124295994D01*
X123002812Y-124284327D01*
X122986024Y-124113868D01*
X122928814Y-123925273D01*
X122928814Y-123925272D01*
X122835911Y-123751463D01*
X122816900Y-123728298D01*
X122710883Y-123599117D01*
X122558538Y-123474090D01*
X122558539Y-123474090D01*
X122558536Y-123474088D01*
X122384727Y-123381185D01*
X122196131Y-123323975D01*
X122018964Y-123306526D01*
X121962907Y-123282006D01*
X121958664Y-123278007D01*
X119729495Y-121048838D01*
X119701718Y-120994321D01*
X119700499Y-120978846D01*
X119700499Y-117448956D01*
X119719406Y-117390766D01*
X119722950Y-117386178D01*
X119835910Y-117248538D01*
X119835912Y-117248536D01*
X119928814Y-117074727D01*
X119986024Y-116886132D01*
X120005341Y-116690000D01*
X119986024Y-116493868D01*
X119928814Y-116305273D01*
X119928814Y-116305272D01*
X119835911Y-116131463D01*
X119816900Y-116108298D01*
X119710883Y-115979117D01*
X119558538Y-115854090D01*
X119558539Y-115854090D01*
X119558536Y-115854088D01*
X119384727Y-115761185D01*
X119196130Y-115703975D01*
X118999999Y-115684658D01*
X118803869Y-115703975D01*
X118615272Y-115761185D01*
X118441463Y-115854088D01*
X118289117Y-115979117D01*
X118164088Y-116131463D01*
X118071185Y-116305272D01*
X118013975Y-116493869D01*
X117994658Y-116690000D01*
X118013975Y-116886130D01*
X118071185Y-117074727D01*
X118164088Y-117248536D01*
X118277028Y-117386153D01*
X118299328Y-117443129D01*
X118299500Y-117448958D01*
X118299500Y-121285844D01*
X118299319Y-121291822D01*
X118295641Y-121352604D01*
X118306622Y-121412529D01*
X118307521Y-121418437D01*
X118314860Y-121478873D01*
X118319256Y-121490465D01*
X118324067Y-121507721D01*
X118326305Y-121519932D01*
X118351302Y-121575473D01*
X118353581Y-121580974D01*
X118368465Y-121620219D01*
X118375182Y-121637931D01*
X118382228Y-121648138D01*
X118391031Y-121663746D01*
X118396121Y-121675056D01*
X118433676Y-121722991D01*
X118437214Y-121727799D01*
X118471817Y-121777929D01*
X118517389Y-121818302D01*
X118521744Y-121822401D01*
X120968007Y-124268664D01*
X120995784Y-124323181D01*
X120996526Y-124328964D01*
X121013975Y-124506131D01*
X121071185Y-124694727D01*
X121164088Y-124868536D01*
X121177026Y-124884301D01*
X121289117Y-125020883D01*
X121418298Y-125126900D01*
X121441463Y-125145911D01*
X121615272Y-125238814D01*
X121640663Y-125246516D01*
X121729237Y-125273384D01*
X121779434Y-125308368D01*
X121799481Y-125366176D01*
X121799500Y-125368121D01*
X121799500Y-127195500D01*
X121780593Y-127253691D01*
X121731093Y-127289655D01*
X121700500Y-127294500D01*
X120219691Y-127294500D01*
X120217270Y-127294738D01*
X120217258Y-127294739D01*
X120182033Y-127298208D01*
X120182015Y-127298210D01*
X120179605Y-127298448D01*
X120177233Y-127298919D01*
X120177211Y-127298923D01*
X120144118Y-127305505D01*
X120144101Y-127305509D01*
X120141724Y-127305982D01*
X120139406Y-127306684D01*
X120139394Y-127306688D01*
X120105502Y-127316967D01*
X120105486Y-127316972D01*
X120103177Y-127317673D01*
X120100946Y-127318596D01*
X120100932Y-127318602D01*
X120088533Y-127323738D01*
X120086763Y-127324533D01*
X120073863Y-127330501D01*
X120072116Y-127331369D01*
X120060066Y-127337521D01*
X120059091Y-127338291D01*
X120057181Y-127338995D01*
X120051350Y-127341973D01*
X120050995Y-127341276D01*
X120001685Y-127359463D01*
X119946081Y-127344951D01*
X119918332Y-127327947D01*
X119911461Y-127323736D01*
X119899069Y-127318604D01*
X119896831Y-127317677D01*
X119894515Y-127316974D01*
X119894511Y-127316973D01*
X119860616Y-127306691D01*
X119860610Y-127306689D01*
X119858281Y-127305983D01*
X119855893Y-127305508D01*
X119855889Y-127305507D01*
X119822777Y-127298921D01*
X119822773Y-127298920D01*
X119820398Y-127298448D01*
X119817994Y-127298211D01*
X119817979Y-127298209D01*
X119782741Y-127294739D01*
X119782730Y-127294738D01*
X119780309Y-127294500D01*
X119777869Y-127294500D01*
X118199500Y-127294500D01*
X118141309Y-127275593D01*
X118105345Y-127226093D01*
X118100500Y-127195500D01*
X118100500Y-125734154D01*
X118100681Y-125728176D01*
X118104358Y-125667395D01*
X118099815Y-125642604D01*
X118093373Y-125607454D01*
X118092481Y-125601589D01*
X118085140Y-125541128D01*
X118080740Y-125529528D01*
X118075931Y-125512273D01*
X118073969Y-125501567D01*
X118073695Y-125500068D01*
X118048689Y-125444507D01*
X118046411Y-125439007D01*
X118042820Y-125429539D01*
X118024818Y-125382070D01*
X118017770Y-125371859D01*
X118008967Y-125356251D01*
X118003878Y-125344943D01*
X117990912Y-125328393D01*
X117966323Y-125297007D01*
X117962779Y-125292191D01*
X117928182Y-125242069D01*
X117882609Y-125201695D01*
X117878254Y-125197597D01*
X117031992Y-124351335D01*
X117004215Y-124296818D01*
X117003473Y-124291034D01*
X116986024Y-124113869D01*
X116928814Y-123925272D01*
X116835911Y-123751463D01*
X116816900Y-123728298D01*
X116710883Y-123599117D01*
X116558538Y-123474090D01*
X116558539Y-123474090D01*
X116558536Y-123474088D01*
X116384727Y-123381185D01*
X116196131Y-123323975D01*
X116018964Y-123306526D01*
X115962907Y-123282006D01*
X115958664Y-123278007D01*
X113729496Y-121048839D01*
X113701719Y-120994322D01*
X113700500Y-120978835D01*
X113700500Y-117448958D01*
X113719407Y-117390767D01*
X113722972Y-117386153D01*
X113761702Y-117338960D01*
X113835910Y-117248538D01*
X113928814Y-117074727D01*
X113986024Y-116886132D01*
X114005341Y-116690000D01*
X114994658Y-116690000D01*
X115013975Y-116886130D01*
X115071185Y-117074727D01*
X115164088Y-117248536D01*
X115277028Y-117386153D01*
X115299328Y-117443129D01*
X115299500Y-117448958D01*
X115299500Y-121285844D01*
X115299319Y-121291822D01*
X115295641Y-121352604D01*
X115306622Y-121412529D01*
X115307521Y-121418437D01*
X115314860Y-121478873D01*
X115319256Y-121490465D01*
X115324067Y-121507721D01*
X115326305Y-121519932D01*
X115351302Y-121575473D01*
X115353581Y-121580974D01*
X115368465Y-121620219D01*
X115375182Y-121637931D01*
X115382228Y-121648138D01*
X115391031Y-121663746D01*
X115396121Y-121675056D01*
X115433676Y-121722991D01*
X115437214Y-121727799D01*
X115471817Y-121777929D01*
X115517389Y-121818302D01*
X115521744Y-121822401D01*
X117968007Y-124268664D01*
X117995784Y-124323181D01*
X117996526Y-124328964D01*
X118013975Y-124506131D01*
X118071185Y-124694727D01*
X118164088Y-124868536D01*
X118177026Y-124884301D01*
X118289117Y-125020883D01*
X118418298Y-125126900D01*
X118441463Y-125145911D01*
X118615272Y-125238814D01*
X118709570Y-125267418D01*
X118803868Y-125296024D01*
X119000000Y-125315341D01*
X119196132Y-125296024D01*
X119384727Y-125238814D01*
X119558538Y-125145910D01*
X119710883Y-125020883D01*
X119835910Y-124868538D01*
X119928814Y-124694727D01*
X119986024Y-124506132D01*
X120005341Y-124310000D01*
X119986024Y-124113868D01*
X119928814Y-123925273D01*
X119928814Y-123925272D01*
X119835911Y-123751463D01*
X119816900Y-123728298D01*
X119710883Y-123599117D01*
X119558538Y-123474090D01*
X119558539Y-123474090D01*
X119558536Y-123474088D01*
X119384727Y-123381185D01*
X119196131Y-123323975D01*
X119018964Y-123306526D01*
X118962907Y-123282006D01*
X118958664Y-123278007D01*
X116729496Y-121048839D01*
X116701719Y-120994322D01*
X116700500Y-120978835D01*
X116700500Y-117448958D01*
X116719407Y-117390767D01*
X116722972Y-117386153D01*
X116761702Y-117338960D01*
X116835910Y-117248538D01*
X116928814Y-117074727D01*
X116986024Y-116886132D01*
X117005341Y-116690000D01*
X116986024Y-116493868D01*
X116928814Y-116305273D01*
X116928814Y-116305272D01*
X116835911Y-116131463D01*
X116816900Y-116108298D01*
X116710883Y-115979117D01*
X116558538Y-115854090D01*
X116558539Y-115854090D01*
X116558536Y-115854088D01*
X116384727Y-115761185D01*
X116196130Y-115703975D01*
X116000000Y-115684658D01*
X115803869Y-115703975D01*
X115615272Y-115761185D01*
X115441463Y-115854088D01*
X115289117Y-115979117D01*
X115164088Y-116131463D01*
X115071185Y-116305272D01*
X115013975Y-116493869D01*
X114994658Y-116690000D01*
X114005341Y-116690000D01*
X113986024Y-116493868D01*
X113928814Y-116305273D01*
X113928814Y-116305272D01*
X113835911Y-116131463D01*
X113816900Y-116108298D01*
X113710883Y-115979117D01*
X113558538Y-115854090D01*
X113558539Y-115854090D01*
X113558536Y-115854088D01*
X113384727Y-115761185D01*
X113196130Y-115703975D01*
X113000000Y-115684658D01*
X112803869Y-115703975D01*
X112615272Y-115761185D01*
X112441463Y-115854088D01*
X112289117Y-115979117D01*
X112164088Y-116131463D01*
X112071185Y-116305272D01*
X112013975Y-116493869D01*
X111994658Y-116689999D01*
X112013975Y-116886130D01*
X112071185Y-117074727D01*
X112164088Y-117248536D01*
X112277028Y-117386153D01*
X112299328Y-117443129D01*
X112299500Y-117448958D01*
X112299500Y-121285844D01*
X112299319Y-121291822D01*
X112295641Y-121352604D01*
X112306622Y-121412529D01*
X112307521Y-121418437D01*
X112314860Y-121478873D01*
X112319256Y-121490465D01*
X112324067Y-121507721D01*
X112326305Y-121519932D01*
X112351302Y-121575473D01*
X112353581Y-121580974D01*
X112368465Y-121620219D01*
X112375182Y-121637931D01*
X112382228Y-121648138D01*
X112391031Y-121663746D01*
X112396121Y-121675056D01*
X112433676Y-121722991D01*
X112437214Y-121727799D01*
X112471817Y-121777929D01*
X112517389Y-121818302D01*
X112521744Y-121822401D01*
X114968007Y-124268664D01*
X114995784Y-124323181D01*
X114996526Y-124328964D01*
X115013975Y-124506131D01*
X115071185Y-124694727D01*
X115164088Y-124868536D01*
X115177026Y-124884301D01*
X115289117Y-125020883D01*
X115418298Y-125126900D01*
X115441463Y-125145911D01*
X115615272Y-125238814D01*
X115709570Y-125267418D01*
X115803868Y-125296024D01*
X115981034Y-125313473D01*
X116037092Y-125337992D01*
X116041335Y-125341992D01*
X116670504Y-125971161D01*
X116698281Y-126025678D01*
X116699500Y-126041165D01*
X116699500Y-127195500D01*
X116680593Y-127253691D01*
X116631093Y-127289655D01*
X116600500Y-127294500D01*
X115219691Y-127294500D01*
X115217270Y-127294738D01*
X115217258Y-127294739D01*
X115182033Y-127298208D01*
X115182015Y-127298210D01*
X115179605Y-127298448D01*
X115177233Y-127298919D01*
X115177211Y-127298923D01*
X115144118Y-127305505D01*
X115144101Y-127305509D01*
X115141724Y-127305982D01*
X115139406Y-127306684D01*
X115139394Y-127306688D01*
X115105502Y-127316967D01*
X115105486Y-127316972D01*
X115103177Y-127317673D01*
X115100946Y-127318596D01*
X115100932Y-127318602D01*
X115088533Y-127323738D01*
X115086774Y-127324528D01*
X115073853Y-127330506D01*
X115072103Y-127331377D01*
X115060044Y-127337535D01*
X115059094Y-127338284D01*
X115057233Y-127338970D01*
X115051332Y-127341984D01*
X115050973Y-127341279D01*
X115001690Y-127359461D01*
X114946079Y-127344949D01*
X114911465Y-127323738D01*
X114899069Y-127318604D01*
X114896831Y-127317677D01*
X114894515Y-127316974D01*
X114894511Y-127316973D01*
X114860616Y-127306691D01*
X114860610Y-127306689D01*
X114858281Y-127305983D01*
X114855893Y-127305508D01*
X114855889Y-127305507D01*
X114822777Y-127298921D01*
X114822773Y-127298920D01*
X114820398Y-127298448D01*
X114817994Y-127298211D01*
X114817979Y-127298209D01*
X114782741Y-127294739D01*
X114782730Y-127294738D01*
X114780309Y-127294500D01*
X114777869Y-127294500D01*
X114499500Y-127294500D01*
X114441309Y-127275593D01*
X114405345Y-127226093D01*
X114400500Y-127195500D01*
X114400500Y-126961160D01*
X114400500Y-126724108D01*
X114400678Y-126718201D01*
X114404357Y-126657394D01*
X114393375Y-126597470D01*
X114392483Y-126591605D01*
X114385140Y-126531128D01*
X114380742Y-126519532D01*
X114375929Y-126502268D01*
X114373694Y-126490068D01*
X114348701Y-126434536D01*
X114346412Y-126429010D01*
X114324817Y-126372068D01*
X114317767Y-126361854D01*
X114308962Y-126346242D01*
X114303878Y-126334945D01*
X114303877Y-126334944D01*
X114303877Y-126334943D01*
X114272221Y-126294538D01*
X114266326Y-126287013D01*
X114262783Y-126282197D01*
X114228182Y-126232069D01*
X114182592Y-126191680D01*
X114178237Y-126187581D01*
X113729496Y-125738839D01*
X113701719Y-125684323D01*
X113700500Y-125668836D01*
X113700500Y-125068958D01*
X113719407Y-125010767D01*
X113722972Y-125006153D01*
X113776213Y-124941278D01*
X113835910Y-124868538D01*
X113928814Y-124694727D01*
X113986024Y-124506132D01*
X114005341Y-124310000D01*
X113986024Y-124113868D01*
X113928814Y-123925273D01*
X113928814Y-123925272D01*
X113835911Y-123751463D01*
X113816900Y-123728298D01*
X113710883Y-123599117D01*
X113558538Y-123474090D01*
X113558539Y-123474090D01*
X113558536Y-123474088D01*
X113384727Y-123381185D01*
X113196131Y-123323975D01*
X113018964Y-123306526D01*
X112962907Y-123282006D01*
X112958664Y-123278007D01*
X110729496Y-121048838D01*
X110701719Y-120994321D01*
X110700500Y-120978834D01*
X110700500Y-117448958D01*
X110719407Y-117390767D01*
X110722972Y-117386153D01*
X110761702Y-117338960D01*
X110835910Y-117248538D01*
X110928814Y-117074727D01*
X110986024Y-116886132D01*
X111005341Y-116690000D01*
X110986024Y-116493868D01*
X110928814Y-116305273D01*
X110928814Y-116305272D01*
X110835911Y-116131463D01*
X110816900Y-116108298D01*
X110710883Y-115979117D01*
X110558538Y-115854090D01*
X110558539Y-115854090D01*
X110558536Y-115854088D01*
X110384727Y-115761185D01*
X110196130Y-115703975D01*
X110000000Y-115684658D01*
X109803869Y-115703975D01*
X109615272Y-115761185D01*
X109441463Y-115854088D01*
X109289117Y-115979117D01*
X109164088Y-116131463D01*
X109071185Y-116305272D01*
X109013975Y-116493869D01*
X108994658Y-116689999D01*
X109013975Y-116886130D01*
X109071185Y-117074727D01*
X109164088Y-117248536D01*
X109277028Y-117386153D01*
X109299328Y-117443129D01*
X109299500Y-117448958D01*
X109299500Y-121285844D01*
X109299319Y-121291822D01*
X109295641Y-121352604D01*
X109306622Y-121412529D01*
X109307521Y-121418437D01*
X109314860Y-121478873D01*
X109319256Y-121490465D01*
X109324067Y-121507721D01*
X109326305Y-121519932D01*
X109351302Y-121575473D01*
X109353581Y-121580974D01*
X109368465Y-121620219D01*
X109375182Y-121637931D01*
X109382228Y-121648138D01*
X109391031Y-121663746D01*
X109396121Y-121675056D01*
X109433676Y-121722991D01*
X109437214Y-121727799D01*
X109471817Y-121777929D01*
X109517389Y-121818302D01*
X109521744Y-121822401D01*
X111968007Y-124268664D01*
X111995784Y-124323181D01*
X111996526Y-124328964D01*
X112013975Y-124506131D01*
X112071185Y-124694727D01*
X112164088Y-124868536D01*
X112277028Y-125006153D01*
X112299328Y-125063129D01*
X112299500Y-125068958D01*
X112299500Y-125975844D01*
X112299319Y-125981822D01*
X112295641Y-126042604D01*
X112306622Y-126102529D01*
X112307521Y-126108437D01*
X112314860Y-126168873D01*
X112319256Y-126180465D01*
X112324067Y-126197721D01*
X112326305Y-126209932D01*
X112336267Y-126232068D01*
X112351302Y-126265473D01*
X112353581Y-126270974D01*
X112368465Y-126310219D01*
X112375182Y-126327931D01*
X112382228Y-126338138D01*
X112391031Y-126353746D01*
X112396121Y-126365056D01*
X112433676Y-126412991D01*
X112437214Y-126417799D01*
X112471817Y-126467929D01*
X112496806Y-126490067D01*
X112517389Y-126508302D01*
X112521744Y-126512401D01*
X112970503Y-126961160D01*
X112998280Y-127015677D01*
X112999499Y-127031163D01*
X112999500Y-127195499D01*
X112980593Y-127253690D01*
X112931093Y-127289654D01*
X112900500Y-127294500D01*
X112719691Y-127294500D01*
X112717270Y-127294738D01*
X112717258Y-127294739D01*
X112682033Y-127298208D01*
X112682015Y-127298210D01*
X112679605Y-127298448D01*
X112677233Y-127298919D01*
X112677211Y-127298923D01*
X112644118Y-127305505D01*
X112644101Y-127305509D01*
X112641724Y-127305982D01*
X112639406Y-127306684D01*
X112639394Y-127306688D01*
X112605502Y-127316967D01*
X112605486Y-127316972D01*
X112603177Y-127317673D01*
X112600946Y-127318596D01*
X112600932Y-127318602D01*
X112588533Y-127323738D01*
X112586763Y-127324533D01*
X112573863Y-127330501D01*
X112572116Y-127331369D01*
X112560066Y-127337521D01*
X112559091Y-127338291D01*
X112557181Y-127338995D01*
X112551350Y-127341973D01*
X112550995Y-127341276D01*
X112501685Y-127359463D01*
X112446081Y-127344951D01*
X112418332Y-127327947D01*
X112411461Y-127323736D01*
X112399069Y-127318604D01*
X112396831Y-127317677D01*
X112394515Y-127316974D01*
X112394511Y-127316973D01*
X112360616Y-127306691D01*
X112360610Y-127306689D01*
X112358281Y-127305983D01*
X112355893Y-127305508D01*
X112355889Y-127305507D01*
X112322777Y-127298921D01*
X112322773Y-127298920D01*
X112320398Y-127298448D01*
X112317994Y-127298211D01*
X112317979Y-127298209D01*
X112282741Y-127294739D01*
X112282730Y-127294738D01*
X112280309Y-127294500D01*
X112277869Y-127294500D01*
X111999500Y-127294500D01*
X111941309Y-127275593D01*
X111905345Y-127226093D01*
X111900500Y-127195500D01*
X111900500Y-126961160D01*
X111900500Y-126724108D01*
X111900678Y-126718201D01*
X111904357Y-126657394D01*
X111893375Y-126597470D01*
X111892483Y-126591605D01*
X111885140Y-126531128D01*
X111880742Y-126519532D01*
X111875929Y-126502268D01*
X111873694Y-126490068D01*
X111848701Y-126434536D01*
X111846412Y-126429010D01*
X111824818Y-126372070D01*
X111817768Y-126361857D01*
X111808964Y-126346248D01*
X111803877Y-126334943D01*
X111766306Y-126286987D01*
X111762782Y-126282197D01*
X111728183Y-126232071D01*
X111727119Y-126231128D01*
X111682609Y-126191695D01*
X111678254Y-126187597D01*
X110729495Y-125238838D01*
X110701718Y-125184321D01*
X110700499Y-125168834D01*
X110700499Y-125142070D01*
X110700499Y-125068955D01*
X110719406Y-125010767D01*
X110722947Y-125006182D01*
X110835910Y-124868538D01*
X110928814Y-124694727D01*
X110986024Y-124506132D01*
X111005341Y-124310000D01*
X110986024Y-124113868D01*
X110928814Y-123925273D01*
X110928814Y-123925272D01*
X110835911Y-123751463D01*
X110816900Y-123728298D01*
X110710883Y-123599117D01*
X110558538Y-123474090D01*
X110558539Y-123474090D01*
X110558536Y-123474088D01*
X110384727Y-123381185D01*
X110196131Y-123323975D01*
X110018964Y-123306526D01*
X109962907Y-123282006D01*
X109958664Y-123278007D01*
X107729495Y-121048838D01*
X107701718Y-120994321D01*
X107700500Y-120978846D01*
X107700500Y-117448957D01*
X107719407Y-117390767D01*
X107722972Y-117386153D01*
X107761702Y-117338960D01*
X107835910Y-117248538D01*
X107928814Y-117074727D01*
X107986024Y-116886132D01*
X108005341Y-116690000D01*
X107986024Y-116493868D01*
X107928814Y-116305273D01*
X107928814Y-116305272D01*
X107835911Y-116131463D01*
X107816900Y-116108298D01*
X107710883Y-115979117D01*
X107558538Y-115854090D01*
X107558539Y-115854090D01*
X107558536Y-115854088D01*
X107384727Y-115761185D01*
X107196130Y-115703975D01*
X106999999Y-115684658D01*
X106803869Y-115703975D01*
X106615272Y-115761185D01*
X106441463Y-115854088D01*
X106289117Y-115979117D01*
X106164088Y-116131463D01*
X106071185Y-116305272D01*
X106013975Y-116493869D01*
X105994658Y-116689999D01*
X106013975Y-116886130D01*
X106071185Y-117074727D01*
X106164088Y-117248536D01*
X106277027Y-117386151D01*
X106299327Y-117443127D01*
X106299499Y-117448956D01*
X106299499Y-121285844D01*
X106299318Y-121291821D01*
X106295641Y-121352603D01*
X106306622Y-121412529D01*
X106307521Y-121418437D01*
X106314860Y-121478873D01*
X106319256Y-121490465D01*
X106324067Y-121507721D01*
X106326305Y-121519932D01*
X106351302Y-121575473D01*
X106353581Y-121580974D01*
X106368465Y-121620219D01*
X106375182Y-121637931D01*
X106382228Y-121648138D01*
X106391031Y-121663746D01*
X106396121Y-121675056D01*
X106433676Y-121722991D01*
X106437214Y-121727799D01*
X106471817Y-121777929D01*
X106517389Y-121818302D01*
X106521744Y-121822401D01*
X108968007Y-124268664D01*
X108995784Y-124323181D01*
X108996526Y-124328964D01*
X109013975Y-124506131D01*
X109071185Y-124694727D01*
X109164088Y-124868536D01*
X109277028Y-125006153D01*
X109299328Y-125063129D01*
X109299500Y-125068958D01*
X109299500Y-125475844D01*
X109299319Y-125481822D01*
X109295641Y-125542604D01*
X109306622Y-125602529D01*
X109307521Y-125608437D01*
X109314860Y-125668873D01*
X109319256Y-125680465D01*
X109324067Y-125697721D01*
X109326305Y-125709932D01*
X109335862Y-125731168D01*
X109351302Y-125765473D01*
X109353581Y-125770974D01*
X109357181Y-125780465D01*
X109375182Y-125827931D01*
X109382228Y-125838138D01*
X109391031Y-125853746D01*
X109396121Y-125865056D01*
X109396122Y-125865057D01*
X109416991Y-125891695D01*
X109433676Y-125912991D01*
X109437214Y-125917799D01*
X109471817Y-125967929D01*
X109508195Y-126000157D01*
X109517389Y-126008302D01*
X109521744Y-126012401D01*
X109999411Y-126490068D01*
X110470504Y-126961160D01*
X110498281Y-127015677D01*
X110499500Y-127031164D01*
X110499500Y-127195500D01*
X110480593Y-127253691D01*
X110431093Y-127289655D01*
X110400500Y-127294500D01*
X110219691Y-127294500D01*
X110217270Y-127294738D01*
X110217258Y-127294739D01*
X110182033Y-127298208D01*
X110182015Y-127298210D01*
X110179605Y-127298448D01*
X110177233Y-127298919D01*
X110177211Y-127298923D01*
X110144118Y-127305505D01*
X110144101Y-127305509D01*
X110141724Y-127305982D01*
X110139406Y-127306684D01*
X110139394Y-127306688D01*
X110105502Y-127316967D01*
X110105486Y-127316972D01*
X110103177Y-127317673D01*
X110100946Y-127318596D01*
X110100932Y-127318602D01*
X110088533Y-127323738D01*
X110086763Y-127324533D01*
X110073863Y-127330501D01*
X110072116Y-127331369D01*
X110060066Y-127337521D01*
X110059091Y-127338291D01*
X110057181Y-127338995D01*
X110051350Y-127341973D01*
X110050995Y-127341276D01*
X110001685Y-127359463D01*
X109946081Y-127344951D01*
X109918332Y-127327947D01*
X109911461Y-127323736D01*
X109899069Y-127318604D01*
X109896831Y-127317677D01*
X109894515Y-127316974D01*
X109894511Y-127316973D01*
X109860616Y-127306691D01*
X109860610Y-127306689D01*
X109858281Y-127305983D01*
X109855893Y-127305508D01*
X109855889Y-127305507D01*
X109822777Y-127298921D01*
X109822773Y-127298920D01*
X109820398Y-127298448D01*
X109817994Y-127298211D01*
X109817979Y-127298209D01*
X109782741Y-127294739D01*
X109782730Y-127294738D01*
X109780309Y-127294500D01*
X109777869Y-127294500D01*
X108299500Y-127294500D01*
X108241309Y-127275593D01*
X108205345Y-127226093D01*
X108200500Y-127195500D01*
X108200500Y-124834154D01*
X108200681Y-124828176D01*
X108204358Y-124767394D01*
X108193378Y-124707481D01*
X108192478Y-124701567D01*
X108185140Y-124641128D01*
X108180745Y-124629539D01*
X108175932Y-124612277D01*
X108173695Y-124600069D01*
X108148690Y-124544512D01*
X108146408Y-124539000D01*
X108146405Y-124538993D01*
X108124818Y-124482070D01*
X108117765Y-124471853D01*
X108108968Y-124456254D01*
X108103878Y-124444944D01*
X108066318Y-124397001D01*
X108062780Y-124392193D01*
X108062774Y-124392185D01*
X108028183Y-124342071D01*
X108028182Y-124342070D01*
X108021354Y-124332178D01*
X108024629Y-124329917D01*
X108004670Y-124295994D01*
X108002812Y-124284327D01*
X107986024Y-124113868D01*
X107928814Y-123925273D01*
X107928814Y-123925272D01*
X107835911Y-123751463D01*
X107816900Y-123728298D01*
X107710883Y-123599117D01*
X107558538Y-123474090D01*
X107558539Y-123474090D01*
X107558536Y-123474088D01*
X107384727Y-123381185D01*
X107196131Y-123323975D01*
X107018964Y-123306526D01*
X106962907Y-123282006D01*
X106958664Y-123278007D01*
X104729496Y-121048839D01*
X104701719Y-120994322D01*
X104700500Y-120978835D01*
X104700500Y-117448958D01*
X104719407Y-117390767D01*
X104722972Y-117386153D01*
X104761702Y-117338960D01*
X104835910Y-117248538D01*
X104928814Y-117074727D01*
X104986024Y-116886132D01*
X105005341Y-116690000D01*
X104986024Y-116493868D01*
X104928814Y-116305273D01*
X104928814Y-116305272D01*
X104835911Y-116131463D01*
X104816900Y-116108298D01*
X104710883Y-115979117D01*
X104558538Y-115854090D01*
X104558539Y-115854090D01*
X104558536Y-115854088D01*
X104384727Y-115761185D01*
X104196130Y-115703975D01*
X104000000Y-115684658D01*
X103803869Y-115703975D01*
X103615272Y-115761185D01*
X103441463Y-115854088D01*
X103289117Y-115979117D01*
X103164088Y-116131463D01*
X103071185Y-116305272D01*
X103013975Y-116493869D01*
X102994658Y-116689999D01*
X103013975Y-116886130D01*
X103071185Y-117074727D01*
X103164088Y-117248536D01*
X103277028Y-117386153D01*
X103299328Y-117443129D01*
X103299500Y-117448958D01*
X103299500Y-121285844D01*
X103299319Y-121291822D01*
X103295641Y-121352604D01*
X103306622Y-121412529D01*
X103307521Y-121418437D01*
X103314860Y-121478873D01*
X103319256Y-121490465D01*
X103324067Y-121507721D01*
X103326305Y-121519932D01*
X103351302Y-121575473D01*
X103353581Y-121580974D01*
X103368465Y-121620219D01*
X103375182Y-121637931D01*
X103382228Y-121648138D01*
X103391031Y-121663746D01*
X103396121Y-121675056D01*
X103433676Y-121722991D01*
X103437214Y-121727799D01*
X103471817Y-121777929D01*
X103517389Y-121818302D01*
X103521744Y-121822401D01*
X105968007Y-124268664D01*
X105995784Y-124323181D01*
X105996526Y-124328964D01*
X106013975Y-124506131D01*
X106071185Y-124694727D01*
X106164088Y-124868536D01*
X106177026Y-124884301D01*
X106289117Y-125020883D01*
X106418298Y-125126900D01*
X106441463Y-125145911D01*
X106561070Y-125209842D01*
X106615273Y-125238814D01*
X106724208Y-125271859D01*
X106729236Y-125273384D01*
X106779433Y-125308368D01*
X106799480Y-125366176D01*
X106799499Y-125368121D01*
X106799499Y-126294538D01*
X106799500Y-127195500D01*
X106780593Y-127253691D01*
X106731093Y-127289655D01*
X106700500Y-127294500D01*
X105219691Y-127294500D01*
X105217270Y-127294738D01*
X105217258Y-127294739D01*
X105182033Y-127298208D01*
X105182015Y-127298210D01*
X105179605Y-127298448D01*
X105177233Y-127298919D01*
X105177211Y-127298923D01*
X105144118Y-127305505D01*
X105144101Y-127305509D01*
X105141724Y-127305982D01*
X105139406Y-127306684D01*
X105139394Y-127306688D01*
X105105502Y-127316967D01*
X105105486Y-127316972D01*
X105103177Y-127317673D01*
X105100946Y-127318596D01*
X105100932Y-127318602D01*
X105088533Y-127323738D01*
X105086774Y-127324528D01*
X105073853Y-127330506D01*
X105072103Y-127331377D01*
X105060044Y-127337535D01*
X105059094Y-127338284D01*
X105057233Y-127338970D01*
X105051332Y-127341984D01*
X105050973Y-127341279D01*
X105001690Y-127359461D01*
X104946079Y-127344949D01*
X104911465Y-127323738D01*
X104899069Y-127318604D01*
X104896831Y-127317677D01*
X104894515Y-127316974D01*
X104894511Y-127316973D01*
X104860616Y-127306691D01*
X104860610Y-127306689D01*
X104858281Y-127305983D01*
X104855893Y-127305508D01*
X104855889Y-127305507D01*
X104822777Y-127298921D01*
X104822773Y-127298920D01*
X104820398Y-127298448D01*
X104815461Y-127297961D01*
X104789796Y-127295434D01*
X104733739Y-127270914D01*
X104702800Y-127218127D01*
X104700500Y-127196911D01*
X104700500Y-125068958D01*
X104719407Y-125010767D01*
X104722972Y-125006153D01*
X104776213Y-124941278D01*
X104835910Y-124868538D01*
X104928814Y-124694727D01*
X104986024Y-124506132D01*
X105005341Y-124310000D01*
X104986024Y-124113868D01*
X104928814Y-123925273D01*
X104928814Y-123925272D01*
X104835911Y-123751463D01*
X104816900Y-123728298D01*
X104710883Y-123599117D01*
X104558538Y-123474090D01*
X104558539Y-123474090D01*
X104558536Y-123474088D01*
X104384727Y-123381185D01*
X104196130Y-123323975D01*
X104000000Y-123304658D01*
X103803869Y-123323975D01*
X103615272Y-123381185D01*
X103441463Y-123474088D01*
X103289117Y-123599117D01*
X103164088Y-123751463D01*
X103071185Y-123925272D01*
X103013975Y-124113869D01*
X102994658Y-124310000D01*
X103013975Y-124506130D01*
X103071185Y-124694727D01*
X103164088Y-124868536D01*
X103277028Y-125006153D01*
X103299328Y-125063129D01*
X103299500Y-125068958D01*
X103299500Y-127195500D01*
X103280593Y-127253691D01*
X103231093Y-127289655D01*
X103200500Y-127294500D01*
X102719691Y-127294500D01*
X102717270Y-127294738D01*
X102717258Y-127294739D01*
X102682033Y-127298208D01*
X102682015Y-127298210D01*
X102679605Y-127298448D01*
X102677233Y-127298919D01*
X102677211Y-127298923D01*
X102644118Y-127305505D01*
X102644101Y-127305509D01*
X102641724Y-127305982D01*
X102639406Y-127306684D01*
X102639394Y-127306688D01*
X102605502Y-127316967D01*
X102605486Y-127316972D01*
X102603177Y-127317673D01*
X102600946Y-127318596D01*
X102600932Y-127318602D01*
X102588533Y-127323738D01*
X102586774Y-127324528D01*
X102573853Y-127330506D01*
X102572103Y-127331377D01*
X102560046Y-127337533D01*
X102497071Y-127387184D01*
X102457332Y-127433712D01*
X102423735Y-127488540D01*
X102418605Y-127500927D01*
X102417673Y-127503178D01*
X102416972Y-127505490D01*
X102416964Y-127505513D01*
X102406691Y-127539386D01*
X102405982Y-127541724D01*
X102405507Y-127544110D01*
X102405506Y-127544116D01*
X102398923Y-127577211D01*
X102398919Y-127577233D01*
X102398448Y-127579605D01*
X102398210Y-127582015D01*
X102398208Y-127582033D01*
X102394739Y-127617258D01*
X102394739Y-127617264D01*
X102394500Y-127619691D01*
X102394500Y-142380308D01*
X100000500Y-142380308D01*
X100000500Y-103519748D01*
X131299500Y-103519748D01*
X131311133Y-103578230D01*
X131311133Y-103578231D01*
X131355447Y-103644552D01*
X131370994Y-103654940D01*
X131421769Y-103688867D01*
X131480252Y-103700500D01*
X131480253Y-103700500D01*
X133519747Y-103700500D01*
X133519748Y-103700500D01*
X133578231Y-103688867D01*
X133644552Y-103644552D01*
X133688867Y-103578231D01*
X133700500Y-103519748D01*
X133700500Y-103299499D01*
X133719407Y-103241309D01*
X133768907Y-103205345D01*
X133799500Y-103200500D01*
X147868835Y-103200500D01*
X147927026Y-103219407D01*
X147938839Y-103229496D01*
X148990504Y-104281160D01*
X149018281Y-104335677D01*
X149019500Y-104351164D01*
X149019500Y-104621042D01*
X149000593Y-104679233D01*
X148997028Y-104683847D01*
X148884088Y-104821463D01*
X148791185Y-104995272D01*
X148733975Y-105183869D01*
X148714658Y-105379999D01*
X148733975Y-105576130D01*
X148791185Y-105764727D01*
X148884088Y-105938536D01*
X148884090Y-105938538D01*
X149009117Y-106090883D01*
X149117097Y-106179500D01*
X149161463Y-106215911D01*
X149335272Y-106308814D01*
X149402799Y-106329298D01*
X149523868Y-106366024D01*
X149720000Y-106385341D01*
X149916132Y-106366024D01*
X150104727Y-106308814D01*
X150278538Y-106215910D01*
X150430883Y-106090883D01*
X150555910Y-105938538D01*
X150648814Y-105764727D01*
X150706024Y-105576132D01*
X150725341Y-105380000D01*
X150725341Y-105379999D01*
X151254658Y-105379999D01*
X151273975Y-105576130D01*
X151331185Y-105764727D01*
X151424088Y-105938536D01*
X151424090Y-105938538D01*
X151549117Y-106090883D01*
X151657097Y-106179500D01*
X151701463Y-106215911D01*
X151875272Y-106308814D01*
X151942799Y-106329298D01*
X152063868Y-106366024D01*
X152260000Y-106385341D01*
X152456132Y-106366024D01*
X152644727Y-106308814D01*
X152818538Y-106215910D01*
X152970883Y-106090883D01*
X153095910Y-105938538D01*
X153188814Y-105764727D01*
X153246024Y-105576132D01*
X153265341Y-105380000D01*
X153246024Y-105183868D01*
X153188814Y-104995273D01*
X153188814Y-104995272D01*
X153095911Y-104821463D01*
X153076900Y-104798298D01*
X152970883Y-104669117D01*
X152818538Y-104544090D01*
X152818539Y-104544090D01*
X152818536Y-104544088D01*
X152644727Y-104451185D01*
X152456130Y-104393975D01*
X152259999Y-104374658D01*
X152063869Y-104393975D01*
X151875272Y-104451185D01*
X151701463Y-104544088D01*
X151549117Y-104669117D01*
X151424088Y-104821463D01*
X151331185Y-104995272D01*
X151273975Y-105183869D01*
X151254658Y-105379999D01*
X150725341Y-105379999D01*
X150706024Y-105183868D01*
X150648814Y-104995273D01*
X150648814Y-104995272D01*
X150555911Y-104821463D01*
X150442972Y-104683847D01*
X150420672Y-104626871D01*
X150420500Y-104621042D01*
X150420500Y-104044154D01*
X150420681Y-104038176D01*
X150424358Y-103977394D01*
X150413378Y-103917481D01*
X150412478Y-103911567D01*
X150405140Y-103851128D01*
X150400745Y-103839539D01*
X150395932Y-103822277D01*
X150393695Y-103810069D01*
X150368690Y-103754512D01*
X150366408Y-103749000D01*
X150344818Y-103692069D01*
X150337770Y-103681859D01*
X150328966Y-103666250D01*
X150323878Y-103654944D01*
X150323877Y-103654943D01*
X150323876Y-103654940D01*
X150286325Y-103607011D01*
X150282787Y-103602204D01*
X150248183Y-103552071D01*
X150248180Y-103552068D01*
X150202601Y-103511688D01*
X150198246Y-103507590D01*
X149190657Y-102500000D01*
X151494658Y-102500000D01*
X151513975Y-102696130D01*
X151571185Y-102884727D01*
X151664088Y-103058536D01*
X151664090Y-103058538D01*
X151789117Y-103210883D01*
X151897097Y-103299500D01*
X151941463Y-103335911D01*
X152115272Y-103428814D01*
X152209570Y-103457419D01*
X152303868Y-103486024D01*
X152500000Y-103505341D01*
X152696132Y-103486024D01*
X152884727Y-103428814D01*
X153058538Y-103335910D01*
X153210883Y-103210883D01*
X153335910Y-103058538D01*
X153428814Y-102884727D01*
X153486024Y-102696132D01*
X153505341Y-102500000D01*
X153486024Y-102303868D01*
X153428814Y-102115273D01*
X153428814Y-102115272D01*
X153335911Y-101941463D01*
X153291492Y-101887339D01*
X153210883Y-101789117D01*
X153058538Y-101664090D01*
X153058539Y-101664090D01*
X153058536Y-101664088D01*
X152884727Y-101571185D01*
X152696130Y-101513975D01*
X152499999Y-101494658D01*
X152303869Y-101513975D01*
X152115272Y-101571185D01*
X151941463Y-101664088D01*
X151789117Y-101789117D01*
X151664088Y-101941463D01*
X151571185Y-102115272D01*
X151513975Y-102303869D01*
X151494658Y-102500000D01*
X149190657Y-102500000D01*
X148712401Y-102021744D01*
X148708302Y-102017389D01*
X148667929Y-101971817D01*
X148617799Y-101937214D01*
X148612991Y-101933676D01*
X148565056Y-101896121D01*
X148553746Y-101891031D01*
X148538138Y-101882228D01*
X148527931Y-101875182D01*
X148510219Y-101868465D01*
X148470974Y-101853581D01*
X148465481Y-101851305D01*
X148409932Y-101826305D01*
X148397721Y-101824067D01*
X148380465Y-101819256D01*
X148368873Y-101814860D01*
X148308437Y-101807521D01*
X148302529Y-101806622D01*
X148242604Y-101795641D01*
X148181823Y-101799319D01*
X148175845Y-101799500D01*
X133799500Y-101799500D01*
X133741309Y-101780593D01*
X133705345Y-101731093D01*
X133700500Y-101700500D01*
X133700500Y-101480253D01*
X133700500Y-101480252D01*
X133688867Y-101421769D01*
X133669431Y-101392682D01*
X133644552Y-101355447D01*
X133578231Y-101311133D01*
X133578230Y-101311133D01*
X133519748Y-101299500D01*
X131480252Y-101299500D01*
X131451010Y-101305316D01*
X131421768Y-101311133D01*
X131355447Y-101355447D01*
X131311133Y-101421768D01*
X131311132Y-101421769D01*
X131311133Y-101421769D01*
X131299500Y-101480252D01*
X131299500Y-103519748D01*
X100000500Y-103519748D01*
X100000500Y-101503537D01*
X100000752Y-101496475D01*
X100001912Y-101480252D01*
X100005484Y-101430313D01*
X100016853Y-101285849D01*
X100018807Y-101272602D01*
X100038668Y-101181302D01*
X100039140Y-101179239D01*
X100039157Y-101179170D01*
X100066339Y-101065946D01*
X100069836Y-101054494D01*
X100104389Y-100961854D01*
X100105639Y-100958677D01*
X100148187Y-100855956D01*
X100152745Y-100846430D01*
X100201118Y-100757841D01*
X100203538Y-100753659D01*
X100260600Y-100660544D01*
X100265716Y-100653005D01*
X100326736Y-100571493D01*
X100330664Y-100566582D01*
X100401070Y-100484148D01*
X100406297Y-100478492D01*
X100478492Y-100406297D01*
X100484148Y-100401070D01*
X100566582Y-100330664D01*
X100571493Y-100326736D01*
X100653005Y-100265716D01*
X100660544Y-100260600D01*
X100753659Y-100203538D01*
X100757841Y-100201118D01*
X100846430Y-100152745D01*
X100855956Y-100148187D01*
X100958677Y-100105639D01*
X100961854Y-100104389D01*
X101054492Y-100069837D01*
X101065959Y-100066336D01*
X101179329Y-100039118D01*
X101181102Y-100038712D01*
X101272602Y-100018807D01*
X101285864Y-100016852D01*
X101430265Y-100005487D01*
X101488333Y-100001334D01*
X101496478Y-100000752D01*
X101503537Y-100000500D01*
X163496462Y-100000500D01*
X163503522Y-100000751D01*
G37*
%TD.AperFunction*%
%TD*%
%TA.AperFunction,Conductor*%
%TO.N,Net-(J17-Pin_1)*%
G36*
X119818192Y-127507535D02*
G01*
X119832825Y-127513596D01*
X119879351Y-127553333D01*
X119886401Y-127567170D01*
X119892463Y-127581805D01*
X119900000Y-127619691D01*
X119900000Y-134448826D01*
X119898097Y-134468146D01*
X119896228Y-134477539D01*
X119881447Y-134513220D01*
X119876129Y-134521179D01*
X119863817Y-134536182D01*
X119036182Y-135363817D01*
X119021179Y-135376129D01*
X119013220Y-135381447D01*
X118977541Y-135396227D01*
X118968149Y-135398096D01*
X118948827Y-135400000D01*
X116051173Y-135400000D01*
X116031854Y-135398097D01*
X116028794Y-135397488D01*
X116022460Y-135396228D01*
X115986779Y-135381447D01*
X115978820Y-135376129D01*
X115963817Y-135363817D01*
X115136182Y-134536182D01*
X115123870Y-134521179D01*
X115118552Y-134513220D01*
X115103769Y-134477529D01*
X115101901Y-134468136D01*
X115100000Y-134448826D01*
X115100000Y-127619691D01*
X115107534Y-127581810D01*
X115113596Y-127567173D01*
X115153331Y-127520650D01*
X115167166Y-127513599D01*
X115181810Y-127507534D01*
X115219691Y-127500000D01*
X119780309Y-127500000D01*
X119818192Y-127507535D01*
G37*
%TD.AperFunction*%
%TD*%
%TA.AperFunction,Conductor*%
%TO.N,Net-(J15-Pin_1)*%
G36*
X124818192Y-127507535D02*
G01*
X124832825Y-127513596D01*
X124879351Y-127553333D01*
X124886405Y-127567180D01*
X124887635Y-127570150D01*
X124894665Y-127617471D01*
X124894858Y-127614850D01*
X124894738Y-127617265D01*
X124894500Y-127619691D01*
X124894500Y-127622110D01*
X124894499Y-127622131D01*
X124894499Y-134463654D01*
X124877822Y-134518645D01*
X124876136Y-134521169D01*
X124863817Y-134536182D01*
X124036182Y-135363817D01*
X124021206Y-135376111D01*
X124018683Y-135377798D01*
X123963655Y-135394500D01*
X122719691Y-135394500D01*
X122717270Y-135394738D01*
X122717258Y-135394739D01*
X122682023Y-135398209D01*
X122682005Y-135398211D01*
X122679605Y-135398448D01*
X122677226Y-135398921D01*
X122677173Y-135398929D01*
X122662652Y-135400000D01*
X122337351Y-135400000D01*
X122322830Y-135398929D01*
X122322775Y-135398920D01*
X122320398Y-135398448D01*
X122317997Y-135398211D01*
X122317980Y-135398209D01*
X122282741Y-135394739D01*
X122282730Y-135394738D01*
X122280309Y-135394500D01*
X122277869Y-135394500D01*
X121036345Y-135394500D01*
X120981332Y-135377808D01*
X120978808Y-135376121D01*
X120963817Y-135363817D01*
X120136182Y-134536182D01*
X120123873Y-134521183D01*
X120121619Y-134517810D01*
X120105008Y-134458923D01*
X120105052Y-134457936D01*
X120105441Y-134450033D01*
X120105441Y-134450020D01*
X120105500Y-134448826D01*
X120105500Y-127619691D01*
X120105260Y-127617264D01*
X120105142Y-127614844D01*
X120105340Y-127617531D01*
X120112367Y-127570141D01*
X120113599Y-127567167D01*
X120153337Y-127520646D01*
X120167166Y-127513599D01*
X120181810Y-127507534D01*
X120219691Y-127500000D01*
X124780309Y-127500000D01*
X124818192Y-127507535D01*
G37*
%TD.AperFunction*%
%TD*%
%TA.AperFunction,Conductor*%
%TO.N,Net-(J14-Pin_1)*%
G36*
X127318192Y-127507535D02*
G01*
X127332825Y-127513596D01*
X127379351Y-127553333D01*
X127386405Y-127567180D01*
X127387635Y-127570150D01*
X127394665Y-127617471D01*
X127394858Y-127614850D01*
X127394739Y-127617258D01*
X127394500Y-127619691D01*
X127394500Y-142380308D01*
X127394737Y-142382721D01*
X127394857Y-142385153D01*
X127394660Y-142382493D01*
X127387634Y-142429853D01*
X127386403Y-142432825D01*
X127346666Y-142479351D01*
X127332826Y-142486403D01*
X127326680Y-142488948D01*
X127318195Y-142492463D01*
X127280309Y-142500000D01*
X122719691Y-142500000D01*
X122681805Y-142492463D01*
X122667170Y-142486401D01*
X122620647Y-142446663D01*
X122613596Y-142432825D01*
X122607534Y-142418190D01*
X122600000Y-142380308D01*
X122600000Y-135719691D01*
X122607534Y-135681810D01*
X122613596Y-135667173D01*
X122653331Y-135620650D01*
X122667166Y-135613599D01*
X122681810Y-135607534D01*
X122719691Y-135600000D01*
X124058578Y-135600000D01*
X124058579Y-135600000D01*
X124100000Y-135600000D01*
X125100000Y-134600000D01*
X125100000Y-127619691D01*
X125107534Y-127581810D01*
X125113596Y-127567173D01*
X125153331Y-127520650D01*
X125167166Y-127513599D01*
X125181810Y-127507534D01*
X125219691Y-127500000D01*
X127280309Y-127500000D01*
X127318192Y-127507535D01*
G37*
%TD.AperFunction*%
%TD*%
%TA.AperFunction,Conductor*%
%TO.N,Net-(J11-Pin_1)*%
G36*
X135037883Y-134757113D02*
G01*
X135052516Y-134763174D01*
X135084634Y-134784634D01*
X135900000Y-135600000D01*
X137280309Y-135600000D01*
X137318192Y-135607535D01*
X137332825Y-135613596D01*
X137379351Y-135653333D01*
X137386401Y-135667169D01*
X137392463Y-135681805D01*
X137400000Y-135719691D01*
X137400000Y-142380308D01*
X137392463Y-142418197D01*
X137386402Y-142432828D01*
X137346663Y-142479352D01*
X137332830Y-142486401D01*
X137325448Y-142489458D01*
X137318197Y-142492462D01*
X137280309Y-142500000D01*
X132719691Y-142500000D01*
X132681805Y-142492463D01*
X132667170Y-142486401D01*
X132620647Y-142446663D01*
X132613598Y-142432830D01*
X132612367Y-142429858D01*
X132605340Y-142382467D01*
X132605142Y-142385155D01*
X132605260Y-142382735D01*
X132605500Y-142380308D01*
X132605500Y-135719691D01*
X132605260Y-135717264D01*
X132605142Y-135714844D01*
X132605340Y-135717531D01*
X132612367Y-135670141D01*
X132613599Y-135667167D01*
X132653337Y-135620646D01*
X132667166Y-135613599D01*
X132681810Y-135607534D01*
X132719691Y-135600000D01*
X134058578Y-135600000D01*
X134058579Y-135600000D01*
X134100000Y-135600000D01*
X134915365Y-134784633D01*
X134947485Y-134763173D01*
X134962116Y-134757113D01*
X135023113Y-134752314D01*
X135037883Y-134757113D01*
G37*
%TD.AperFunction*%
%TD*%
%TA.AperFunction,Conductor*%
%TO.N,Net-(J13-Pin_1)*%
G36*
X129818192Y-127507535D02*
G01*
X129832825Y-127513596D01*
X129879351Y-127553333D01*
X129886402Y-127567171D01*
X129892463Y-127581802D01*
X129900000Y-127619691D01*
X129900000Y-134600000D01*
X130900000Y-135600000D01*
X132280309Y-135600000D01*
X132318192Y-135607535D01*
X132332825Y-135613596D01*
X132379351Y-135653333D01*
X132386401Y-135667170D01*
X132392463Y-135681805D01*
X132400000Y-135719691D01*
X132400000Y-142380308D01*
X132392463Y-142418197D01*
X132386402Y-142432828D01*
X132346663Y-142479352D01*
X132332830Y-142486401D01*
X132325448Y-142489458D01*
X132318197Y-142492462D01*
X132280309Y-142500000D01*
X127719691Y-142500000D01*
X127681805Y-142492463D01*
X127667170Y-142486401D01*
X127620647Y-142446663D01*
X127613597Y-142432828D01*
X127607534Y-142418190D01*
X127600000Y-142380308D01*
X127600000Y-127619691D01*
X127607534Y-127581810D01*
X127613596Y-127567173D01*
X127653331Y-127520650D01*
X127667166Y-127513599D01*
X127681810Y-127507534D01*
X127719691Y-127500000D01*
X129780309Y-127500000D01*
X129818192Y-127507535D01*
G37*
%TD.AperFunction*%
%TD*%
%TA.AperFunction,Conductor*%
%TO.N,Net-(J10-Pin_1)*%
G36*
X139818192Y-127507535D02*
G01*
X139832825Y-127513596D01*
X139879351Y-127553333D01*
X139886405Y-127567180D01*
X139887635Y-127570150D01*
X139894665Y-127617471D01*
X139894858Y-127614850D01*
X139894739Y-127617258D01*
X139894500Y-127619691D01*
X139894500Y-134448826D01*
X139894557Y-134449990D01*
X139894558Y-134450023D01*
X139894948Y-134457949D01*
X139878918Y-134516997D01*
X139878380Y-134517810D01*
X139876126Y-134521183D01*
X139863817Y-134536182D01*
X139036182Y-135363817D01*
X139021206Y-135376111D01*
X139018683Y-135377798D01*
X138963655Y-135394500D01*
X137719691Y-135394500D01*
X137717270Y-135394738D01*
X137717258Y-135394739D01*
X137682023Y-135398209D01*
X137682005Y-135398211D01*
X137679605Y-135398448D01*
X137677226Y-135398921D01*
X137677173Y-135398929D01*
X137662652Y-135400000D01*
X137337351Y-135400000D01*
X137322830Y-135398929D01*
X137322775Y-135398920D01*
X137320398Y-135398448D01*
X137317997Y-135398211D01*
X137317980Y-135398209D01*
X137282741Y-135394739D01*
X137282730Y-135394738D01*
X137280309Y-135394500D01*
X137277869Y-135394500D01*
X136036345Y-135394500D01*
X135981332Y-135377808D01*
X135978808Y-135376121D01*
X135963817Y-135363817D01*
X135136182Y-134536182D01*
X135123873Y-134521183D01*
X135121619Y-134517810D01*
X135105008Y-134458923D01*
X135105049Y-134457997D01*
X135105500Y-134448826D01*
X135105500Y-127619691D01*
X135105260Y-127617264D01*
X135105142Y-127614844D01*
X135105340Y-127617531D01*
X135112367Y-127570141D01*
X135113599Y-127567167D01*
X135153337Y-127520646D01*
X135167166Y-127513599D01*
X135181810Y-127507534D01*
X135219691Y-127500000D01*
X139780309Y-127500000D01*
X139818192Y-127507535D01*
G37*
%TD.AperFunction*%
%TD*%
%TA.AperFunction,Conductor*%
%TO.N,Net-(J12-Pin_1)*%
G36*
X134818192Y-127507535D02*
G01*
X134832825Y-127513596D01*
X134879351Y-127553333D01*
X134886401Y-127567169D01*
X134892463Y-127581805D01*
X134900000Y-127619691D01*
X134900000Y-134448826D01*
X134898097Y-134468146D01*
X134896228Y-134477539D01*
X134881447Y-134513220D01*
X134876129Y-134521179D01*
X134863817Y-134536182D01*
X134036182Y-135363817D01*
X134021206Y-135376111D01*
X134018683Y-135377798D01*
X133963655Y-135394500D01*
X132719691Y-135394500D01*
X132717270Y-135394738D01*
X132717258Y-135394739D01*
X132682023Y-135398209D01*
X132682005Y-135398211D01*
X132679605Y-135398448D01*
X132677226Y-135398921D01*
X132677173Y-135398929D01*
X132662652Y-135400000D01*
X132337351Y-135400000D01*
X132322830Y-135398929D01*
X132322775Y-135398920D01*
X132320398Y-135398448D01*
X132317997Y-135398211D01*
X132317980Y-135398209D01*
X132282741Y-135394739D01*
X132282730Y-135394738D01*
X132280309Y-135394500D01*
X132277869Y-135394500D01*
X131036345Y-135394500D01*
X130981332Y-135377808D01*
X130978808Y-135376121D01*
X130963817Y-135363817D01*
X130136182Y-134536182D01*
X130123868Y-134521176D01*
X130122181Y-134518651D01*
X130105499Y-134463656D01*
X130105500Y-127619691D01*
X130105260Y-127617257D01*
X130105142Y-127614844D01*
X130105340Y-127617531D01*
X130112367Y-127570141D01*
X130113599Y-127567167D01*
X130153337Y-127520646D01*
X130167166Y-127513599D01*
X130181810Y-127507534D01*
X130219691Y-127500000D01*
X134780309Y-127500000D01*
X134818192Y-127507535D01*
G37*
%TD.AperFunction*%
%TD*%
%TA.AperFunction,Conductor*%
%TO.N,Net-(J9-Pin_1)*%
G36*
X140037883Y-134757113D02*
G01*
X140052516Y-134763174D01*
X140084634Y-134784634D01*
X140900000Y-135600000D01*
X140986835Y-135600000D01*
X141001360Y-135601071D01*
X141011709Y-135602607D01*
X141031028Y-135604510D01*
X141051173Y-135605500D01*
X142293587Y-135605500D01*
X142331472Y-135613036D01*
X142332824Y-135613596D01*
X142379350Y-135653332D01*
X142386405Y-135667180D01*
X142387635Y-135670150D01*
X142394665Y-135717471D01*
X142394858Y-135714850D01*
X142394739Y-135717258D01*
X142394500Y-135719691D01*
X142394500Y-142380308D01*
X142394737Y-142382721D01*
X142394857Y-142385153D01*
X142394660Y-142382493D01*
X142387634Y-142429853D01*
X142386403Y-142432825D01*
X142346666Y-142479351D01*
X142332826Y-142486403D01*
X142326680Y-142488948D01*
X142318195Y-142492463D01*
X142280309Y-142500000D01*
X137719691Y-142500000D01*
X137681805Y-142492463D01*
X137667170Y-142486401D01*
X137620647Y-142446663D01*
X137613598Y-142432830D01*
X137613596Y-142432825D01*
X137612367Y-142429858D01*
X137605340Y-142382467D01*
X137605142Y-142385155D01*
X137605260Y-142382735D01*
X137605500Y-142380308D01*
X137605500Y-135719691D01*
X137605260Y-135717264D01*
X137605142Y-135714844D01*
X137605340Y-135717531D01*
X137612367Y-135670141D01*
X137613599Y-135667167D01*
X137653337Y-135620646D01*
X137667166Y-135613599D01*
X137681810Y-135607534D01*
X137719691Y-135600000D01*
X139058578Y-135600000D01*
X139058579Y-135600000D01*
X139100000Y-135600000D01*
X139915365Y-134784633D01*
X139947485Y-134763173D01*
X139962116Y-134757113D01*
X140023113Y-134752314D01*
X140037883Y-134757113D01*
G37*
%TD.AperFunction*%
%TD*%
%TA.AperFunction,Conductor*%
%TO.N,Net-(J8-Pin_1)*%
G36*
X144818192Y-127507535D02*
G01*
X144832825Y-127513596D01*
X144879351Y-127553333D01*
X144886405Y-127567180D01*
X144887635Y-127570150D01*
X144894665Y-127617471D01*
X144894858Y-127614850D01*
X144894739Y-127617258D01*
X144894500Y-127619691D01*
X144894500Y-127622131D01*
X144894500Y-134463654D01*
X144877808Y-134518667D01*
X144876121Y-134521191D01*
X144863817Y-134536182D01*
X144036182Y-135363817D01*
X144021206Y-135376111D01*
X144018683Y-135377798D01*
X143963655Y-135394500D01*
X142719691Y-135394500D01*
X142717270Y-135394738D01*
X142717258Y-135394739D01*
X142682023Y-135398209D01*
X142682005Y-135398211D01*
X142679605Y-135398448D01*
X142677226Y-135398921D01*
X142677173Y-135398929D01*
X142662652Y-135400000D01*
X141051173Y-135400000D01*
X141031854Y-135398097D01*
X141028794Y-135397488D01*
X141022460Y-135396228D01*
X140986779Y-135381447D01*
X140978820Y-135376129D01*
X140963817Y-135363817D01*
X140136182Y-134536182D01*
X140123870Y-134521179D01*
X140118552Y-134513220D01*
X140103769Y-134477529D01*
X140101901Y-134468136D01*
X140100000Y-134448826D01*
X140100000Y-127619691D01*
X140107534Y-127581810D01*
X140113596Y-127567173D01*
X140153331Y-127520650D01*
X140167166Y-127513599D01*
X140181810Y-127507534D01*
X140219691Y-127500000D01*
X144780309Y-127500000D01*
X144818192Y-127507535D01*
G37*
%TD.AperFunction*%
%TD*%
%TA.AperFunction,Conductor*%
%TO.N,Net-(J7-Pin_1)*%
G36*
X147318192Y-127507535D02*
G01*
X147332825Y-127513596D01*
X147379351Y-127553333D01*
X147386401Y-127567170D01*
X147392463Y-127581805D01*
X147400000Y-127619691D01*
X147400000Y-142380308D01*
X147392463Y-142418197D01*
X147386402Y-142432828D01*
X147346663Y-142479352D01*
X147332830Y-142486401D01*
X147325448Y-142489458D01*
X147318197Y-142492462D01*
X147280309Y-142500000D01*
X142719691Y-142500000D01*
X142681805Y-142492463D01*
X142667170Y-142486401D01*
X142620647Y-142446663D01*
X142613597Y-142432828D01*
X142607534Y-142418190D01*
X142600000Y-142380308D01*
X142600000Y-135719691D01*
X142607534Y-135681810D01*
X142613596Y-135667173D01*
X142653331Y-135620650D01*
X142667166Y-135613599D01*
X142681810Y-135607534D01*
X142719691Y-135600000D01*
X144058578Y-135600000D01*
X144058579Y-135600000D01*
X144100000Y-135600000D01*
X145100000Y-134600000D01*
X145100000Y-127619691D01*
X145107535Y-127581807D01*
X145107537Y-127581802D01*
X145113596Y-127567174D01*
X145153331Y-127520650D01*
X145167166Y-127513599D01*
X145181810Y-127507534D01*
X145219691Y-127500000D01*
X147280309Y-127500000D01*
X147318192Y-127507535D01*
G37*
%TD.AperFunction*%
%TD*%
%TA.AperFunction,Conductor*%
%TO.N,Net-(J4-Pin_1)*%
G36*
X155037883Y-134757113D02*
G01*
X155052516Y-134763174D01*
X155084634Y-134784634D01*
X155900000Y-135600000D01*
X155986835Y-135600000D01*
X156001360Y-135601071D01*
X156011709Y-135602607D01*
X156031028Y-135604510D01*
X156051173Y-135605500D01*
X157293587Y-135605500D01*
X157331472Y-135613036D01*
X157332824Y-135613596D01*
X157379350Y-135653332D01*
X157386405Y-135667180D01*
X157387635Y-135670150D01*
X157394665Y-135717471D01*
X157394858Y-135714850D01*
X157394739Y-135717258D01*
X157394500Y-135719691D01*
X157394500Y-142380308D01*
X157394737Y-142382721D01*
X157394857Y-142385153D01*
X157394660Y-142382493D01*
X157387634Y-142429853D01*
X157386403Y-142432825D01*
X157346666Y-142479351D01*
X157332826Y-142486403D01*
X157326680Y-142488948D01*
X157318195Y-142492463D01*
X157280309Y-142500000D01*
X152719691Y-142500000D01*
X152681805Y-142492463D01*
X152667170Y-142486401D01*
X152620647Y-142446663D01*
X152613598Y-142432830D01*
X152613596Y-142432825D01*
X152612367Y-142429858D01*
X152605340Y-142382467D01*
X152605142Y-142385155D01*
X152605260Y-142382735D01*
X152605500Y-142380308D01*
X152605500Y-135719691D01*
X152605260Y-135717264D01*
X152605142Y-135714844D01*
X152605340Y-135717531D01*
X152612367Y-135670141D01*
X152613599Y-135667167D01*
X152653337Y-135620646D01*
X152667194Y-135613588D01*
X152668551Y-135613026D01*
X152706413Y-135605500D01*
X153947631Y-135605500D01*
X153948827Y-135605500D01*
X153968979Y-135604509D01*
X153988301Y-135602605D01*
X153998632Y-135601072D01*
X154013163Y-135600000D01*
X154058578Y-135600000D01*
X154058579Y-135600000D01*
X154100000Y-135600000D01*
X154915365Y-134784633D01*
X154947485Y-134763173D01*
X154962116Y-134757113D01*
X155023113Y-134752314D01*
X155037883Y-134757113D01*
G37*
%TD.AperFunction*%
%TD*%
%TA.AperFunction,Conductor*%
%TO.N,Net-(J6-Pin_1)*%
G36*
X149818192Y-127507535D02*
G01*
X149832825Y-127513596D01*
X149879351Y-127553333D01*
X149886402Y-127567171D01*
X149892463Y-127581802D01*
X149900000Y-127619691D01*
X149900000Y-134600000D01*
X150900000Y-135600000D01*
X152280309Y-135600000D01*
X152318192Y-135607535D01*
X152332825Y-135613596D01*
X152379351Y-135653333D01*
X152386401Y-135667170D01*
X152392463Y-135681805D01*
X152400000Y-135719691D01*
X152400000Y-142380308D01*
X152392463Y-142418197D01*
X152386402Y-142432828D01*
X152346663Y-142479352D01*
X152332830Y-142486401D01*
X152325448Y-142489458D01*
X152318197Y-142492462D01*
X152280309Y-142500000D01*
X147719691Y-142500000D01*
X147681805Y-142492463D01*
X147667170Y-142486401D01*
X147620647Y-142446663D01*
X147613598Y-142432830D01*
X147612367Y-142429858D01*
X147605340Y-142382467D01*
X147605142Y-142385155D01*
X147605260Y-142382735D01*
X147605500Y-142380308D01*
X147605500Y-127619691D01*
X147605260Y-127617264D01*
X147605142Y-127614844D01*
X147605340Y-127617531D01*
X147612367Y-127570141D01*
X147613599Y-127567167D01*
X147653337Y-127520646D01*
X147667166Y-127513599D01*
X147681810Y-127507534D01*
X147719691Y-127500000D01*
X149780309Y-127500000D01*
X149818192Y-127507535D01*
G37*
%TD.AperFunction*%
%TD*%
%TA.AperFunction,Conductor*%
%TO.N,Net-(J3-Pin_1)*%
G36*
X159818192Y-127507535D02*
G01*
X159832825Y-127513596D01*
X159879351Y-127553333D01*
X159886401Y-127567170D01*
X159892463Y-127581805D01*
X159900000Y-127619691D01*
X159900000Y-134448826D01*
X159898097Y-134468146D01*
X159896228Y-134477539D01*
X159881447Y-134513220D01*
X159876129Y-134521179D01*
X159863817Y-134536182D01*
X159036182Y-135363817D01*
X159021179Y-135376129D01*
X159013220Y-135381447D01*
X158977541Y-135396227D01*
X158968149Y-135398096D01*
X158948827Y-135400000D01*
X156051173Y-135400000D01*
X156031854Y-135398097D01*
X156028794Y-135397488D01*
X156022460Y-135396228D01*
X155986779Y-135381447D01*
X155978820Y-135376129D01*
X155963817Y-135363817D01*
X155136182Y-134536182D01*
X155123870Y-134521179D01*
X155118552Y-134513220D01*
X155103769Y-134477529D01*
X155101901Y-134468136D01*
X155100000Y-134448826D01*
X155100000Y-127619691D01*
X155107534Y-127581810D01*
X155113596Y-127567173D01*
X155153331Y-127520650D01*
X155167166Y-127513599D01*
X155181810Y-127507534D01*
X155219691Y-127500000D01*
X159780309Y-127500000D01*
X159818192Y-127507535D01*
G37*
%TD.AperFunction*%
%TD*%
%TA.AperFunction,Conductor*%
%TO.N,Net-(J2-Pin_1)*%
G36*
X162318192Y-127507535D02*
G01*
X162332825Y-127513596D01*
X162379351Y-127553333D01*
X162386401Y-127567169D01*
X162392463Y-127581805D01*
X162400000Y-127619691D01*
X162400000Y-142380308D01*
X162392463Y-142418197D01*
X162386402Y-142432828D01*
X162346663Y-142479352D01*
X162332830Y-142486401D01*
X162325448Y-142489458D01*
X162318197Y-142492462D01*
X162280309Y-142500000D01*
X157719691Y-142500000D01*
X157681805Y-142492463D01*
X157667170Y-142486401D01*
X157620647Y-142446663D01*
X157613597Y-142432828D01*
X157607534Y-142418190D01*
X157600000Y-142380308D01*
X157600000Y-135719691D01*
X157607534Y-135681810D01*
X157613596Y-135667173D01*
X157653331Y-135620650D01*
X157667194Y-135613588D01*
X157668551Y-135613026D01*
X157706413Y-135605500D01*
X158947631Y-135605500D01*
X158948827Y-135605500D01*
X158968979Y-135604509D01*
X158988301Y-135602605D01*
X158998632Y-135601072D01*
X159013163Y-135600000D01*
X159058578Y-135600000D01*
X159058579Y-135600000D01*
X159100000Y-135600000D01*
X160100000Y-134600000D01*
X160100000Y-134513163D01*
X160101072Y-134498635D01*
X160102607Y-134488290D01*
X160104510Y-134468970D01*
X160105500Y-134448826D01*
X160105500Y-127619691D01*
X160105260Y-127617264D01*
X160105142Y-127614844D01*
X160105340Y-127617531D01*
X160112367Y-127570141D01*
X160113599Y-127567167D01*
X160153337Y-127520646D01*
X160167166Y-127513599D01*
X160181810Y-127507534D01*
X160219691Y-127500000D01*
X162280309Y-127500000D01*
X162318192Y-127507535D01*
G37*
%TD.AperFunction*%
%TD*%
%TA.AperFunction,Conductor*%
%TO.N,Net-(J5-Pin_1)*%
G36*
X154818192Y-127507535D02*
G01*
X154832825Y-127513596D01*
X154879351Y-127553333D01*
X154886405Y-127567180D01*
X154887635Y-127570150D01*
X154894665Y-127617471D01*
X154894858Y-127614850D01*
X154894739Y-127617258D01*
X154894500Y-127619691D01*
X154894500Y-134448826D01*
X154894557Y-134449990D01*
X154894558Y-134450023D01*
X154894948Y-134457949D01*
X154878918Y-134516997D01*
X154878380Y-134517810D01*
X154876126Y-134521183D01*
X154863817Y-134536182D01*
X154036182Y-135363817D01*
X154021179Y-135376129D01*
X154013220Y-135381447D01*
X153977541Y-135396227D01*
X153968149Y-135398096D01*
X153948827Y-135400000D01*
X152337351Y-135400000D01*
X152322830Y-135398929D01*
X152322775Y-135398920D01*
X152320398Y-135398448D01*
X152317997Y-135398211D01*
X152317980Y-135398209D01*
X152282741Y-135394739D01*
X152282730Y-135394738D01*
X152280309Y-135394500D01*
X152277869Y-135394500D01*
X151036345Y-135394500D01*
X150981332Y-135377808D01*
X150978808Y-135376121D01*
X150963817Y-135363817D01*
X150136182Y-134536182D01*
X150123863Y-134521169D01*
X150122177Y-134518645D01*
X150105500Y-134463654D01*
X150105500Y-127622128D01*
X150105500Y-127622127D01*
X150105500Y-127619691D01*
X150105260Y-127617263D01*
X150105142Y-127614844D01*
X150105340Y-127617531D01*
X150112367Y-127570141D01*
X150113599Y-127567167D01*
X150153337Y-127520646D01*
X150167166Y-127513599D01*
X150181810Y-127507534D01*
X150219691Y-127500000D01*
X154780309Y-127500000D01*
X154818192Y-127507535D01*
G37*
%TD.AperFunction*%
%TD*%
M02*
