%TF.GenerationSoftware,KiCad,Pcbnew,7.0.2-0*%
%TF.CreationDate,2023-05-23T14:09:32+01:00*%
%TF.ProjectId,pcb-stylophone,7063622d-7374-4796-9c6f-70686f6e652e,rev?*%
%TF.SameCoordinates,Original*%
%TF.FileFunction,Soldermask,Top*%
%TF.FilePolarity,Negative*%
%FSLAX46Y46*%
G04 Gerber Fmt 4.6, Leading zero omitted, Abs format (unit mm)*
G04 Created by KiCad (PCBNEW 7.0.2-0) date 2023-05-23 14:09:32*
%MOMM*%
%LPD*%
G01*
G04 APERTURE LIST*
%ADD10R,1.600000X1.600000*%
%ADD11O,1.600000X1.600000*%
%ADD12R,1.000000X1.000000*%
%ADD13C,1.600000*%
%ADD14R,2.000000X2.000000*%
%ADD15C,2.000000*%
%ADD16C,2.500000*%
%ADD17R,1.700000X1.700000*%
%ADD18O,1.700000X1.700000*%
G04 APERTURE END LIST*
D10*
%TO.C,U1*%
X154800000Y-105380000D03*
D11*
X152260000Y-105380000D03*
X149720000Y-105380000D03*
X147180000Y-105380000D03*
X147180000Y-113000000D03*
X149720000Y-113000000D03*
X152260000Y-113000000D03*
X154800000Y-113000000D03*
%TD*%
D12*
%TO.C,J13*%
X130000000Y-137500000D03*
%TD*%
%TO.C,J5*%
X152500000Y-132500000D03*
%TD*%
D13*
%TO.C,R16*%
X119000000Y-116690000D03*
D11*
X119000000Y-124310000D03*
%TD*%
D13*
%TO.C,R2*%
X161000000Y-116690000D03*
D11*
X161000000Y-124310000D03*
%TD*%
D12*
%TO.C,J14*%
X125000000Y-137500000D03*
%TD*%
D14*
%TO.C,LS1*%
X132500000Y-102500000D03*
D15*
X132500000Y-112500000D03*
%TD*%
D13*
%TO.C,R18*%
X113000000Y-116690000D03*
D11*
X113000000Y-124310000D03*
%TD*%
D12*
%TO.C,J19*%
X110000000Y-137500000D03*
%TD*%
D13*
%TO.C,R17*%
X116000000Y-116690000D03*
D11*
X116000000Y-124310000D03*
%TD*%
D12*
%TO.C,J9*%
X140000000Y-137500000D03*
%TD*%
D13*
%TO.C,R20*%
X107000000Y-116690000D03*
D11*
X107000000Y-124310000D03*
%TD*%
D13*
%TO.C,R13*%
X128000000Y-116690000D03*
D11*
X128000000Y-124310000D03*
%TD*%
D12*
%TO.C,J10*%
X137500000Y-132500000D03*
%TD*%
%TO.C,J18*%
X115000000Y-137500000D03*
%TD*%
D16*
%TO.C,J22*%
X162500000Y-111000000D03*
%TD*%
D12*
%TO.C,J11*%
X135000000Y-137500000D03*
%TD*%
D13*
%TO.C,C2*%
X152500000Y-102500000D03*
X157500000Y-102500000D03*
%TD*%
%TO.C,R11*%
X134000000Y-116690000D03*
D11*
X134000000Y-124310000D03*
%TD*%
D12*
%TO.C,J20*%
X107500000Y-132500000D03*
%TD*%
D17*
%TO.C,J1*%
X162500000Y-105275000D03*
D18*
X162500000Y-102735000D03*
%TD*%
D13*
%TO.C,R10*%
X137000000Y-116690000D03*
D11*
X137000000Y-124310000D03*
%TD*%
D12*
%TO.C,J3*%
X157500000Y-132500000D03*
%TD*%
%TO.C,J12*%
X132500000Y-132500000D03*
%TD*%
%TO.C,J15*%
X122500000Y-132500000D03*
%TD*%
%TO.C,J4*%
X155000000Y-137500000D03*
%TD*%
D13*
%TO.C,R8*%
X143000000Y-116690000D03*
D11*
X143000000Y-124310000D03*
%TD*%
D13*
%TO.C,R12*%
X131000000Y-116690000D03*
D11*
X131000000Y-124310000D03*
%TD*%
D13*
%TO.C,R1*%
X144000000Y-112990000D03*
D11*
X144000000Y-105370000D03*
%TD*%
D13*
%TO.C,R15*%
X122000000Y-116690000D03*
D11*
X122000000Y-124310000D03*
%TD*%
D13*
%TO.C,R6*%
X149000000Y-116690000D03*
D11*
X149000000Y-124310000D03*
%TD*%
D12*
%TO.C,J2*%
X160000000Y-137500000D03*
%TD*%
D13*
%TO.C,C1*%
X158000000Y-111500000D03*
X158000000Y-106500000D03*
%TD*%
%TO.C,R19*%
X110000000Y-116690000D03*
D11*
X110000000Y-124310000D03*
%TD*%
D13*
%TO.C,R3*%
X158000000Y-116690000D03*
D11*
X158000000Y-124310000D03*
%TD*%
D12*
%TO.C,J17*%
X117500000Y-132500000D03*
%TD*%
D13*
%TO.C,R4*%
X155000000Y-116690000D03*
D11*
X155000000Y-124310000D03*
%TD*%
D13*
%TO.C,R21*%
X104000000Y-116690000D03*
D11*
X104000000Y-124310000D03*
%TD*%
D12*
%TO.C,J6*%
X150000000Y-137500000D03*
%TD*%
D13*
%TO.C,R7*%
X146000000Y-116690000D03*
D11*
X146000000Y-124310000D03*
%TD*%
D12*
%TO.C,J21*%
X105000000Y-137500000D03*
%TD*%
%TO.C,J7*%
X145000000Y-137500000D03*
%TD*%
D13*
%TO.C,R9*%
X140000000Y-116690000D03*
D11*
X140000000Y-124310000D03*
%TD*%
D12*
%TO.C,J16*%
X120000000Y-137500000D03*
%TD*%
%TO.C,J8*%
X142500000Y-132500000D03*
%TD*%
D13*
%TO.C,R5*%
X152000000Y-116690000D03*
D11*
X152000000Y-124310000D03*
%TD*%
D13*
%TO.C,R14*%
X125000000Y-116690000D03*
D11*
X125000000Y-124310000D03*
%TD*%
G36*
X162418195Y-127407536D02*
G01*
X162432825Y-127413596D01*
X162479351Y-127453333D01*
X162486402Y-127467171D01*
X162492463Y-127481802D01*
X162500000Y-127519691D01*
X162500000Y-142480308D01*
X162492463Y-142518197D01*
X162486402Y-142532828D01*
X162446663Y-142579352D01*
X162432830Y-142586401D01*
X162418200Y-142592462D01*
X162380309Y-142600000D01*
X102619691Y-142600000D01*
X102581802Y-142592463D01*
X102567171Y-142586402D01*
X102520647Y-142546663D01*
X102513595Y-142532823D01*
X102507535Y-142518192D01*
X102500000Y-142480308D01*
X102500000Y-127519691D01*
X102507535Y-127481807D01*
X102513595Y-127467176D01*
X102553331Y-127420650D01*
X102567176Y-127413595D01*
X102581807Y-127407535D01*
X102619691Y-127400000D01*
X162380309Y-127400000D01*
X162418195Y-127407536D01*
G37*
M02*
