%TF.GenerationSoftware,KiCad,Pcbnew,7.0.2*%
%TF.CreationDate,2023-07-28T17:59:40+01:00*%
%TF.ProjectId,pcb-stylophone_v2_to_make,7063622d-7374-4796-9c6f-70686f6e655f,rev?*%
%TF.SameCoordinates,Original*%
%TF.FileFunction,Copper,L2,Bot*%
%TF.FilePolarity,Positive*%
%FSLAX46Y46*%
G04 Gerber Fmt 4.6, Leading zero omitted, Abs format (unit mm)*
G04 Created by KiCad (PCBNEW 7.0.2) date 2023-07-28 17:59:40*
%MOMM*%
%LPD*%
G01*
G04 APERTURE LIST*
%TA.AperFunction,ComponentPad*%
%ADD10R,1.600000X1.600000*%
%TD*%
%TA.AperFunction,ComponentPad*%
%ADD11O,1.600000X1.600000*%
%TD*%
%TA.AperFunction,ComponentPad*%
%ADD12C,2.000000*%
%TD*%
%TA.AperFunction,ComponentPad*%
%ADD13R,2.000000X2.000000*%
%TD*%
%TA.AperFunction,ComponentPad*%
%ADD14C,2.500000*%
%TD*%
%TA.AperFunction,ComponentPad*%
%ADD15C,1.600000*%
%TD*%
%TA.AperFunction,ComponentPad*%
%ADD16R,1.700000X1.700000*%
%TD*%
%TA.AperFunction,ComponentPad*%
%ADD17O,1.700000X1.700000*%
%TD*%
%TA.AperFunction,ViaPad*%
%ADD18C,0.800000*%
%TD*%
%TA.AperFunction,Conductor*%
%ADD19C,1.000000*%
%TD*%
G04 APERTURE END LIST*
D10*
%TO.P,U1,1,GND*%
%TO.N,GND*%
X155800000Y-104480000D03*
D11*
%TO.P,U1,2,TR*%
%TO.N,Net-(J22-Pin_1)*%
X153260000Y-104480000D03*
%TO.P,U1,3,Q*%
%TO.N,Net-(U1-Q)*%
X150720000Y-104480000D03*
%TO.P,U1,4,R*%
%TO.N,VCC*%
X148180000Y-104480000D03*
%TO.P,U1,5,CV*%
%TO.N,unconnected-(U1-CV-Pad5)*%
X148180000Y-112100000D03*
%TO.P,U1,6,THR*%
%TO.N,Net-(J22-Pin_1)*%
X150720000Y-112100000D03*
%TO.P,U1,7,DIS*%
%TO.N,Net-(U1-DIS)*%
X153260000Y-112100000D03*
%TO.P,U1,8,VCC*%
%TO.N,VCC*%
X155800000Y-112100000D03*
%TD*%
D12*
%TO.P,R16,1*%
%TO.N,Net-(J15-Pin_1)*%
X109500000Y-116700000D03*
%TO.P,R16,2*%
%TO.N,Net-(J16-Pin_1)*%
X109500000Y-126860000D03*
%TD*%
%TO.P,R2,2*%
%TO.N,Net-(J2-Pin_1)*%
X165500000Y-126860000D03*
%TO.P,R2,1*%
%TO.N,Net-(U1-DIS)*%
X165500000Y-116700000D03*
%TD*%
D13*
%TO.P,LS1,1,1*%
%TO.N,Net-(U1-Q)*%
X127000000Y-101500000D03*
D12*
%TO.P,LS1,2,2*%
%TO.N,GND*%
X127000000Y-111500000D03*
%TD*%
%TO.P,R18,1*%
%TO.N,Net-(J17-Pin_1)*%
X101500000Y-116700000D03*
%TO.P,R18,2*%
%TO.N,Net-(J18-Pin_1)*%
X101500000Y-126860000D03*
%TD*%
%TO.P,R17,1*%
%TO.N,Net-(J16-Pin_1)*%
X105500000Y-116700000D03*
%TO.P,R17,2*%
%TO.N,Net-(J17-Pin_1)*%
X105500000Y-126860000D03*
%TD*%
%TO.P,R20,1*%
%TO.N,Net-(J19-Pin_1)*%
X93500000Y-116700000D03*
%TO.P,R20,2*%
%TO.N,Net-(J20-Pin_1)*%
X93500000Y-126860000D03*
%TD*%
%TO.P,R13,1*%
%TO.N,Net-(J12-Pin_1)*%
X121500000Y-116700000D03*
%TO.P,R13,2*%
%TO.N,Net-(J13-Pin_1)*%
X121500000Y-126860000D03*
%TD*%
D14*
%TO.P,J22,1,Pin_1*%
%TO.N,Net-(J22-Pin_1)*%
X164000000Y-110100000D03*
%TD*%
D15*
%TO.P,C2,1*%
%TO.N,Net-(J22-Pin_1)*%
X153500000Y-100000000D03*
%TO.P,C2,2*%
%TO.N,GND*%
X158500000Y-100000000D03*
%TD*%
D12*
%TO.P,R11,1*%
%TO.N,Net-(J10-Pin_1)*%
X129500000Y-116700000D03*
%TO.P,R11,2*%
%TO.N,Net-(J11-Pin_1)*%
X129500000Y-126860000D03*
%TD*%
D16*
%TO.P,J1,1,Pin_1*%
%TO.N,VCC*%
X164000000Y-104375000D03*
D17*
%TO.P,J1,2,Pin_2*%
%TO.N,GND*%
X164000000Y-101835000D03*
%TD*%
D12*
%TO.P,R10,1*%
%TO.N,Net-(J9-Pin_1)*%
X133500000Y-116700000D03*
%TO.P,R10,2*%
%TO.N,Net-(J10-Pin_1)*%
X133500000Y-126860000D03*
%TD*%
%TO.P,R8,1*%
%TO.N,Net-(J7-Pin_1)*%
X141500000Y-116700000D03*
%TO.P,R8,2*%
%TO.N,Net-(J8-Pin_1)*%
X141500000Y-126860000D03*
%TD*%
%TO.P,R12,1*%
%TO.N,Net-(J11-Pin_1)*%
X125500000Y-116700000D03*
%TO.P,R12,2*%
%TO.N,Net-(J12-Pin_1)*%
X125500000Y-126860000D03*
%TD*%
%TO.P,R1,1*%
%TO.N,Net-(U1-DIS)*%
X143000000Y-112200000D03*
%TO.P,R1,2*%
%TO.N,VCC*%
X143000000Y-102040000D03*
%TD*%
%TO.P,R15,1*%
%TO.N,Net-(J14-Pin_1)*%
X113500000Y-116700000D03*
%TO.P,R15,2*%
%TO.N,Net-(J15-Pin_1)*%
X113500000Y-126860000D03*
%TD*%
%TO.P,R6,1*%
%TO.N,Net-(J5-Pin_1)*%
X149500000Y-116700000D03*
%TO.P,R6,2*%
%TO.N,Net-(J6-Pin_1)*%
X149500000Y-126860000D03*
%TD*%
D15*
%TO.P,C1,1*%
%TO.N,VCC*%
X160000000Y-110600000D03*
%TO.P,C1,2*%
%TO.N,GND*%
X160000000Y-105600000D03*
%TD*%
D12*
%TO.P,R19,1*%
%TO.N,Net-(J18-Pin_1)*%
X97500000Y-116700000D03*
%TO.P,R19,2*%
%TO.N,Net-(J19-Pin_1)*%
X97500000Y-126860000D03*
%TD*%
%TO.P,R3,1*%
%TO.N,Net-(J2-Pin_1)*%
X161500000Y-116700000D03*
%TO.P,R3,2*%
%TO.N,Net-(J3-Pin_1)*%
X161500000Y-126860000D03*
%TD*%
%TO.P,R4,1*%
%TO.N,Net-(J3-Pin_1)*%
X157500000Y-116700000D03*
%TO.P,R4,2*%
%TO.N,Net-(J4-Pin_1)*%
X157500000Y-126860000D03*
%TD*%
%TO.P,R21,1*%
%TO.N,Net-(J20-Pin_1)*%
X89500000Y-116700000D03*
%TO.P,R21,2*%
%TO.N,Net-(J21-Pin_1)*%
X89500000Y-126860000D03*
%TD*%
%TO.P,R7,1*%
%TO.N,Net-(J6-Pin_1)*%
X145500000Y-116700000D03*
%TO.P,R7,2*%
%TO.N,Net-(J7-Pin_1)*%
X145500000Y-126860000D03*
%TD*%
%TO.P,R9,1*%
%TO.N,Net-(J8-Pin_1)*%
X137500000Y-116700000D03*
%TO.P,R9,2*%
%TO.N,Net-(J9-Pin_1)*%
X137500000Y-126860000D03*
%TD*%
%TO.P,R5,1*%
%TO.N,Net-(J4-Pin_1)*%
X153500000Y-116700000D03*
%TO.P,R5,2*%
%TO.N,Net-(J5-Pin_1)*%
X153500000Y-126860000D03*
%TD*%
%TO.P,R14,1*%
%TO.N,Net-(J13-Pin_1)*%
X117500000Y-116700000D03*
%TO.P,R14,2*%
%TO.N,Net-(J14-Pin_1)*%
X117500000Y-126860000D03*
%TD*%
D18*
%TO.N,GND*%
X142000000Y-148000000D03*
X165000000Y-140000000D03*
X128000000Y-148000000D03*
X110000000Y-100000000D03*
X165000000Y-135000000D03*
X153000000Y-148000000D03*
X103000000Y-148000000D03*
X160000000Y-140000000D03*
X90000000Y-140000000D03*
X140000000Y-115000000D03*
X115000000Y-100000000D03*
X95000000Y-145000000D03*
X95000000Y-140000000D03*
X160000000Y-145000000D03*
X95000000Y-135000000D03*
X148200000Y-109200000D03*
X150000000Y-100000000D03*
X90000000Y-135000000D03*
X140000000Y-105000000D03*
X165000000Y-145000000D03*
X112000000Y-148000000D03*
X115000000Y-105000000D03*
X160000000Y-135000000D03*
X122000000Y-148000000D03*
X90000000Y-145000000D03*
X140000000Y-110000000D03*
X110000000Y-105000000D03*
%TO.N,Net-(J4-Pin_1)*%
X148600000Y-147300000D03*
%TO.N,Net-(J9-Pin_1)*%
X136600000Y-147300000D03*
%TO.N,Net-(J11-Pin_1)*%
X131400000Y-147100000D03*
%TO.N,Net-(J16-Pin_1)*%
X116600000Y-147300000D03*
%TO.N,Net-(J19-Pin_1)*%
X106600000Y-147300000D03*
%TD*%
D19*
%TO.N,Net-(J22-Pin_1)*%
X153260000Y-107460000D02*
X153260000Y-104480000D01*
X153260000Y-104480000D02*
X153260000Y-100240000D01*
X153260000Y-100240000D02*
X153500000Y-100000000D01*
X164000000Y-110100000D02*
X163500000Y-110100000D01*
X150720000Y-112100000D02*
X150720000Y-110880000D01*
X153700000Y-107900000D02*
X153260000Y-107460000D01*
X163500000Y-110100000D02*
X161300000Y-107900000D01*
X161300000Y-107900000D02*
X153700000Y-107900000D01*
X150720000Y-110880000D02*
X153700000Y-107900000D01*
%TO.N,Net-(J4-Pin_1)*%
X150200000Y-145700000D02*
X150200000Y-134160000D01*
X150200000Y-134160000D02*
X157500000Y-126860000D01*
X148600000Y-147300000D02*
X150200000Y-145700000D01*
%TO.N,Net-(J9-Pin_1)*%
X137500000Y-146400000D02*
X137500000Y-126860000D01*
X136600000Y-147300000D02*
X137500000Y-146400000D01*
%TO.N,Net-(J11-Pin_1)*%
X131400000Y-147100000D02*
X129500000Y-145200000D01*
X129500000Y-145200000D02*
X129500000Y-126860000D01*
%TO.N,Net-(J16-Pin_1)*%
X109500000Y-140200000D02*
X109500000Y-126860000D01*
X116600000Y-147300000D02*
X109500000Y-140200000D01*
%TO.N,Net-(J19-Pin_1)*%
X106600000Y-147300000D02*
X105300000Y-146000000D01*
X105300000Y-146000000D02*
X105300000Y-134660000D01*
X105300000Y-134660000D02*
X97500000Y-126860000D01*
%TD*%
%TA.AperFunction,Conductor*%
%TO.N,GND*%
G36*
X167003243Y-96000669D02*
G01*
X167133628Y-96007503D01*
X167313910Y-96017628D01*
X167326309Y-96018955D01*
X167475647Y-96042608D01*
X167635321Y-96069737D01*
X167646619Y-96072205D01*
X167796693Y-96112418D01*
X167949188Y-96156351D01*
X167959253Y-96159726D01*
X168104710Y-96215562D01*
X168107599Y-96216714D01*
X168251768Y-96276430D01*
X168260594Y-96280500D01*
X168400064Y-96351565D01*
X168403748Y-96353521D01*
X168493848Y-96403316D01*
X168539548Y-96428574D01*
X168547061Y-96433081D01*
X168678754Y-96518604D01*
X168682947Y-96521452D01*
X168809147Y-96610996D01*
X168815428Y-96615759D01*
X168937567Y-96714665D01*
X168942158Y-96718571D01*
X169057424Y-96821579D01*
X169062478Y-96826358D01*
X169173640Y-96937520D01*
X169178419Y-96942574D01*
X169281427Y-97057840D01*
X169285333Y-97062431D01*
X169384239Y-97184570D01*
X169389002Y-97190851D01*
X169478546Y-97317051D01*
X169481409Y-97321266D01*
X169566907Y-97452921D01*
X169571430Y-97460460D01*
X169646477Y-97596250D01*
X169648433Y-97599934D01*
X169719498Y-97739404D01*
X169723575Y-97748247D01*
X169783259Y-97892337D01*
X169784462Y-97895353D01*
X169840265Y-98040727D01*
X169843655Y-98050836D01*
X169887579Y-98203297D01*
X169927793Y-98353379D01*
X169930262Y-98364685D01*
X169957394Y-98524369D01*
X169981040Y-98673670D01*
X169982371Y-98686108D01*
X169992509Y-98866617D01*
X169999330Y-98996756D01*
X169999500Y-99003246D01*
X169999500Y-146996753D01*
X169999330Y-147003243D01*
X169992509Y-147133382D01*
X169982372Y-147313887D01*
X169981040Y-147326331D01*
X169957394Y-147475629D01*
X169930263Y-147635308D01*
X169927791Y-147646624D01*
X169887579Y-147796701D01*
X169843653Y-147949170D01*
X169840268Y-147959263D01*
X169784462Y-148104645D01*
X169783259Y-148107661D01*
X169723575Y-148251751D01*
X169719498Y-148260594D01*
X169648433Y-148400064D01*
X169646477Y-148403748D01*
X169571430Y-148539538D01*
X169566897Y-148547094D01*
X169481412Y-148678728D01*
X169478546Y-148682947D01*
X169389002Y-148809147D01*
X169384239Y-148815428D01*
X169285333Y-148937567D01*
X169281427Y-148942158D01*
X169178419Y-149057424D01*
X169173640Y-149062478D01*
X169062478Y-149173640D01*
X169057424Y-149178419D01*
X168942158Y-149281427D01*
X168937567Y-149285333D01*
X168815428Y-149384239D01*
X168809147Y-149389002D01*
X168682947Y-149478546D01*
X168678728Y-149481412D01*
X168547094Y-149566897D01*
X168539538Y-149571430D01*
X168403748Y-149646477D01*
X168400064Y-149648433D01*
X168260594Y-149719498D01*
X168251751Y-149723575D01*
X168107661Y-149783259D01*
X168104645Y-149784462D01*
X167959271Y-149840265D01*
X167949162Y-149843655D01*
X167796702Y-149887579D01*
X167646619Y-149927793D01*
X167635313Y-149930262D01*
X167475630Y-149957394D01*
X167326328Y-149981040D01*
X167313890Y-149982371D01*
X167133382Y-149992509D01*
X167003244Y-149999330D01*
X166996754Y-149999500D01*
X87403247Y-149999500D01*
X87396757Y-149999330D01*
X87266617Y-149992509D01*
X87086111Y-149982372D01*
X87073666Y-149981040D01*
X86924369Y-149957394D01*
X86764690Y-149930263D01*
X86753374Y-149927791D01*
X86603298Y-149887579D01*
X86450828Y-149843653D01*
X86440735Y-149840268D01*
X86295353Y-149784462D01*
X86292337Y-149783259D01*
X86148247Y-149723575D01*
X86139404Y-149719498D01*
X85999934Y-149648433D01*
X85996250Y-149646477D01*
X85860460Y-149571430D01*
X85852921Y-149566907D01*
X85721266Y-149481409D01*
X85717051Y-149478546D01*
X85590851Y-149389002D01*
X85584570Y-149384239D01*
X85462431Y-149285333D01*
X85457840Y-149281427D01*
X85342574Y-149178419D01*
X85337520Y-149173640D01*
X85226358Y-149062478D01*
X85221579Y-149057424D01*
X85118571Y-148942158D01*
X85114665Y-148937567D01*
X85015759Y-148815428D01*
X85010996Y-148809147D01*
X84921452Y-148682947D01*
X84918604Y-148678754D01*
X84833081Y-148547061D01*
X84828568Y-148539538D01*
X84753521Y-148403748D01*
X84751565Y-148400064D01*
X84680500Y-148260594D01*
X84676430Y-148251768D01*
X84616714Y-148107599D01*
X84615562Y-148104710D01*
X84559729Y-147959260D01*
X84556346Y-147949170D01*
X84512414Y-147796679D01*
X84507316Y-147777652D01*
X84472202Y-147646605D01*
X84469738Y-147635323D01*
X84442601Y-147475606D01*
X84418956Y-147326316D01*
X84417627Y-147313890D01*
X84417627Y-147313887D01*
X84407490Y-147133382D01*
X84400669Y-147003243D01*
X84400500Y-146996755D01*
X84400500Y-126860000D01*
X88294357Y-126860000D01*
X88314885Y-127081537D01*
X88375769Y-127295526D01*
X88474941Y-127494688D01*
X88609019Y-127672237D01*
X88773437Y-127822124D01*
X88962595Y-127939245D01*
X88962597Y-127939245D01*
X88962599Y-127939247D01*
X89170060Y-128019618D01*
X89388757Y-128060500D01*
X89388759Y-128060500D01*
X89611241Y-128060500D01*
X89611243Y-128060500D01*
X89829940Y-128019618D01*
X90037401Y-127939247D01*
X90226562Y-127822124D01*
X90390981Y-127672236D01*
X90525058Y-127494689D01*
X90624229Y-127295528D01*
X90685115Y-127081536D01*
X90705643Y-126860000D01*
X92294357Y-126860000D01*
X92314885Y-127081537D01*
X92375769Y-127295526D01*
X92474941Y-127494688D01*
X92609019Y-127672237D01*
X92773437Y-127822124D01*
X92962595Y-127939245D01*
X92962597Y-127939245D01*
X92962599Y-127939247D01*
X93170060Y-128019618D01*
X93388757Y-128060500D01*
X93388759Y-128060500D01*
X93611241Y-128060500D01*
X93611243Y-128060500D01*
X93829940Y-128019618D01*
X94037401Y-127939247D01*
X94226562Y-127822124D01*
X94390981Y-127672236D01*
X94525058Y-127494689D01*
X94624229Y-127295528D01*
X94685115Y-127081536D01*
X94705643Y-126860000D01*
X96294357Y-126860000D01*
X96314885Y-127081537D01*
X96375769Y-127295526D01*
X96474941Y-127494688D01*
X96609019Y-127672237D01*
X96773437Y-127822124D01*
X96962595Y-127939245D01*
X96962597Y-127939245D01*
X96962599Y-127939247D01*
X97170060Y-128019618D01*
X97388757Y-128060500D01*
X97388759Y-128060500D01*
X97611241Y-128060500D01*
X97611243Y-128060500D01*
X97630066Y-128056981D01*
X97699580Y-128064012D01*
X97740532Y-128091189D01*
X104563181Y-134913838D01*
X104596666Y-134975161D01*
X104599500Y-135001519D01*
X104599500Y-145975079D01*
X104599274Y-145982566D01*
X104595641Y-146042607D01*
X104606483Y-146101771D01*
X104607610Y-146109172D01*
X104614860Y-146168873D01*
X104618450Y-146178339D01*
X104624475Y-146199952D01*
X104626303Y-146209929D01*
X104650991Y-146264783D01*
X104653856Y-146271701D01*
X104675180Y-146327926D01*
X104675182Y-146327930D01*
X104680941Y-146336273D01*
X104691961Y-146355813D01*
X104696120Y-146365054D01*
X104733216Y-146412405D01*
X104737651Y-146418432D01*
X104771817Y-146467929D01*
X104816847Y-146507822D01*
X104822283Y-146512939D01*
X106134633Y-147825290D01*
X106234944Y-147903878D01*
X106390069Y-147973695D01*
X106557394Y-148004358D01*
X106727196Y-147994086D01*
X106808401Y-147968782D01*
X106889603Y-147943479D01*
X106889603Y-147943478D01*
X106889606Y-147943478D01*
X107035185Y-147855472D01*
X107155472Y-147735185D01*
X107243478Y-147589606D01*
X107294086Y-147427196D01*
X107304358Y-147257394D01*
X107273695Y-147090069D01*
X107203878Y-146934944D01*
X107125290Y-146834633D01*
X106036818Y-145746161D01*
X106003333Y-145684838D01*
X106000499Y-145658489D01*
X106000499Y-134684921D01*
X106000725Y-134677433D01*
X106004358Y-134617394D01*
X105993514Y-134558221D01*
X105992387Y-134550815D01*
X105992128Y-134548689D01*
X105985140Y-134491128D01*
X105981547Y-134481656D01*
X105975522Y-134460044D01*
X105973695Y-134450069D01*
X105949009Y-134395220D01*
X105946152Y-134388326D01*
X105924818Y-134332070D01*
X105924816Y-134332068D01*
X105924816Y-134332066D01*
X105919062Y-134323731D01*
X105908033Y-134304177D01*
X105903878Y-134294944D01*
X105866780Y-134247591D01*
X105862352Y-134241573D01*
X105828184Y-134192072D01*
X105811660Y-134177433D01*
X105783153Y-134152178D01*
X105777715Y-134147058D01*
X98728571Y-127097914D01*
X98695086Y-127036591D01*
X98692781Y-126998798D01*
X98705643Y-126860000D01*
X100294357Y-126860000D01*
X100314885Y-127081537D01*
X100375769Y-127295526D01*
X100474941Y-127494688D01*
X100609019Y-127672237D01*
X100773437Y-127822124D01*
X100962595Y-127939245D01*
X100962597Y-127939245D01*
X100962599Y-127939247D01*
X101170060Y-128019618D01*
X101388757Y-128060500D01*
X101388759Y-128060500D01*
X101611241Y-128060500D01*
X101611243Y-128060500D01*
X101829940Y-128019618D01*
X102037401Y-127939247D01*
X102226562Y-127822124D01*
X102390981Y-127672236D01*
X102525058Y-127494689D01*
X102624229Y-127295528D01*
X102685115Y-127081536D01*
X102705643Y-126860000D01*
X104294357Y-126860000D01*
X104314885Y-127081537D01*
X104375769Y-127295526D01*
X104474941Y-127494688D01*
X104609019Y-127672237D01*
X104773437Y-127822124D01*
X104962595Y-127939245D01*
X104962597Y-127939245D01*
X104962599Y-127939247D01*
X105170060Y-128019618D01*
X105388757Y-128060500D01*
X105388759Y-128060500D01*
X105611241Y-128060500D01*
X105611243Y-128060500D01*
X105829940Y-128019618D01*
X106037401Y-127939247D01*
X106226562Y-127822124D01*
X106390981Y-127672236D01*
X106525058Y-127494689D01*
X106624229Y-127295528D01*
X106685115Y-127081536D01*
X106705643Y-126860000D01*
X108294357Y-126860000D01*
X108314885Y-127081537D01*
X108375769Y-127295526D01*
X108474941Y-127494688D01*
X108609019Y-127672237D01*
X108759038Y-127808997D01*
X108795320Y-127868708D01*
X108799500Y-127900634D01*
X108799500Y-140175079D01*
X108799274Y-140182566D01*
X108795641Y-140242607D01*
X108806483Y-140301771D01*
X108807610Y-140309172D01*
X108814860Y-140368873D01*
X108818450Y-140378339D01*
X108824475Y-140399952D01*
X108826303Y-140409929D01*
X108850991Y-140464783D01*
X108853856Y-140471701D01*
X108875180Y-140527926D01*
X108875182Y-140527930D01*
X108880941Y-140536273D01*
X108891961Y-140555813D01*
X108896120Y-140565054D01*
X108933216Y-140612405D01*
X108937651Y-140618432D01*
X108971817Y-140667929D01*
X109016847Y-140707822D01*
X109022283Y-140712940D01*
X116134633Y-147825290D01*
X116137583Y-147827601D01*
X116137591Y-147827608D01*
X116234941Y-147903876D01*
X116234942Y-147903876D01*
X116234943Y-147903877D01*
X116390068Y-147973694D01*
X116557394Y-148004357D01*
X116727196Y-147994086D01*
X116889606Y-147943478D01*
X117035184Y-147855472D01*
X117155472Y-147735184D01*
X117243478Y-147589606D01*
X117294086Y-147427196D01*
X117304357Y-147257394D01*
X117273694Y-147090068D01*
X117203877Y-146934943D01*
X117203876Y-146934942D01*
X117203876Y-146934941D01*
X117127608Y-146837591D01*
X117127601Y-146837583D01*
X117125290Y-146834633D01*
X115149138Y-144858481D01*
X110236818Y-139946161D01*
X110203333Y-139884838D01*
X110200499Y-139858480D01*
X110200499Y-133888305D01*
X110200499Y-127900630D01*
X110220184Y-127833595D01*
X110240958Y-127808999D01*
X110390981Y-127672236D01*
X110525058Y-127494689D01*
X110624229Y-127295528D01*
X110685115Y-127081536D01*
X110705643Y-126860000D01*
X112294357Y-126860000D01*
X112314885Y-127081537D01*
X112375769Y-127295526D01*
X112474941Y-127494688D01*
X112609019Y-127672237D01*
X112773437Y-127822124D01*
X112962595Y-127939245D01*
X112962597Y-127939245D01*
X112962599Y-127939247D01*
X113170060Y-128019618D01*
X113388757Y-128060500D01*
X113388759Y-128060500D01*
X113611241Y-128060500D01*
X113611243Y-128060500D01*
X113829940Y-128019618D01*
X114037401Y-127939247D01*
X114226562Y-127822124D01*
X114390981Y-127672236D01*
X114525058Y-127494689D01*
X114624229Y-127295528D01*
X114685115Y-127081536D01*
X114705643Y-126860000D01*
X116294357Y-126860000D01*
X116314885Y-127081537D01*
X116375769Y-127295526D01*
X116474941Y-127494688D01*
X116609019Y-127672237D01*
X116773437Y-127822124D01*
X116962595Y-127939245D01*
X116962597Y-127939245D01*
X116962599Y-127939247D01*
X117170060Y-128019618D01*
X117388757Y-128060500D01*
X117388759Y-128060500D01*
X117611241Y-128060500D01*
X117611243Y-128060500D01*
X117829940Y-128019618D01*
X118037401Y-127939247D01*
X118226562Y-127822124D01*
X118390981Y-127672236D01*
X118525058Y-127494689D01*
X118624229Y-127295528D01*
X118685115Y-127081536D01*
X118705643Y-126860000D01*
X120294357Y-126860000D01*
X120314885Y-127081537D01*
X120375769Y-127295526D01*
X120474941Y-127494688D01*
X120609019Y-127672237D01*
X120773437Y-127822124D01*
X120962595Y-127939245D01*
X120962597Y-127939245D01*
X120962599Y-127939247D01*
X121170060Y-128019618D01*
X121388757Y-128060500D01*
X121388759Y-128060500D01*
X121611241Y-128060500D01*
X121611243Y-128060500D01*
X121829940Y-128019618D01*
X122037401Y-127939247D01*
X122226562Y-127822124D01*
X122390981Y-127672236D01*
X122525058Y-127494689D01*
X122624229Y-127295528D01*
X122685115Y-127081536D01*
X122705643Y-126860000D01*
X124294357Y-126860000D01*
X124314885Y-127081537D01*
X124375769Y-127295526D01*
X124474941Y-127494688D01*
X124609019Y-127672237D01*
X124773437Y-127822124D01*
X124962595Y-127939245D01*
X124962597Y-127939245D01*
X124962599Y-127939247D01*
X125170060Y-128019618D01*
X125388757Y-128060500D01*
X125388759Y-128060500D01*
X125611241Y-128060500D01*
X125611243Y-128060500D01*
X125829940Y-128019618D01*
X126037401Y-127939247D01*
X126226562Y-127822124D01*
X126390981Y-127672236D01*
X126525058Y-127494689D01*
X126624229Y-127295528D01*
X126685115Y-127081536D01*
X126705643Y-126860000D01*
X128294357Y-126860000D01*
X128314885Y-127081537D01*
X128375769Y-127295526D01*
X128474941Y-127494688D01*
X128609019Y-127672237D01*
X128759037Y-127808996D01*
X128795319Y-127868707D01*
X128799499Y-127900633D01*
X128799499Y-145175079D01*
X128799273Y-145182565D01*
X128795641Y-145242606D01*
X128806483Y-145301771D01*
X128807610Y-145309172D01*
X128814860Y-145368873D01*
X128818450Y-145378339D01*
X128824475Y-145399952D01*
X128826303Y-145409929D01*
X128850991Y-145464783D01*
X128853856Y-145471701D01*
X128875180Y-145527926D01*
X128875182Y-145527930D01*
X128880941Y-145536273D01*
X128891961Y-145555813D01*
X128896120Y-145565054D01*
X128933216Y-145612405D01*
X128937654Y-145618436D01*
X128965294Y-145658480D01*
X128971817Y-145667929D01*
X129016847Y-145707822D01*
X129022283Y-145712939D01*
X130934633Y-147625290D01*
X131034944Y-147703878D01*
X131190069Y-147773695D01*
X131357394Y-147804358D01*
X131527196Y-147794086D01*
X131689606Y-147743478D01*
X131835185Y-147655472D01*
X131955472Y-147535185D01*
X132043478Y-147389606D01*
X132084676Y-147257393D01*
X135895642Y-147257393D01*
X135905914Y-147427199D01*
X135956520Y-147589603D01*
X136044528Y-147735186D01*
X136164813Y-147855471D01*
X136310396Y-147943479D01*
X136472800Y-147994085D01*
X136472804Y-147994086D01*
X136642606Y-148004358D01*
X136809932Y-147973695D01*
X136965057Y-147903878D01*
X137065367Y-147825290D01*
X137633263Y-147257393D01*
X147895642Y-147257393D01*
X147905914Y-147427199D01*
X147956520Y-147589603D01*
X148044528Y-147735186D01*
X148164813Y-147855471D01*
X148310396Y-147943479D01*
X148472800Y-147994085D01*
X148472804Y-147994086D01*
X148642606Y-148004358D01*
X148809932Y-147973695D01*
X148965057Y-147903878D01*
X149065367Y-147825290D01*
X150677731Y-146212924D01*
X150683150Y-146207823D01*
X150728183Y-146167929D01*
X150762377Y-146118389D01*
X150766770Y-146112419D01*
X150803878Y-146065056D01*
X150808035Y-146055818D01*
X150819061Y-146036268D01*
X150824818Y-146027930D01*
X150846152Y-145971674D01*
X150848994Y-145964811D01*
X150873695Y-145909931D01*
X150875522Y-145899956D01*
X150881549Y-145878339D01*
X150885140Y-145868872D01*
X150892387Y-145809179D01*
X150893514Y-145801777D01*
X150904358Y-145742606D01*
X150900726Y-145682566D01*
X150900500Y-145675079D01*
X150900500Y-134501518D01*
X150920185Y-134434479D01*
X150936814Y-134413842D01*
X157259469Y-128091186D01*
X157320790Y-128057703D01*
X157369932Y-128056981D01*
X157388757Y-128060500D01*
X157388758Y-128060500D01*
X157611241Y-128060500D01*
X157611243Y-128060500D01*
X157829940Y-128019618D01*
X158037401Y-127939247D01*
X158226562Y-127822124D01*
X158390981Y-127672236D01*
X158525058Y-127494689D01*
X158624229Y-127295528D01*
X158685115Y-127081536D01*
X158705643Y-126860000D01*
X158705643Y-126859999D01*
X160294357Y-126859999D01*
X160314885Y-127081537D01*
X160375769Y-127295526D01*
X160474941Y-127494688D01*
X160609019Y-127672237D01*
X160773437Y-127822124D01*
X160962595Y-127939245D01*
X160962597Y-127939245D01*
X160962599Y-127939247D01*
X161170060Y-128019618D01*
X161388757Y-128060500D01*
X161388759Y-128060500D01*
X161611241Y-128060500D01*
X161611243Y-128060500D01*
X161829940Y-128019618D01*
X162037401Y-127939247D01*
X162226562Y-127822124D01*
X162390981Y-127672236D01*
X162525058Y-127494689D01*
X162624229Y-127295528D01*
X162685115Y-127081536D01*
X162705643Y-126860000D01*
X164294357Y-126860000D01*
X164314885Y-127081537D01*
X164375769Y-127295526D01*
X164474941Y-127494688D01*
X164609019Y-127672237D01*
X164773437Y-127822124D01*
X164962595Y-127939245D01*
X164962597Y-127939245D01*
X164962599Y-127939247D01*
X165170060Y-128019618D01*
X165388757Y-128060500D01*
X165388759Y-128060500D01*
X165611241Y-128060500D01*
X165611243Y-128060500D01*
X165829940Y-128019618D01*
X166037401Y-127939247D01*
X166226562Y-127822124D01*
X166390981Y-127672236D01*
X166525058Y-127494689D01*
X166624229Y-127295528D01*
X166685115Y-127081536D01*
X166705643Y-126860000D01*
X166685115Y-126638464D01*
X166662227Y-126558021D01*
X166624230Y-126424473D01*
X166525058Y-126225311D01*
X166390980Y-126047762D01*
X166226562Y-125897875D01*
X166037404Y-125780754D01*
X165976174Y-125757033D01*
X165829940Y-125700382D01*
X165611243Y-125659500D01*
X165388757Y-125659500D01*
X165170060Y-125700382D01*
X164962595Y-125780754D01*
X164773437Y-125897875D01*
X164609019Y-126047762D01*
X164474941Y-126225311D01*
X164375769Y-126424473D01*
X164314885Y-126638462D01*
X164294357Y-126860000D01*
X162705643Y-126860000D01*
X162685115Y-126638464D01*
X162662227Y-126558021D01*
X162624230Y-126424473D01*
X162525058Y-126225311D01*
X162390980Y-126047762D01*
X162226562Y-125897875D01*
X162037404Y-125780754D01*
X161976174Y-125757033D01*
X161829940Y-125700382D01*
X161611243Y-125659500D01*
X161388757Y-125659500D01*
X161170059Y-125700382D01*
X161170060Y-125700382D01*
X160962595Y-125780754D01*
X160773437Y-125897875D01*
X160609019Y-126047762D01*
X160474941Y-126225311D01*
X160375769Y-126424473D01*
X160314885Y-126638462D01*
X160294357Y-126859999D01*
X158705643Y-126859999D01*
X158685115Y-126638464D01*
X158662227Y-126558021D01*
X158624230Y-126424473D01*
X158525058Y-126225311D01*
X158390980Y-126047762D01*
X158226562Y-125897875D01*
X158037404Y-125780754D01*
X157976174Y-125757033D01*
X157829940Y-125700382D01*
X157611243Y-125659500D01*
X157388757Y-125659500D01*
X157170060Y-125700382D01*
X156962595Y-125780754D01*
X156773437Y-125897875D01*
X156609019Y-126047762D01*
X156474941Y-126225311D01*
X156375769Y-126424473D01*
X156314885Y-126638462D01*
X156294357Y-126860000D01*
X156307217Y-126998793D01*
X156293802Y-127067362D01*
X156271427Y-127097914D01*
X149722290Y-133647051D01*
X149716838Y-133652183D01*
X149671816Y-133692070D01*
X149637649Y-133741568D01*
X149633213Y-133747597D01*
X149596121Y-133794942D01*
X149591961Y-133804186D01*
X149580941Y-133823725D01*
X149575182Y-133832069D01*
X149553853Y-133888305D01*
X149550989Y-133895219D01*
X149526303Y-133950070D01*
X149524475Y-133960047D01*
X149518454Y-133981648D01*
X149514859Y-133991128D01*
X149507609Y-134050827D01*
X149506483Y-134058226D01*
X149495641Y-134117390D01*
X149499274Y-134177433D01*
X149499500Y-134184920D01*
X149499500Y-145358481D01*
X149479815Y-145425520D01*
X149463181Y-145446162D01*
X148077363Y-146831979D01*
X148077355Y-146831987D01*
X148074710Y-146834633D01*
X148072405Y-146837575D01*
X148072398Y-146837583D01*
X147996121Y-146934944D01*
X147926305Y-147090067D01*
X147895642Y-147257393D01*
X137633263Y-147257393D01*
X137977731Y-146912924D01*
X137983150Y-146907823D01*
X138028183Y-146867929D01*
X138062351Y-146818426D01*
X138066763Y-146812428D01*
X138103878Y-146765057D01*
X138108034Y-146755820D01*
X138119062Y-146736267D01*
X138124818Y-146727930D01*
X138146153Y-146671671D01*
X138148997Y-146664803D01*
X138173694Y-146609932D01*
X138175519Y-146599970D01*
X138181545Y-146578348D01*
X138185140Y-146568872D01*
X138192389Y-146509165D01*
X138193516Y-146501762D01*
X138199716Y-146467929D01*
X138204357Y-146442606D01*
X138200726Y-146382577D01*
X138200500Y-146375090D01*
X138200500Y-127900634D01*
X138220185Y-127833595D01*
X138240962Y-127808997D01*
X138390980Y-127672237D01*
X138390981Y-127672236D01*
X138525058Y-127494689D01*
X138624229Y-127295528D01*
X138685115Y-127081536D01*
X138705643Y-126860000D01*
X140294357Y-126860000D01*
X140314885Y-127081537D01*
X140375769Y-127295526D01*
X140474941Y-127494688D01*
X140609019Y-127672237D01*
X140773437Y-127822124D01*
X140962595Y-127939245D01*
X140962597Y-127939245D01*
X140962599Y-127939247D01*
X141170060Y-128019618D01*
X141388757Y-128060500D01*
X141388759Y-128060500D01*
X141611241Y-128060500D01*
X141611243Y-128060500D01*
X141829940Y-128019618D01*
X142037401Y-127939247D01*
X142226562Y-127822124D01*
X142390981Y-127672236D01*
X142525058Y-127494689D01*
X142624229Y-127295528D01*
X142685115Y-127081536D01*
X142705643Y-126860000D01*
X142705643Y-126859999D01*
X144294357Y-126859999D01*
X144314885Y-127081537D01*
X144375769Y-127295526D01*
X144474941Y-127494688D01*
X144609019Y-127672237D01*
X144773437Y-127822124D01*
X144962595Y-127939245D01*
X144962597Y-127939245D01*
X144962599Y-127939247D01*
X145170060Y-128019618D01*
X145388757Y-128060500D01*
X145388759Y-128060500D01*
X145611241Y-128060500D01*
X145611243Y-128060500D01*
X145829940Y-128019618D01*
X146037401Y-127939247D01*
X146226562Y-127822124D01*
X146390981Y-127672236D01*
X146525058Y-127494689D01*
X146624229Y-127295528D01*
X146685115Y-127081536D01*
X146705643Y-126860000D01*
X148294357Y-126860000D01*
X148314885Y-127081537D01*
X148375769Y-127295526D01*
X148474941Y-127494688D01*
X148609019Y-127672237D01*
X148773437Y-127822124D01*
X148962595Y-127939245D01*
X148962597Y-127939245D01*
X148962599Y-127939247D01*
X149170060Y-128019618D01*
X149388757Y-128060500D01*
X149388759Y-128060500D01*
X149611241Y-128060500D01*
X149611243Y-128060500D01*
X149829940Y-128019618D01*
X150037401Y-127939247D01*
X150226562Y-127822124D01*
X150390981Y-127672236D01*
X150525058Y-127494689D01*
X150624229Y-127295528D01*
X150685115Y-127081536D01*
X150705643Y-126860000D01*
X150705643Y-126859999D01*
X152294357Y-126859999D01*
X152314885Y-127081537D01*
X152375769Y-127295526D01*
X152474941Y-127494688D01*
X152609019Y-127672237D01*
X152773437Y-127822124D01*
X152962595Y-127939245D01*
X152962597Y-127939245D01*
X152962599Y-127939247D01*
X153170060Y-128019618D01*
X153388757Y-128060500D01*
X153388759Y-128060500D01*
X153611241Y-128060500D01*
X153611243Y-128060500D01*
X153829940Y-128019618D01*
X154037401Y-127939247D01*
X154226562Y-127822124D01*
X154390981Y-127672236D01*
X154525058Y-127494689D01*
X154624229Y-127295528D01*
X154685115Y-127081536D01*
X154705643Y-126860000D01*
X154685115Y-126638464D01*
X154662227Y-126558021D01*
X154624230Y-126424473D01*
X154525058Y-126225311D01*
X154390980Y-126047762D01*
X154226562Y-125897875D01*
X154037404Y-125780754D01*
X153976174Y-125757033D01*
X153829940Y-125700382D01*
X153611243Y-125659500D01*
X153388757Y-125659500D01*
X153170059Y-125700382D01*
X153170060Y-125700382D01*
X152962595Y-125780754D01*
X152773437Y-125897875D01*
X152609019Y-126047762D01*
X152474941Y-126225311D01*
X152375769Y-126424473D01*
X152314885Y-126638462D01*
X152294357Y-126859999D01*
X150705643Y-126859999D01*
X150685115Y-126638464D01*
X150662227Y-126558021D01*
X150624230Y-126424473D01*
X150525058Y-126225311D01*
X150390980Y-126047762D01*
X150226562Y-125897875D01*
X150037404Y-125780754D01*
X149976174Y-125757033D01*
X149829940Y-125700382D01*
X149611243Y-125659500D01*
X149388757Y-125659500D01*
X149170060Y-125700382D01*
X148962595Y-125780754D01*
X148773437Y-125897875D01*
X148609019Y-126047762D01*
X148474941Y-126225311D01*
X148375769Y-126424473D01*
X148314885Y-126638462D01*
X148294357Y-126860000D01*
X146705643Y-126860000D01*
X146685115Y-126638464D01*
X146662227Y-126558021D01*
X146624230Y-126424473D01*
X146525058Y-126225311D01*
X146390980Y-126047762D01*
X146226562Y-125897875D01*
X146037404Y-125780754D01*
X145976174Y-125757033D01*
X145829940Y-125700382D01*
X145611243Y-125659500D01*
X145388757Y-125659500D01*
X145170059Y-125700382D01*
X145170060Y-125700382D01*
X144962595Y-125780754D01*
X144773437Y-125897875D01*
X144609019Y-126047762D01*
X144474941Y-126225311D01*
X144375769Y-126424473D01*
X144314885Y-126638462D01*
X144294357Y-126859999D01*
X142705643Y-126859999D01*
X142685115Y-126638464D01*
X142662227Y-126558021D01*
X142624230Y-126424473D01*
X142525058Y-126225311D01*
X142390980Y-126047762D01*
X142226562Y-125897875D01*
X142037404Y-125780754D01*
X141976174Y-125757033D01*
X141829940Y-125700382D01*
X141611243Y-125659500D01*
X141388757Y-125659500D01*
X141170060Y-125700382D01*
X140962595Y-125780754D01*
X140773437Y-125897875D01*
X140609019Y-126047762D01*
X140474941Y-126225311D01*
X140375769Y-126424473D01*
X140314885Y-126638462D01*
X140294357Y-126860000D01*
X138705643Y-126860000D01*
X138685115Y-126638464D01*
X138662227Y-126558021D01*
X138624230Y-126424473D01*
X138525058Y-126225311D01*
X138390980Y-126047762D01*
X138226562Y-125897875D01*
X138037404Y-125780754D01*
X137976174Y-125757033D01*
X137829940Y-125700382D01*
X137611243Y-125659500D01*
X137388757Y-125659500D01*
X137170059Y-125700382D01*
X137170060Y-125700382D01*
X136962595Y-125780754D01*
X136773437Y-125897875D01*
X136609019Y-126047762D01*
X136474941Y-126225311D01*
X136375769Y-126424473D01*
X136314885Y-126638462D01*
X136294357Y-126860000D01*
X136314885Y-127081537D01*
X136375769Y-127295526D01*
X136474941Y-127494688D01*
X136609019Y-127672237D01*
X136759038Y-127808997D01*
X136795320Y-127868708D01*
X136799500Y-127900634D01*
X136799500Y-146058480D01*
X136779815Y-146125519D01*
X136763181Y-146146161D01*
X136077363Y-146831979D01*
X136077355Y-146831987D01*
X136074710Y-146834633D01*
X136072405Y-146837575D01*
X136072398Y-146837583D01*
X135996121Y-146934944D01*
X135926305Y-147090067D01*
X135895642Y-147257393D01*
X132084676Y-147257393D01*
X132094086Y-147227196D01*
X132104358Y-147057394D01*
X132073695Y-146890069D01*
X132003878Y-146734944D01*
X131925290Y-146634633D01*
X130236819Y-144946162D01*
X130203334Y-144884839D01*
X130200500Y-144858481D01*
X130200500Y-127900634D01*
X130220185Y-127833595D01*
X130240962Y-127808997D01*
X130390980Y-127672237D01*
X130390981Y-127672236D01*
X130525058Y-127494689D01*
X130624229Y-127295528D01*
X130685115Y-127081536D01*
X130705643Y-126860000D01*
X132294357Y-126860000D01*
X132314885Y-127081537D01*
X132375769Y-127295526D01*
X132474941Y-127494688D01*
X132609019Y-127672237D01*
X132773437Y-127822124D01*
X132962595Y-127939245D01*
X132962597Y-127939245D01*
X132962599Y-127939247D01*
X133170060Y-128019618D01*
X133388757Y-128060500D01*
X133388759Y-128060500D01*
X133611241Y-128060500D01*
X133611243Y-128060500D01*
X133829940Y-128019618D01*
X134037401Y-127939247D01*
X134226562Y-127822124D01*
X134390981Y-127672236D01*
X134525058Y-127494689D01*
X134624229Y-127295528D01*
X134685115Y-127081536D01*
X134705643Y-126860000D01*
X134685115Y-126638464D01*
X134662227Y-126558021D01*
X134624230Y-126424473D01*
X134525058Y-126225311D01*
X134390980Y-126047762D01*
X134226562Y-125897875D01*
X134037404Y-125780754D01*
X133976174Y-125757033D01*
X133829940Y-125700382D01*
X133611243Y-125659500D01*
X133388757Y-125659500D01*
X133170060Y-125700382D01*
X132962595Y-125780754D01*
X132773437Y-125897875D01*
X132609019Y-126047762D01*
X132474941Y-126225311D01*
X132375769Y-126424473D01*
X132314885Y-126638462D01*
X132294357Y-126860000D01*
X130705643Y-126860000D01*
X130685115Y-126638464D01*
X130662227Y-126558021D01*
X130624230Y-126424473D01*
X130525058Y-126225311D01*
X130390980Y-126047762D01*
X130226562Y-125897875D01*
X130037404Y-125780754D01*
X129976174Y-125757033D01*
X129829940Y-125700382D01*
X129611243Y-125659500D01*
X129388757Y-125659500D01*
X129170059Y-125700382D01*
X129170060Y-125700382D01*
X128962595Y-125780754D01*
X128773437Y-125897875D01*
X128609019Y-126047762D01*
X128474941Y-126225311D01*
X128375769Y-126424473D01*
X128314885Y-126638462D01*
X128294357Y-126860000D01*
X126705643Y-126860000D01*
X126685115Y-126638464D01*
X126662227Y-126558021D01*
X126624230Y-126424473D01*
X126525058Y-126225311D01*
X126390980Y-126047762D01*
X126226562Y-125897875D01*
X126037404Y-125780754D01*
X125976174Y-125757033D01*
X125829940Y-125700382D01*
X125611243Y-125659500D01*
X125388757Y-125659500D01*
X125170060Y-125700382D01*
X124962595Y-125780754D01*
X124773437Y-125897875D01*
X124609019Y-126047762D01*
X124474941Y-126225311D01*
X124375769Y-126424473D01*
X124314885Y-126638462D01*
X124294357Y-126860000D01*
X122705643Y-126860000D01*
X122685115Y-126638464D01*
X122662227Y-126558021D01*
X122624230Y-126424473D01*
X122525058Y-126225311D01*
X122390980Y-126047762D01*
X122226562Y-125897875D01*
X122037404Y-125780754D01*
X121976174Y-125757033D01*
X121829940Y-125700382D01*
X121611243Y-125659500D01*
X121388757Y-125659500D01*
X121170059Y-125700382D01*
X121170060Y-125700382D01*
X120962595Y-125780754D01*
X120773437Y-125897875D01*
X120609019Y-126047762D01*
X120474941Y-126225311D01*
X120375769Y-126424473D01*
X120314885Y-126638462D01*
X120294357Y-126860000D01*
X118705643Y-126860000D01*
X118685115Y-126638464D01*
X118662227Y-126558021D01*
X118624230Y-126424473D01*
X118525058Y-126225311D01*
X118390980Y-126047762D01*
X118226562Y-125897875D01*
X118037404Y-125780754D01*
X117976174Y-125757033D01*
X117829940Y-125700382D01*
X117611243Y-125659500D01*
X117388757Y-125659500D01*
X117170060Y-125700382D01*
X116962595Y-125780754D01*
X116773437Y-125897875D01*
X116609019Y-126047762D01*
X116474941Y-126225311D01*
X116375769Y-126424473D01*
X116314885Y-126638462D01*
X116294357Y-126860000D01*
X114705643Y-126860000D01*
X114685115Y-126638464D01*
X114662227Y-126558021D01*
X114624230Y-126424473D01*
X114525058Y-126225311D01*
X114390980Y-126047762D01*
X114226562Y-125897875D01*
X114037404Y-125780754D01*
X113976174Y-125757033D01*
X113829940Y-125700382D01*
X113611243Y-125659500D01*
X113388757Y-125659500D01*
X113170059Y-125700382D01*
X113170060Y-125700382D01*
X112962595Y-125780754D01*
X112773437Y-125897875D01*
X112609019Y-126047762D01*
X112474941Y-126225311D01*
X112375769Y-126424473D01*
X112314885Y-126638462D01*
X112294357Y-126860000D01*
X110705643Y-126860000D01*
X110685115Y-126638464D01*
X110662227Y-126558021D01*
X110624230Y-126424473D01*
X110525058Y-126225311D01*
X110390980Y-126047762D01*
X110226562Y-125897875D01*
X110037404Y-125780754D01*
X109976174Y-125757033D01*
X109829940Y-125700382D01*
X109611243Y-125659500D01*
X109388757Y-125659500D01*
X109170060Y-125700382D01*
X108962595Y-125780754D01*
X108773437Y-125897875D01*
X108609019Y-126047762D01*
X108474941Y-126225311D01*
X108375769Y-126424473D01*
X108314885Y-126638462D01*
X108294357Y-126860000D01*
X106705643Y-126860000D01*
X106685115Y-126638464D01*
X106662227Y-126558021D01*
X106624230Y-126424473D01*
X106525058Y-126225311D01*
X106390980Y-126047762D01*
X106226562Y-125897875D01*
X106037404Y-125780754D01*
X105976174Y-125757033D01*
X105829940Y-125700382D01*
X105611243Y-125659500D01*
X105388757Y-125659500D01*
X105170059Y-125700382D01*
X105170060Y-125700382D01*
X104962595Y-125780754D01*
X104773437Y-125897875D01*
X104609019Y-126047762D01*
X104474941Y-126225311D01*
X104375769Y-126424473D01*
X104314885Y-126638462D01*
X104294357Y-126860000D01*
X102705643Y-126860000D01*
X102685115Y-126638464D01*
X102662227Y-126558021D01*
X102624230Y-126424473D01*
X102525058Y-126225311D01*
X102390980Y-126047762D01*
X102226562Y-125897875D01*
X102037404Y-125780754D01*
X101976174Y-125757033D01*
X101829940Y-125700382D01*
X101611243Y-125659500D01*
X101388757Y-125659500D01*
X101170060Y-125700382D01*
X100962595Y-125780754D01*
X100773437Y-125897875D01*
X100609019Y-126047762D01*
X100474941Y-126225311D01*
X100375769Y-126424473D01*
X100314885Y-126638462D01*
X100294357Y-126860000D01*
X98705643Y-126860000D01*
X98685115Y-126638464D01*
X98662227Y-126558021D01*
X98624230Y-126424473D01*
X98525058Y-126225311D01*
X98390980Y-126047762D01*
X98226562Y-125897875D01*
X98037404Y-125780754D01*
X97976174Y-125757033D01*
X97829940Y-125700382D01*
X97611243Y-125659500D01*
X97388757Y-125659500D01*
X97170059Y-125700382D01*
X97170060Y-125700382D01*
X96962595Y-125780754D01*
X96773437Y-125897875D01*
X96609019Y-126047762D01*
X96474941Y-126225311D01*
X96375769Y-126424473D01*
X96314885Y-126638462D01*
X96294357Y-126860000D01*
X94705643Y-126860000D01*
X94685115Y-126638464D01*
X94662227Y-126558021D01*
X94624230Y-126424473D01*
X94525058Y-126225311D01*
X94390980Y-126047762D01*
X94226562Y-125897875D01*
X94037404Y-125780754D01*
X93976174Y-125757033D01*
X93829940Y-125700382D01*
X93611243Y-125659500D01*
X93388757Y-125659500D01*
X93170060Y-125700382D01*
X92962595Y-125780754D01*
X92773437Y-125897875D01*
X92609019Y-126047762D01*
X92474941Y-126225311D01*
X92375769Y-126424473D01*
X92314885Y-126638462D01*
X92294357Y-126860000D01*
X90705643Y-126860000D01*
X90685115Y-126638464D01*
X90662227Y-126558021D01*
X90624230Y-126424473D01*
X90525058Y-126225311D01*
X90390980Y-126047762D01*
X90226562Y-125897875D01*
X90037404Y-125780754D01*
X89976174Y-125757033D01*
X89829940Y-125700382D01*
X89611243Y-125659500D01*
X89388757Y-125659500D01*
X89170059Y-125700382D01*
X89170060Y-125700382D01*
X88962595Y-125780754D01*
X88773437Y-125897875D01*
X88609019Y-126047762D01*
X88474941Y-126225311D01*
X88375769Y-126424473D01*
X88314885Y-126638462D01*
X88294357Y-126860000D01*
X84400500Y-126860000D01*
X84400500Y-116700000D01*
X88294357Y-116700000D01*
X88314885Y-116921537D01*
X88375769Y-117135526D01*
X88474941Y-117334688D01*
X88609019Y-117512237D01*
X88773437Y-117662124D01*
X88962595Y-117779245D01*
X88962597Y-117779245D01*
X88962599Y-117779247D01*
X89170060Y-117859618D01*
X89388757Y-117900500D01*
X89388759Y-117900500D01*
X89611241Y-117900500D01*
X89611243Y-117900500D01*
X89829940Y-117859618D01*
X90037401Y-117779247D01*
X90226562Y-117662124D01*
X90390981Y-117512236D01*
X90525058Y-117334689D01*
X90624229Y-117135528D01*
X90685115Y-116921536D01*
X90705643Y-116700000D01*
X92294357Y-116700000D01*
X92314885Y-116921537D01*
X92375769Y-117135526D01*
X92474941Y-117334688D01*
X92609019Y-117512237D01*
X92773437Y-117662124D01*
X92962595Y-117779245D01*
X92962597Y-117779245D01*
X92962599Y-117779247D01*
X93170060Y-117859618D01*
X93388757Y-117900500D01*
X93388759Y-117900500D01*
X93611241Y-117900500D01*
X93611243Y-117900500D01*
X93829940Y-117859618D01*
X94037401Y-117779247D01*
X94226562Y-117662124D01*
X94390981Y-117512236D01*
X94525058Y-117334689D01*
X94624229Y-117135528D01*
X94685115Y-116921536D01*
X94705643Y-116700000D01*
X96294357Y-116700000D01*
X96314885Y-116921537D01*
X96375769Y-117135526D01*
X96474941Y-117334688D01*
X96609019Y-117512237D01*
X96773437Y-117662124D01*
X96962595Y-117779245D01*
X96962597Y-117779245D01*
X96962599Y-117779247D01*
X97170060Y-117859618D01*
X97388757Y-117900500D01*
X97388759Y-117900500D01*
X97611241Y-117900500D01*
X97611243Y-117900500D01*
X97829940Y-117859618D01*
X98037401Y-117779247D01*
X98226562Y-117662124D01*
X98390981Y-117512236D01*
X98525058Y-117334689D01*
X98624229Y-117135528D01*
X98685115Y-116921536D01*
X98705643Y-116700000D01*
X100294357Y-116700000D01*
X100314885Y-116921537D01*
X100375769Y-117135526D01*
X100474941Y-117334688D01*
X100609019Y-117512237D01*
X100773437Y-117662124D01*
X100962595Y-117779245D01*
X100962597Y-117779245D01*
X100962599Y-117779247D01*
X101170060Y-117859618D01*
X101388757Y-117900500D01*
X101388759Y-117900500D01*
X101611241Y-117900500D01*
X101611243Y-117900500D01*
X101829940Y-117859618D01*
X102037401Y-117779247D01*
X102226562Y-117662124D01*
X102390981Y-117512236D01*
X102525058Y-117334689D01*
X102624229Y-117135528D01*
X102685115Y-116921536D01*
X102705643Y-116700000D01*
X104294357Y-116700000D01*
X104314885Y-116921537D01*
X104375769Y-117135526D01*
X104474941Y-117334688D01*
X104609019Y-117512237D01*
X104773437Y-117662124D01*
X104962595Y-117779245D01*
X104962597Y-117779245D01*
X104962599Y-117779247D01*
X105170060Y-117859618D01*
X105388757Y-117900500D01*
X105388759Y-117900500D01*
X105611241Y-117900500D01*
X105611243Y-117900500D01*
X105829940Y-117859618D01*
X106037401Y-117779247D01*
X106226562Y-117662124D01*
X106390981Y-117512236D01*
X106525058Y-117334689D01*
X106624229Y-117135528D01*
X106685115Y-116921536D01*
X106705643Y-116700000D01*
X108294357Y-116700000D01*
X108314885Y-116921537D01*
X108375769Y-117135526D01*
X108474941Y-117334688D01*
X108609019Y-117512237D01*
X108773437Y-117662124D01*
X108962595Y-117779245D01*
X108962597Y-117779245D01*
X108962599Y-117779247D01*
X109170060Y-117859618D01*
X109388757Y-117900500D01*
X109388759Y-117900500D01*
X109611241Y-117900500D01*
X109611243Y-117900500D01*
X109829940Y-117859618D01*
X110037401Y-117779247D01*
X110226562Y-117662124D01*
X110390981Y-117512236D01*
X110525058Y-117334689D01*
X110624229Y-117135528D01*
X110685115Y-116921536D01*
X110705643Y-116700000D01*
X112294357Y-116700000D01*
X112314885Y-116921537D01*
X112375769Y-117135526D01*
X112474941Y-117334688D01*
X112609019Y-117512237D01*
X112773437Y-117662124D01*
X112962595Y-117779245D01*
X112962597Y-117779245D01*
X112962599Y-117779247D01*
X113170060Y-117859618D01*
X113388757Y-117900500D01*
X113388759Y-117900500D01*
X113611241Y-117900500D01*
X113611243Y-117900500D01*
X113829940Y-117859618D01*
X114037401Y-117779247D01*
X114226562Y-117662124D01*
X114390981Y-117512236D01*
X114525058Y-117334689D01*
X114624229Y-117135528D01*
X114685115Y-116921536D01*
X114705643Y-116700000D01*
X116294357Y-116700000D01*
X116314885Y-116921537D01*
X116375769Y-117135526D01*
X116474941Y-117334688D01*
X116609019Y-117512237D01*
X116773437Y-117662124D01*
X116962595Y-117779245D01*
X116962597Y-117779245D01*
X116962599Y-117779247D01*
X117170060Y-117859618D01*
X117388757Y-117900500D01*
X117388759Y-117900500D01*
X117611241Y-117900500D01*
X117611243Y-117900500D01*
X117829940Y-117859618D01*
X118037401Y-117779247D01*
X118226562Y-117662124D01*
X118390981Y-117512236D01*
X118525058Y-117334689D01*
X118624229Y-117135528D01*
X118685115Y-116921536D01*
X118705643Y-116700000D01*
X120294357Y-116700000D01*
X120314885Y-116921537D01*
X120375769Y-117135526D01*
X120474941Y-117334688D01*
X120609019Y-117512237D01*
X120773437Y-117662124D01*
X120962595Y-117779245D01*
X120962597Y-117779245D01*
X120962599Y-117779247D01*
X121170060Y-117859618D01*
X121388757Y-117900500D01*
X121388759Y-117900500D01*
X121611241Y-117900500D01*
X121611243Y-117900500D01*
X121829940Y-117859618D01*
X122037401Y-117779247D01*
X122226562Y-117662124D01*
X122390981Y-117512236D01*
X122525058Y-117334689D01*
X122624229Y-117135528D01*
X122685115Y-116921536D01*
X122705643Y-116700000D01*
X124294357Y-116700000D01*
X124314885Y-116921537D01*
X124375769Y-117135526D01*
X124474941Y-117334688D01*
X124609019Y-117512237D01*
X124773437Y-117662124D01*
X124962595Y-117779245D01*
X124962597Y-117779245D01*
X124962599Y-117779247D01*
X125170060Y-117859618D01*
X125388757Y-117900500D01*
X125388759Y-117900500D01*
X125611241Y-117900500D01*
X125611243Y-117900500D01*
X125829940Y-117859618D01*
X126037401Y-117779247D01*
X126226562Y-117662124D01*
X126390981Y-117512236D01*
X126525058Y-117334689D01*
X126624229Y-117135528D01*
X126685115Y-116921536D01*
X126705643Y-116700000D01*
X128294357Y-116700000D01*
X128314885Y-116921537D01*
X128375769Y-117135526D01*
X128474941Y-117334688D01*
X128609019Y-117512237D01*
X128773437Y-117662124D01*
X128962595Y-117779245D01*
X128962597Y-117779245D01*
X128962599Y-117779247D01*
X129170060Y-117859618D01*
X129388757Y-117900500D01*
X129388759Y-117900500D01*
X129611241Y-117900500D01*
X129611243Y-117900500D01*
X129829940Y-117859618D01*
X130037401Y-117779247D01*
X130226562Y-117662124D01*
X130390981Y-117512236D01*
X130525058Y-117334689D01*
X130624229Y-117135528D01*
X130685115Y-116921536D01*
X130705643Y-116700000D01*
X132294357Y-116700000D01*
X132314885Y-116921537D01*
X132375769Y-117135526D01*
X132474941Y-117334688D01*
X132609019Y-117512237D01*
X132773437Y-117662124D01*
X132962595Y-117779245D01*
X132962597Y-117779245D01*
X132962599Y-117779247D01*
X133170060Y-117859618D01*
X133388757Y-117900500D01*
X133388759Y-117900500D01*
X133611241Y-117900500D01*
X133611243Y-117900500D01*
X133829940Y-117859618D01*
X134037401Y-117779247D01*
X134226562Y-117662124D01*
X134390981Y-117512236D01*
X134525058Y-117334689D01*
X134624229Y-117135528D01*
X134685115Y-116921536D01*
X134705643Y-116700000D01*
X136294357Y-116700000D01*
X136314885Y-116921537D01*
X136375769Y-117135526D01*
X136474941Y-117334688D01*
X136609019Y-117512237D01*
X136773437Y-117662124D01*
X136962595Y-117779245D01*
X136962597Y-117779245D01*
X136962599Y-117779247D01*
X137170060Y-117859618D01*
X137388757Y-117900500D01*
X137388759Y-117900500D01*
X137611241Y-117900500D01*
X137611243Y-117900500D01*
X137829940Y-117859618D01*
X138037401Y-117779247D01*
X138226562Y-117662124D01*
X138390981Y-117512236D01*
X138525058Y-117334689D01*
X138624229Y-117135528D01*
X138685115Y-116921536D01*
X138705643Y-116700000D01*
X140294357Y-116700000D01*
X140314885Y-116921537D01*
X140375769Y-117135526D01*
X140474941Y-117334688D01*
X140609019Y-117512237D01*
X140773437Y-117662124D01*
X140962595Y-117779245D01*
X140962597Y-117779245D01*
X140962599Y-117779247D01*
X141170060Y-117859618D01*
X141388757Y-117900500D01*
X141388759Y-117900500D01*
X141611241Y-117900500D01*
X141611243Y-117900500D01*
X141829940Y-117859618D01*
X142037401Y-117779247D01*
X142226562Y-117662124D01*
X142390981Y-117512236D01*
X142525058Y-117334689D01*
X142624229Y-117135528D01*
X142685115Y-116921536D01*
X142705643Y-116700000D01*
X142705643Y-116699999D01*
X144294357Y-116699999D01*
X144314885Y-116921537D01*
X144375769Y-117135526D01*
X144474941Y-117334688D01*
X144609019Y-117512237D01*
X144773437Y-117662124D01*
X144962595Y-117779245D01*
X144962597Y-117779245D01*
X144962599Y-117779247D01*
X145170060Y-117859618D01*
X145388757Y-117900500D01*
X145388759Y-117900500D01*
X145611241Y-117900500D01*
X145611243Y-117900500D01*
X145829940Y-117859618D01*
X146037401Y-117779247D01*
X146226562Y-117662124D01*
X146390981Y-117512236D01*
X146525058Y-117334689D01*
X146624229Y-117135528D01*
X146685115Y-116921536D01*
X146705643Y-116700000D01*
X148294357Y-116700000D01*
X148314885Y-116921537D01*
X148375769Y-117135526D01*
X148474941Y-117334688D01*
X148609019Y-117512237D01*
X148773437Y-117662124D01*
X148962595Y-117779245D01*
X148962597Y-117779245D01*
X148962599Y-117779247D01*
X149170060Y-117859618D01*
X149388757Y-117900500D01*
X149388759Y-117900500D01*
X149611241Y-117900500D01*
X149611243Y-117900500D01*
X149829940Y-117859618D01*
X150037401Y-117779247D01*
X150226562Y-117662124D01*
X150390981Y-117512236D01*
X150525058Y-117334689D01*
X150624229Y-117135528D01*
X150685115Y-116921536D01*
X150705643Y-116700000D01*
X150705643Y-116699999D01*
X152294357Y-116699999D01*
X152314885Y-116921537D01*
X152375769Y-117135526D01*
X152474941Y-117334688D01*
X152609019Y-117512237D01*
X152773437Y-117662124D01*
X152962595Y-117779245D01*
X152962597Y-117779245D01*
X152962599Y-117779247D01*
X153170060Y-117859618D01*
X153388757Y-117900500D01*
X153388759Y-117900500D01*
X153611241Y-117900500D01*
X153611243Y-117900500D01*
X153829940Y-117859618D01*
X154037401Y-117779247D01*
X154226562Y-117662124D01*
X154390981Y-117512236D01*
X154525058Y-117334689D01*
X154624229Y-117135528D01*
X154685115Y-116921536D01*
X154705643Y-116700000D01*
X156294357Y-116700000D01*
X156314885Y-116921537D01*
X156375769Y-117135526D01*
X156474941Y-117334688D01*
X156609019Y-117512237D01*
X156773437Y-117662124D01*
X156962595Y-117779245D01*
X156962597Y-117779245D01*
X156962599Y-117779247D01*
X157170060Y-117859618D01*
X157388757Y-117900500D01*
X157388759Y-117900500D01*
X157611241Y-117900500D01*
X157611243Y-117900500D01*
X157829940Y-117859618D01*
X158037401Y-117779247D01*
X158226562Y-117662124D01*
X158390981Y-117512236D01*
X158525058Y-117334689D01*
X158624229Y-117135528D01*
X158685115Y-116921536D01*
X158705643Y-116700000D01*
X158705643Y-116699999D01*
X160294357Y-116699999D01*
X160314885Y-116921537D01*
X160375769Y-117135526D01*
X160474941Y-117334688D01*
X160609019Y-117512237D01*
X160773437Y-117662124D01*
X160962595Y-117779245D01*
X160962597Y-117779245D01*
X160962599Y-117779247D01*
X161170060Y-117859618D01*
X161388757Y-117900500D01*
X161388759Y-117900500D01*
X161611241Y-117900500D01*
X161611243Y-117900500D01*
X161829940Y-117859618D01*
X162037401Y-117779247D01*
X162226562Y-117662124D01*
X162390981Y-117512236D01*
X162525058Y-117334689D01*
X162624229Y-117135528D01*
X162685115Y-116921536D01*
X162705643Y-116700000D01*
X164294357Y-116700000D01*
X164314885Y-116921537D01*
X164375769Y-117135526D01*
X164474941Y-117334688D01*
X164609019Y-117512237D01*
X164773437Y-117662124D01*
X164962595Y-117779245D01*
X164962597Y-117779245D01*
X164962599Y-117779247D01*
X165170060Y-117859618D01*
X165388757Y-117900500D01*
X165388759Y-117900500D01*
X165611241Y-117900500D01*
X165611243Y-117900500D01*
X165829940Y-117859618D01*
X166037401Y-117779247D01*
X166226562Y-117662124D01*
X166390981Y-117512236D01*
X166525058Y-117334689D01*
X166624229Y-117135528D01*
X166685115Y-116921536D01*
X166705643Y-116700000D01*
X166685115Y-116478464D01*
X166662227Y-116398021D01*
X166624230Y-116264473D01*
X166525058Y-116065311D01*
X166390980Y-115887762D01*
X166226562Y-115737875D01*
X166037404Y-115620754D01*
X165976174Y-115597033D01*
X165829940Y-115540382D01*
X165611243Y-115499500D01*
X165388757Y-115499500D01*
X165170059Y-115540382D01*
X165170060Y-115540382D01*
X164962595Y-115620754D01*
X164773437Y-115737875D01*
X164609019Y-115887762D01*
X164474941Y-116065311D01*
X164375769Y-116264473D01*
X164314885Y-116478462D01*
X164294357Y-116700000D01*
X162705643Y-116700000D01*
X162685115Y-116478464D01*
X162662227Y-116398021D01*
X162624230Y-116264473D01*
X162525058Y-116065311D01*
X162390980Y-115887762D01*
X162226562Y-115737875D01*
X162037404Y-115620754D01*
X161976174Y-115597033D01*
X161829940Y-115540382D01*
X161611243Y-115499500D01*
X161388757Y-115499500D01*
X161170060Y-115540382D01*
X160962595Y-115620754D01*
X160773437Y-115737875D01*
X160609019Y-115887762D01*
X160474941Y-116065311D01*
X160375769Y-116264473D01*
X160314885Y-116478462D01*
X160294357Y-116699999D01*
X158705643Y-116699999D01*
X158685115Y-116478464D01*
X158662227Y-116398021D01*
X158624230Y-116264473D01*
X158525058Y-116065311D01*
X158390980Y-115887762D01*
X158226562Y-115737875D01*
X158037404Y-115620754D01*
X157976174Y-115597033D01*
X157829940Y-115540382D01*
X157611243Y-115499500D01*
X157388757Y-115499500D01*
X157170059Y-115540382D01*
X157170060Y-115540382D01*
X156962595Y-115620754D01*
X156773437Y-115737875D01*
X156609019Y-115887762D01*
X156474941Y-116065311D01*
X156375769Y-116264473D01*
X156314885Y-116478462D01*
X156294357Y-116700000D01*
X154705643Y-116700000D01*
X154685115Y-116478464D01*
X154662227Y-116398021D01*
X154624230Y-116264473D01*
X154525058Y-116065311D01*
X154390980Y-115887762D01*
X154226562Y-115737875D01*
X154037404Y-115620754D01*
X153976174Y-115597033D01*
X153829940Y-115540382D01*
X153611243Y-115499500D01*
X153388757Y-115499500D01*
X153170060Y-115540382D01*
X152962595Y-115620754D01*
X152773437Y-115737875D01*
X152609019Y-115887762D01*
X152474941Y-116065311D01*
X152375769Y-116264473D01*
X152314885Y-116478462D01*
X152294357Y-116699999D01*
X150705643Y-116699999D01*
X150685115Y-116478464D01*
X150662227Y-116398021D01*
X150624230Y-116264473D01*
X150525058Y-116065311D01*
X150390980Y-115887762D01*
X150226562Y-115737875D01*
X150037404Y-115620754D01*
X149976174Y-115597033D01*
X149829940Y-115540382D01*
X149611243Y-115499500D01*
X149388757Y-115499500D01*
X149170059Y-115540382D01*
X149170060Y-115540382D01*
X148962595Y-115620754D01*
X148773437Y-115737875D01*
X148609019Y-115887762D01*
X148474941Y-116065311D01*
X148375769Y-116264473D01*
X148314885Y-116478462D01*
X148294357Y-116700000D01*
X146705643Y-116700000D01*
X146685115Y-116478464D01*
X146662227Y-116398021D01*
X146624230Y-116264473D01*
X146525058Y-116065311D01*
X146390980Y-115887762D01*
X146226562Y-115737875D01*
X146037404Y-115620754D01*
X145976174Y-115597033D01*
X145829940Y-115540382D01*
X145611243Y-115499500D01*
X145388757Y-115499500D01*
X145170060Y-115540382D01*
X144962595Y-115620754D01*
X144773437Y-115737875D01*
X144609019Y-115887762D01*
X144474941Y-116065311D01*
X144375769Y-116264473D01*
X144314885Y-116478462D01*
X144294357Y-116699999D01*
X142705643Y-116699999D01*
X142685115Y-116478464D01*
X142662227Y-116398021D01*
X142624230Y-116264473D01*
X142525058Y-116065311D01*
X142390980Y-115887762D01*
X142226562Y-115737875D01*
X142037404Y-115620754D01*
X141976174Y-115597033D01*
X141829940Y-115540382D01*
X141611243Y-115499500D01*
X141388757Y-115499500D01*
X141170059Y-115540382D01*
X141170060Y-115540382D01*
X140962595Y-115620754D01*
X140773437Y-115737875D01*
X140609019Y-115887762D01*
X140474941Y-116065311D01*
X140375769Y-116264473D01*
X140314885Y-116478462D01*
X140294357Y-116700000D01*
X138705643Y-116700000D01*
X138685115Y-116478464D01*
X138662227Y-116398021D01*
X138624230Y-116264473D01*
X138525058Y-116065311D01*
X138390980Y-115887762D01*
X138226562Y-115737875D01*
X138037404Y-115620754D01*
X137976174Y-115597033D01*
X137829940Y-115540382D01*
X137611243Y-115499500D01*
X137388757Y-115499500D01*
X137170060Y-115540382D01*
X136962595Y-115620754D01*
X136773437Y-115737875D01*
X136609019Y-115887762D01*
X136474941Y-116065311D01*
X136375769Y-116264473D01*
X136314885Y-116478462D01*
X136294357Y-116700000D01*
X134705643Y-116700000D01*
X134685115Y-116478464D01*
X134662227Y-116398021D01*
X134624230Y-116264473D01*
X134525058Y-116065311D01*
X134390980Y-115887762D01*
X134226562Y-115737875D01*
X134037404Y-115620754D01*
X133976174Y-115597033D01*
X133829940Y-115540382D01*
X133611243Y-115499500D01*
X133388757Y-115499500D01*
X133170059Y-115540382D01*
X133170060Y-115540382D01*
X132962595Y-115620754D01*
X132773437Y-115737875D01*
X132609019Y-115887762D01*
X132474941Y-116065311D01*
X132375769Y-116264473D01*
X132314885Y-116478462D01*
X132294357Y-116700000D01*
X130705643Y-116700000D01*
X130685115Y-116478464D01*
X130662227Y-116398021D01*
X130624230Y-116264473D01*
X130525058Y-116065311D01*
X130390980Y-115887762D01*
X130226562Y-115737875D01*
X130037404Y-115620754D01*
X129976174Y-115597033D01*
X129829940Y-115540382D01*
X129611243Y-115499500D01*
X129388757Y-115499500D01*
X129170060Y-115540382D01*
X128962595Y-115620754D01*
X128773437Y-115737875D01*
X128609019Y-115887762D01*
X128474941Y-116065311D01*
X128375769Y-116264473D01*
X128314885Y-116478462D01*
X128294357Y-116700000D01*
X126705643Y-116700000D01*
X126685115Y-116478464D01*
X126662227Y-116398021D01*
X126624230Y-116264473D01*
X126525058Y-116065311D01*
X126390980Y-115887762D01*
X126226562Y-115737875D01*
X126037404Y-115620754D01*
X125976174Y-115597033D01*
X125829940Y-115540382D01*
X125611243Y-115499500D01*
X125388757Y-115499500D01*
X125170059Y-115540382D01*
X125170060Y-115540382D01*
X124962595Y-115620754D01*
X124773437Y-115737875D01*
X124609019Y-115887762D01*
X124474941Y-116065311D01*
X124375769Y-116264473D01*
X124314885Y-116478462D01*
X124294357Y-116700000D01*
X122705643Y-116700000D01*
X122685115Y-116478464D01*
X122662227Y-116398021D01*
X122624230Y-116264473D01*
X122525058Y-116065311D01*
X122390980Y-115887762D01*
X122226562Y-115737875D01*
X122037404Y-115620754D01*
X121976174Y-115597033D01*
X121829940Y-115540382D01*
X121611243Y-115499500D01*
X121388757Y-115499500D01*
X121170060Y-115540382D01*
X120962595Y-115620754D01*
X120773437Y-115737875D01*
X120609019Y-115887762D01*
X120474941Y-116065311D01*
X120375769Y-116264473D01*
X120314885Y-116478462D01*
X120294357Y-116700000D01*
X118705643Y-116700000D01*
X118685115Y-116478464D01*
X118662227Y-116398021D01*
X118624230Y-116264473D01*
X118525058Y-116065311D01*
X118390980Y-115887762D01*
X118226562Y-115737875D01*
X118037404Y-115620754D01*
X117976174Y-115597033D01*
X117829940Y-115540382D01*
X117611243Y-115499500D01*
X117388757Y-115499500D01*
X117170059Y-115540382D01*
X117170060Y-115540382D01*
X116962595Y-115620754D01*
X116773437Y-115737875D01*
X116609019Y-115887762D01*
X116474941Y-116065311D01*
X116375769Y-116264473D01*
X116314885Y-116478462D01*
X116294357Y-116700000D01*
X114705643Y-116700000D01*
X114685115Y-116478464D01*
X114662227Y-116398021D01*
X114624230Y-116264473D01*
X114525058Y-116065311D01*
X114390980Y-115887762D01*
X114226562Y-115737875D01*
X114037404Y-115620754D01*
X113976174Y-115597033D01*
X113829940Y-115540382D01*
X113611243Y-115499500D01*
X113388757Y-115499500D01*
X113170060Y-115540382D01*
X112962595Y-115620754D01*
X112773437Y-115737875D01*
X112609019Y-115887762D01*
X112474941Y-116065311D01*
X112375769Y-116264473D01*
X112314885Y-116478462D01*
X112294357Y-116700000D01*
X110705643Y-116700000D01*
X110685115Y-116478464D01*
X110662227Y-116398021D01*
X110624230Y-116264473D01*
X110525058Y-116065311D01*
X110390980Y-115887762D01*
X110226562Y-115737875D01*
X110037404Y-115620754D01*
X109976174Y-115597033D01*
X109829940Y-115540382D01*
X109611243Y-115499500D01*
X109388757Y-115499500D01*
X109170059Y-115540382D01*
X109170060Y-115540382D01*
X108962595Y-115620754D01*
X108773437Y-115737875D01*
X108609019Y-115887762D01*
X108474941Y-116065311D01*
X108375769Y-116264473D01*
X108314885Y-116478462D01*
X108294357Y-116700000D01*
X106705643Y-116700000D01*
X106685115Y-116478464D01*
X106662227Y-116398021D01*
X106624230Y-116264473D01*
X106525058Y-116065311D01*
X106390980Y-115887762D01*
X106226562Y-115737875D01*
X106037404Y-115620754D01*
X105976174Y-115597033D01*
X105829940Y-115540382D01*
X105611243Y-115499500D01*
X105388757Y-115499500D01*
X105170060Y-115540382D01*
X104962595Y-115620754D01*
X104773437Y-115737875D01*
X104609019Y-115887762D01*
X104474941Y-116065311D01*
X104375769Y-116264473D01*
X104314885Y-116478462D01*
X104294357Y-116700000D01*
X102705643Y-116700000D01*
X102685115Y-116478464D01*
X102662227Y-116398021D01*
X102624230Y-116264473D01*
X102525058Y-116065311D01*
X102390980Y-115887762D01*
X102226562Y-115737875D01*
X102037404Y-115620754D01*
X101976174Y-115597033D01*
X101829940Y-115540382D01*
X101611243Y-115499500D01*
X101388757Y-115499500D01*
X101170059Y-115540382D01*
X101170060Y-115540382D01*
X100962595Y-115620754D01*
X100773437Y-115737875D01*
X100609019Y-115887762D01*
X100474941Y-116065311D01*
X100375769Y-116264473D01*
X100314885Y-116478462D01*
X100294357Y-116700000D01*
X98705643Y-116700000D01*
X98685115Y-116478464D01*
X98662227Y-116398021D01*
X98624230Y-116264473D01*
X98525058Y-116065311D01*
X98390980Y-115887762D01*
X98226562Y-115737875D01*
X98037404Y-115620754D01*
X97976174Y-115597033D01*
X97829940Y-115540382D01*
X97611243Y-115499500D01*
X97388757Y-115499500D01*
X97170060Y-115540382D01*
X96962595Y-115620754D01*
X96773437Y-115737875D01*
X96609019Y-115887762D01*
X96474941Y-116065311D01*
X96375769Y-116264473D01*
X96314885Y-116478462D01*
X96294357Y-116700000D01*
X94705643Y-116700000D01*
X94685115Y-116478464D01*
X94662227Y-116398021D01*
X94624230Y-116264473D01*
X94525058Y-116065311D01*
X94390980Y-115887762D01*
X94226562Y-115737875D01*
X94037404Y-115620754D01*
X93976174Y-115597033D01*
X93829940Y-115540382D01*
X93611243Y-115499500D01*
X93388757Y-115499500D01*
X93170059Y-115540382D01*
X93170060Y-115540382D01*
X92962595Y-115620754D01*
X92773437Y-115737875D01*
X92609019Y-115887762D01*
X92474941Y-116065311D01*
X92375769Y-116264473D01*
X92314885Y-116478462D01*
X92294357Y-116700000D01*
X90705643Y-116700000D01*
X90685115Y-116478464D01*
X90662227Y-116398021D01*
X90624230Y-116264473D01*
X90525058Y-116065311D01*
X90390980Y-115887762D01*
X90226562Y-115737875D01*
X90037404Y-115620754D01*
X89976174Y-115597033D01*
X89829940Y-115540382D01*
X89611243Y-115499500D01*
X89388757Y-115499500D01*
X89170060Y-115540382D01*
X88962595Y-115620754D01*
X88773437Y-115737875D01*
X88609019Y-115887762D01*
X88474941Y-116065311D01*
X88375769Y-116264473D01*
X88314885Y-116478462D01*
X88294357Y-116700000D01*
X84400500Y-116700000D01*
X84400500Y-111499999D01*
X125494858Y-111499999D01*
X125515386Y-111747732D01*
X125576413Y-111988721D01*
X125676268Y-112216370D01*
X125776563Y-112369882D01*
X125776564Y-112369882D01*
X126516922Y-111629523D01*
X126540507Y-111709844D01*
X126618239Y-111830798D01*
X126726900Y-111924952D01*
X126857685Y-111984680D01*
X126867466Y-111986086D01*
X126129942Y-112723609D01*
X126129942Y-112723610D01*
X126176766Y-112760055D01*
X126395393Y-112878368D01*
X126630506Y-112959083D01*
X126875707Y-113000000D01*
X127124293Y-113000000D01*
X127369493Y-112959083D01*
X127604606Y-112878368D01*
X127823233Y-112760053D01*
X127870056Y-112723609D01*
X127132533Y-111986086D01*
X127142315Y-111984680D01*
X127273100Y-111924952D01*
X127381761Y-111830798D01*
X127459493Y-111709844D01*
X127483076Y-111629524D01*
X128223434Y-112369882D01*
X128323730Y-112216369D01*
X128330910Y-112200000D01*
X141794357Y-112200000D01*
X141814885Y-112421537D01*
X141875769Y-112635526D01*
X141974941Y-112834688D01*
X142109019Y-113012237D01*
X142273437Y-113162124D01*
X142462595Y-113279245D01*
X142462597Y-113279245D01*
X142462599Y-113279247D01*
X142670060Y-113359618D01*
X142888757Y-113400500D01*
X142888759Y-113400500D01*
X143111241Y-113400500D01*
X143111243Y-113400500D01*
X143329940Y-113359618D01*
X143537401Y-113279247D01*
X143726562Y-113162124D01*
X143890981Y-113012236D01*
X144025058Y-112834689D01*
X144124229Y-112635528D01*
X144185115Y-112421536D01*
X144205643Y-112200000D01*
X144196377Y-112099999D01*
X147174659Y-112099999D01*
X147193976Y-112296133D01*
X147251185Y-112484726D01*
X147251186Y-112484727D01*
X147344090Y-112658538D01*
X147469117Y-112810883D01*
X147621462Y-112935910D01*
X147795273Y-113028814D01*
X147983868Y-113086024D01*
X148180000Y-113105341D01*
X148376132Y-113086024D01*
X148564727Y-113028814D01*
X148738538Y-112935910D01*
X148890883Y-112810883D01*
X149015910Y-112658538D01*
X149108814Y-112484727D01*
X149166024Y-112296132D01*
X149185341Y-112100000D01*
X149185341Y-112099999D01*
X149714659Y-112099999D01*
X149733976Y-112296133D01*
X149791185Y-112484726D01*
X149791186Y-112484727D01*
X149884090Y-112658538D01*
X150009117Y-112810883D01*
X150161462Y-112935910D01*
X150335273Y-113028814D01*
X150523868Y-113086024D01*
X150720000Y-113105341D01*
X150916132Y-113086024D01*
X151104727Y-113028814D01*
X151278538Y-112935910D01*
X151430883Y-112810883D01*
X151555910Y-112658538D01*
X151648814Y-112484727D01*
X151706024Y-112296132D01*
X151725341Y-112100000D01*
X151725341Y-112099999D01*
X152254659Y-112099999D01*
X152273976Y-112296133D01*
X152331185Y-112484726D01*
X152331186Y-112484727D01*
X152424090Y-112658538D01*
X152549117Y-112810883D01*
X152701462Y-112935910D01*
X152875273Y-113028814D01*
X153063868Y-113086024D01*
X153260000Y-113105341D01*
X153456132Y-113086024D01*
X153644727Y-113028814D01*
X153818538Y-112935910D01*
X153970883Y-112810883D01*
X154095910Y-112658538D01*
X154188814Y-112484727D01*
X154246024Y-112296132D01*
X154265341Y-112100000D01*
X154265341Y-112099999D01*
X154794659Y-112099999D01*
X154813976Y-112296133D01*
X154871185Y-112484726D01*
X154871186Y-112484727D01*
X154964090Y-112658538D01*
X155089117Y-112810883D01*
X155241462Y-112935910D01*
X155415273Y-113028814D01*
X155603868Y-113086024D01*
X155800000Y-113105341D01*
X155996132Y-113086024D01*
X156184727Y-113028814D01*
X156358538Y-112935910D01*
X156510883Y-112810883D01*
X156635910Y-112658538D01*
X156728814Y-112484727D01*
X156786024Y-112296132D01*
X156805341Y-112100000D01*
X156786024Y-111903868D01*
X156728814Y-111715273D01*
X156635910Y-111541462D01*
X156510883Y-111389117D01*
X156358538Y-111264090D01*
X156309493Y-111237875D01*
X156184726Y-111171185D01*
X155996133Y-111113976D01*
X155800000Y-111094659D01*
X155603866Y-111113976D01*
X155415273Y-111171185D01*
X155241463Y-111264089D01*
X155089117Y-111389117D01*
X154964089Y-111541463D01*
X154871185Y-111715273D01*
X154813976Y-111903866D01*
X154794659Y-112099999D01*
X154265341Y-112099999D01*
X154246024Y-111903868D01*
X154188814Y-111715273D01*
X154095910Y-111541462D01*
X153970883Y-111389117D01*
X153818538Y-111264090D01*
X153769493Y-111237875D01*
X153644726Y-111171185D01*
X153456133Y-111113976D01*
X153260000Y-111094659D01*
X153063866Y-111113976D01*
X152875273Y-111171185D01*
X152701463Y-111264089D01*
X152549117Y-111389117D01*
X152424089Y-111541463D01*
X152331185Y-111715273D01*
X152273976Y-111903866D01*
X152254659Y-112099999D01*
X151725341Y-112099999D01*
X151706024Y-111903868D01*
X151648814Y-111715273D01*
X151555910Y-111541462D01*
X151448647Y-111410762D01*
X151421334Y-111346452D01*
X151420500Y-111332097D01*
X151420500Y-111221519D01*
X151440185Y-111154480D01*
X151456819Y-111133838D01*
X151990657Y-110600000D01*
X158994659Y-110600000D01*
X159013976Y-110796133D01*
X159071185Y-110984726D01*
X159129946Y-111094659D01*
X159164090Y-111158538D01*
X159289117Y-111310883D01*
X159441462Y-111435910D01*
X159615273Y-111528814D01*
X159803868Y-111586024D01*
X160000000Y-111605341D01*
X160196132Y-111586024D01*
X160384727Y-111528814D01*
X160558538Y-111435910D01*
X160710883Y-111310883D01*
X160835910Y-111158538D01*
X160928814Y-110984727D01*
X160986024Y-110796132D01*
X161005341Y-110600000D01*
X160986024Y-110403868D01*
X160928814Y-110215273D01*
X160835910Y-110041462D01*
X160710883Y-109889117D01*
X160558538Y-109764090D01*
X160536091Y-109752092D01*
X160384726Y-109671185D01*
X160196133Y-109613976D01*
X160000000Y-109594659D01*
X159803866Y-109613976D01*
X159615273Y-109671185D01*
X159441463Y-109764089D01*
X159289117Y-109889117D01*
X159164089Y-110041463D01*
X159071185Y-110215273D01*
X159013976Y-110403866D01*
X158994659Y-110600000D01*
X151990657Y-110600000D01*
X153953838Y-108636819D01*
X154015161Y-108603334D01*
X154041519Y-108600500D01*
X160958481Y-108600500D01*
X161025520Y-108620185D01*
X161046162Y-108636819D01*
X162515566Y-110106223D01*
X162549051Y-110167546D01*
X162551461Y-110183664D01*
X162564379Y-110339558D01*
X162564379Y-110339561D01*
X162564380Y-110339563D01*
X162623390Y-110572591D01*
X162719951Y-110792728D01*
X162851429Y-110993969D01*
X163014236Y-111170825D01*
X163014239Y-111170827D01*
X163203927Y-111318468D01*
X163203929Y-111318469D01*
X163203933Y-111318472D01*
X163415344Y-111432882D01*
X163642703Y-111510934D01*
X163879808Y-111550500D01*
X163879809Y-111550500D01*
X164120191Y-111550500D01*
X164120192Y-111550500D01*
X164357297Y-111510934D01*
X164584656Y-111432882D01*
X164796067Y-111318472D01*
X164985764Y-111170825D01*
X165148571Y-110993969D01*
X165280049Y-110792728D01*
X165376610Y-110572591D01*
X165435620Y-110339563D01*
X165455471Y-110100000D01*
X165435620Y-109860437D01*
X165376610Y-109627409D01*
X165280049Y-109407272D01*
X165148571Y-109206031D01*
X164985764Y-109029175D01*
X164964370Y-109012523D01*
X164796072Y-108881531D01*
X164796068Y-108881528D01*
X164796067Y-108881528D01*
X164584656Y-108767118D01*
X164584655Y-108767117D01*
X164584652Y-108767116D01*
X164357299Y-108689066D01*
X164199226Y-108662688D01*
X164120192Y-108649500D01*
X163879808Y-108649500D01*
X163820531Y-108659391D01*
X163642700Y-108689066D01*
X163415341Y-108767118D01*
X163329534Y-108813554D01*
X163261206Y-108828149D01*
X163195834Y-108803485D01*
X163182837Y-108792180D01*
X161812940Y-107422283D01*
X161807822Y-107416847D01*
X161767929Y-107371817D01*
X161718432Y-107337651D01*
X161712405Y-107333216D01*
X161665054Y-107296120D01*
X161655813Y-107291961D01*
X161636273Y-107280941D01*
X161627930Y-107275182D01*
X161627927Y-107275181D01*
X161627926Y-107275180D01*
X161571701Y-107253856D01*
X161564783Y-107250991D01*
X161509929Y-107226303D01*
X161499952Y-107224475D01*
X161478339Y-107218450D01*
X161468873Y-107214860D01*
X161409172Y-107207610D01*
X161401771Y-107206483D01*
X161342607Y-107195641D01*
X161282566Y-107199274D01*
X161275079Y-107199500D01*
X154084500Y-107199500D01*
X154017461Y-107179815D01*
X153971706Y-107127011D01*
X153960500Y-107075500D01*
X153960500Y-105247902D01*
X153980185Y-105180863D01*
X153988642Y-105169242D01*
X154095910Y-105038538D01*
X154188814Y-104864727D01*
X154246024Y-104676132D01*
X154252597Y-104609393D01*
X154278758Y-104544607D01*
X154335792Y-104504248D01*
X154405592Y-104501131D01*
X154465997Y-104536245D01*
X154497828Y-104598443D01*
X154500000Y-104621548D01*
X154500000Y-105324518D01*
X154500354Y-105331132D01*
X154506400Y-105387371D01*
X154556647Y-105522089D01*
X154642811Y-105637188D01*
X154757910Y-105723352D01*
X154892628Y-105773599D01*
X154948867Y-105779645D01*
X154955482Y-105780000D01*
X155550000Y-105780000D01*
X155550000Y-104795686D01*
X155561955Y-104807641D01*
X155674852Y-104865165D01*
X155768519Y-104880000D01*
X155831481Y-104880000D01*
X155925148Y-104865165D01*
X156038045Y-104807641D01*
X156050000Y-104795686D01*
X156050000Y-105780000D01*
X156644518Y-105780000D01*
X156651132Y-105779645D01*
X156707371Y-105773599D01*
X156842089Y-105723352D01*
X156957188Y-105637188D01*
X156985027Y-105600000D01*
X158695033Y-105600000D01*
X158714858Y-105826602D01*
X158773733Y-106046326D01*
X158869866Y-106252484D01*
X158920972Y-106325471D01*
X158920973Y-106325472D01*
X159602045Y-105644399D01*
X159614835Y-105725148D01*
X159672359Y-105838045D01*
X159761955Y-105927641D01*
X159874852Y-105985165D01*
X159955599Y-105997953D01*
X159274526Y-106679025D01*
X159274526Y-106679026D01*
X159347515Y-106730133D01*
X159553673Y-106826266D01*
X159773397Y-106885141D01*
X160000000Y-106904966D01*
X160226602Y-106885141D01*
X160446326Y-106826266D01*
X160652480Y-106730134D01*
X160725472Y-106679025D01*
X160044401Y-105997953D01*
X160125148Y-105985165D01*
X160238045Y-105927641D01*
X160327641Y-105838045D01*
X160385165Y-105725148D01*
X160397953Y-105644400D01*
X161079025Y-106325472D01*
X161130134Y-106252480D01*
X161226266Y-106046326D01*
X161285141Y-105826602D01*
X161304966Y-105600000D01*
X161285141Y-105373397D01*
X161226266Y-105153673D01*
X161130133Y-104947515D01*
X161079025Y-104874526D01*
X160397953Y-105555598D01*
X160385165Y-105474852D01*
X160327641Y-105361955D01*
X160238045Y-105272359D01*
X160125148Y-105214835D01*
X160044400Y-105202046D01*
X160725472Y-104520974D01*
X160725471Y-104520972D01*
X160652484Y-104469866D01*
X160446326Y-104373733D01*
X160226602Y-104314858D01*
X160000000Y-104295033D01*
X159773397Y-104314858D01*
X159553672Y-104373733D01*
X159347516Y-104469865D01*
X159274527Y-104520973D01*
X159274526Y-104520973D01*
X159955600Y-105202046D01*
X159874852Y-105214835D01*
X159761955Y-105272359D01*
X159672359Y-105361955D01*
X159614835Y-105474852D01*
X159602046Y-105555598D01*
X158920973Y-104874527D01*
X158869865Y-104947516D01*
X158773733Y-105153672D01*
X158714858Y-105373397D01*
X158695033Y-105600000D01*
X156985027Y-105600000D01*
X157043352Y-105522089D01*
X157093599Y-105387371D01*
X157099645Y-105331132D01*
X157100000Y-105324518D01*
X157100000Y-104730000D01*
X156115686Y-104730000D01*
X156127641Y-104718045D01*
X156185165Y-104605148D01*
X156204986Y-104480000D01*
X156185165Y-104354852D01*
X156127641Y-104241955D01*
X156115686Y-104230000D01*
X157100000Y-104230000D01*
X157100000Y-103635481D01*
X157099645Y-103628867D01*
X157093599Y-103572628D01*
X157043352Y-103437910D01*
X156957188Y-103322811D01*
X156842089Y-103236647D01*
X156707371Y-103186400D01*
X156651132Y-103180354D01*
X156644518Y-103180000D01*
X156050000Y-103180000D01*
X156050000Y-104164314D01*
X156038045Y-104152359D01*
X155925148Y-104094835D01*
X155831481Y-104080000D01*
X155768519Y-104080000D01*
X155674852Y-104094835D01*
X155561955Y-104152359D01*
X155550000Y-104164314D01*
X155550000Y-103180000D01*
X154955482Y-103180000D01*
X154948867Y-103180354D01*
X154892628Y-103186400D01*
X154757910Y-103236647D01*
X154642811Y-103322811D01*
X154556647Y-103437910D01*
X154506400Y-103572628D01*
X154500354Y-103628867D01*
X154500000Y-103635481D01*
X154500000Y-104338451D01*
X154480315Y-104405490D01*
X154427511Y-104451245D01*
X154358353Y-104461189D01*
X154294797Y-104432164D01*
X154257023Y-104373386D01*
X154252597Y-104350605D01*
X154249076Y-104314858D01*
X154246024Y-104283868D01*
X154188814Y-104095273D01*
X154095910Y-103921462D01*
X153988647Y-103790762D01*
X153961334Y-103726452D01*
X153960500Y-103712097D01*
X153960500Y-102085000D01*
X162669364Y-102085000D01*
X162726569Y-102298492D01*
X162826399Y-102512576D01*
X162961893Y-102706081D01*
X163128918Y-102873106D01*
X163322423Y-103008600D01*
X163492947Y-103088118D01*
X163545386Y-103134291D01*
X163564538Y-103201484D01*
X163544322Y-103268365D01*
X163491157Y-103313700D01*
X163440542Y-103324500D01*
X163130251Y-103324500D01*
X163071769Y-103336132D01*
X163005447Y-103380447D01*
X162961132Y-103446769D01*
X162949500Y-103505251D01*
X162949500Y-105244748D01*
X162961132Y-105303230D01*
X163005447Y-105369552D01*
X163071769Y-105413867D01*
X163130251Y-105425500D01*
X163130252Y-105425500D01*
X164869749Y-105425500D01*
X164898989Y-105419683D01*
X164928231Y-105413867D01*
X164994552Y-105369552D01*
X165038867Y-105303231D01*
X165050500Y-105244748D01*
X165050500Y-103505252D01*
X165038867Y-103446769D01*
X165032948Y-103437910D01*
X164994552Y-103380447D01*
X164928230Y-103336132D01*
X164869749Y-103324500D01*
X164869748Y-103324500D01*
X164559458Y-103324500D01*
X164492419Y-103304815D01*
X164446664Y-103252011D01*
X164436720Y-103182853D01*
X164465745Y-103119297D01*
X164507053Y-103088118D01*
X164677576Y-103008600D01*
X164871081Y-102873106D01*
X165038106Y-102706081D01*
X165173600Y-102512576D01*
X165273430Y-102298492D01*
X165330636Y-102085000D01*
X164433686Y-102085000D01*
X164459493Y-102044844D01*
X164500000Y-101906889D01*
X164500000Y-101763111D01*
X164459493Y-101625156D01*
X164433686Y-101585000D01*
X165330636Y-101585000D01*
X165330635Y-101584999D01*
X165273430Y-101371507D01*
X165173599Y-101157421D01*
X165038109Y-100963921D01*
X164871081Y-100796893D01*
X164677576Y-100661399D01*
X164463492Y-100561569D01*
X164250000Y-100504364D01*
X164250000Y-101399498D01*
X164142315Y-101350320D01*
X164035763Y-101335000D01*
X163964237Y-101335000D01*
X163857685Y-101350320D01*
X163749999Y-101399498D01*
X163749999Y-100504364D01*
X163536507Y-100561569D01*
X163322421Y-100661400D01*
X163128921Y-100796890D01*
X162961890Y-100963921D01*
X162826400Y-101157421D01*
X162726569Y-101371507D01*
X162669364Y-101584999D01*
X162669364Y-101585000D01*
X163566314Y-101585000D01*
X163540507Y-101625156D01*
X163500000Y-101763111D01*
X163500000Y-101906889D01*
X163540507Y-102044844D01*
X163566314Y-102085000D01*
X162669364Y-102085000D01*
X153960500Y-102085000D01*
X153960500Y-100962634D01*
X153980185Y-100895595D01*
X154026047Y-100853276D01*
X154058538Y-100835910D01*
X154210883Y-100710883D01*
X154335910Y-100558538D01*
X154428814Y-100384727D01*
X154486024Y-100196132D01*
X154505341Y-100000000D01*
X154505341Y-99999999D01*
X157195033Y-99999999D01*
X157214858Y-100226602D01*
X157273733Y-100446326D01*
X157369866Y-100652484D01*
X157420972Y-100725471D01*
X157420973Y-100725472D01*
X158102045Y-100044399D01*
X158114835Y-100125148D01*
X158172359Y-100238045D01*
X158261955Y-100327641D01*
X158374852Y-100385165D01*
X158455599Y-100397953D01*
X157774526Y-101079025D01*
X157774526Y-101079026D01*
X157847515Y-101130133D01*
X158053673Y-101226266D01*
X158273397Y-101285141D01*
X158500000Y-101304966D01*
X158726602Y-101285141D01*
X158946326Y-101226266D01*
X159152480Y-101130134D01*
X159225472Y-101079025D01*
X158544401Y-100397953D01*
X158625148Y-100385165D01*
X158738045Y-100327641D01*
X158827641Y-100238045D01*
X158885165Y-100125148D01*
X158897953Y-100044400D01*
X159579025Y-100725472D01*
X159630134Y-100652480D01*
X159726266Y-100446326D01*
X159785141Y-100226602D01*
X159804966Y-100000000D01*
X159785141Y-99773397D01*
X159726266Y-99553673D01*
X159630133Y-99347515D01*
X159579025Y-99274526D01*
X158897953Y-99955598D01*
X158885165Y-99874852D01*
X158827641Y-99761955D01*
X158738045Y-99672359D01*
X158625148Y-99614835D01*
X158544400Y-99602046D01*
X159225472Y-98920974D01*
X159225471Y-98920972D01*
X159152484Y-98869866D01*
X158946326Y-98773733D01*
X158726602Y-98714858D01*
X158500000Y-98695033D01*
X158273397Y-98714858D01*
X158053672Y-98773733D01*
X157847516Y-98869865D01*
X157774527Y-98920973D01*
X157774526Y-98920973D01*
X158455600Y-99602046D01*
X158374852Y-99614835D01*
X158261955Y-99672359D01*
X158172359Y-99761955D01*
X158114835Y-99874852D01*
X158102046Y-99955598D01*
X157420973Y-99274527D01*
X157369865Y-99347516D01*
X157273733Y-99553672D01*
X157214858Y-99773397D01*
X157195033Y-99999999D01*
X154505341Y-99999999D01*
X154486024Y-99803868D01*
X154428814Y-99615273D01*
X154335910Y-99441462D01*
X154210883Y-99289117D01*
X154058538Y-99164090D01*
X154036091Y-99152092D01*
X153884726Y-99071185D01*
X153696133Y-99013976D01*
X153500000Y-98994659D01*
X153303866Y-99013976D01*
X153115273Y-99071185D01*
X152941463Y-99164089D01*
X152789117Y-99289117D01*
X152664089Y-99441463D01*
X152571185Y-99615273D01*
X152513976Y-99803866D01*
X152494659Y-100000000D01*
X152513975Y-100196130D01*
X152554161Y-100328603D01*
X152559500Y-100364598D01*
X152559500Y-103712097D01*
X152539815Y-103779136D01*
X152531353Y-103790762D01*
X152424089Y-103921462D01*
X152331185Y-104095273D01*
X152273976Y-104283866D01*
X152254659Y-104480000D01*
X152273976Y-104676133D01*
X152331185Y-104864726D01*
X152412091Y-105016091D01*
X152424090Y-105038538D01*
X152531353Y-105169238D01*
X152558666Y-105233547D01*
X152559500Y-105247902D01*
X152559500Y-107435079D01*
X152559274Y-107442566D01*
X152555641Y-107502607D01*
X152566483Y-107561771D01*
X152567610Y-107569172D01*
X152574860Y-107628873D01*
X152578450Y-107638339D01*
X152584475Y-107659952D01*
X152586303Y-107669929D01*
X152610991Y-107724783D01*
X152613856Y-107731701D01*
X152635180Y-107787926D01*
X152635182Y-107787930D01*
X152640941Y-107796273D01*
X152651963Y-107815816D01*
X152660773Y-107835391D01*
X152670336Y-107904603D01*
X152640963Y-107967998D01*
X152635378Y-107973963D01*
X150242290Y-110367051D01*
X150236838Y-110372183D01*
X150191816Y-110412070D01*
X150157649Y-110461568D01*
X150153213Y-110467597D01*
X150116121Y-110514942D01*
X150111961Y-110524186D01*
X150100941Y-110543725D01*
X150095182Y-110552069D01*
X150073853Y-110608305D01*
X150070989Y-110615219D01*
X150046303Y-110670070D01*
X150044475Y-110680047D01*
X150038454Y-110701648D01*
X150034859Y-110711128D01*
X150027609Y-110770827D01*
X150026483Y-110778226D01*
X150015641Y-110837390D01*
X150019274Y-110897433D01*
X150019500Y-110904920D01*
X150019500Y-111332097D01*
X149999815Y-111399136D01*
X149991353Y-111410762D01*
X149884089Y-111541462D01*
X149791185Y-111715273D01*
X149733976Y-111903866D01*
X149714659Y-112099999D01*
X149185341Y-112099999D01*
X149166024Y-111903868D01*
X149108814Y-111715273D01*
X149015910Y-111541462D01*
X148890883Y-111389117D01*
X148738538Y-111264090D01*
X148689493Y-111237875D01*
X148564726Y-111171185D01*
X148376133Y-111113976D01*
X148278066Y-111104317D01*
X148180000Y-111094659D01*
X148179999Y-111094659D01*
X147983866Y-111113976D01*
X147795273Y-111171185D01*
X147621463Y-111264089D01*
X147469117Y-111389117D01*
X147344089Y-111541463D01*
X147251185Y-111715273D01*
X147193976Y-111903866D01*
X147174659Y-112099999D01*
X144196377Y-112099999D01*
X144185115Y-111978464D01*
X144149575Y-111853553D01*
X144124230Y-111764473D01*
X144025058Y-111565311D01*
X143890980Y-111387762D01*
X143726562Y-111237875D01*
X143537404Y-111120754D01*
X143419423Y-111075048D01*
X143329940Y-111040382D01*
X143111243Y-110999500D01*
X142888757Y-110999500D01*
X142670059Y-111040381D01*
X142670060Y-111040382D01*
X142462595Y-111120754D01*
X142273437Y-111237875D01*
X142109019Y-111387762D01*
X141974941Y-111565311D01*
X141875769Y-111764473D01*
X141814885Y-111978462D01*
X141794357Y-112200000D01*
X128330910Y-112200000D01*
X128423586Y-111988721D01*
X128484613Y-111747732D01*
X128505141Y-111499999D01*
X128484613Y-111252267D01*
X128423586Y-111011278D01*
X128323730Y-110783630D01*
X128223434Y-110630116D01*
X127483076Y-111370475D01*
X127459493Y-111290156D01*
X127381761Y-111169202D01*
X127273100Y-111075048D01*
X127142315Y-111015320D01*
X127132532Y-111013913D01*
X127870056Y-110276389D01*
X127870056Y-110276387D01*
X127823235Y-110239947D01*
X127604606Y-110121631D01*
X127369493Y-110040916D01*
X127124293Y-110000000D01*
X126875707Y-110000000D01*
X126630506Y-110040916D01*
X126395393Y-110121631D01*
X126176764Y-110239946D01*
X126129942Y-110276388D01*
X126129942Y-110276390D01*
X126867464Y-111013913D01*
X126857685Y-111015320D01*
X126726900Y-111075048D01*
X126618239Y-111169202D01*
X126540507Y-111290156D01*
X126516923Y-111370474D01*
X125776564Y-110630117D01*
X125676266Y-110783634D01*
X125576413Y-111011278D01*
X125515386Y-111252267D01*
X125494858Y-111499999D01*
X84400500Y-111499999D01*
X84400500Y-104480000D01*
X147174659Y-104480000D01*
X147193976Y-104676133D01*
X147251185Y-104864726D01*
X147332091Y-105016091D01*
X147344090Y-105038538D01*
X147469117Y-105190883D01*
X147621462Y-105315910D01*
X147795273Y-105408814D01*
X147983868Y-105466024D01*
X148180000Y-105485341D01*
X148376132Y-105466024D01*
X148564727Y-105408814D01*
X148738538Y-105315910D01*
X148890883Y-105190883D01*
X149015910Y-105038538D01*
X149108814Y-104864727D01*
X149166024Y-104676132D01*
X149185341Y-104480000D01*
X149714659Y-104480000D01*
X149733976Y-104676133D01*
X149791185Y-104864726D01*
X149872091Y-105016091D01*
X149884090Y-105038538D01*
X150009117Y-105190883D01*
X150161462Y-105315910D01*
X150335273Y-105408814D01*
X150523868Y-105466024D01*
X150720000Y-105485341D01*
X150916132Y-105466024D01*
X151104727Y-105408814D01*
X151278538Y-105315910D01*
X151430883Y-105190883D01*
X151555910Y-105038538D01*
X151648814Y-104864727D01*
X151706024Y-104676132D01*
X151725341Y-104480000D01*
X151706024Y-104283868D01*
X151648814Y-104095273D01*
X151555910Y-103921462D01*
X151430883Y-103769117D01*
X151278538Y-103644090D01*
X151250058Y-103628867D01*
X151104726Y-103551185D01*
X150916133Y-103493976D01*
X150720000Y-103474659D01*
X150523866Y-103493976D01*
X150335273Y-103551185D01*
X150161463Y-103644089D01*
X150009117Y-103769117D01*
X149884089Y-103921463D01*
X149791185Y-104095273D01*
X149733976Y-104283866D01*
X149714659Y-104480000D01*
X149185341Y-104480000D01*
X149166024Y-104283868D01*
X149108814Y-104095273D01*
X149015910Y-103921462D01*
X148890883Y-103769117D01*
X148738538Y-103644090D01*
X148710058Y-103628867D01*
X148564726Y-103551185D01*
X148376133Y-103493976D01*
X148180000Y-103474659D01*
X147983866Y-103493976D01*
X147795273Y-103551185D01*
X147621463Y-103644089D01*
X147469117Y-103769117D01*
X147344089Y-103921463D01*
X147251185Y-104095273D01*
X147193976Y-104283866D01*
X147174659Y-104480000D01*
X84400500Y-104480000D01*
X84400500Y-102519748D01*
X125799500Y-102519748D01*
X125811132Y-102578230D01*
X125855447Y-102644552D01*
X125921769Y-102688867D01*
X125980251Y-102700500D01*
X125980252Y-102700500D01*
X128019749Y-102700500D01*
X128048989Y-102694683D01*
X128078231Y-102688867D01*
X128144552Y-102644552D01*
X128188867Y-102578231D01*
X128200500Y-102519748D01*
X128200500Y-102040000D01*
X141794357Y-102040000D01*
X141814885Y-102261537D01*
X141875769Y-102475526D01*
X141974941Y-102674688D01*
X142109019Y-102852237D01*
X142273437Y-103002124D01*
X142462595Y-103119245D01*
X142462597Y-103119245D01*
X142462599Y-103119247D01*
X142670060Y-103199618D01*
X142888757Y-103240500D01*
X142888759Y-103240500D01*
X143111241Y-103240500D01*
X143111243Y-103240500D01*
X143329940Y-103199618D01*
X143537401Y-103119247D01*
X143726562Y-103002124D01*
X143890981Y-102852236D01*
X144025058Y-102674689D01*
X144124229Y-102475528D01*
X144185115Y-102261536D01*
X144205643Y-102040000D01*
X144185115Y-101818464D01*
X144162227Y-101738021D01*
X144124230Y-101604473D01*
X144025058Y-101405311D01*
X143890980Y-101227762D01*
X143726562Y-101077875D01*
X143537404Y-100960754D01*
X143476174Y-100937033D01*
X143329940Y-100880382D01*
X143111243Y-100839500D01*
X142888757Y-100839500D01*
X142670059Y-100880382D01*
X142670060Y-100880382D01*
X142462595Y-100960754D01*
X142273437Y-101077875D01*
X142109019Y-101227762D01*
X141974941Y-101405311D01*
X141875769Y-101604473D01*
X141814885Y-101818462D01*
X141794357Y-102040000D01*
X128200500Y-102040000D01*
X128200500Y-100480252D01*
X128188867Y-100421769D01*
X128164116Y-100384727D01*
X128144552Y-100355447D01*
X128078230Y-100311132D01*
X128019749Y-100299500D01*
X128019748Y-100299500D01*
X125980252Y-100299500D01*
X125980251Y-100299500D01*
X125921769Y-100311132D01*
X125855447Y-100355447D01*
X125811132Y-100421769D01*
X125799500Y-100480251D01*
X125799500Y-102519748D01*
X84400500Y-102519748D01*
X84400500Y-99003245D01*
X84400670Y-98996755D01*
X84407490Y-98866625D01*
X84407490Y-98866617D01*
X84417628Y-98686089D01*
X84418955Y-98673692D01*
X84442611Y-98524331D01*
X84469739Y-98364669D01*
X84472206Y-98353379D01*
X84512425Y-98203279D01*
X84556353Y-98050803D01*
X84559721Y-98040759D01*
X84615583Y-97895233D01*
X84616692Y-97892452D01*
X84676439Y-97748212D01*
X84680488Y-97739429D01*
X84751569Y-97599925D01*
X84753521Y-97596250D01*
X84828588Y-97460426D01*
X84833065Y-97452962D01*
X84918633Y-97321199D01*
X84921434Y-97317077D01*
X85011010Y-97190832D01*
X85015733Y-97184603D01*
X85114702Y-97062386D01*
X85118532Y-97057885D01*
X85221613Y-96942537D01*
X85226323Y-96937556D01*
X85337556Y-96826323D01*
X85342537Y-96821613D01*
X85457885Y-96718532D01*
X85462386Y-96714702D01*
X85584603Y-96615733D01*
X85590832Y-96611010D01*
X85717077Y-96521434D01*
X85721199Y-96518633D01*
X85852962Y-96433065D01*
X85860426Y-96428588D01*
X85996255Y-96353517D01*
X85999934Y-96351565D01*
X86139429Y-96280488D01*
X86148212Y-96276439D01*
X86292452Y-96216692D01*
X86295233Y-96215583D01*
X86440753Y-96159724D01*
X86450818Y-96156349D01*
X86603292Y-96112422D01*
X86753407Y-96072198D01*
X86764672Y-96069739D01*
X86924337Y-96042610D01*
X87073688Y-96018955D01*
X87086098Y-96017627D01*
X87266566Y-96007493D01*
X87396756Y-96000669D01*
X87403245Y-96000500D01*
X166996755Y-96000500D01*
X167003243Y-96000669D01*
G37*
%TD.AperFunction*%
%TD*%
M02*
