M48
; DRILL file {KiCad 7.0.2} date Fri Jul 28 17:59:43 2023
; FORMAT={-:-/ absolute / inch / decimal}
; #@! TF.CreationDate,2023-07-28T17:59:43+01:00
; #@! TF.GenerationSoftware,Kicad,Pcbnew,7.0.2
; #@! TF.FileFunction,Plated,1,2,PTH
FMAT,2
INCH
; #@! TA.AperFunction,Plated,PTH,ViaDrill
T1C0.0157
; #@! TA.AperFunction,Plated,PTH,ComponentDrill
T2C0.0315
; #@! TA.AperFunction,Plated,PTH,ComponentDrill
T3C0.0394
; #@! TA.AperFunction,Plated,PTH,ComponentDrill
T4C0.0472
%
G90
G05
T1
X3.5433Y-5.315
X3.5433Y-5.5118
X3.5433Y-5.7087
X3.7402Y-5.315
X3.7402Y-5.5118
X3.7402Y-5.7087
X4.0551Y-5.8268
X4.1969Y-5.7992
X4.3307Y-3.937
X4.3307Y-4.1339
X4.4094Y-5.8268
X4.5276Y-3.937
X4.5276Y-4.1339
X4.5906Y-5.7992
X4.8031Y-5.8268
X5.0394Y-5.8268
X5.1732Y-5.7913
X5.378Y-5.7992
X5.5118Y-4.1339
X5.5118Y-4.3307
X5.5118Y-4.5276
X5.5906Y-5.8268
X5.8346Y-4.2992
X5.8504Y-5.7992
X5.9055Y-3.937
X6.0236Y-5.8268
X6.2992Y-5.315
X6.2992Y-5.5118
X6.2992Y-5.7087
X6.4961Y-5.315
X6.4961Y-5.5118
X6.4961Y-5.7087
T2
X3.5236Y-4.5945
X3.5236Y-4.9945
X3.6811Y-4.5945
X3.6811Y-4.9945
X3.8386Y-4.5945
X3.8386Y-4.9945
X3.9961Y-4.5945
X3.9961Y-4.9945
X4.1535Y-4.5945
X4.1535Y-4.9945
X4.311Y-4.5945
X4.311Y-4.9945
X4.4685Y-4.5945
X4.4685Y-4.9945
X4.626Y-4.5945
X4.626Y-4.9945
X4.7835Y-4.5945
X4.7835Y-4.9945
X4.9409Y-4.5945
X4.9409Y-4.9945
X5.0984Y-4.5945
X5.0984Y-4.9945
X5.2559Y-4.5945
X5.2559Y-4.9945
X5.4134Y-4.5945
X5.4134Y-4.9945
X5.5709Y-4.5945
X5.5709Y-4.9945
X5.6299Y-4.0173
X5.6299Y-4.4173
X5.7283Y-4.5945
X5.7283Y-4.9945
X5.8339Y-4.1134
X5.8339Y-4.4134
X5.8858Y-4.5945
X5.8858Y-4.9945
X5.9339Y-4.1134
X5.9339Y-4.4134
X6.0339Y-4.1134
X6.0339Y-4.4134
X6.0433Y-3.937
X6.0433Y-4.5945
X6.0433Y-4.9945
X6.1339Y-4.1134
X6.1339Y-4.4134
X6.2008Y-4.5945
X6.2008Y-4.9945
X6.2402Y-3.937
X6.2992Y-4.1575
X6.2992Y-4.3543
X6.3583Y-4.5945
X6.3583Y-4.9945
X6.5157Y-4.5945
X6.5157Y-4.9945
T3
X5.0Y-3.9961
X5.0Y-4.3898
X6.4567Y-4.0093
X6.4567Y-4.1093
T4
X6.4567Y-4.3346
T0
M30
